<svg height="512" viewBox="0 0 64 64" width="512" xmlns="http://www.w3.org/2000/svg"><g id="_03-Ambulance" data-name="03-Ambulance"><circle cx="10" cy="48" fill="#d6475c" r="2"/><circle cx="54" cy="48" fill="#d6475c" r="2"/><path d="m10 42a6 6 0 1 1 -6 6 6 6 0 0 1 6-6zm2 6a2 2 0 1 0 -2 2 2.006 2.006 0 0 0 2-2z" fill="#484c6b"/><path d="m54 42a6 6 0 1 1 -6 6 6 6 0 0 1 6-6zm2 6a2 2 0 1 0 -2 2 2.006 2.006 0 0 0 2-2z" fill="#484c6b"/><g fill="#d6475c"><path d="m19 10 1 4h-1-7l1-4z"/><path d="m63 42v6h-3a6 6 0 0 0 -6-6z"/><path d="m8 42h2a6 6 0 0 0 -6 6h-3v-6z"/><path d="m23 42h31a6 6 0 0 0 -6 6h-32a6 6 0 0 0 -6-6z"/></g><path d="m8 39v3h-7s0-2.03.18-5h4.82a2.006 2.006 0 0 1 2 2z" fill="#f03049"/><path d="m23 14v28h-15v-3a2.006 2.006 0 0 0 -2-2h-4.82a88.855 88.855 0 0 1 .94-9h14.88a2.006 2.006 0 0 0 2-2v-12z" fill="#e1e7f7"/><path d="m19 14v12a2.006 2.006 0 0 1 -2 2h-14.88c1.13-7 3.38-14 7.88-14z" fill="#a6c9ff"/><path d="m50 25v6h-4v4h-6v-4h-4v-6h4v-4h6v4z" fill="#d6475c"/><path d="m23 42v-28h38a2.006 2.006 0 0 1 2 2v26zm27-11v-6h-4v-4h-6v4h-4v6h4v4h6v-4z" fill="#f7f7ff"/><path d="m12.5 12-.5 2h7 1l-.5-2z" fill="#ad3445"/><path d="m21 14v11a12 12 0 0 1 -12 12h-3a2.006 2.006 0 0 1 2 2v3h15v-28z" fill="#d3d9f2"/><path d="m12 14h-2c-4.469 0-6.718 6.9-7.855 13.855l13.855-13.855z" fill="#d6e6ff"/><path d="m19 14h-3l-13.855 13.855c-.008.048-.017.1-.025.145h8.88l8-8z" fill="#bfd8ff"/><path d="m11 28h6a2.006 2.006 0 0 0 2-2v-6z" fill="#a6c9ff"/><path d="m41.621 35h-1.621v-.8a23 23 0 0 1 -12-20.2h-5v28h40v-5h-12a22.9 22.9 0 0 1 -9.379-2z" fill="#e1e7f7"/><path d="m10 51a6 6 0 0 1 -5.8-4.5 6 6 0 1 0 11.606 0 6 6 0 0 1 -5.806 4.5z" fill="#373a52"/><path d="m54 51a6 6 0 0 1 -5.8-4.5 6 6 0 1 0 11.606 0 6 6 0 0 1 -5.806 4.5z" fill="#373a52"/><path d="m6 37-5 5h7v-3a2.006 2.006 0 0 0 -2-2z" fill="#ad3445"/><path d="m59.189 45a5.954 5.954 0 0 1 .811 3h3v-3z" fill="#ad3445"/><path d="m1 48h3a5.954 5.954 0 0 1 .811-3h-3.811z" fill="#ad3445"/><path d="m44 45h-24a2 2 0 0 1 -2-2v-1h-8a6 6 0 0 1 6 6h32a6 6 0 0 1 6-6h-8v1a2 2 0 0 1 -2 2z" fill="#ad3445"/><rect fill="#d6475c" height="2" rx="1" width="4" x="16" y="31"/><path d="m19 33h-2a.986.986 0 0 1 -.847-.5.977.977 0 0 0 -.153.5 1 1 0 0 0 1 1h2a1 1 0 0 0 1-1 .977.977 0 0 0 -.153-.5.986.986 0 0 1 -.847.5z" fill="#848ab8"/><path d="m6.085 19.6c-.164.675-.142 1.321.526 1.386a5.762 5.762 0 0 0 2.194-.365c1.366-.413 4.186-2.086 2.84-4.446a2 2 0 0 0 -3.036-.739 8.115 8.115 0 0 0 -2.051 2.864 7.987 7.987 0 0 0 -.473 1.3z" fill="#f7f7ff"/><path d="m5.139 23.825a1.923 1.923 0 0 0 .01 1.459 1.429 1.429 0 0 0 1.474.7 2.766 2.766 0 0 0 1.492-.843 2.812 2.812 0 0 0 .853-1.413 1.438 1.438 0 0 0 -.535-1.49 1.542 1.542 0 0 0 -.592-.19 2.344 2.344 0 0 0 -1.666.229 3.308 3.308 0 0 0 -1.036 1.548z" fill="#f7f7ff"/><path d="m50 24h-3v-3a1 1 0 0 0 -1-1h-6a1 1 0 0 0 -1 1v3h-3a1 1 0 0 0 -1 1v6a1 1 0 0 0 1 1h3v3a1 1 0 0 0 1 1h6a1 1 0 0 0 1-1v-3h3a1 1 0 0 0 1-1v-6a1 1 0 0 0 -1-1zm0 7h-4v4h-6v-4h-4v-6h4v-4h6v4h4z" fill="#ad3445"/><path d="m54 45a3 3 0 1 0 3 3 3 3 0 0 0 -3-3zm0 5a2 2 0 1 1 2-2 2.006 2.006 0 0 1 -2 2z" fill="#ad3445"/><path d="m10 45a3 3 0 1 0 3 3 3 3 0 0 0 -3-3zm0 5a2 2 0 1 1 2-2 2.006 2.006 0 0 1 -2 2z" fill="#ad3445"/></g></svg>