<svg height="512" viewBox="0 0 64 64" width="512" xmlns="http://www.w3.org/2000/svg"><g id="_04-Medical_History" data-name="04-Medical History"><path d="m30 5a2.006 2.006 0 0 1 -2 2h-4l6-6z" fill="#e1e7f7"/><path d="m28 11h28v8h-28z" fill="#d6475c"/><path d="m60 5v42a4 4 0 0 1 -4 4h-4v-24a4 4 0 0 0 -4-4h-24v-16h4a2.006 2.006 0 0 0 2-2v-4h26a4 4 0 0 1 4 4zm-4 14v-8h-28v8z" fill="#e1e7f7"/><path d="m4 23a4 4 0 0 1 4-4h8a4 4 0 0 1 4 4z" fill="#d3d9f2"/><path d="m24 17v6h-4a4 4 0 0 0 -4-4h-8v-2a4 4 0 0 1 4-4h8a4 4 0 0 1 4 4z" fill="#777ead"/><path d="m4 59h48a4 4 0 0 1 -4 4h-40a4 4 0 0 1 -4-4z" fill="#ad3445"/><path d="m35 38v6h-4v4h-6v-4h-4v-6h4v-4h6v4z" fill="#d6475c"/><path d="m52 51v8h-48v-36h44a4 4 0 0 1 4 4zm-17-7v-6h-4v-4h-6v4h-4v6h4v4h6v-4z" fill="#f7f7ff"/><rect fill="#d6475c" height="2" rx="1" width="8" x="48" y="4"/><rect fill="#d6475c" height="2" rx="1" width="4" x="42" y="4"/><path d="m20 13h-.09a6 6 0 0 1 -5.91 5h-6v1h8a4 4 0 0 1 4 4h4v-6a4 4 0 0 0 -4-4z" fill="#484c6b"/><path d="m30 13.594v-2.594h-2v8h7.406a5.406 5.406 0 0 1 -5.406-5.406z" fill="#ad3445"/><path d="m55 37v-12.594a5.406 5.406 0 0 0 -5.406-5.406h-21.594v-8h2v-3a2 2 0 0 0 2-2v-5h-2v4a2.006 2.006 0 0 1 -2 2h-4v16h24a4 4 0 0 1 4 4v24h4a4 4 0 0 0 4-4v-3.294a7 7 0 0 1 -5-6.706z" fill="#b8bce0"/><path d="m10 32.545v-9.545h-6v36h48v-1h-17.415c-13.578 0-24.585-11.4-24.585-25.455z" fill="#b8bce0"/><path d="m35 37h-3v-3a1 1 0 0 0 -1-1h-6a1 1 0 0 0 -1 1v3h-3a1 1 0 0 0 -1 1v6a1 1 0 0 0 1 1h3v3a1 1 0 0 0 1 1h6a1 1 0 0 0 1-1v-3h3a1 1 0 0 0 1-1v-6a1 1 0 0 0 -1-1zm0 7h-4v4h-6v-4h-4v-6h4v-4h6v4h4z" fill="#ad3445"/><path d="m13 22a3 3 0 0 1 -3-3h-2a4 4 0 0 0 -4 4h16a3.977 3.977 0 0 0 -.141-1z" fill="#b8bce0"/></g></svg>