<svg height="512" viewBox="0 0 64 64" width="512" xmlns="http://www.w3.org/2000/svg"><g id="_06-Medical_History" data-name="06-Medical History"><path d="m45 53h6l-6 6z" fill="#d3d9f2"/><path d="m55 11v50a2.006 2.006 0 0 1 -2 2h-42a2.006 2.006 0 0 1 -2-2v-50a2.006 2.006 0 0 1 2-2h12v4h-10v46h32l6-6v-40h-10v-4h12a2.006 2.006 0 0 1 2 2z" fill="#999dc2"/><path d="m41 9v4h-18v-6h5v-2a4 4 0 0 1 8 0v2h5z" fill="#5369f5"/><path d="m17 36h30v8h-30z" fill="#5369f5"/><path d="m39 22v6h-4v4h-6v-4h-4v-6h4v-4h6v4z" fill="#d6475c"/><path d="m41 13h-28v46h32v-6h6v-40zm-16 9h4v-4h6v4h4v6h-4v4h-6v-4h-4zm-8 14h30v8h-30z" fill="#f7f7ff"/><rect fill="#60658f" height="2" rx="1" width="28" x="20" y="47"/><rect fill="#60658f" height="2" rx="1" width="26" x="16" y="51"/><rect fill="#373a52" height="2" rx="1" width="3" x="16" y="47"/><path d="m23 7h5v2h-5z" fill="#8cb0ff"/><path d="m32 3a4 4 0 0 1 4 4v-2a4 4 0 0 0 -8 0v2a4 4 0 0 1 4-4z" fill="#8cb0ff"/><path d="m36 7h5v2h-5z" fill="#8cb0ff"/><path d="m23 11h18v2h-18z" fill="#2e3f99"/><path d="m21 9v3h-9v49h34l6-6v-43h-9v-3h-2v4h10v40l-6 6h-32v-46h10v-4z" fill="#60658f"/><path d="m53 9h-10v1h10a1 1 0 0 1 1 1v50a1 1 0 0 1 -1 1h-42a1 1 0 0 1 -1-1v-50a1 1 0 0 1 1-1h10v-1h-10a2 2 0 0 0 -2 2v50a2 2 0 0 0 2 2h42a2 2 0 0 0 2-2v-50a2 2 0 0 0 -2-2z" fill="#b8bce0"/><path d="m39 21h-3v-3a1 1 0 0 0 -1-1h-6a1 1 0 0 0 -1 1v3h-3a1 1 0 0 0 -1 1v6a1 1 0 0 0 1 1h3v3a1 1 0 0 0 1 1h6a1 1 0 0 0 1-1v-3h3a1 1 0 0 0 1-1v-6a1 1 0 0 0 -1-1zm0 7h-4v4h-6v-4h-4v-6h4v-4h6v4h4z" fill="#ad3445"/><path d="m17 44h9.584a30.049 30.049 0 0 1 -5.628-8h-3.956z" fill="#2e3f99"/><path d="m41 53h-24a1 1 0 0 1 0-2h20.229a29.864 29.864 0 0 1 -4.188-2h-12.041a1 1 0 0 1 0-2h9a29.985 29.985 0 0 1 -3.416-3h-9.584v-8h3.956a29.869 29.869 0 0 1 -2.956-13v-10h-5v46h32v-6h3a30.112 30.112 0 0 1 -6.077-.617 1 1 0 0 1 -.923.617zm-24-6h1a1 1 0 0 1 0 2h-1a1 1 0 0 1 0-2z" fill="#e1e7f7"/><g fill="#373a52"><path d="m20 48a1 1 0 0 0 1 1h12.041a29.852 29.852 0 0 1 -3.041-2h-9a1 1 0 0 0 -1 1z"/><path d="m16 52a1 1 0 0 0 1 1h24a1 1 0 0 0 .923-.617 29.744 29.744 0 0 1 -4.694-1.383h-20.229a1 1 0 0 0 -1 1z"/><path d="m17 49h1a1 1 0 0 0 0-2h-1a1 1 0 0 0 0 2z"/></g><path d="m34 42.5a.5.5 0 0 1 -.447-.276l-1.69-3.38-1.509 1.51a.5.5 0 0 1 -.354.146h-4a.5.5 0 0 1 0-1h3.793l1.853-1.854a.5.5 0 0 1 .8.13l1.554 3.106.553-1.106a.5.5 0 0 1 .447-.276h3a.5.5 0 0 1 0 1h-2.691l-.862 1.724a.5.5 0 0 1 -.447.276z" fill="#f7f7ff"/></g></svg>