<svg height="512" viewBox="0 0 64 64" width="512" xmlns="http://www.w3.org/2000/svg"><g id="_09-Emergency_Call" data-name="09-Emergency Call"><path d="m35 56a2.006 2.006 0 0 1 2 2 2.015 2.015 0 0 1 -2 2h-6a2.006 2.006 0 0 1 -2-2 2.015 2.015 0 0 1 2-2z" fill="#f7f7ff"/><path d="m35 53h-24v6a4 4 0 0 0 4 4h34a4 4 0 0 0 4-4v-6zm1.41 6.41a1.955 1.955 0 0 1 -1.41.59h-6a2.006 2.006 0 0 1 -2-2 2.015 2.015 0 0 1 2-2h6a2.006 2.006 0 0 1 2 2 1.955 1.955 0 0 1 -.59 1.41z" fill="#484c6b"/><path d="m25 1h14l-.54 1.63a2.009 2.009 0 0 1 -1.9 1.37h-9.12a2.009 2.009 0 0 1 -1.9-1.37z" fill="#60658f"/><path d="m39 28v6h-4v4h-6v-4h-4v-6h4v-4h6v4z" fill="#d6475c"/><path d="m48 31a16 16 0 1 1 -16-16 16 16 0 0 1 16 16zm-9 3v-6h-4v-4h-6v4h-4v6h4v4h6v-4z" fill="#f7f7ff"/><path d="m53 5v48h-42v-48a4 4 0 0 1 4-4h10l.54 1.63a2.009 2.009 0 0 0 1.9 1.37h9.12a2.009 2.009 0 0 0 1.9-1.37l.54-1.63h10a4 4 0 0 1 4 4zm-21 42a16 16 0 1 0 -16-16 16 16 0 0 0 16 16z" fill="#d6475c"/><path d="m39 48a21.975 21.975 0 0 1 -6.63-1.019c-.124 0-.245.019-.37.019a15.965 15.965 0 0 1 -15-21.527v-24.473h-2a4 4 0 0 0 -4 4v48h42v-5z" fill="#ad3445"/><path d="m49 60h-34a4 4 0 0 1 -4-4v3a4 4 0 0 0 4 4h34a4 4 0 0 0 4-4v-3a4 4 0 0 1 -4 4z" fill="#2c2f42"/><path d="m38.46 1.63a2.009 2.009 0 0 1 -1.9 1.37h-9.12a2.009 2.009 0 0 1 -1.9-1.37l-.209-.63h-.331l.54 1.63a2.009 2.009 0 0 0 1.9 1.37h9.12a2.009 2.009 0 0 0 1.9-1.37l.54-1.63h-.331z" fill="#373a52"/><path d="m36.41 57.41a1.955 1.955 0 0 1 -1.41.59h-6a2 2 0 0 1 -1.721-1 1.963 1.963 0 0 0 -.279 1 2.006 2.006 0 0 0 2 2h6a1.984 1.984 0 0 0 1.721-3 1.938 1.938 0 0 1 -.311.41z" fill="#b8bce0"/><path d="m39 27h-3v-3a1 1 0 0 0 -1-1h-6a1 1 0 0 0 -1 1v3h-3a1 1 0 0 0 -1 1v6a1 1 0 0 0 1 1h3v3a1 1 0 0 0 1 1h6a1 1 0 0 0 1-1v-3h3a1 1 0 0 0 1-1v-6a1 1 0 0 0 -1-1zm0 7h-4v4h-6v-4h-4v-6h4v-4h6v4h4z" fill="#ad3445"/><path d="m49 1h-34a4 4 0 0 0 -4 4v54a4 4 0 0 0 4 4h34a4 4 0 0 0 4-4v-54a4 4 0 0 0 -4-4zm3 58a3 3 0 0 1 -3 3h-34a3 3 0 0 1 -3-3v-54a3 3 0 0 1 3-3h34a3 3 0 0 1 3 3z" fill="#d3d9f2"/><path d="m32 14a17 17 0 1 0 17 17 17 17 0 0 0 -17-17zm0 33a16 16 0 1 1 16-16 16 16 0 0 1 -16 16z" fill="#b8bce0"/><path d="m38.213 6.229a2.351 2.351 0 0 0 -.211 1 2.6 2.6 0 0 0 .839 1.755c.656.6 1.63.691 2.387 1.126a12.016 12.016 0 0 1 2.413 2.062c.554.561 1.052 1.171 1.647 1.7a4.324 4.324 0 0 0 2.112 1.1 1.144 1.144 0 0 0 1.3-.508 7.611 7.611 0 0 0 1.288-4.388 9.47 9.47 0 0 0 -.118-2.25 4.277 4.277 0 0 0 -.763-2.015 2.617 2.617 0 0 0 -1.477-.578 30.99 30.99 0 0 0 -4.714-.233 23.568 23.568 0 0 0 -2.618.1 4.065 4.065 0 0 0 -1.478.4 1.523 1.523 0 0 0 -.607.729z" fill="#f25a6b"/><ellipse cx="45.684" cy="7.695" fill="#f6fafd" rx="1.642" ry="2.286" transform="matrix(.707 -.707 .707 .707 7.949 34.57)"/><ellipse cx="47.682" cy="11.708" fill="#f6fafd" rx=".825" ry="1.148" transform="matrix(.707 -.707 .707 .707 5.696 37.16)"/><g fill="#d6475c"><path d="m57 38a1 1 0 0 1 -.469-1.884c.095-.055 1.469-.916 1.469-4.116 0-3.239-1.411-4.083-1.471-4.118a1.014 1.014 0 0 1 -.4-1.347.988.988 0 0 1 1.316-.43c.263.131 2.555 1.407 2.555 5.895s-2.292 5.764-2.553 5.9a1 1 0 0 1 -.447.1z"/><path d="m58 46a1 1 0 0 1 -.627-1.779c.195-.159 4.627-3.867 4.627-12.221s-4.439-12.068-4.628-12.222a1 1 0 0 1 1.253-1.559c.219.181 5.375 4.408 5.375 13.781s-5.156 13.6-5.375 13.781a1 1 0 0 1 -.625.219z"/><path d="m6.991 38a.985.985 0 0 1 -.438-.1c-.261-.136-2.553-1.412-2.553-5.9s2.292-5.764 2.553-5.895a1 1 0 0 1 .894 1.79c-.036.022-1.447.866-1.447 4.105s1.411 4.083 1.471 4.118a1.014 1.014 0 0 1 .4 1.347 1 1 0 0 1 -.88.535z"/><path d="m6 46a1 1 0 0 1 -.623-.219c-.221-.176-5.377-4.408-5.377-13.781s5.156-13.6 5.375-13.781a1 1 0 1 1 1.25 1.562c-.186.151-4.625 3.858-4.625 12.219s4.439 12.068 4.628 12.222a1 1 0 0 1 -.628 1.778z"/></g></g></svg>