<svg height="512" viewBox="0 0 64 64" width="512" xmlns="http://www.w3.org/2000/svg"><g id="_10-Transfusion" data-name="10-Transfusion"><path d="m34 52h-4-2v-4l.05-.18 3.95 1.18 3.95-1.18.05.18v4z" fill="#a30034"/><path d="m34 52v3a2.015 2.015 0 0 1 -2 2 2.006 2.006 0 0 1 -2-2v-3z" fill="#a8accf"/><path d="m46 13h-28a2.006 2.006 0 0 0 -2 2v22a2.006 2.006 0 0 0 2 2h28a2.006 2.006 0 0 0 2-2v-22a2.006 2.006 0 0 0 -2-2z" fill="#f7f7ff"/><path d="m60 22v8h-2-2v-8h2z" fill="#85002a"/><path d="m12 5a4 4 0 0 1 4-4h32a4 4 0 0 1 4 4z" fill="#b8bce0"/><path d="m52 5v13h-4v-3a2.006 2.006 0 0 0 -2-2h-28a2.006 2.006 0 0 0 -2 2v3h-4v-13z" fill="#e1e7f7"/><path d="m52 18v22.02a4.011 4.011 0 0 1 -2.85 3.84l-13.2 3.96-3.95 1.18-3.95-1.18-13.2-3.96a4.011 4.011 0 0 1 -2.85-3.84v-22.02h4v19a2.006 2.006 0 0 0 2 2h28a2.006 2.006 0 0 0 2-2v-19z" fill="#d6475c"/><path d="m35.95 47.82-3.95 1.18-3.95-1.18-.05.18v1.805l.05.015 3.95 1.18 3.95-1.18.05-.015v-1.805z" fill="#85002a"/><path d="m57 15h2v7h-2z" fill="#ad3445"/><path d="m30 52v3a2.006 2.006 0 0 0 2 2 1 1 0 0 1 -1-1v-1a2 2 0 0 1 2-2h1v-1z" fill="#6c72a1"/><g fill="#e1e7f7"><rect height="2" rx="1" width="13" x="32" y="21"/><rect height="2" rx="1" width="9" x="36" y="17"/><rect height="2" rx="1" width="3" x="32" y="17"/><rect height="2" rx="1" width="3" x="19" y="30"/><rect height="2" rx="1" width="26" x="19" y="34"/><rect height="2" rx="1" width="22" x="23" y="30"/><path d="m25 16h-4a1 1 0 0 0 -1 1v7h2v-2h2v2h2v-7a1 1 0 0 0 -1-1zm-3 4v-2h2v2z"/></g><path d="m57 30v25a7.008 7.008 0 0 1 -7 7h-14a3 3 0 0 1 -3-3v-2.279a1.932 1.932 0 0 1 -2 0v2.279a5.006 5.006 0 0 0 5 5h14a9.01 9.01 0 0 0 9-9v-25z" fill="#ad3445"/><path d="m56 22h1v5a1 1 0 0 0 1 1 1 1 0 0 0 1-1v-5h1v8h-4z" fill="#b8bce0"/><path d="m57 22h2v1h-2z" fill="#e1e7f7"/><path d="m46 12.5h-28a2.5 2.5 0 0 0 -2.5 2.5v22a2.5 2.5 0 0 0 2.5 2.5h28a2.5 2.5 0 0 0 2.5-2.5v-22a2.5 2.5 0 0 0 -2.5-2.5zm1.5 2.5v11.5h-18v-13h16.5a1.5 1.5 0 0 1 1.5 1.5zm-29.5-1.5h10.5v13h-12v-11.5a1.5 1.5 0 0 1 1.5-1.5zm28 25h-28a1.5 1.5 0 0 1 -1.5-1.5v-9.5h31v9.5a1.5 1.5 0 0 1 -1.5 1.5z" fill="#b8bce0"/><path d="m16 3h32a3.982 3.982 0 0 1 3.446 2h.554a4 4 0 0 0 -4-4h-32a4 4 0 0 0 -4 4h.554a3.982 3.982 0 0 1 3.446-2z" fill="#848ab8"/><path d="m49.15 38.86-13.2 3.96a13.8 13.8 0 0 1 -7.9 0l-13.2-3.96a4.011 4.011 0 0 1 -2.85-3.84v4a4.011 4.011 0 0 0 2.85 3.84l13.2 3.96 3.95 1.18 3.95-1.18 13.2-3.96a4.011 4.011 0 0 0 2.85-3.84v-4a4.011 4.011 0 0 1 -2.85 3.84z" fill="#ad3445"/><path d="m16 2h32a3 3 0 0 1 3 3h1a4 4 0 0 0 -4-4h-32a4 4 0 0 0 -4 4h1a3 3 0 0 1 3-3z" fill="#f7f7ff"/><path d="m12 5h1v13h-1z" fill="#f7f7ff"/><path d="m51 40.02a3.03 3.03 0 0 1 -2.137 2.88l-16.863 5.057-16.861-5.057a3.029 3.029 0 0 1 -2.139-2.88v-22.02h-1v22.02a4.011 4.011 0 0 0 2.85 3.84l13.2 3.96 3.95 1.18 3.95-1.18 13.2-3.96a4.011 4.011 0 0 0 2.85-3.84v-22.02h-1z" fill="#e1e7f7"/><path d="m51 5h1v13h-1z" fill="#f7f7ff"/><path d="m38.213 5.229a2.351 2.351 0 0 0 -.211 1 2.6 2.6 0 0 0 .839 1.755c.656.6 1.63.691 2.387 1.126a12.016 12.016 0 0 1 2.413 2.062c.554.561 1.052 1.171 1.647 1.7a4.324 4.324 0 0 0 2.112 1.1 1.144 1.144 0 0 0 1.3-.508 7.611 7.611 0 0 0 1.288-4.388 9.47 9.47 0 0 0 -.118-2.25 4.277 4.277 0 0 0 -.763-2.015 2.617 2.617 0 0 0 -1.477-.578 30.99 30.99 0 0 0 -4.714-.233 23.568 23.568 0 0 0 -2.618.1 4.065 4.065 0 0 0 -1.478.4 1.523 1.523 0 0 0 -.607.729z" fill="#f7f7ff"/><path d="m14.534 39.809c.041.047.083.093.127.137a6.491 6.491 0 0 0 3.032 1.566 14.873 14.873 0 0 0 3.147.488 1.258 1.258 0 0 0 .918-.212.877.877 0 0 0 .242-.713 2 2 0 0 0 -.656-1.244c-.342-.338-.747-.605-1.11-.919a5.559 5.559 0 0 1 -1.151-1.379c-.35-.595-.585-1.248-.911-1.856a3.316 3.316 0 0 0 -1.392-1.487c-1.085-.521-1.83.1-2.367.977a5.675 5.675 0 0 0 -.4 2.936 3.047 3.047 0 0 0 .112 1.039 2.045 2.045 0 0 0 .409.667z" fill="#f7f7ff"/><path d="m26.605 41.739a9.045 9.045 0 0 0 -2.855-.194c-.559.06-1.807.061-1.748 1.107.029.518.8.944 1.141 1.144a5.458 5.458 0 0 0 3.269.68 2.2 2.2 0 0 0 1-.279 1.254 1.254 0 0 0 .588-.946 1.323 1.323 0 0 0 -.445-1.045 2.2 2.2 0 0 0 -.95-.467z" fill="#f7f7ff"/><path d="m30.378 4.307c-.045.018-.09.036-.134.056a2.285 2.285 0 0 0 -1.237 2.1c.172 1.819 2.8 1.523 3.977 1.5a7.994 7.994 0 0 0 2.122-.223c.609-.178 1.848-1 1.892-1.725.035-.579-.489-1.011-.983-1.267a6.687 6.687 0 0 0 -2.735-.728 7.607 7.607 0 0 0 -2.902.287z" fill="#f7f7ff"/><path d="m57 30h2v4h-2z" fill="#85002a"/><path d="m56 29h4v1h-4z" fill="#6c72a1"/><path d="m58 15v6h1v1h-2v-7z" fill="#85002a"/><rect fill="#85002a" height="2" rx="1" width="16" x="35.5" y="62"/><rect fill="#d6475c" height="16" rx="1" width="2" x="57" y="37"/></g></svg>