<svg height="512" viewBox="0 0 64 64" width="512" xmlns="http://www.w3.org/2000/svg"><g id="_11-X_Ray" data-name="11-X Ray"><g fill="#5369f5"><path d="m5 46h8v4h-8z"/><path d="m17 46h8v4h-8z"/><path d="m57 46a2.006 2.006 0 0 1 2 2 2.015 2.015 0 0 1 -2 2h-13v-4z"/></g><path d="m44 46v4h-13a2.006 2.006 0 0 1 -2-2 2.015 2.015 0 0 1 2-2z" fill="#d6475c"/><path d="m33.82 31.89a4.034 4.034 0 0 1 -5.71 5.7l-4.41 4.41h-11.4l10.11-10.11a4.034 4.034 0 1 1 5.7 0 4.032 4.032 0 0 1 5.71 0z" fill="#f7f7ff"/><path d="m51.7 14-10.11 10.11a4.034 4.034 0 1 1 -5.7 0 4.034 4.034 0 1 1 0-5.7l4.41-4.41z" fill="#f7f7ff"/><path d="m59 14v5l-23 23h-12.3l4.41-4.41a4.034 4.034 0 1 0 0-5.7 4.034 4.034 0 1 0 -5.7 0l-10.11 10.11h-7.3v-5l23-23h12.3l-4.41 4.41a4.034 4.034 0 1 0 0 5.7 4.034 4.034 0 1 0 5.7 0l10.11-10.11z" fill="#5369f5"/><path d="m5 37v-23h23z" fill="#3b51c4"/><path d="m59 19v23h-23z" fill="#3b51c4"/><path d="m63 14v36a4 4 0 0 1 -4 4h-54a4 4 0 0 1 -4-4v-36a4 4 0 0 1 4-4h54a4 4 0 0 1 4 4zm-4 28v-28h-54v28zm0 6a2.006 2.006 0 0 0 -2-2h-26a2.015 2.015 0 0 0 -2 2 2.006 2.006 0 0 0 2 2h26a2.015 2.015 0 0 0 2-2zm-34 2v-4h-8v4zm-12 0v-4h-8v4z" fill="#d3d9f2"/><path d="m58.41 48.41a1.955 1.955 0 0 1 -1.41.59h-13v1h13a1.974 1.974 0 0 0 1.929-2.5 1.932 1.932 0 0 1 -.519.91z" fill="#3b51c4"/><path d="m31 49a2 2 0 0 1 -1.929-1.5 1.974 1.974 0 0 0 -.071.5 2.006 2.006 0 0 0 2 2h13v-1z" fill="#85002a"/><path d="m57 47a2 2 0 0 1 1.929 1.5 1.974 1.974 0 0 0 .071-.5 2.006 2.006 0 0 0 -2-2h-13v1z" fill="#6b95ff"/><path d="m31 47h13v-1h-13a1.974 1.974 0 0 0 -1.929 2.5 2 2 0 0 1 1.929-1.5z" fill="#ff6e7c"/><path d="m59 51h-54a4 4 0 0 1 -4-4v3a4 4 0 0 0 4 4h54a4 4 0 0 0 4-4v-3a4 4 0 0 1 -4 4z" fill="#b8bce0"/><path d="m59 10h-54a4 4 0 0 0 -4 4v3a4 4 0 0 1 4-4h54a4 4 0 0 1 4 4v-3a4 4 0 0 0 -4-4z" fill="#e1e7f7"/><path d="m57 45h-26a3 3 0 0 0 0 6h26a3 3 0 0 0 0-6zm1.41 4.41a1.955 1.955 0 0 1 -1.41.59h-26a2.006 2.006 0 0 1 -2-2 2.015 2.015 0 0 1 2-2h26a2.006 2.006 0 0 1 2 2 1.955 1.955 0 0 1 -.59 1.41z" fill="#b8bce0"/><path d="m17 46 1 3h6l1-3v4h-8z" fill="#3b51c4"/><path d="m5 46 1 3h6l1-3v4h-8z" fill="#3b51c4"/><path d="m25 45h-8a1 1 0 0 0 -1 1v4a1 1 0 0 0 1 1h8a1 1 0 0 0 1-1v-4a1 1 0 0 0 -1-1zm0 5h-8v-4h8z" fill="#b8bce0"/><path d="m13 45h-8a1 1 0 0 0 -1 1v4a1 1 0 0 0 1 1h8a1 1 0 0 0 1-1v-4a1 1 0 0 0 -1-1zm0 5h-8v-4h8z" fill="#b8bce0"/><path d="m28.11 31.89-7.231 7.231a3 3 0 0 1 -2.122.879h-4.457l-2 2h11.4l4.41-4.41a4.034 4.034 0 1 0 0-5.7z" fill="#e1e7f7"/><path d="m51.7 14h-11.4l-2 2h3.286a1 1 0 0 1 .707 1.707l-6.4 6.4a4.034 4.034 0 1 0 5.7 0z" fill="#e1e7f7"/><rect fill="#fff" height="2" rx="1" width="5" x="42" y="11"/><rect fill="#fff" height="2" rx="1" width="24" x="16" y="11"/><rect fill="#e1e7f7" height="2" rx="1" width="6" x="12" y="17"/><rect fill="#e1e7f7" height="2" rx="1" width="3" x="8" y="17"/><path d="m59 10h-54a4 4 0 0 0 -4 4v36a4 4 0 0 0 4 4h54a4 4 0 0 0 4-4v-36a4 4 0 0 0 -4-4zm3 40a3 3 0 0 1 -3 3h-54a3 3 0 0 1 -3-3v-36a3 3 0 0 1 3-3h54a3 3 0 0 1 3 3z" fill="#848ab8"/><path d="m59 13h-54a1 1 0 0 0 -1 1v28a1 1 0 0 0 1 1h54a1 1 0 0 0 1-1v-28a1 1 0 0 0 -1-1zm0 29h-54v-28h54z" fill="#848ab8"/><path d="m46.213 16.229a2.351 2.351 0 0 0 -.213 1.005 2.6 2.6 0 0 0 .839 1.755c.656.6 1.63.691 2.387 1.126a12.016 12.016 0 0 1 2.413 2.062c.554.561 1.052 1.171 1.647 1.7a4.324 4.324 0 0 0 2.112 1.1 1.144 1.144 0 0 0 1.3-.508 7.611 7.611 0 0 0 1.288-4.388 9.47 9.47 0 0 0 -.118-2.25 4.277 4.277 0 0 0 -.763-2.015 2.617 2.617 0 0 0 -1.477-.578 30.99 30.99 0 0 0 -4.712-.238 23.568 23.568 0 0 0 -2.618.1 4.065 4.065 0 0 0 -1.478.394 1.523 1.523 0 0 0 -.607.735z" fill="#f7f7ff"/><path d="m7.534 38.809c.041.047.083.093.127.137a6.491 6.491 0 0 0 3.032 1.566 14.873 14.873 0 0 0 3.147.488 1.258 1.258 0 0 0 .918-.212.877.877 0 0 0 .242-.713 2 2 0 0 0 -.656-1.244c-.342-.338-.747-.605-1.11-.919a5.559 5.559 0 0 1 -1.151-1.379c-.35-.595-.585-1.248-.911-1.856a3.316 3.316 0 0 0 -1.395-1.487c-1.085-.521-1.83.1-2.367.977a5.675 5.675 0 0 0 -.4 2.936 3.047 3.047 0 0 0 .112 1.039 2.045 2.045 0 0 0 .412.667z" fill="#f7f7ff"/><path d="m52.814 31.6c.933.63 2.468.574 2.95-.514a3.376 3.376 0 0 0 .229-1.315c.019-1.048.07-3.016-.978-3.549a1.873 1.873 0 0 0 -2.069.2 2.45 2.45 0 0 0 -.609 1.1 7.348 7.348 0 0 0 -.337 2.111 3.2 3.2 0 0 0 .162 1.17 1.68 1.68 0 0 0 .652.797z" fill="#f7f7ff"/></g></svg>