<svg height="512" viewBox="0 0 64 64" width="512" xmlns="http://www.w3.org/2000/svg"><g id="_12-Thermometer" data-name="12-Thermometer"><path d="m17.55 9.772h9.899v25.456h-9.899z" fill="#78a2ff" transform="matrix(.707 -.707 .707 .707 -9.32 22.5)"/><path d="m61.94 56.8a3.635 3.635 0 0 1 -5.14 5.14l-8.87-8.87.07-.07 5-5 .07-.07z" fill="#5369f5"/><path d="m53.07 47.93-.07.07-5 5-.07.07-3.5-3.5 5.14-5.14z" fill="#848ab8"/><path d="m50.17 38.17a4.008 4.008 0 0 1 0 5.66l-.6.6-5.14 5.14-.6.6a4.008 4.008 0 0 1 -5.66 0l-37.17-37.17 12-12zm-22.17-3.17 7-7-18-18-4-4-7 7 4 4z" fill="#f7f7ff"/><path d="m6.55 8.672h9.899v5.657h-9.899z" fill="#d6475c" transform="matrix(.707 -.707 .707 .707 -4.763 11.5)"/><path d="m30.757 34h8.485v2h-8.485z" fill="#d6475c" transform="matrix(.707 -.707 .707 .707 -14.497 35)"/><path d="m33.757 37h8.485v2h-8.485z" fill="#d6475c" transform="matrix(.707 -.707 .707 .707 -15.74 38)"/><path d="m10 17 .707.707.707-.707 5.586-5.586.707-.707-.707-.707z" fill="#5369f5"/><path d="m33.586 28-5.586 5.586-16.586-16.586-.707.707 17.293 17.293 7-7-17.293-17.293-.707.707z" fill="#5369f5"/><path d="m7.414 13 5.586-5.586 2.586 2.586.707-.707-3.293-3.293-7 7 3.293 3.293.707-.707z" fill="#ad3445"/><path d="m16.293 9.293-.707.707-5.586 5.586-.707.707.707.707 7-7z" fill="#85002a"/><path d="m45 27.5a.5.5 0 0 1 -.5-.5 3.1 3.1 0 0 1 1.146-2.354 2.013 2.013 0 0 0 0-3.292 2.991 2.991 0 0 1 0-4.708 2.013 2.013 0 0 0 0-3.292 3.1 3.1 0 0 1 -1.146-2.354.5.5 0 0 1 1 0 2.12 2.12 0 0 0 .854 1.646 2.991 2.991 0 0 1 0 4.708 2.013 2.013 0 0 0 0 3.292 2.991 2.991 0 0 1 0 4.708 2.12 2.12 0 0 0 -.854 1.646.5.5 0 0 1 -.5.5z" fill="#848ab8"/><path d="m51 31.5a.5.5 0 0 1 -.5-.5 3.1 3.1 0 0 1 1.146-2.354 2.013 2.013 0 0 0 0-3.292 2.991 2.991 0 0 1 0-4.708 2.013 2.013 0 0 0 0-3.292 3.1 3.1 0 0 1 -1.146-2.354.5.5 0 0 1 1 0 2.12 2.12 0 0 0 .854 1.646 2.991 2.991 0 0 1 0 4.708 2.013 2.013 0 0 0 0 3.292 2.991 2.991 0 0 1 0 4.708 2.12 2.12 0 0 0 -.854 1.646.5.5 0 0 1 -.5.5z" fill="#848ab8"/><path d="m57 39.5a.5.5 0 0 1 -.5-.5 3.1 3.1 0 0 1 1.146-2.354 2.013 2.013 0 0 0 0-3.292 2.991 2.991 0 0 1 0-4.708 2.013 2.013 0 0 0 0-3.292 3.1 3.1 0 0 1 -1.146-2.354.5.5 0 0 1 1 0 2.12 2.12 0 0 0 .854 1.646 2.991 2.991 0 0 1 0 4.708 2.013 2.013 0 0 0 0 3.292 2.991 2.991 0 0 1 0 4.708 2.12 2.12 0 0 0 -.854 1.646.5.5 0 0 1 -.5.5z" fill="#848ab8"/><path d="m19.543 13.168h1.121v23.456h-1.121z" fill="#5369f5" transform="matrix(.707 -.707 .707 .707 -11.716 21.507)"/><path d="m50 38-5.172 5.172a4 4 0 0 1 -5.656 0l-2.465-2.465-1 1-1.414-1.414 1-1-1.586-1.586-1 1-1.414-1.414 1-1-2.793-2.793-1.5 1.5-17.293-17.293-.707-.707-.707-.707-3.293-3.293 1.5-1.5-2.5-2.5-4 4 37.17 37.17a4.008 4.008 0 0 0 5.66 0l.6-.6 5.14-5.14.6-.6a4.008 4.008 0 0 0 0-5.66z" fill="#b8bce0"/><path d="m8.543 12.068h1.121v3.657h-1.121z" fill="#ad3445" transform="matrix(.707 -.707 .707 .707 -7.16 10.507)"/><path d="m12.207 16.207-.707-.707-1.5 1.5.707.707.707-.707z" fill="#3b51c4"/><path d="m28 33.586-16.586-16.586-.707.707 17.293 17.293 1.5-1.5-.707-.707z" fill="#3b51c4"/><g fill="#85002a"><path d="m7.414 13 .793-.793-.707-.707-1.5 1.5 3.293 3.293.707-.707z"/><path d="m10.793 14.793-.793.793-.707.707.707.707 1.5-1.5z"/><path d="m31.793 36.5h1.414v2h-1.414z" transform="matrix(.707 -.707 .707 .707 -16.997 33.964)"/><path d="m34.793 39.5h1.414v2h-1.414z" transform="matrix(.707 -.707 .707 .707 -18.24 36.964)"/></g><path d="m35.707 27.293-18-18-4-4a1 1 0 0 0 -1.414 0l-7 7a1 1 0 0 0 0 1.414l4 4 18 18a1 1 0 0 0 1.414 0l7-7a1 1 0 0 0 0-1.414zm-7.707 7.707-17.293-17.293-.707-.707-.707-.707-3.293-3.293 7-7 3.293 3.293.707.707.707.707 17.293 17.293z" fill="#848ab8"/><path d="m60.086 61.086-10.086-10.086-2 2-.07.07 8.87 8.87a3.646 3.646 0 0 0 5.14 0 3.562 3.562 0 0 0 .354-.437 2 2 0 0 1 -2.208-.417z" fill="#3b51c4"/><path d="m50 51-.586-.586a2 2 0 0 1 0-2.828l1.656-1.656-1.5-1.5-5.14 5.14 3.5 3.5.07-.07z" fill="#484c6b"/></g></svg>