<svg height="512" viewBox="0 0 64 64" width="512" xmlns="http://www.w3.org/2000/svg"><g id="_14-Petri_Dish" data-name="14-Petri Dish"><rect fill="#d3d9f2" height="44" rx="4" width="44" x="1" y="1"/><path d="m41 42h-36a4 4 0 0 1 -4-4v3a4 4 0 0 0 4 4h36a4 4 0 0 0 4-4v-3a4 4 0 0 1 -4 4z" fill="#c7ccf0"/><path d="m41 1h-36a4 4 0 0 0 -4 4v3a4 4 0 0 1 4-4h36a4 4 0 0 1 4 4v-3a4 4 0 0 0 -4-4z" fill="#f7f7ff"/><circle cx="23" cy="23" fill="#e1e7f7" r="18"/><circle cx="23" cy="23" fill="#567bff" r="14"/><path d="m23 14a14 14 0 0 1 13.765 11.5 14 14 0 1 0 -27.53 0 14 14 0 0 1 13.765-11.5z" fill="#4c64e0"/><path d="m18 27.51c.62.63 0 1.25.62 1.87s1.24 0 1.87.62a1.761 1.761 0 0 1 -2.49 2.49c-.62-.63 0-1.25-.62-1.87s-1.24 0-1.87-.62a1.761 1.761 0 0 1 2.49-2.49z" fill="#a6c9ff"/><path d="m29.49 15.51a1.775 1.775 0 0 1 0 2.49c-.63.62-1.25 0-1.87.62s0 1.24-.62 1.87a1.761 1.761 0 0 1 -2.49-2.49c.63-.62 1.25 0 1.87-.62s0-1.24.62-1.87a1.775 1.775 0 0 1 2.49 0z" fill="#a6c9ff"/><path d="m41 1h-36a4 4 0 0 0 -4 4v36a4 4 0 0 0 4 4h36a4 4 0 0 0 4-4v-36a4 4 0 0 0 -4-4zm3 40a3 3 0 0 1 -3 3h-36a3 3 0 0 1 -3-3v-36a3 3 0 0 1 3-3h36a3 3 0 0 1 3 3z" fill="#b8bce0"/><path d="m23 4a19 19 0 1 0 19 19 19 19 0 0 0 -19-19zm0 37a18 18 0 1 1 18-18 18 18 0 0 1 -18 18z" fill="#848ab8"/><path d="m41 23c0-.5-.035-.986-.074-1.473-.038-.406-.088-.824-.155-1.262l-.015-.1a2 2 0 0 0 -3.946.642 14 14 0 1 1 -27.62 0 2 2 0 0 0 -3.946-.642l-.015.1c-.067.438-.117.856-.155 1.262-.039.487-.074.973-.074 1.473a18 18 0 0 0 36 0z" fill="#b8bce0"/><path d="m23 8a15 15 0 1 0 15 15 15 15 0 0 0 -15-15zm0 29a14 14 0 1 1 14-14 14 14 0 0 1 -14 14z" fill="#b8bce0"/><path d="m25.755 21.5a2.252 2.252 0 0 1 -1.6-3.848 1.642 1.642 0 0 1 1.3-.459c.294 0 .42-.006.577-.164s.164-.283.164-.577a1.638 1.638 0 0 1 .454-1.29 2.261 2.261 0 1 1 3.2 3.192 1.642 1.642 0 0 1 -1.3.459c-.294 0-.42.006-.577.164s-.164.283-.164.577a1.638 1.638 0 0 1 -.454 1.29h-.005a2.266 2.266 0 0 1 -1.595.656zm2.492-6a1.275 1.275 0 0 0 -.9.365c-.155.157-.161.284-.161.583a1.588 1.588 0 0 1 -1.741 1.741c-.3 0-.426.006-.589.166a1.261 1.261 0 0 0 1.786 1.781c.158-.162.164-.289.164-.586a1.588 1.588 0 0 1 1.741-1.741c.3 0 .426-.006.589-.166a1.279 1.279 0 0 0 -.006-1.784 1.262 1.262 0 0 0 -.883-.359z" fill="#2e3f99"/><path d="m19.243 33.5a2.263 2.263 0 0 1 -1.594-.65h-.005a1.638 1.638 0 0 1 -.454-1.29c0-.294-.006-.42-.164-.577s-.283-.164-.577-.164a1.638 1.638 0 0 1 -1.29-.454 2.261 2.261 0 1 1 3.192-3.2 1.642 1.642 0 0 1 .459 1.3c0 .294.006.42.164.577s.283.164.577.164a1.638 1.638 0 0 1 1.29.454 2.251 2.251 0 0 1 -1.6 3.852zm-.889-1.359a1.261 1.261 0 1 0 1.78-1.786c-.157-.155-.284-.161-.583-.161a1.588 1.588 0 0 1 -1.741-1.741c0-.3-.006-.426-.166-.589a1.261 1.261 0 1 0 -1.778 1.789c.157.155.284.161.583.161a1.588 1.588 0 0 1 1.741 1.741c0 .293.01.42.164.582z" fill="#2e3f99"/><path d="m21 20.5a.5.5 0 0 1 -.354-.146 2.271 2.271 0 0 0 -1.9-.6 3.14 3.14 0 0 1 -3.5-3.5 2.271 2.271 0 0 0 -.6-1.9.5.5 0 0 1 .708-.708 3.221 3.221 0 0 1 .9 2.6 2.167 2.167 0 0 0 2.5 2.5 3.221 3.221 0 0 1 2.6.9.5.5 0 0 1 -.354.854z" fill="#3b51c4"/><path d="m25 29.5a.5.5 0 0 1 -.354-.854 3.221 3.221 0 0 1 2.6-.9 2.167 2.167 0 0 0 2.5-2.5 3.221 3.221 0 0 1 .9-2.6.5.5 0 0 1 .708.708 2.271 2.271 0 0 0 -.6 1.9 3.14 3.14 0 0 1 -3.5 3.5 2.271 2.271 0 0 0 -1.9.6.5.5 0 0 1 -.354.146z" fill="#3b51c4"/><ellipse cx="25.121" cy="34.75" fill="#2e3f99" rx=".574" ry=".413" transform="matrix(.707 -.707 .707 .707 -17.212 27.927)"/><ellipse cx="25.121" cy="30.75" fill="#3b51c4" rx=".413" ry=".574"/><ellipse cx="29.121" cy="23.75" fill="#2e3f99" rx=".413" ry=".574"/><ellipse cx="27.121" cy="25.75" fill="#8cb0ff" rx=".413" ry=".574" transform="matrix(.707 -.707 .707 .707 -10.265 26.707)"/><ellipse cx="33.121" cy="20.75" fill="#2e3f99" rx=".413" ry=".574"/><ellipse cx="15.121" cy="31.75" fill="#2e3f99" rx=".413" ry=".574"/><ellipse cx="22.375" cy="26.25" fill="#8cb0ff" rx=".825" ry="1.148"/><ellipse cx="11.375" cy="22.25" fill="#3b51c4" rx=".825" ry="1.148"/><ellipse cx="22.375" cy="33.25" fill="#8cb0ff" rx=".825" ry="1.148"/><ellipse cx="18.375" cy="23.25" fill="#2e3f99" rx=".825" ry="1.148"/><ellipse cx="13.121" cy="18.75" fill="#3b51c4" rx=".574" ry=".413" transform="matrix(.707 -.707 .707 .707 -9.414 14.762)"/><ellipse cx="23.121" cy="15.75" fill="#2e3f99" rx=".574" ry=".413" transform="matrix(.707 -.707 .707 .707 -4.367 20.953)"/><ellipse cx="31.121" cy="15.75" fill="#2e3f99" rx=".413" ry=".574"/><ellipse cx="28.121" cy="20.75" fill="#8cb0ff" rx=".413" ry=".574"/><ellipse cx="27.121" cy="12.75" fill="#3b51c4" rx=".413" ry=".574" transform="matrix(.707 -.707 .707 .707 -1.076 22.902)"/><ellipse cx="19.121" cy="16.75" fill="#2e3f99" rx=".413" ry=".574"/><ellipse cx="21.121" cy="16.75" fill="#3b51c4" rx=".413" ry=".574"/><ellipse cx="23.375" cy="22.25" fill="#8cb0ff" rx=".825" ry="1.148" transform="matrix(.707 -.707 .707 .707 -8.886 23.057)"/><ellipse cx="13.375" cy="26.25" fill="#8cb0ff" rx="1.719" ry="1.235" transform="matrix(.707 -.707 .707 .707 -14.641 17.136)"/><ellipse cx="19.375" cy="13.25" fill="#3b51c4" rx="1.719" ry="1.235" transform="matrix(.707 -.707 .707 .707 -3.696 17.573)"/><ellipse cx="31.375" cy="18.25" fill="#8cb0ff" rx=".825" ry="1.148"/><ellipse cx="34.375" cy="23.25" fill="#8cb0ff" rx=".825" ry="1.148"/><path d="m37.108 5.557a1.3 1.3 0 0 0 -.608 1.117 6.4 6.4 0 0 0 .952 2.757 10.612 10.612 0 0 0 2.016 2.793 3.286 3.286 0 0 0 .86.656c.986.473 1.83-.552 2.33-1.391a6.471 6.471 0 0 0 .839-3.13 3.809 3.809 0 0 0 -.3-1.782 3.241 3.241 0 0 0 -1.573-1.389 3.193 3.193 0 0 0 -1.206-.164q-.663-.036-1.327-.018a3.894 3.894 0 0 0 -1.983.551z" fill="#f7f7ff"/><path d="m56 52 2 2-4 4-2-2 2-2z" fill="#c7ccf0"/><path d="m55.672 54.964h5.657v7.071h-5.657z" fill="#5369f5" transform="matrix(.707 -.707 .707 .707 -24.231 58.5)"/><circle cx="41" cy="41" fill="#e1e7f7" r="11"/><path d="m30 41a11 11 0 1 0 11-11 10.994 10.994 0 0 0 -11 11zm11 15a15.023 15.023 0 1 1 10.6-4.4 15.005 15.005 0 0 1 -10.6 4.4z" fill="#5369f5"/><path d="m40.645 30.018a19.036 19.036 0 0 1 -10.627 10.627c0 .119-.018.235-.018.355 0 .338.021.67.05 1h10.95a4 4 0 0 0 4-4v-7.24a10.979 10.979 0 0 0 -4-.76c-.12 0-.236.014-.355.018z" fill="#e1e7f7"/><path d="m45 41v-3a4 4 0 0 1 -4 4h-10.95a10.93 10.93 0 0 0 .71 3h10.24a4 4 0 0 0 4-4z" fill="#c7ccf0"/><path d="m39.536 30.108a18.054 18.054 0 0 1 -9.428 9.428q-.072.547-.09 1.109a19.036 19.036 0 0 0 10.627-10.627q-.562.018-1.109.09z" fill="#f7f7ff"/><path d="m39.53 30.109a10.907 10.907 0 0 0 -4.273 1.52 11.018 11.018 0 0 0 -3.628 3.628 10.907 10.907 0 0 0 -1.52 4.273 18.1 18.1 0 0 0 9.421-9.421z" fill="#fff"/><path d="m54.707 53.293-2.433-2.433c-.22.251-.438.5-.674.74s-.489.454-.74.674l2.433 2.433.707-.707z" fill="#484c6b"/><path d="m52.689 54.836h2.121v2.828h-2.121z" fill="#999dc2" transform="matrix(.707 -.707 .707 .707 -24.032 54.482)"/><path d="m60.914 59.086a2 2 0 0 1 -2.828 0l-2.586-2.586-1.5 1.5 5 5 4-4-1-1z" fill="#3b51c4"/><path d="m52.716 50.342a14.918 14.918 0 0 0 3.284-9.342 14.252 14.252 0 0 0 -.1-1.7c0-.021-.006-.041-.009-.061a15.637 15.637 0 0 0 -.3-1.669c0-.017-.009-.034-.013-.052a2 2 0 0 0 -3.886.927 11 11 0 1 1 -21.38 0 2 2 0 0 0 -3.886-.926c0 .017-.009.034-.013.051a15.637 15.637 0 0 0 -.3 1.669c0 .02-.007.04-.009.061a14.252 14.252 0 0 0 -.104 1.7 14.974 14.974 0 0 0 26.716 9.342z" fill="#3b51c4"/><path d="m41 29a12 12 0 1 0 12 12 12 12 0 0 0 -12-12zm0 23a11 11 0 1 1 11-11 10.994 10.994 0 0 1 -11 11z" fill="#848ab8"/><path d="m41 26a14.991 14.991 0 1 0 15 15 15.005 15.005 0 0 0 -15-15zm0 29a14 14 0 1 1 14-14 14 14 0 0 1 -14 14z" fill="#484c6b"/><path d="m39.134 32.285a2.533 2.533 0 0 0 -.131.84 2.607 2.607 0 0 0 .729 2.054q1.135 1.314 2.379 2.517c.793.767 1.482 1.646 2.283 2.4a2.389 2.389 0 0 0 2.1.878 2.334 2.334 0 0 0 .953-.358c1.327-.9 1.725-3.223 1.483-4.76a5.765 5.765 0 0 0 -2.591-3.892 7.754 7.754 0 0 0 -5.728-.708 2.839 2.839 0 0 0 -1.242.663 1.045 1.045 0 0 0 -.235.366z" fill="#fff"/><path d="m41.972 47.706a1.1 1.1 0 0 0 -.346-1.083 6.362 6.362 0 0 0 -2.526-1.135 10.987 10.987 0 0 0 -3.269-.488 3.424 3.424 0 0 0 -1.031.128c-.993.322-.869 1.5-.639 2.339a5.667 5.667 0 0 0 1.559 2.494 3.658 3.658 0 0 0 1.418.929 3.356 3.356 0 0 0 2.015-.115 3.045 3.045 0 0 0 .932-.656q.476-.393.915-.821a3.407 3.407 0 0 0 .972-1.592z" fill="#fff"/><path d="m20.059 41.75c-.007.082-.006.167-.012.25h2.953a19.13 19.13 0 0 1 -2.941-.25z" fill="#a8accf"/><path d="m26.051 42c-.006-.088-.009-.177-.014-.265a19 19 0 0 1 -3.037.265z" fill="#a8accf"/><path d="m23 42h-2.953c-.022.332-.047.663-.047 1s.029.668.051 1h6.249a14.932 14.932 0 0 1 -.251-2z" fill="#848ab8"/><path d="m33.4 28.088a15.008 15.008 0 0 0 -12.08 8.8 14.173 14.173 0 0 0 1.68.112 13.935 13.935 0 0 0 3.7-.513 15.061 15.061 0 0 1 6.7-8.399z" fill="#4c64e0"/><path d="m20.051 44c.022.337.054.67.1 1h6.408c-.092-.331-.186-.66-.255-1z" fill="#6c72a1"/><path d="m26.037 41.735c-.012-.245-.037-.487-.037-.735 0-.091.008-.18.009-.271a18.072 18.072 0 0 1 -3.009.271 18.034 18.034 0 0 1 -2.817-.242c-.049.328-.1.657-.124.992a19.13 19.13 0 0 0 2.941.25 19 19 0 0 0 3.037-.265z" fill="#6c72a1"/><path d="m26.4 37.6a14.173 14.173 0 0 1 -5.472.241 14.9 14.9 0 0 0 -.742 2.917 17.914 17.914 0 0 0 2.814.242 17.985 17.985 0 0 0 3.009-.272 14.993 14.993 0 0 1 .391-3.128z" fill="#a8accf"/><path d="m23 37a13.966 13.966 0 0 1 -1.684-.111c-.14.312-.272.628-.391.951a14.173 14.173 0 0 0 5.475-.24q.132-.564.305-1.11a13.956 13.956 0 0 1 -3.705.51z" fill="#848ab8"/></g></svg>