<svg height="512" viewBox="0 0 64 64" width="512" xmlns="http://www.w3.org/2000/svg"><g id="_15-Cardiogram" data-name="15-Cardiogram"><path d="m5 52h6v4h-6z" fill="#999dc2"/><path d="m53 52h6v4h-6z" fill="#999dc2"/><circle cx="56" cy="16" fill="#60658f" r="4"/><path d="m53 28h6v20h-6z" fill="#3b51c4"/><path d="m53 24h6v4h-6z" fill="#ad3445"/><path d="m33 30h4.79a6.836 6.836 0 0 1 -.85 1.03l-9.94 9.97-9.94-9.97a6.836 6.836 0 0 1 -.85-1.03h2.79l4-4 7 7z" fill="#ad3445"/><path d="m36.94 21.06a7.059 7.059 0 0 1 .85 8.94h-4.79l-3 3-7-7-4 4h-2.79a7.038 7.038 0 0 1 10.79-8.94 7.019 7.019 0 0 1 9.94 0z" fill="#d6475c"/><path d="m47 12h-40a2.006 2.006 0 0 0 -2 2v32a2.006 2.006 0 0 0 2 2h40a2.006 2.006 0 0 0 2-2v-32a2.006 2.006 0 0 0 -2-2zm-10.06 19.03-9.94 9.97-9.94-9.97a6.836 6.836 0 0 1 -.85-1.03 7.038 7.038 0 0 1 10.79-8.94 7.038 7.038 0 0 1 10.79 8.94 6.836 6.836 0 0 1 -.85 1.03z" fill="#5369f5"/><path d="m49 30v-16a2.006 2.006 0 0 0 -2-2h-40a2.006 2.006 0 0 0 -2 2v32a2.006 2.006 0 0 0 2 2h40a2.006 2.006 0 0 0 2-2zm11-14a4 4 0 1 0 -4 4 4 4 0 0 0 4-4zm3-6v40a2.006 2.006 0 0 1 -2 2h-58a2.006 2.006 0 0 1 -2-2v-40a2.006 2.006 0 0 1 2-2h58a2.006 2.006 0 0 1 2 2zm-4 38v-24h-6v24z" fill="#e1e7f7"/><path d="m61 8h-58a2.006 2.006 0 0 0 -2 2v2a2.006 2.006 0 0 1 2-2h58a2.006 2.006 0 0 1 2 2v-2a2.006 2.006 0 0 0 -2-2z" fill="#f7f7ff"/><path d="m61 50h-58a2.006 2.006 0 0 1 -2-2v2a2.006 2.006 0 0 0 2 2h58a2.006 2.006 0 0 0 2-2v-2a2.006 2.006 0 0 1 -2 2z" fill="#a8accf"/><path d="m54 29h4v18h-4z" fill="#5369f5"/><path d="m54 25h4v2h-4z" fill="#d6475c"/><path d="m59 23h-6a1 1 0 0 0 -1 1v24a1 1 0 0 0 1 1h6a1 1 0 0 0 1-1v-24a1 1 0 0 0 -1-1zm0 25h-6v-24h6z" fill="#a8accf"/><circle cx="56" cy="16" fill="#999dc2" r="3"/><path d="m59 52h-6v4h2v-1a2 2 0 0 1 2-2h2z" fill="#60658f"/><path d="m11 52h-6v4h2v-1a2 2 0 0 1 2-2h2z" fill="#60658f"/><path d="m23.877 37.868 3.123 3.132 3.123-3.132c-1.023.085-2.062.132-3.123.132s-2.1-.047-3.123-.132z" fill="#85002a"/><path d="m48 46a1 1 0 0 1 -1 1h-40a1 1 0 0 1 -1-1v-17.111a8.265 8.265 0 0 1 -1-3.889v21a2.006 2.006 0 0 0 2 2h40a2.006 2.006 0 0 0 2-2v-21a8.265 8.265 0 0 1 -1 3.889z" fill="#1b2b85"/><path d="m47 12h-40a2.006 2.006 0 0 0 -2 2v11a8.265 8.265 0 0 0 1 3.889v-14.889a1 1 0 0 1 1-1h40a1 1 0 0 1 1 1v14.889a8.265 8.265 0 0 0 1-3.889v-11a2.006 2.006 0 0 0 -2-2z" fill="#2e3f99"/><path d="m7 47h40a1 1 0 0 0 1-1v-17.111c-2.494 4.711-9.4 8.268-17.877 8.979l-3.123 3.132-3.123-3.132c-8.472-.711-15.383-4.268-17.877-8.979v17.111a1 1 0 0 0 1 1z" fill="#3b51c4"/><path d="m37.648 20.356a7.958 7.958 0 0 0 -5.667-2.356h-.007a7.964 7.964 0 0 0 -4.974 1.726 7.964 7.964 0 0 0 -4.974-1.726h-.007a7.958 7.958 0 0 0 -5.667 2.356 8.068 8.068 0 0 0 -.974 10.2 7.747 7.747 0 0 0 .974 1.181l9.94 9.97a1 1 0 0 0 1.416 0l9.939-9.969a7.735 7.735 0 0 0 .971-1.176 8.07 8.07 0 0 0 -.97-10.206zm.142 9.644a6.836 6.836 0 0 1 -.85 1.03l-9.94 9.97-9.94-9.97a6.836 6.836 0 0 1 -.85-1.03 7.038 7.038 0 0 1 10.79-8.937 7.038 7.038 0 0 1 10.79 8.937z" fill="#78a2ff"/><path d="m30 33.5a.5.5 0 0 1 -.354-.146l-6.646-6.647-3.646 3.647a.5.5 0 0 1 -.354.146h-11a.5.5 0 0 1 0-1h10.793l3.853-3.854a.5.5 0 0 1 .708 0l6.646 6.647 2.646-2.647a.5.5 0 0 1 .354-.146h13a.5.5 0 0 1 0 1h-12.793l-2.853 2.854a.5.5 0 0 1 -.354.146z" fill="#fff"/><rect fill="#e1e7f7" height="1" rx=".5" width="4" x="54" y="33"/><rect fill="#e1e7f7" height="1" rx=".5" width="4" x="54" y="36"/><rect fill="#e1e7f7" height="1" rx=".5" width="4" x="54" y="39"/><rect fill="#e1e7f7" height="1" rx=".5" width="4" x="54" y="42"/><path d="m56 18a3 3 0 0 1 -2.95-2.5 3.048 3.048 0 0 0 -.05.5 3 3 0 0 0 6 0 3.048 3.048 0 0 0 -.05-.5 3 3 0 0 1 -2.95 2.5z" fill="#5a5f86"/><path d="m58.354 14.354a.544.544 0 0 0 .071-.108 3.008 3.008 0 0 0 -.671-.671.544.544 0 0 0 -.108.071l-4 4a.544.544 0 0 0 -.071.108 3.008 3.008 0 0 0 .671.671.544.544 0 0 0 .108-.071z" fill="#c7ccf0"/><g fill="#b8ceff"><rect height="1" rx=".5" width="10" x="36" y="40"/><rect height="1" rx=".5" width="6" x="40" y="44"/><rect height="1" rx=".5" width="2" x="36" y="44"/><rect height="1" rx=".5" width="10" x="8" y="40"/><rect height="1" rx=".5" width="6" x="12" y="44"/><rect height="1" rx=".5" width="2" x="8" y="44"/></g><path d="m39.142 14.737a1.3 1.3 0 0 0 -.141.6 1.5 1.5 0 0 0 .56 1.054 8.351 8.351 0 0 0 1.591.675 7.813 7.813 0 0 1 1.608 1.237c.37.337.7.7 1.1 1.017a3 3 0 0 0 1.407.659 1.017 1.017 0 0 0 .554-.044.9.9 0 0 0 .312-.26 4.243 4.243 0 0 0 .859-2.633 5.136 5.136 0 0 0 -.079-1.35 2.422 2.422 0 0 0 -.509-1.209 1.855 1.855 0 0 0 -.984-.347 23.007 23.007 0 0 0 -3.143-.136c-.582 0-1.167 0-1.745.061a2.934 2.934 0 0 0 -.985.237.943.943 0 0 0 -.405.439z" fill="#f7f7ff"/><path d="m7.349 36.82a1.669 1.669 0 0 0 .468.678 4.065 4.065 0 0 0 2.74.482c.97-.022 3.032-.08 2.282-1.448-.61-1.113-1.554-2.048-2.119-3.192a2.262 2.262 0 0 0 -1.147-1.184 1.628 1.628 0 0 0 -2.137.8 3.685 3.685 0 0 0 -.356 2.611 5.641 5.641 0 0 0 .269 1.253z" fill="#f7f7ff"/><path d="m44.111 24.73c.7.42 1.851.382 2.212-.343a2.024 2.024 0 0 0 .172-.877c.014-.7.052-2.01-.733-2.365a1.552 1.552 0 0 0 -1.553.135 1.592 1.592 0 0 0 -.456.734 4.412 4.412 0 0 0 -.253 1.408 1.933 1.933 0 0 0 .122.78 1.165 1.165 0 0 0 .489.528z" fill="#f7f7ff"/></g></svg>