<svg height="512" viewBox="0 0 64 64" width="512" xmlns="http://www.w3.org/2000/svg"><g id="_20-Hospital" data-name="20-Hospital"><path d="m44 59h-24l4-4h16z" fill="#777ead"/><path d="m46 59v4h-28v-4h2 24z" fill="#c7ccf0"/><path d="m63 49v2a4 4 0 0 1 -4 4h-54a4 4 0 0 1 -4-4v-2z" fill="#d3d9f2"/><g fill="#484c6b"><path d="m13 20-12 12v-17a4 4 0 0 1 3.1-3.9z"/><path d="m43 49h-8l-9-9-7-7-9 9 7 7h-16v-4l19-19z"/><path d="m63 32v17h-5l-6-6z"/><path d="m59 11a4 4 0 0 1 4 4v5l-17 17-26-26h13.35a12.991 12.991 0 0 0 9.23 15.53l3.42 5.47 3.42-5.47a12.991 12.991 0 0 0 9.23-15.53z"/></g><path d="m11.636 36.05h12.728v9.899h-12.728z" fill="#5369f5" transform="matrix(.707 -.707 .707 .707 -23.719 24.737)"/><path d="m35 49h-18l9-9z" fill="#848ab8"/><path d="m63 20v12l-11 11 6 6h-15l-23-23-19 19v-13l12-12-8.9-8.9a4.431 4.431 0 0 1 .9-.1h15l26 26z" fill="#5369f5"/><path d="m53 11v6h-4v4h-6v-4h-4v-6h4v-4h6v4z" fill="#fff"/><path d="m58.65 11a12.991 12.991 0 0 1 -9.23 15.53l-3.42 5.47-3.42-5.47a12.995 12.995 0 1 1 16.07-15.53zm-5.65 6v-6h-4v-4h-6v4h-4v6h4v4h6v-4z" fill="#d6475c"/><path d="m35.149 26.149 3.676 3.676a12.941 12.941 0 0 0 3.755 1.705l3.42 5.47 3.42-5.47a12.941 12.941 0 0 0 3.755-1.705l3.676-3.676a12.732 12.732 0 0 0 1.893-9.62 13 13 0 0 1 -9.324 10l-3.42 5.471-3.42-5.47a13 13 0 0 1 -9.324-10 12.732 12.732 0 0 0 1.893 9.62z" fill="#2c2f42"/><path d="m56.851 26.149-3.676 3.676a13.052 13.052 0 0 0 3.676-3.676z" fill="#2e3f99"/><path d="m38.825 29.825-3.676-3.676a13.052 13.052 0 0 0 3.676 3.676z" fill="#2e3f99"/><path d="m24.828 57.172a4 4 0 0 1 2.829-1.172h13.343l-1-1h-16l-4 4h5.586a1.071 1.071 0 0 1 -.758-1.828z" fill="#60658f"/><path d="m21 59a2 2 0 0 0 2 2h18a2 2 0 0 0 2-2h3v4h-28v-4z" fill="#a8accf"/><path d="m62 49v2a3 3 0 0 1 -3 3h-54a3 3 0 0 1 -3-3v-2h-1v2a4 4 0 0 0 4 4h54a4 4 0 0 0 4-4v-2z" fill="#b8bce0"/><path d="m53 10h-3v-3a1 1 0 0 0 -1-1h-6a1 1 0 0 0 -1 1v3h-3a1 1 0 0 0 -1 1v6a1 1 0 0 0 1 1h3v3a1 1 0 0 0 1 1h6a1 1 0 0 0 1-1v-3h3a1 1 0 0 0 1-1v-6a1 1 0 0 0 -1-1zm0 7h-4v4h-6v-4h-4v-6h4v-4h6v4h4z" fill="#ad3445"/><path d="m58.51 10.5a13 13 0 0 1 -9.51 9.138v1.362h-6v-1.362a13 13 0 0 1 -9.51-9.138c-.046.167-.1.331-.14.5a12.991 12.991 0 0 0 9.23 15.53l3.42 5.47 3.42-5.47a12.991 12.991 0 0 0 9.23-15.53c-.04-.169-.094-.333-.14-.5z" fill="#ad3445"/><path d="m55.219 6.278a2.386 2.386 0 0 0 -1.476-.544c-.55.027-.992.3-.832.912a3.732 3.732 0 0 0 1.037 1.537l1.484 1.555a1.972 1.972 0 0 0 1.087.715.254.254 0 0 0 .161-.019.276.276 0 0 0 .1-.117 2.2 2.2 0 0 0 .18-1.367 3.436 3.436 0 0 0 -.731-1.63 6.281 6.281 0 0 0 -.778-.859c-.076-.061-.151-.124-.232-.183z" fill="#fff"/><path d="m51.09 3.536a.717.717 0 0 0 -.492.058.553.553 0 0 0 -.129.736 1.08 1.08 0 0 0 .675.443 2.124 2.124 0 0 0 .64.068c.428-.02.834-.35.45-.726a2.147 2.147 0 0 0 -1.144-.579z" fill="#fff"/><path d="m2 49h60v1h-60z" fill="#e1e7f7"/><path d="m13.866 14.285a2.533 2.533 0 0 1 .131.84 2.607 2.607 0 0 1 -.729 2.054q-1.136 1.314-2.379 2.517c-.793.767-1.482 1.646-2.283 2.4a2.389 2.389 0 0 1 -2.1.878 2.334 2.334 0 0 1 -.953-.358c-1.327-.9-1.725-3.223-1.483-4.76a5.765 5.765 0 0 1 2.591-3.892 7.754 7.754 0 0 1 5.728-.708 2.839 2.839 0 0 1 1.242.663 1.045 1.045 0 0 1 .235.366z" fill="#fff"/><path d="m52.028 43.706a1.1 1.1 0 0 1 .346-1.083 6.362 6.362 0 0 1 2.526-1.135 10.987 10.987 0 0 1 3.269-.488 3.424 3.424 0 0 1 1.031.128c.993.322.869 1.5.639 2.339a5.667 5.667 0 0 1 -1.559 2.494 3.658 3.658 0 0 1 -1.418.929 3.356 3.356 0 0 1 -2.015-.115 3.045 3.045 0 0 1 -.932-.656q-.476-.393-.915-.821a3.407 3.407 0 0 1 -.972-1.592z" fill="#fff"/><path d="m18 17.033c.043 0 .087 0 .131-.005.288-.018.579-.028.871-.028a2 2 0 0 0 0-4c-.379 0-.756.013-1.13.037a2 2 0 0 0 .128 4z" fill="#f7f7ff"/></g></svg>