<svg height="512" viewBox="0 0 64 64" width="512" xmlns="http://www.w3.org/2000/svg"><g id="_24-Microscope" data-name="24-Microscope"><path d="m53.41 59.59a1.955 1.955 0 0 1 .59 1.41 2.006 2.006 0 0 1 -2 2h-40a2.015 2.015 0 0 1 -2-2 2.006 2.006 0 0 1 2-2h40a1.955 1.955 0 0 1 1.41.59z" fill="#567bff"/><path d="m34 49v2h-18-6v-4h24z" fill="#567bff"/><path d="m28 22v2h-12v-2a2.006 2.006 0 0 1 2-2h8a2.006 2.006 0 0 1 2 2z" fill="#848ab8"/><path d="m28.379 1.257h4.243v8.485h-4.243z" fill="#567bff" transform="matrix(.707 -.707 .707 .707 5.044 23.178)"/><path d="m26 34v3l-2 2h-4l-2-2v-3z" fill="#6c72a1"/><path d="m32 10-6 6v4h-8v-8l8-8z" fill="#f7f7ff"/><path d="m28 31v1a2.006 2.006 0 0 1 -2 2h-8a2.006 2.006 0 0 1 -2-2v-8h12z" fill="#567bff"/><path d="m47 59h-27l-4-4v-4h18v-2h2a2.006 2.006 0 0 0 2-2v-7s0-9-5-9h-5v-9h5a18 18 0 0 1 18 18v19z" fill="#d3d9f2"/><path d="m52 61h-40a1.987 1.987 0 0 1 -1.721-1 2 2 0 0 0 1.721 3h40a2.006 2.006 0 0 0 2-2 1.963 1.963 0 0 0 -.279-1 2 2 0 0 1 -1.721 1z" fill="#3b51c4"/><path d="m27.129 1.775h4.243v4.95h-4.243z" fill="#567bff" transform="matrix(.707 -.707 .707 .707 5.562 21.928)"/><path d="m30.129 5.482h4.243v3.536h-4.243z" fill="#3b51c4" transform="matrix(.707 -.707 .707 .707 4.319 24.928)"/><path d="m29.5 7.5-6.5 6.5 3 2 6-6z" fill="#c7ccf0"/><path d="m23 15v-1l-5-2v5h3a2 2 0 0 0 2-2z" fill="#e1e7f7"/><path d="m23 15a2 2 0 0 1 -2 2h-3v3h8v-4l-3-2z" fill="#b8bce0"/><path d="m29.5 7.5-3.5-3.5-8 8 5 2z" fill="#f7f7ff"/><path d="m25 20h1a2.006 2.006 0 0 1 2 2v2h-3z" fill="#6c72a1"/><path d="m22 31h1a2 2 0 0 0 2-2v-5h3v8a2.006 2.006 0 0 1 -2 2h-8a2.006 2.006 0 0 1 -2-2v-1z" fill="#3b51c4"/><path d="m18 34h8v3h-8z" fill="#484c6b"/><path d="m18 30a1 1 0 0 1 -1-1v-1a1 1 0 0 1 2 0v1a1 1 0 0 1 -1 1z" fill="#e1e7f7"/><path d="m17 25a1 1 0 0 0 2 0v-1h-2z" fill="#e1e7f7"/><path d="m21 21h-2a2 2 0 0 0 -2 2v1h2v-1h2a1 1 0 0 0 0-2z" fill="#f7f7ff"/><path d="m13 47v1a2 2 0 0 0 2 2h14a2 2 0 0 0 2-2v-1h3v4h-24v-4z" fill="#3b51c4"/><path d="m25.414 55h11.586v-3a5 5 0 0 0 5-5v-12a7 7 0 0 0 -7-7 2 2 0 0 1 -2-2v-4h-5v9h5c5 0 5 9 5 9v7a2.006 2.006 0 0 1 -2 2h-2v2h-18v4l4 4h7l-2.293-2.293a1 1 0 0 1 .707-1.707z" fill="#848ab8"/><path d="m37 55h-11.586a1 1 0 0 0 -.707 1.707l2.293 2.293h24v-4z" fill="#b8bce0"/><path d="m16 51h18v3h-18z" fill="#60658f"/><path d="m38.112 25.078a2 2 0 0 0 1.236 2.544 11.366 11.366 0 0 1 6.279 5.331 1.993 1.993 0 0 0 3.7-.5 18.064 18.064 0 0 0 -7.562-8.169c-.363-.158-.729-.311-1.107-.441a2 2 0 0 0 -2.546 1.235z" fill="#f7f7ff"/><path d="m48.73 35.01a2 2 0 0 0 -1.79 2.19c.029.283.047.569.056.858a2 2 0 0 0 2 1.942h.059a2 2 0 0 0 1.871-1.505 17.95 17.95 0 0 0 -.459-2.781 1.992 1.992 0 0 0 -1.737-.704z" fill="#f7f7ff"/><path d="m57 10v6h-4v4h-6v-4h-4v-6h4v-4h6v4z" fill="#fff"/><path d="m50 1a12 12 0 0 1 0 24h-11l3.04-3.04a11.986 11.986 0 0 1 7.96-20.96zm7 15v-6h-4v-4h-6v4h-4v6h4v4h6v-4z" fill="#d6475c"/><path d="m57 9h-3v-3a1 1 0 0 0 -1-1h-6a1 1 0 0 0 -1 1v3h-3a1 1 0 0 0 -1 1v6a1 1 0 0 0 1 1h3v3a1 1 0 0 0 1 1h6a1 1 0 0 0 1-1v-3h3a1 1 0 0 0 1-1v-6a1 1 0 0 0 -1-1zm0 7h-4v4h-6v-4h-4v-6h4v-4h6v4h4z" fill="#ad3445"/><path d="m53 18.607v1.393h-6v-1.393a12 12 0 0 1 -8.607-8.607 11.888 11.888 0 0 0 3.647 11.96l-3.04 3.04h11a11.96 11.96 0 0 0 11.607-15 12 12 0 0 1 -8.607 8.607z" fill="#ad3445"/><g fill="#f6fafd"><ellipse cx="55.684" cy="5.695" rx="1.642" ry="2.286" transform="matrix(.707 -.707 .707 .707 12.295 41.057)"/><ellipse cx="58.682" cy="8.708" rx=".825" ry="1.148" transform="matrix(.707 -.707 .707 .707 11.042 44.061)"/></g></g></svg>