<svg height="512" viewBox="0 0 64 64" width="512" xmlns="http://www.w3.org/2000/svg"><g id="_25-Stethoscope" data-name="25-Stethoscope"><path d="m13 1a2.006 2.006 0 0 1 2 2 1.955 1.955 0 0 1 -.59 1.41 1.955 1.955 0 0 1 -1.41.59h-1v-4z" fill="#5369f5"/><path d="m34 1v4h-1a1.955 1.955 0 0 1 -1.41-.59 1.955 1.955 0 0 1 -.59-1.41 2.006 2.006 0 0 1 2-2z" fill="#5369f5"/><path d="m26 28.7v5.3h-6v-5.3a15.15 15.15 0 0 0 6 0z" fill="#d6475c"/><path d="m38 3v11a14.916 14.916 0 0 1 -4.4 10.6 15.936 15.936 0 0 1 -2.18 1.82l-2.9-2.9a10.98 10.98 0 0 0 5.48-9.52v-13h2a2.006 2.006 0 0 1 2 2z" fill="#e1e7f7"/><path d="m17.48 23.52-2.9 2.9a15.016 15.016 0 0 1 -6.58-12.42v-11a2.006 2.006 0 0 1 2-2h2v13a11.01 11.01 0 0 0 5.48 9.52z" fill="#e1e7f7"/><path d="m43 38.71v13.29a11 11 0 0 1 -22 0v-18h4v18a7 7 0 1 0 14 0v-13.29a7.042 7.042 0 0 0 4 0z" fill="#c7ccf0"/><circle cx="41" cy="32" fill="#5369f5" r="3"/><path d="m43 38.71a7.042 7.042 0 0 1 -4 0 7 7 0 1 1 4 0zm1-6.71a3 3 0 1 0 -3 3 3 3 0 0 0 3-3z" fill="#e1e7f7"/><path d="m26 28.7a15.016 15.016 0 0 1 -11.42-2.28l2.9-2.9a11.034 11.034 0 0 0 11.04 0l2.9 2.9a14.93 14.93 0 0 1 -5.42 2.28z" fill="#5369f5"/><path d="m41 33a2.986 2.986 0 0 1 -2.817-2 3 3 0 1 0 5.634 0 2.986 2.986 0 0 1 -2.817 2z" fill="#3b51c4"/><path d="m43 35.71a7.042 7.042 0 0 1 -4 0 6.991 6.991 0 0 1 -4.827-5.241 6.984 6.984 0 0 0 4.827 8.241 7.042 7.042 0 0 0 4 0 6.984 6.984 0 0 0 4.827-8.241 6.991 6.991 0 0 1 -4.827 5.241z" fill="#c7ccf0"/><path d="m36 4v10a12.976 12.976 0 0 1 -6.036 10.964l1.456 1.456a15.936 15.936 0 0 0 2.18-1.82 14.916 14.916 0 0 0 4.4-10.6v-11h-1a1 1 0 0 0 -1 1z" fill="#c7ccf0"/><path d="m10 14v-10a1 1 0 0 0 -1-1h-1v11a15.016 15.016 0 0 0 6.58 12.42l1.456-1.456a12.976 12.976 0 0 1 -6.036-10.964z" fill="#c7ccf0"/><path d="m23 27a12.916 12.916 0 0 1 -6.964-2.036l-1.456 1.456a15.016 15.016 0 0 0 16.84 0l-1.456-1.456a12.916 12.916 0 0 1 -6.964 2.036z" fill="#3b51c4"/><path d="m13 3v-2h-1v4h1a1.955 1.955 0 0 0 1.41-.59 1.911 1.911 0 0 0 .311-.41h-.721a1 1 0 0 1 -1-1z" fill="#3b51c4"/><path d="m33 1v2a1 1 0 0 1 -1 1h-.721a1.911 1.911 0 0 0 .311.41 1.955 1.955 0 0 0 1.41.59h1v-4z" fill="#3b51c4"/><path d="m24 30h2v-1.3a15.15 15.15 0 0 1 -6 0v5.3h2v-2a2 2 0 0 1 2-2z" fill="#ad3445"/><path d="m41 39a6.908 6.908 0 0 1 -2-.29v2.29a2 2 0 0 1 2 2v9a9 9 0 0 1 -18 0v-13a2 2 0 0 1 2-2v-3h-4v18a11 11 0 1 0 22 0v-13.29a6.908 6.908 0 0 1 -2 .29z" fill="#999dc2"/><path d="m32 61a8.991 8.991 0 0 1 -8.706-6.75 1 1 0 1 1 1.936-.5 6.99 6.99 0 0 0 13.54 0 1 1 0 1 1 1.936.5 8.991 8.991 0 0 1 -8.706 6.75z" fill="#d9ddff"/><g fill="#5369f5"><path d="m16 47.5h-12a.5.5 0 0 0 0 1h12a.5.5 0 0 0 0-1z"/><path d="m9.354 35.646a.5.5 0 0 0 -.708.708l7 7a.5.5 0 0 0 .708-.708z"/><path d="m15.646 52.646-7 7a.5.5 0 0 0 .708.708l7-7a.5.5 0 0 0 -.708-.708z"/><path d="m60 47.5h-12a.5.5 0 0 0 0 1h12a.5.5 0 0 0 0-1z"/><path d="m48 43.5a.5.5 0 0 0 .354-.146l7-7a.5.5 0 0 0 -.708-.708l-7 7a.5.5 0 0 0 .354.854z"/><path d="m48.354 52.646a.5.5 0 0 0 -.708.708l7 7a.5.5 0 0 0 .708-.708z"/></g><rect fill="#b8bce0" height="7" rx="1" width="2" x="36" y="8"/><rect fill="#b8bce0" height="3" rx="1" width="2" x="36" y="4"/><rect fill="#b8bce0" height="7" rx="1" width="2" x="8" y="8"/><rect fill="#b8bce0" height="3" rx="1" width="2" x="8" y="4"/><path d="m41 28a4 4 0 1 0 4 4 4 4 0 0 0 -4-4zm0 7a3 3 0 1 1 3-3 3 3 0 0 1 -3 3z" fill="#1b2b85"/><path d="m41 25a7 7 0 0 0 -2 13.71 7.042 7.042 0 0 0 4 0 7 7 0 0 0 -2-13.71zm0 13a6 6 0 1 1 6-6 6 6 0 0 1 -6 6z" fill="#5369f5"/><ellipse cx="41.682" cy="30.708" fill="#f6fafd" rx=".825" ry="1.148" transform="matrix(.707 -.707 .707 .707 -9.503 38.485)"/></g></svg>