<svg height="512" viewBox="0 0 64 64" width="512" xmlns="http://www.w3.org/2000/svg"><g id="_27-Sugar_Blood_Level" data-name="27-Sugar Blood Level"><path d="m19 34a2.006 2.006 0 0 1 2 2 2.015 2.015 0 0 1 -2 2h-4v-4z" fill="#5369f5"/><path d="m18 38h1a2.015 2.015 0 0 0 2-2 2.006 2.006 0 0 0 -2-2h-4v4zm29-5v16a2.006 2.006 0 0 1 -2 2h-32a2.006 2.006 0 0 1 -2-2v-16a2.006 2.006 0 0 1 2-2h32a2.006 2.006 0 0 1 2 2z" fill="#5369f5"/><path d="m51 11h-6a4 4 0 0 1 -4-4v-6z" fill="#c7ccf0"/><path d="m51 11v48a4 4 0 0 1 -4 4h-36a4 4 0 0 1 -4-4v-56a2.006 2.006 0 0 1 2-2h32v6a4 4 0 0 0 4 4zm-4 38v-16a2.006 2.006 0 0 0 -2-2h-32a2.006 2.006 0 0 0 -2 2v16a2.006 2.006 0 0 0 2 2h32a2.006 2.006 0 0 0 2-2zm-11-26v-6h-4v-4h-6v4h-4v6h4v4h6v-4z" fill="#f7f7ff"/><path d="m36 17v6h-4v4h-6v-4h-4v-6h4v-4h6v4z" fill="#d6475c"/><path d="m17.518 38a38.954 38.954 0 0 1 -2.083-4c-.441-.98-.846-1.979-1.207-3h-1.228a2.006 2.006 0 0 0 -2 2v16a2.006 2.006 0 0 0 2 2h17.225a39.189 39.189 0 0 1 -12.707-13z" fill="#3b51c4"/><path d="m30.225 51h-17.225a2.006 2.006 0 0 1 -2-2v-16a2.006 2.006 0 0 1 2-2h1.228a38.917 38.917 0 0 1 -2.228-13v-17h-3a2.006 2.006 0 0 0 -2 2v56a4 4 0 0 0 4 4h36a4 4 0 0 0 4-4v-2a38.807 38.807 0 0 1 -20.775-6z" fill="#e1e7f7"/><path d="m36 16h-3v-3a1 1 0 0 0 -1-1h-6a1 1 0 0 0 -1 1v3h-3a1 1 0 0 0 -1 1v6a1 1 0 0 0 1 1h3v3a1 1 0 0 0 1 1h6a1 1 0 0 0 1-1v-3h3a1 1 0 0 0 1-1v-6a1 1 0 0 0 -1-1zm0 7h-4v4h-6v-4h-4v-6h4v-4h6v4h4z" fill="#ad3445"/><g fill="#f7f7ff"><path d="m19 39h-4a1 1 0 0 1 -1-1v-4a1 1 0 0 1 1-1h4a3 3 0 0 1 0 6zm-3-2h3a1 1 0 0 0 0-2h-3z"/><path d="m20 43a1 1 0 0 1 -.9-.553l-2-4a1 1 0 1 1 1.79-.894l2 4a1 1 0 0 1 -.89 1.447z"/><path d="m29 49a1 1 0 0 1 -.8-.4l-6-8a1 1 0 0 1 1.6-1.2l6 8a1 1 0 0 1 -.8 1.6z"/><path d="m23 49a1 1 0 0 1 -.8-1.6l6-8a1 1 0 1 1 1.6 1.2l-6 8a1 1 0 0 1 -.8.4z"/><path d="m34 38h-2a1 1 0 0 1 0-2h2a1 1 0 0 1 0 2z"/><path d="m44 38h-6a1 1 0 0 1 0-2h6a1 1 0 0 1 0 2z"/><path d="m44 42h-12a1 1 0 0 1 0-2h12a1 1 0 0 1 0 2z"/><path d="m44 46h-12a1 1 0 0 1 0-2h12a1 1 0 0 1 0 2z"/><path d="m15 43a1 1 0 0 1 -1-1v-4a1 1 0 0 1 2 0v4a1 1 0 0 1 -1 1z"/></g><path d="m16 6h-1a1 1 0 0 1 0-2h1a1 1 0 0 1 0 2z" fill="#e1e7f7"/><path d="m26 6h-6a1 1 0 0 1 0-2h6a1 1 0 0 1 0 2z" fill="#e1e7f7"/></g></svg>