<svg height="512" viewBox="0 0 64 64" width="512" xmlns="http://www.w3.org/2000/svg"><g id="_27-Sugar_Blood_Level" data-name="27-Sugar Blood Level"><path d="m43 53v10h-22v-10-10-4h22v4z" fill="#e1e7f7"/><path d="m21 39v4h-4a2.015 2.015 0 0 1 -2-2 2.006 2.006 0 0 1 2-2z" fill="#60658f"/><path d="m47 39a2.006 2.006 0 0 1 2 2 2.015 2.015 0 0 1 -2 2h-4v-4z" fill="#60658f"/><path d="m56 3v48a2.006 2.006 0 0 1 -2 2h-11v-10h4a2.015 2.015 0 0 0 2-2 2.006 2.006 0 0 0 -2-2h-30a2.006 2.006 0 0 0 -2 2 2.015 2.015 0 0 0 2 2h4v10h-11a2.006 2.006 0 0 1 -2-2v-48a2.006 2.006 0 0 1 2-2h44a2.006 2.006 0 0 1 2 2zm-4 32v-30h-40v30z" fill="#567bff"/><path d="m32 26a5 5 0 0 1 -10 0c0-2.76 5-7 5-7s5 4.24 5 7z" fill="#d6475c"/><path d="m42 16a5 5 0 0 1 -10 0c0-2.76 5-7 5-7s5 4.24 5 7z" fill="#d6475c"/><path d="m52 5v30h-40v-30zm-15 16a5 5 0 0 0 5-5c0-2.76-5-7-5-7s-5 4.24-5 7a5 5 0 0 0 5 5zm-10 10a5 5 0 0 0 5-5c0-2.76-5-7-5-7s-5 4.24-5 7a5 5 0 0 0 5 5z" fill="#f7f7ff"/><path d="m33.139 13.186a5.466 5.466 0 0 0 -1.139 2.814 4.987 4.987 0 0 0 9.013 2.956c-4.003-.339-7.204-2.715-7.874-5.77z" fill="#ad3445"/><path d="m23.139 23.186a5.466 5.466 0 0 0 -1.139 2.814 4.987 4.987 0 0 0 9.013 2.956c-4.003-.339-7.204-2.715-7.874-5.77z" fill="#ad3445"/><path d="m12 5v3 27h2v-27h36v27h2v-27-3z" fill="#c7ccf0"/><path d="m54 1h-44a2.006 2.006 0 0 0 -2 2v3a2.006 2.006 0 0 1 2-2h44a2.006 2.006 0 0 1 2 2v-3a2.006 2.006 0 0 0 -2-2z" fill="#78a2ff"/><path d="m29.1 30.523c-.084.04-.169.081-.256.116.087-.039.17-.076.256-.116z" fill="#d6475c"/><path d="m31.013 28.956a5.122 5.122 0 0 1 -.693.756 4.969 4.969 0 0 0 1.68-3.712 3.064 3.064 0 0 0 -.147-.853l-3.31 3.31a11.062 11.062 0 0 0 2.47.499z" fill="#ad3445"/><g fill="#d6475c"><path d="m30.031 29.951a5.083 5.083 0 0 1 -.437.3 5.083 5.083 0 0 0 .437-.3z"/><path d="m27 19a25.17 25.17 0 0 0 -3.861 4.186 7.643 7.643 0 0 0 5.4 5.271l3.31-3.31c-.794-2.702-4.849-6.147-4.849-6.147z"/><path d="m22.723 23.85c.128-.222.265-.443.415-.664-.15.221-.287.442-.415.664z"/><path d="m22.381 24.516q.11-.241.243-.486c-.089.164-.17.325-.243.486z"/><path d="m22 26a2.779 2.779 0 0 1 .079-.613 2.779 2.779 0 0 0 -.079.613z"/><path d="m28.083 30.875c-.062.014-.125.023-.188.035.063-.01.126-.021.188-.035z"/><path d="m22.134 25.191a4.664 4.664 0 0 1 .155-.458 4.664 4.664 0 0 0 -.155.458z"/><path d="m39.1 20.523c-.084.04-.169.081-.256.116.087-.039.17-.076.256-.116z"/><path d="m32.381 14.516q.109-.242.243-.486c-.089.164-.17.325-.243.486z"/><path d="m32.134 15.191a4.664 4.664 0 0 1 .155-.458 4.664 4.664 0 0 0 -.155.458z"/><path d="m32 16a2.779 2.779 0 0 1 .079-.613 2.779 2.779 0 0 0 -.079.613z"/><path d="m40.031 19.951a5.083 5.083 0 0 1 -.437.3 5.083 5.083 0 0 0 .437-.3z"/><path d="m37 9a25.17 25.17 0 0 0 -3.861 4.186 7.643 7.643 0 0 0 5.4 5.271l3.31-3.31c-.794-2.702-4.849-6.147-4.849-6.147z"/></g><path d="m41.013 18.956a5.122 5.122 0 0 1 -.693.756 4.969 4.969 0 0 0 1.68-3.712 3.064 3.064 0 0 0 -.147-.853l-3.31 3.31a11.062 11.062 0 0 0 2.47.499z" fill="#ad3445"/><path d="m32.723 13.85c.128-.222.265-.443.415-.664-.15.221-.287.442-.415.664z" fill="#d6475c"/><path d="m38.083 20.875c-.062.014-.125.023-.188.035.063-.01.126-.021.188-.035z" fill="#d6475c"/><path d="m50 8h-1l-7.147 7.147a3.064 3.064 0 0 1 .147.853 4.969 4.969 0 0 1 -1.68 3.712c-.093.084-.19.162-.289.239a5.083 5.083 0 0 1 -.437.3 4.817 4.817 0 0 1 -.5.268c-.085.04-.168.081-.256.116a4.965 4.965 0 0 1 -.76.236c-.062.014-.125.023-.188.035a4.511 4.511 0 0 1 -1.8 0l-4.239 4.239a3.064 3.064 0 0 1 .149.855 4.969 4.969 0 0 1 -1.68 3.712c-.093.084-.19.162-.289.239a5.083 5.083 0 0 1 -.437.3 4.817 4.817 0 0 1 -.5.268c-.085.04-.168.081-.256.116a4.965 4.965 0 0 1 -.76.236c-.062.014-.125.023-.188.035a4.511 4.511 0 0 1 -1.8 0l-4.09 4.094h14l14-14z" fill="#bfd8ff"/><path d="m36 35h14v-14z" fill="#d6e6ff"/><path d="m22 26a2.779 2.779 0 0 1 .079-.613c.014-.064.037-.13.055-.2a4.664 4.664 0 0 1 .155-.458c.029-.072.06-.144.092-.217.073-.161.154-.322.243-.486.033-.06.063-.12.1-.18.128-.222.265-.443.415-.664a25.17 25.17 0 0 1 3.861-4.182s4.055 3.445 4.853 6.147l4.239-4.239a5 5 0 0 1 -4.092-4.908 2.779 2.779 0 0 1 .079-.613c.014-.064.037-.13.055-.2a4.664 4.664 0 0 1 .155-.458c.029-.072.06-.144.092-.217.073-.161.154-.322.243-.486.033-.06.063-.12.1-.18.128-.222.265-.443.415-.664a25.17 25.17 0 0 1 3.861-4.182s4.055 3.445 4.853 6.147l7.147-7.147h-15l-20 20v7h8l4.092-4.092a5 5 0 0 1 -4.092-4.908z" fill="#d6e6ff"/><path d="m14 28 20-20h-20z" fill="#bfd8ff"/><path d="m33.139 13.186c-.15.221-.287.442-.415.664-.035.06-.066.12-.1.18q-.134.245-.243.486c-.032.073-.063.145-.092.217a4.664 4.664 0 0 0 -.155.458c-.018.066-.041.132-.055.2a2.779 2.779 0 0 0 -.079.609 5 5 0 0 0 4.092 4.908l2.451-2.451a7.643 7.643 0 0 1 -5.404-5.271z" fill="#ad3445"/><path d="m41.013 18.956a11.062 11.062 0 0 1 -2.47-.5l-2.451 2.451a4.511 4.511 0 0 0 1.8 0c.063-.012.126-.021.188-.035a5 5 0 0 0 .76-.236c.087-.035.172-.076.256-.116a4.817 4.817 0 0 0 .5-.268 5.083 5.083 0 0 0 .437-.3c.1-.077.2-.155.289-.239a5.122 5.122 0 0 0 .691-.757z" fill="#85002a"/><path d="m40.32 19.712c-.093.084-.19.162-.289.239.099-.077.196-.151.289-.239z" fill="#ad3445"/><path d="m37.9 20.91a4.974 4.974 0 0 1 -.9.09 4.974 4.974 0 0 0 .9-.09z" fill="#ad3445"/><path d="m39.594 20.255a4.817 4.817 0 0 1 -.5.268 4.817 4.817 0 0 0 .5-.268z" fill="#ad3445"/><path d="m38.843 20.639a5 5 0 0 1 -.76.236 4.965 4.965 0 0 0 .76-.236z" fill="#ad3445"/><path d="m32.624 14.03c.033-.06.064-.12.1-.18-.037.06-.067.12-.1.18z" fill="#ad3445"/><path d="m32.289 14.733c.029-.072.06-.144.092-.217-.032.073-.063.145-.092.217z" fill="#ad3445"/><path d="m33.139 13.186h-.001z" fill="#ad3445"/><path d="m32.079 15.387c.014-.064.037-.13.055-.2-.018.07-.041.136-.055.2z" fill="#ad3445"/><path d="m31.013 28.956a11.062 11.062 0 0 1 -2.47-.5l-2.451 2.451a4.511 4.511 0 0 0 1.8 0c.063-.012.126-.021.188-.035a5 5 0 0 0 .76-.236c.087-.035.172-.076.256-.116a4.817 4.817 0 0 0 .5-.268 5.083 5.083 0 0 0 .437-.3c.1-.077.2-.155.289-.239a5.122 5.122 0 0 0 .691-.757z" fill="#85002a"/><path d="m23.139 23.186c-.15.221-.287.442-.415.664-.035.06-.066.12-.1.18q-.133.245-.243.486c-.032.073-.063.145-.092.217a4.664 4.664 0 0 0 -.155.458c-.018.066-.041.132-.055.2a2.779 2.779 0 0 0 -.079.609 5 5 0 0 0 4.092 4.908l2.451-2.451a7.643 7.643 0 0 1 -5.404-5.271z" fill="#ad3445"/><path d="m22.289 24.733c.029-.072.06-.144.092-.217-.032.073-.063.145-.092.217z" fill="#ad3445"/><path d="m30.32 29.712c-.093.084-.19.162-.289.239.099-.077.196-.151.289-.239z" fill="#ad3445"/><path d="m29.594 30.255a4.817 4.817 0 0 1 -.5.268 4.817 4.817 0 0 0 .5-.268z" fill="#ad3445"/><path d="m22.624 24.03c.033-.06.064-.12.1-.18-.037.06-.067.12-.1.18z" fill="#ad3445"/><path d="m22.079 25.387c.014-.064.037-.13.055-.2-.018.07-.041.136-.055.2z" fill="#ad3445"/><path d="m23.139 23.186h-.001z" fill="#ad3445"/><path d="m28.843 30.639a5 5 0 0 1 -.76.236 4.965 4.965 0 0 0 .76-.236z" fill="#ad3445"/><path d="m27.9 30.91a4.974 4.974 0 0 1 -.9.09 4.974 4.974 0 0 0 .9-.09z" fill="#ad3445"/><path d="m49 8 3-3h-15l-3 3z" fill="#52577a"/><path d="m50 21v14h2v-16z" fill="#484c6b"/><path d="m50 8v13l2-2v-11-3l-3 3z" fill="#5e638c"/><path d="m12 30v5h2v-7z" fill="#5e638c"/><path d="m14 8h20l3-3h-25v3 22l2-2z" fill="#484c6b"/><path d="m37.646 8.237a1 1 0 0 0 -1.292 0c-.548.463-5.354 4.63-5.354 7.763a6 6 0 0 0 12 0c0-3.133-4.806-7.3-5.354-7.763zm-.646 12.763a5 5 0 0 1 -5-5c0-2.76 5-7 5-7s5 4.24 5 7a5 5 0 0 1 -5 5z" fill="#edf4ff"/><path d="m27.646 18.237a1 1 0 0 0 -1.292 0c-.548.463-5.354 4.63-5.354 7.763a6 6 0 0 0 12 0c0-3.133-4.806-7.3-5.354-7.763zm-.646 12.763a5 5 0 0 1 -5-5c0-2.76 5-7 5-7s5 4.24 5 7a5 5 0 0 1 -5 5z" fill="#edf4ff"/><ellipse cx="39.682" cy="15.708" fill="#f6fafd" rx=".825" ry="1.148" transform="matrix(.707 -.707 .707 .707 .521 32.673)"/><ellipse cx="29.682" cy="25.708" fill="#f6fafd" rx=".825" ry="1.148" transform="matrix(.707 -.707 .707 .707 -9.484 28.531)"/><path d="m52 4h-40a1 1 0 0 0 -1 1v30a1 1 0 0 0 1 1h40a1 1 0 0 0 1-1v-30a1 1 0 0 0 -1-1zm0 31h-40v-30h40z" fill="#3b51c4"/><path d="m47 38h-30a3 3 0 0 0 0 6h4v-1h-4a2.015 2.015 0 0 1 -2-2 2.006 2.006 0 0 1 2-2h30a2.006 2.006 0 0 1 2 2 2.015 2.015 0 0 1 -2 2h-4v1h4a3 3 0 0 0 0-6z" fill="#3245a6"/><path d="m54 50h-9v-6h-2v9h11a2.006 2.006 0 0 0 2-2v-3a2.006 2.006 0 0 1 -2 2z" fill="#3b51c4"/><path d="m19 50h-9a2.006 2.006 0 0 1 -2-2v3a2.006 2.006 0 0 0 2 2h11v-9h-2z" fill="#3b51c4"/><path d="m17 39a2.006 2.006 0 0 0 -2 2 1.963 1.963 0 0 0 .279 1 2 2 0 0 1 1.721-1h2v2h2v-4z" fill="#33364d"/><path d="m47 39h-4v4h2v-2h2a2 2 0 0 1 1.721 1 1.963 1.963 0 0 0 .279-1 2.006 2.006 0 0 0 -2-2z" fill="#33364d"/><path d="m21 39h22v2h-22z" fill="#c7ccf0"/><path d="m33 57h-2a10 10 0 0 1 -10-10v16h22v-16a10 10 0 0 1 -10 10z" fill="#c7ccf0"/><path d="m24.866 10.285a2.533 2.533 0 0 1 .131.84 2.607 2.607 0 0 1 -.729 2.054q-1.136 1.314-2.379 2.517c-.793.767-1.482 1.646-2.283 2.4a2.389 2.389 0 0 1 -2.1.878 2.334 2.334 0 0 1 -.953-.358c-1.327-.9-1.725-3.223-1.483-4.76a5.765 5.765 0 0 1 2.591-3.892 7.754 7.754 0 0 1 5.728-.708 2.839 2.839 0 0 1 1.242.663 1.045 1.045 0 0 1 .235.366z" fill="#fff"/><path d="m43.377 32.222a1.354 1.354 0 0 1 -.365-1.163 7.708 7.708 0 0 1 1.111-2.7 11.477 11.477 0 0 1 1.99-2.667 3.034 3.034 0 0 1 .784-.6c.866-.408 1.435.68 1.745 1.556a7.561 7.561 0 0 1 .313 3.2 4.706 4.706 0 0 1 -.462 1.768 3.087 3.087 0 0 1 -1.457 1.284 2.208 2.208 0 0 1 -1.01.082q-.548-.009-1.091-.071a2.682 2.682 0 0 1 -1.558-.689z" fill="#fff"/><path d="m26 59h-2a1 1 0 0 1 0-2h2a1 1 0 0 1 0 2z" fill="#60658f"/><path d="m40 59h-10a1 1 0 0 1 0-2h10a1 1 0 0 1 0 2z" fill="#60658f"/><path d="m40 55h-16a1 1 0 0 1 0-2h16a1 1 0 0 1 0 2z" fill="#60658f"/><path d="m40 44h-16a1 1 0 0 1 0-2h16a1 1 0 0 1 0 2z" fill="#60658f"/></g></svg>