<svg height="512" viewBox="0 0 64 64" width="512" xmlns="http://www.w3.org/2000/svg"><g id="_28-Doctor" data-name="28-Doctor"><path d="m34.6 43.6-1.6 2.4h-2l-1.6-2.4 2.6-2.6z" fill="#a8accf"/><path d="m33 46 .97 6.81-1.97 4.19-1.97-4.19.97-6.81z" fill="#a8accf"/><g fill="#f7f7ff"><path d="m24 40 3.84 8.16-2.84 2.84-3-3v-7.5z"/><path d="m24 52 1-1 2.84-2.84 2.19 4.65 1.97 4.19v6h-2z"/><path d="m33.97 52.81 2.19-4.65 2.84 2.84 1 1-6 11h-2v-6z"/><path d="m42 40.5v7.5l-3 3-2.84-2.84 3.84-8.16z"/></g><path d="m18 63h-6v-15.32a6 6 0 0 1 4.54-5.82l.46-.11 5-1.25v7.5l3 3-1 1 6 11z" fill="#e1e7f7"/><path d="m46 63h-12l6-11-1-1 3-3v-7.5l5 1.25.46.11a6 6 0 0 1 4.54 5.82v15.32z" fill="#e1e7f7"/><path d="m33.97 52.81-.97-6.81 1.6-2.4.4.4 5-4-3.84 8.16z" fill="#5369f5"/><path d="m27.84 48.16-3.84-8.16 5 4 .4-.4 1.6 2.4-.97 6.81z" fill="#5369f5"/><path d="m34.6 43.6-2.6-2.6 4-2 4 1-5 4z" fill="#6b95ff"/><path d="m29.4 43.6-.4.4-5-4 4-1 4 2z" fill="#6b95ff"/><path d="m32.53 33.98q.33-.015.66-.06l.39-.06a8.609 8.609 0 0 0 2.42-.8v5.94l-4 2-4-2v-5.94l2.42.8.39.06.66.06.53.02c.18 0 .36-.01.53-.02z" fill="#ffe0c7"/><path d="m23 17v4h-1a2.006 2.006 0 0 0 -2 2v-10c0-4.84 3-9 8-9v9h-1a4 4 0 0 0 -4 4z" fill="#373a52"/><path d="m42.92 26.15a5.19 5.19 0 0 1 -1.92 1.51 3.656 3.656 0 0 1 -.46.18c.08-.22.14-.45.2-.68s.1-.46.14-.7c.03-.18.05-.35.07-.53a2.458 2.458 0 0 0 .02-.28c.02-.21.03-.43.03-.65v-4h1a2.006 2.006 0 0 1 2 2 5.108 5.108 0 0 1 -1.08 3.15z" fill="#ffe0c7"/><path d="m23 25c0 .21.01.42.02.62a.037.037 0 0 0 .01.03 2.458 2.458 0 0 0 .02.28c.02.18.04.36.07.53.04.24.08.47.14.7s.12.46.2.68a3.656 3.656 0 0 1 -.46-.18 5.19 5.19 0 0 1 -1.92-1.51c-.03-.04-.05-.07-.08-.11a5.1 5.1 0 0 1 -1-3.04 2.006 2.006 0 0 1 2-2h1z" fill="#ffe0c7"/><path d="m28 13s0-3 4-3c3.79 0 2.28 6.91 9 8v5c0 1.11-4.03 2-9 2s-9-1.34-9-3v-5a4 4 0 0 1 4-4z" fill="#ffe0c7"/><path d="m32 25c-4.97 0-9-1.34-9-3v3a9 9 0 0 0 18 0v-2c0 1.11-4.03 2-9 2z" fill="#e1e7f7"/><path d="m41 18c-6.72-1.09-5.21-8-9-8-4 0-4 3-4 3v-9a3 3 0 0 1 3-3 13.008 13.008 0 0 1 13 13v9a2.006 2.006 0 0 0 -2-2h-1z" fill="#373a52"/><path d="m13.246 44.025a5.986 5.986 0 0 0 -1.246 3.655v15.32h6v-14s-1.893-4.711-4.754-4.975z" fill="#e1e7f7"/><path d="m25 51-3-3v-7.5l-5 1.25-.46.11a5.988 5.988 0 0 0 -3.294 2.165c2.861.264 4.754 4.975 4.754 4.975v14h12l-6-11z" fill="#d3d9f2"/><path d="m46 49v14h6v-15.32a5.986 5.986 0 0 0 -1.246-3.655c-2.861.264-4.754 4.975-4.754 4.975z" fill="#e1e7f7"/><path d="m50.754 44.025a5.988 5.988 0 0 0 -3.294-2.165l-.46-.11-5-1.25v7.5l-3 3 1 1-6 11h12v-14s1.893-4.711 4.754-4.975z" fill="#d3d9f2"/><path d="m32 10c-4 0-4 3-4 3h-1a3.964 3.964 0 0 0 -2 .554 3.982 3.982 0 0 0 -2 3.446v5c0 .715.751 1.37 2 1.885v-6.785a2.06 2.06 0 0 1 1.978-2.1h1.022s0-3 4-3c3.79 0 2.28 7.91 9 9v-3c-6.72-1.09-5.21-8-9-8z" fill="#ffcdba"/><path d="m25 25v-1.115c-1.249-.515-2-1.17-2-1.885v3a8.972 8.972 0 0 0 10 8.941 9 9 0 0 1 -8-8.941z" fill="#c7ccf0"/><path d="m39 17.406v6.852c1.249-.343 2-.78 2-1.258v-5a7.834 7.834 0 0 1 -2-.594z" fill="#ffeee0"/><path d="m39 24.258v.742a9 9 0 0 1 -8 8.941 8.972 8.972 0 0 0 10-8.941v-2c0 .478-.751.915-2 1.258z" fill="#f7f7ff"/><ellipse cx="37" cy="20" fill="#161821" rx="1" ry="2"/><ellipse cx="26.999" cy="20" fill="#161821" rx="1" ry="2"/><path d="m32.9 24.99a5.381 5.381 0 0 0 .1-1.133c0-1.657-.448-3.857-1-3.857s-1 2.2-1 3.857a5.422 5.422 0 0 0 .1 1.128q.444.015.9.015c.3 0 .6 0 .9-.01z" fill="#fcb59a"/><path d="m24 40-.933.233 1.144 4.005a3 3 0 0 1 -1.936 3.67l-.275.092 3 3 2.84-2.84z" fill="#e1e7f7"/><path d="m40.817 47.606a2 2 0 0 1 -1.291-2.447l1.407-4.926-.933-.233-3.84 8.16 2.84 2.84 3-3z" fill="#e1e7f7"/><path d="m34.2 44.2.4-.6-2.6-2.6-2.6 2.6.4.6 2.2-2.2z" fill="#656b9c"/><path d="m41.92 26.15a5.108 5.108 0 0 0 1.08-3.15 2.006 2.006 0 0 0 -2-2v4a8.972 8.972 0 0 1 -.289 2.254 5.07 5.07 0 0 0 1.209-1.104z" fill="#ffcdba"/><path d="m23 21a2.006 2.006 0 0 0 -2 2 5.034 5.034 0 0 0 2.289 4.254 8.972 8.972 0 0 1 -.289-2.254z" fill="#fcb59a"/><path d="m30.439 35.486a9.323 9.323 0 0 0 5.561-.029v-2.4a8.716 8.716 0 0 1 -2.42.8l-.39.06q-.33.045-.66.06c-.17.01-.35.02-.53.02s-.36-.01-.53-.02q-.33-.015-.66-.06l-.39-.06a8.716 8.716 0 0 1 -2.42-.8v5.943l3.231 1.615a7.352 7.352 0 0 1 -2.048-3.991.991.991 0 0 1 1.256-1.138z" fill="#fcb59a"/><path d="m40.5 22.992c-.142.527-3.187 1.508-8.5 1.508-5.267 0-8.5-1.456-8.5-2.5a.5.5 0 0 0 -.5-.5v1.687c1.36 1.513 5.274 2.313 9 2.313 2.92 0 7.5-.364 9-1.607v-1.393a.493.493 0 0 0 -.5.492z" fill="#8492b8"/><path d="m26 4.25v7.75a4 4 0 0 0 -4 4v.885a2.109 2.109 0 0 1 -2 2.1v4.015a2.006 2.006 0 0 1 2-2h1v-4a4 4 0 0 1 4-4h1v-9a8.126 8.126 0 0 0 -2 .25z" fill="#161821"/><path d="m43 20a1 1 0 0 1 -1-1v-2c-2.7 0-4.237-2.631-5.076-5.047a5.948 5.948 0 0 0 -5.638-3.953h-.286v-7a3 3 0 0 0 -3 3v9s0-3 4-3c3.79 0 2.28 6.91 9 8v3h1a2.006 2.006 0 0 1 2 2v-3z" fill="#2c2f42"/><path d="m37.992 5.069a2.847 2.847 0 0 0 -.287.082 1.29 1.29 0 0 0 -.661.993 4.358 4.358 0 0 0 .412 2.484 10.775 10.775 0 0 0 1.387 2.128c.678.863 1.8 2.537 3.116 2.2a1.478 1.478 0 0 0 .93-1.117 4.016 4.016 0 0 0 -.075-2.13 10.407 10.407 0 0 0 -.855-1.972 5.556 5.556 0 0 0 -1.908-2.357 2.884 2.884 0 0 0 -2.059-.311z" fill="#4b4f70"/><path d="m35 44-.4-.4-1.6 2.4.97 6.81.737-1.566-.707-4.244 4.34-3.472 1.66-3.528z" fill="#2e3f99"/><path d="m29 44-5-4 1.66 3.528 4.34 3.472-.707 4.244.737 1.566.97-6.81-1.6-2.4z" fill="#2e3f99"/><path d="m32.962 49.832.838 3.348.174-.37-.974-6.81h-2l-.97 6.81.174.37.834-3.348a.972.972 0 0 1 1.924 0z" fill="#656b9c"/><path d="m37.8 40.65a3 3 0 0 1 -3.6 0l-.6-.45-1.6.8 2.6 2.6.4.4 5-4-1-.25z" fill="#5369f5"/><path d="m29.8 40.65a3 3 0 0 1 -3.6 0l-1.2-.9-1 .25 5 4 .4-.4 2.6-2.6-1.6-.8z" fill="#5369f5"/><path d="m18 55v-6s-1.893-4.711-4.754-4.975a6.018 6.018 0 0 0 -.626 1.037 4.2 4.2 0 0 1 2.707 2.283 5.742 5.742 0 0 1 .673 2.762v6.893a4 4 0 0 1 -4 4v2h6z" fill="#c7ccf0"/><path d="m25 51-3-3v-7.5l-1.1.274-.9 7.226 3 3-1 2 1.789 3.578a3.056 3.056 0 1 1 -5.789 1.366v5.056h12l-6-11z" fill="#babfe6"/><path d="m48 57v-6.893a5.742 5.742 0 0 1 .673-2.762 4.2 4.2 0 0 1 2.707-2.283 6.018 6.018 0 0 0 -.626-1.037c-2.861.264-4.754 4.975-4.754 4.975v14h6v-2a4 4 0 0 1 -4-4z" fill="#c7ccf0"/><path d="m42.944 61a3.056 3.056 0 0 1 -2.733-4.422l1.789-3.578-1-2 3-3-.9-7.226-1.1-.274v7.5l-3 3 1 1-6 11h12v-5.056a3.056 3.056 0 0 1 -3.056 3.056z" fill="#babfe6"/><path d="m35.261 58.027c-1.583-.438-2.061-2.241-2.2-3.282l-1.061 2.255-1.06-2.255c-.14 1.041-.618 2.844-2.2 3.282a3.219 3.219 0 0 1 -1.438.024l2.698 4.949h4l2.7-4.949a3.219 3.219 0 0 1 -1.439-.024z" fill="#e1e7f7"/></g></svg>