<svg height="512" viewBox="0 0 64 64" width="512" xmlns="http://www.w3.org/2000/svg"><g id="_29-Wheel_Chair" data-name="29-Wheel Chair"><circle cx="51" cy="13" fill="#e1e7f7" r="12"/><path d="m51 20a12 12 0 0 1 -11.735-9.5 12 12 0 1 0 23.47 0 12 12 0 0 1 -11.735 9.5z" fill="#afb7f0"/><path d="m56 44v7.81a5.961 5.961 0 0 0 -6 0v-4.81h-11a15.87 15.87 0 0 0 -.8-5h15.8a2.006 2.006 0 0 1 2 2z" fill="#e1e7f7"/><circle cx="53" cy="57" fill="#567bff" r="2"/><path d="m56 51.81a6 6 0 1 1 -6 0 5.961 5.961 0 0 1 6 0zm-1 5.19a2 2 0 1 0 -2 2 2.006 2.006 0 0 0 2-2z" fill="#4b5070"/><circle cx="23" cy="47" fill="#567bff" r="3"/><path d="m23 35a12 12 0 1 1 -12 12 12 12 0 0 1 12-12zm3 12a3 3 0 1 0 -3 3 3 3 0 0 0 3-3z" fill="#edf0ff"/><path d="m38.2 42a15.994 15.994 0 1 1 -7.45-9 15.87 15.87 0 0 1 7.45 9zm-3.2 5a12 12 0 1 0 -12 12 12 12 0 0 0 12-12z" fill="#60658f"/><path d="m48 22a2.006 2.006 0 0 1 2 2 2.015 2.015 0 0 1 -2 2h-33v-4z" fill="#60658f"/><path d="m51 35v7h-5v-9h3a2.006 2.006 0 0 1 2 2z" fill="#567bff"/><path d="m43 33v9h-4.8a15.984 15.984 0 0 0 -7.45-9z" fill="#567bff"/><path d="m58 10v6h-4v4h-6v-4h-4v-6h4v-4h6v4z" fill="#d6475c"/><path d="m9 9v2h-6a1.955 1.955 0 0 1 -1.41-.59 1.955 1.955 0 0 1 -.59-1.41 2.006 2.006 0 0 1 2-2h6z" fill="#567bff"/><path d="m15 26v7.14a16.012 16.012 0 0 0 -4 3.27v-21.41a2.006 2.006 0 0 1 2-2 2.015 2.015 0 0 1 2 2z" fill="#567bff"/><path d="m46 33v9h-3v-9-7h3z" fill="#c7ccf0"/><path d="m14 13.279v-2.279a1 1 0 0 0 -.293-.707l-2-2a1 1 0 0 0 -.707-.293h-2v2h1.586l1.414 1.414v1.865a1.932 1.932 0 0 1 2 0z" fill="#60658f"/><path d="m23 41a6 6 0 1 0 6 6 6 6 0 0 0 -6-6zm0 10a4 4 0 1 1 4-4 4 4 0 0 1 -4 4z" fill="#a8accf"/><path d="m53 60a6 6 0 0 1 -5.8-4.5 6 6 0 1 0 11.608 0 6 6 0 0 1 -5.808 4.5z" fill="#373a52"/><path d="m23 48a2.986 2.986 0 0 1 -2.817-2 3 3 0 1 0 5.634 0 2.986 2.986 0 0 1 -2.817 2z" fill="#4968d9"/><path d="m53 54a3 3 0 1 0 3 3 3 3 0 0 0 -3-3zm0 5a2 2 0 1 1 2-2 2.006 2.006 0 0 1 -2 2z" fill="#edf0ff"/><path d="m23 43a4 4 0 1 0 4 4 4 4 0 0 0 -4-4zm0 7a3 3 0 1 1 3-3 3 3 0 0 1 -3 3z" fill="#373a52"/><path d="m23 34a13 13 0 1 0 13 13 13 13 0 0 0 -13-13zm0 25a12 12 0 1 1 12-12 12 12 0 0 1 -12 12z" fill="#373a52"/><path d="m23 59a12.013 12.013 0 0 1 -12-12 12.162 12.162 0 0 1 .067-1.258 2.5 2.5 0 0 1 4.973.516 7.268 7.268 0 0 0 -.04.742 7 7 0 0 0 14 0 7.268 7.268 0 0 0 -.04-.742 2.5 2.5 0 0 1 4.973-.516 12.162 12.162 0 0 1 .067 1.258 12.013 12.013 0 0 1 -12 12z" fill="#d3d9ff"/><path d="m23 62a15.017 15.017 0 0 1 -15-15c0-.319.021-.633.044-.946l.01-.124a1 1 0 0 1 1.994.14l-.009.128c-.019.266-.039.531-.039.8a13 13 0 0 0 26 0c0-.271-.02-.536-.039-.8l-.009-.128a1 1 0 1 1 1.994-.14l.01.124c.023.313.044.627.044.946a15.017 15.017 0 0 1 -15 15z" fill="#4d5273"/><path d="m55 49a2 2 0 0 1 -2-2 2 2 0 0 0 -2-2h-7a3 3 0 0 1 -3-3h-2.8a15.87 15.87 0 0 1 .8 5h11v4.81a5.961 5.961 0 0 1 6 0v-2.81z" fill="#afb7f0"/><path d="m46 26h-3v16h1v-12a2 2 0 0 1 2-2z" fill="#999fd1"/><path d="m48 24h-27a2 2 0 0 1 -2-2h-4v4h33a1.985 1.985 0 0 0 1.722-3 1.993 1.993 0 0 1 -1.722 1z" fill="#494d6e"/><path d="m13 12v-1l-2-2h-1v-1h-1v2h1.586l1.414 1.414v1.865a1.932 1.932 0 0 1 2 0v-1.279z" fill="#434663"/><g fill="#3b51c4"><path d="m8 7a2 2 0 0 1 -2 2h-4a1 1 0 0 1 -.9-.583 1.978 1.978 0 0 0 -.1.583 1.955 1.955 0 0 0 .59 1.41 1.955 1.955 0 0 0 1.41.59h6v-4z"/><path d="m14.533 30.819a1 1 0 0 1 -1.533-.844v-15.975a1 1 0 0 0 -.583-.9 2 2 0 0 0 -1.417 1.9v21.41a16.012 16.012 0 0 1 4-3.27v-2.579c-.161.083-.319.168-.467.258z"/><path d="m50 40a2 2 0 0 1 -2-2v-5h-2v9h5v-2z"/><path d="m41 38.75a1.25 1.25 0 0 1 -2.345.6c-.772-1.393-2.755-4.688-5.055-6.35h-2.85a15.984 15.984 0 0 1 7.45 9h4.8v-9h-2z"/></g><path d="m58 9h-3v-3a1 1 0 0 0 -1-1h-6a1 1 0 0 0 -1 1v3h-3a1 1 0 0 0 -1 1v6a1 1 0 0 0 1 1h3v3a1 1 0 0 0 1 1h6a1 1 0 0 0 1-1v-3h3a1 1 0 0 0 1-1v-6a1 1 0 0 0 -1-1zm0 7h-4v4h-6v-4h-4v-6h4v-4h6v4h4z" fill="#ad3445"/><ellipse cx="56.684" cy="5.695" fill="#f6fafd" rx="1.642" ry="2.286" transform="matrix(.707 -.707 .707 .707 12.588 41.765)"/><ellipse cx="59.682" cy="8.708" fill="#f6fafd" rx=".825" ry="1.148" transform="matrix(.707 -.707 .707 .707 11.335 44.768)"/></g></svg>