<svg height="512" viewBox="0 0 64 64" width="512" xmlns="http://www.w3.org/2000/svg"><g id="_30-Crutches" data-name="30-Crutches"><path d="m16 46h6v3h-6z" fill="#60658f"/><path d="m19 35a9.908 9.908 0 0 0 3-.46v11.46h-6v-11.46a9.908 9.908 0 0 0 3 .46z" fill="#c7ccf0"/><path d="m23 49 1 6h-10l1-6h1 6z" fill="#567bff"/><path d="m22 34.54a10.013 10.013 0 0 1 -6 0 9.8 9.8 0 0 1 -3-1.54l2.88-2.88a5.971 5.971 0 0 0 6.24 0l2.88 2.88a9.8 9.8 0 0 1 -3 1.54z" fill="#d6475c"/><path d="m15.88 30.12-2.88 2.88a9.991 9.991 0 0 1 -4-8v-18h4v18a5.977 5.977 0 0 0 2.88 5.12z" fill="#e1e7f7"/><path d="m29 7v18a9.991 9.991 0 0 1 -4 8l-2.88-2.88a5.3 5.3 0 0 0 1.12-.88 5.944 5.944 0 0 0 1.76-4.24v-18z" fill="#e1e7f7"/><path d="m31 3v2a2.006 2.006 0 0 1 -2 2h-20a2.006 2.006 0 0 1 -2-2v-2a2.006 2.006 0 0 1 2-2h20a2.006 2.006 0 0 1 2 2z" fill="#567bff"/><path d="m29 5h-20a2.006 2.006 0 0 1 -2-2v2a2.006 2.006 0 0 0 2 2h20a2.006 2.006 0 0 0 2-2v-2a2.006 2.006 0 0 1 -2 2z" fill="#3b51c4"/><path d="m29 1h-20a2.006 2.006 0 0 0 -2 2v2a2.006 2.006 0 0 1 2-2h20a2.006 2.006 0 0 1 2 2v-2a2.006 2.006 0 0 0 -2-2z" fill="#78a2ff"/><path d="m19 33a7.96 7.96 0 0 1 -4.565-1.435l-1.435 1.435a9.8 9.8 0 0 0 3 1.54 10.013 10.013 0 0 0 6 0 9.8 9.8 0 0 0 3-1.54l-1.435-1.435a7.96 7.96 0 0 1 -4.565 1.435z" fill="#ad3445"/><path d="m11 25v-14a2 2 0 0 1 2-2v-2h-4v18a9.991 9.991 0 0 0 4 8l1.435-1.435a7.985 7.985 0 0 1 -3.435-6.565z" fill="#c7ccf0"/><path d="m25 7v2a2 2 0 0 1 2 2v14a7.985 7.985 0 0 1 -3.435 6.565l1.435 1.435a9.991 9.991 0 0 0 4-8v-18z" fill="#c7ccf0"/><rect fill="#b8bce0" height="7" rx="1" width="2" x="27" y="16"/><rect fill="#b8bce0" height="3" rx="1" width="2" x="27" y="12"/><rect fill="#9ebcff" height="10" rx="1" transform="matrix(0 1 -1 0 19 -15)" width="2" x="16" y="-3"/><rect fill="#9ebcff" height="3" rx="1" transform="matrix(0 1 -1 0 26.5 -22.5)" width="2" x="23.5" y=".5"/><rect fill="#b8bce0" height="7" rx="1" width="2" x="9" y="16"/><rect fill="#b8bce0" height="3" rx="1" width="2" x="9" y="12"/><path d="m14.5 52-.5 3h10l-.5-3z" fill="#3b51c4"/><path d="m16 46h3v3h-3z" fill="#484c6b"/><path d="m19 39a2 2 0 0 1 2-2h1v-2.46a10.013 10.013 0 0 1 -6 0v11.46h3z" fill="#848ab8"/><path d="m42 54h6v3h-6z" fill="#60658f"/><path d="m45 43a9.908 9.908 0 0 0 3-.46v11.46h-6v-11.46a9.908 9.908 0 0 0 3 .46z" fill="#c7ccf0"/><path d="m49 57 1 6h-10l1-6h1 6z" fill="#567bff"/><path d="m48 42.54a10.013 10.013 0 0 1 -6 0 9.8 9.8 0 0 1 -3-1.54l2.88-2.88a5.971 5.971 0 0 0 6.24 0l2.88 2.88a9.8 9.8 0 0 1 -3 1.54z" fill="#d6475c"/><path d="m41.88 38.12-2.88 2.88a9.991 9.991 0 0 1 -4-8v-18h4v18a5.977 5.977 0 0 0 2.88 5.12z" fill="#e1e7f7"/><path d="m55 15v18a9.991 9.991 0 0 1 -4 8l-2.88-2.88a5.3 5.3 0 0 0 1.12-.88 5.944 5.944 0 0 0 1.76-4.24v-18z" fill="#e1e7f7"/><path d="m57 11v2a2.006 2.006 0 0 1 -2 2h-20a2.006 2.006 0 0 1 -2-2v-2a2.006 2.006 0 0 1 2-2h20a2.006 2.006 0 0 1 2 2z" fill="#567bff"/><path d="m55 13h-20a2.006 2.006 0 0 1 -2-2v2a2.006 2.006 0 0 0 2 2h20a2.006 2.006 0 0 0 2-2v-2a2.006 2.006 0 0 1 -2 2z" fill="#3b51c4"/><path d="m55 9h-20a2.006 2.006 0 0 0 -2 2v2a2.006 2.006 0 0 1 2-2h20a2.006 2.006 0 0 1 2 2v-2a2.006 2.006 0 0 0 -2-2z" fill="#78a2ff"/><path d="m45 41a7.96 7.96 0 0 1 -4.565-1.435l-1.435 1.435a9.8 9.8 0 0 0 3 1.54 10.013 10.013 0 0 0 6 0 9.8 9.8 0 0 0 3-1.54l-1.435-1.435a7.96 7.96 0 0 1 -4.565 1.435z" fill="#ad3445"/><path d="m37 33v-14a2 2 0 0 1 2-2v-2h-4v18a9.991 9.991 0 0 0 4 8l1.435-1.435a7.985 7.985 0 0 1 -3.435-6.565z" fill="#c7ccf0"/><path d="m51 15v2a2 2 0 0 1 2 2v14a7.985 7.985 0 0 1 -3.435 6.565l1.435 1.435a9.991 9.991 0 0 0 4-8v-18z" fill="#c7ccf0"/><rect fill="#b8bce0" height="7" rx="1" width="2" x="53" y="24"/><rect fill="#b8bce0" height="3" rx="1" width="2" x="53" y="20"/><rect fill="#9ebcff" height="10" rx="1" transform="matrix(0 1 -1 0 53 -33)" width="2" x="42" y="5"/><rect fill="#9ebcff" height="3" rx="1" transform="matrix(0 1 -1 0 60.5 -40.5)" width="2" x="49.5" y="8.5"/><rect fill="#b8bce0" height="7" rx="1" width="2" x="35" y="24"/><rect fill="#b8bce0" height="3" rx="1" width="2" x="35" y="20"/><path d="m40.5 60-.5 3h10l-.5-3z" fill="#3b51c4"/><path d="m42 54h3v3h-3z" fill="#484c6b"/><path d="m45 47a2 2 0 0 1 2-2h1v-2.46a10.013 10.013 0 0 1 -6 0v11.46h3z" fill="#848ab8"/></g></svg>