<svg id="Layer_1" enable-background="new 0 0 512 512" height="512" viewBox="0 0 512 512" width="512" xmlns="http://www.w3.org/2000/svg"><g><path d="m256 21.995c-135.311 0-245.002 109.691-245.002 245.002 0 52.452 16.492 101.048 44.56 140.904l288.877 87.637c91.603-35.471 156.567-124.414 156.567-228.541 0-135.31-109.691-245.002-245.002-245.002z" fill="#38c674"/><path d="m344.159 211.489c-9.722 29.893-38.322 51.157-71.706 49.899-37.626-1.435-68.17-32.037-69.538-69.667-.31-8.528.862-13.889.958-14.751.124-.277 4.244-36.934 41.428-53.87 7.061-3.217 11.623-10.391 11.623-18.276v-17.444h-158.533c-3.558 0-7.014.438-10.328 1.244-12.338 11.621-23.467 24.508-33.186 38.452-.121 1.321-.192 2.657-.192 4.01v275.557c10.122 14.565 21.788 27.975 34.753 40.004l221.681 59.111c11.947-2.747 23.566-6.352 34.776-10.776v-283.462c-.589 0-1.153-.025-1.736-.031z" fill="#167cc1"/><path d="m89.44 446.647 73.524 19.605-2.018-320.938c-.003-.495-.186-.971-.493-1.359-5.385-6.799-2.025-11.486.083-13.461.689-.646.851-1.685.419-2.525-2.481-4.831.821-7.885 2.21-8.896.382-.278.653-.68.784-1.134l3.8-13.154c.204-.708.041-1.481-.453-2.028-6.505-7.211-2.007-12.364.497-14.406.321-.261.542-.601.669-.97h-70.071c-24.099 0-43.706 19.606-43.706 43.706v275.551c10.124 14.566 21.788 27.98 34.755 40.009z" fill="#024788"/><path d="m272.453 261.389c-35.753-1.363-65.092-29.068-69.1-64.108h-121.475v242.059c44.405 44.861 106.014 72.66 174.122 72.66 21.676 0 42.688-2.828 62.703-8.112v-256.9c-12.8 9.59-28.871 15.055-46.25 14.401z" fill="#e9efff"/><path d="m81.878 439.34c22.427 22.657 49.237 40.965 79.064 53.532v-295.592h-79.064z" fill="#d3dcfb"/><g><path d="m168.094 118.701h-4.364c-4.171 0-7.553-3.381-7.553-7.553s3.382-7.553 7.553-7.553h4.364c4.171 0 7.553 3.381 7.553 7.553 0 4.171-3.382 7.553-7.553 7.553z" fill="#1e92d3"/></g><path d="m256.925 104.825v-1.231h-63.052c-4.172 0-7.553 3.381-7.553 7.553s3.382 7.553 7.553 7.553h57.551c3.458-3.664 5.501-8.607 5.501-13.875z" fill="#1e92d3"/><path d="m202.915 191.722c-.31-8.528.862-13.889.958-14.751.096-.214 2.597-22.191 20.927-39.975h-73.355c-6.647 0-12.085-5.438-12.085-12.085 0-5.71-4.629-10.339-10.339-10.339h-30.63c-9.12 0-16.514 7.393-16.514 16.514v68.872h121.833c-.413-2.703-.693-5.447-.795-8.236z" fill="#9bd8f9"/><path d="m151.446 136.996c-6.647 0-12.085-5.438-12.085-12.085 0-5.71-4.629-10.339-10.338-10.339h-30.632c-9.12 0-16.513 7.393-16.513 16.514v68.872h79.064v-62.961h-9.496z" fill="#73c3f9"/><g fill="#1e92d3"><path d="m311.15 505.766c5.1-1.173 10.133-2.521 15.107-4.007v-261.28c-4.499 4.454-9.569 8.328-15.107 11.485z"/><path d="m89.432 446.645v-315.559c0-4.941 4.02-8.961 8.96-8.961h30.631c1.536 0 2.785 1.249 2.785 2.785 0 10.829 8.81 19.639 19.639 19.639h66.62c4.074-5.293 9.306-10.526 16-15.107h-82.62c-2.457 0-4.532-2.075-4.532-4.532 0-9.866-8.026-17.892-17.892-17.892h-30.631c-13.27 0-24.067 10.797-24.067 24.067v300.285c4.808 5.312 9.854 10.403 15.107 15.275z"/></g><path d="m160.536 130.494c.308-.288.493-.66.584-1.052h-9.674c-2.457 0-4.532-2.075-4.532-4.532 0-9.866-8.026-17.892-17.892-17.892h-30.63c-13.27 0-24.067 10.797-24.067 24.067v300.285c4.809 5.311 9.854 10.402 15.107 15.274v-315.558c0-4.941 4.02-8.961 8.96-8.961h30.63c1.536 0 2.785 1.249 2.785 2.785 0 10.829 8.81 19.639 19.639 19.639h9.347c-.083-.212-.196-.413-.34-.594-5.384-6.799-2.025-11.486.083-13.461z" fill="#167cc1"/><path d="m203.874 176.971c.059-.13 1.007-8.336 5.878-18.748h-48.507v26.473h41.736c.252-4.413.826-7.132.893-7.725z" fill="#e9efff"/><path d="m162.252 158.223h-14.857c-7.311 0-13.236 5.926-13.236 13.236s5.926 13.236 13.236 13.236h14.857z" fill="#3c58a0"/><g><path d="m117.12 142.841h-10.407c-4.172 0-7.553-3.381-7.553-7.553s3.382-7.553 7.553-7.553h10.407c4.172 0 7.553 3.381 7.553 7.553s-3.381 7.553-7.553 7.553z" fill="#e9efff"/></g><path d="m272.453 261.389c-19.331-.737-36.78-9.186-49.376-22.319h-104.063c-5.483 0-9.97 4.486-9.97 9.97v87.941c0 5.483 4.487 9.97 9.97 9.97h162.553c5.483 0 9.97-4.486 9.97-9.97v-77.377c-6.104 1.397-12.499 2.033-19.084 1.785z" fill="#ff4155"/><path d="m109.044 249.04v87.941c0 5.483 4.486 9.97 9.97 9.97h104.443c-.318-.528-.783-.977-1.384-1.264-8.126-3.875-7.91-10.117-6.897-13.789.446-1.618-.377-3.339-1.954-3.914-14.422-5.253-11.845-18.162-10.708-22.016.22-.745.174-1.538-.141-2.248l-11.068-24.999c-.482-1.089-1.52-1.852-2.709-1.922-9.756-.571-11.516-8.525-11.755-12.774-.084-1.494-1.199-2.733-2.675-2.985-16.163-2.762-14.824-15.449-13.727-20.182.14-.605.095-1.222-.104-1.787h-41.321c-5.483-.001-9.97 4.485-9.97 9.969z" fill="#e80054"/><g><path d="m138.97 384.72h-5.036c-4.172 0-7.553-3.381-7.553-7.553s3.382-7.553 7.553-7.553h5.036c4.171 0 7.553 3.381 7.553 7.553 0 4.171-3.382 7.553-7.553 7.553z" fill="#ff4155"/></g><g><path d="m114.08 384.72h-5.035c-4.172 0-7.553-3.381-7.553-7.553s3.382-7.553 7.553-7.553h5.035c4.172 0 7.553 3.381 7.553 7.553 0 4.171-3.381 7.553-7.553 7.553z" fill="#ff4155"/></g><g><path d="m291.537 384.72h-94.743c-4.172 0-7.553-3.381-7.553-7.553s3.382-7.553 7.553-7.553h94.743c4.172 0 7.553 3.381 7.553 7.553 0 4.171-3.381 7.553-7.553 7.553z" fill="#bec8f7"/></g><g><path d="m196.794 384.72h-37.347c-4.172 0-7.553-3.381-7.553-7.553s3.382-7.553 7.553-7.553h37.347c4.172 0 7.553 3.381 7.553 7.553.001 4.171-3.381 7.553-7.553 7.553z" fill="#ff4155"/></g><g><path d="m196.795 392.655c-4.172 0-7.553-3.381-7.553-7.553v-15.61c0-4.172 3.382-7.553 7.553-7.553s7.553 3.381 7.553 7.553v15.61c0 4.171-3.381 7.553-7.553 7.553z" fill="#e80054"/></g><ellipse cx="200.291" cy="293.01" fill="#e9efff" rx="39.349" ry="39.349" transform="matrix(.191 -.982 .982 .191 -125.504 433.827)"/><path d="m213.222 327.984c-14.422-5.253-11.845-18.162-10.708-22.016.22-.745.174-1.538-.141-2.248l-11.068-24.999c-.482-1.089-1.52-1.852-2.709-1.922-9.756-.571-11.516-8.525-11.755-12.774-.043-.753-.347-1.44-.827-1.969-9.173 7.204-15.072 18.387-15.072 30.955 0 21.732 17.617 39.349 39.349 39.349 5.182 0 10.124-1.011 14.655-2.831-.35-.695-.943-1.261-1.724-1.545z" fill="#bec8f7"/><path d="m215.08 288.956-19.217-12.286c-3.203-2.048-7.404.253-7.404 4.054v24.571c0 3.802 4.201 6.102 7.404 4.055l19.217-12.286c2.961-1.892 2.961-6.216 0-8.108z" fill="#ff4155"/><g><path d="m181.788 417.712h-72.744c-4.172 0-7.553-3.381-7.553-7.553s3.382-7.553 7.553-7.553h72.744c4.172 0 7.553 3.381 7.553 7.553s-3.381 7.553-7.553 7.553z" fill="#bec8f7"/></g><g><path d="m291.537 447.303h-182.493c-4.172 0-7.553-3.381-7.553-7.553s3.382-7.553 7.553-7.553h182.493c4.172 0 7.553 3.381 7.553 7.553s-3.381 7.553-7.553 7.553z" fill="#bec8f7"/></g><path d="m291.537 460.172h-182.493c-1.051 0-2.052.216-2.961.604 6.689 5.183 13.654 10.024 20.869 14.503h164.585c4.172 0 7.553-3.381 7.553-7.553 0-4.173-3.381-7.554-7.553-7.554z" fill="#bec8f7"/><path d="m291.537 488.147h-141.098c12.919 6.177 26.465 11.247 40.515 15.107h100.583c4.172 0 7.553-3.381 7.553-7.553s-3.381-7.554-7.553-7.554z" fill="#bec8f7"/><path d="m457.314 85.929c0-47.457-38.471-85.929-85.929-85.929v85.929z" fill="#167cc1"/><path d="m371.385 85.929v-85.929c-47.346 0-85.929 38.34-85.929 85.929z" fill="#ffc839"/><path d="m368.892 85.184c-18.409-6.19-18.187-22.379-17.557-27.809.142-1.217-.168-2.436-.879-3.433l-14.356-20.114c-.712-.997-1.776-1.667-2.969-1.95-9.046-2.147-10.476-9.115-10.445-13.438.007-.993-.31-1.921-.842-2.702-21.985 15.538-36.388 41.13-36.388 70.19h84.855c-.427-.315-.902-.57-1.419-.744z" fill="#ffb332"/><path d="m457.314 85.929h-85.929v85.929c47.779 0 85.929-38.758 85.929-85.929z" fill="#73c3f9"/><path d="m414.627 117.902c-.241-1.236-.971-2.323-2.004-3.043l-7.899-5.506c-1.029-.717-2.298-1.012-3.538-.823-19.583 3.001-27.008-13.756-29.111-20.177-.16-.487-.398-.933-.689-1.336v84.841c27.71 0 52.179-13.038 67.848-33.192-19.048-.971-23.59-15.547-24.607-20.764z" fill="#4fabf7"/><path d="m285.456 85.929c0 47.216 38.226 85.929 85.929 85.929v-85.929z" fill="#e80054"/><g><path d="m338.419 68.769c-3.129 0-5.665-2.536-5.665-5.665v-26.397c0-3.129 2.536-5.665 5.665-5.665s5.665 2.536 5.665 5.665v26.397c0 3.129-2.536 5.665-5.665 5.665z" fill="#e9efff"/></g><g><path d="m351.617 55.57h-26.397c-3.129 0-5.665-2.536-5.665-5.665s2.536-5.665 5.665-5.665h26.397c3.129 0 5.665 2.536 5.665 5.665.001 3.129-2.536 5.665-5.665 5.665z" fill="#e9efff"/></g><g><path d="m417.55 64.903c-1.45 0-2.9-.553-4.006-1.659l-18.665-18.666c-2.213-2.213-2.213-5.799 0-8.012 2.212-2.211 5.8-2.211 8.011 0l18.665 18.666c2.213 2.213 2.213 5.799 0 8.012-1.105 1.106-2.555 1.659-4.005 1.659z" fill="#e9efff"/></g><g><path d="m398.885 64.903c-1.45 0-2.9-.553-4.006-1.659-2.213-2.213-2.213-5.799 0-8.012l18.665-18.666c2.212-2.211 5.799-2.211 8.011 0 2.213 2.213 2.213 5.799 0 8.012l-18.665 18.666c-1.106 1.106-2.555 1.659-4.005 1.659z" fill="#e9efff"/></g><g><path d="m351.617 127.618h-26.397c-3.129 0-5.665-2.536-5.665-5.665s2.536-5.665 5.665-5.665h26.397c3.129 0 5.665 2.536 5.665 5.665.001 3.129-2.536 5.665-5.665 5.665z" fill="#e9efff"/></g><g><path d="m409.854 118.286h-3.273c-3.129 0-5.665-2.536-5.665-5.665s2.536-5.665 5.665-5.665h3.273c3.129 0 5.665 2.536 5.665 5.665s-2.536 5.665-5.665 5.665z" fill="#e9efff"/></g><g><path d="m409.854 136.951h-3.273c-3.129 0-5.665-2.536-5.665-5.665s2.536-5.665 5.665-5.665h3.273c3.129 0 5.665 2.536 5.665 5.665s-2.536 5.665-5.665 5.665z" fill="#e9efff"/></g><path d="m275.288 178.125c35.856 29.245 69.017 4.81 74.227.596-3.559-25.869-20.317-47.52-43.268-57.944-6.207-2.819-10.077-9.139-10.077-15.956v-47.829h-41.762v47.834c0 6.845-3.92 13.147-10.149 15.985-22.49 10.243-39.028 31.269-42.994 56.477 6.098-4.822 38.803-27.889 74.023.837z" fill="#d3dcfb"/><g><path d="m247.763 164.329c2.176-8.356 7.961-15.329 15.803-18.944.082-.038.164-.075.246-.113 6.866-3.138 11.232-10.036 11.232-17.585v-35.134c0-9.588 7.772-17.36 17.36-17.36h3.765v-18.201h-41.762v47.834c0 6.845-3.92 13.147-10.149 15.985-22.49 10.243-39.028 31.269-42.994 56.477 4.443-3.512 23.01-16.703 46.38-12.501z" fill="#bec8f7"/></g><path d="m275.288 176.781c32.715 26.683 63.175 8.685 72.22 2.125l1.637-2.578s-32.736-34.994-73.856-.891c-.285.237-.551.469-.829.703.276.22.551.416.828.641z" fill="#f964b2"/><path d="m350.228 189.02c0-4.328-.379-8.566-1.084-12.692-6.248 4.932-38.761 27.733-73.856-.891-34.243-27.929-66.11-6.898-73.458-1.279-1.143 5.68-1.651 11.589-1.431 17.655 1.414 38.887 33.074 70.608 71.958 72.091 42.724 1.629 77.871-32.522 77.871-74.884z" fill="#fc90ce"/><g><path d="m294.614 67.072h-38.651c-5.567 0-10.079-4.512-10.079-10.079s4.513-10.079 10.079-10.079h38.651c5.567 0 10.079 4.512 10.079 10.079s-4.513 10.079-10.079 10.079z" fill="#e9efff"/></g><path d="m269.611 56.992c0-5.567 4.513-10.08 10.079-10.08h-23.728c-5.567 0-10.079 4.512-10.079 10.08 0 5.567 4.513 10.079 10.079 10.079h23.728c-5.566.001-10.079-4.511-10.079-10.079z" fill="#d3dcfb"/><path d="m277.978 233.403-12.681-9.73c-9.634-1.88-9.389-11.055-9.389-11.055l-9.643-21.672c-14.28-17.211 2.004-28.625 2.124-28.709-22.827-4.448-41.204 7.826-46.559 11.921-1.143 5.68-1.651 11.588-1.431 17.655 1.414 38.887 33.074 70.608 71.958 72.091 7.387.282 14.539-.529 21.331-2.245-17.865-8.104-15.71-28.256-15.71-28.256z" fill="#f964b2"/><g><path d="m275.377 233.753c-5.536 0-10.079-4.505-10.079-10.079 0-6.396 5.935-11.14 12.055-9.877 4.926 1.022 8.104 5.238 8.104 9.877-.001 5.56-4.492 10.079-10.08 10.079z" fill="#ea349c"/></g><g><path d="m246.267 216.712c-7.294 0-13.439-5.908-13.439-13.439 0-8.557 7.87-14.839 16.06-13.183 7.285 1.478 12.008 8.502 10.55 15.804-1.334 6.572-7.043 10.818-13.171 10.818z" fill="#ea349c"/></g><path d="m488.035 188.15c-17.146-5.398-39.585-8.569-53.041 4.888-24.035 24.035-49.712 25.916-49.712 82.653v118.336s-2.073 47.216 39.693 50.361c46.836-44.621 76.028-107.593 76.028-177.39-.001-27.586-4.563-54.105-12.968-78.848z" fill="#49d88b"/></g></svg>