<?xml version="1.0" encoding="iso-8859-1"?>
<!-- Generator: Adobe Illustrator 19.0.0, SVG Export Plug-In . SVG Version: 6.00 Build 0)  -->
<svg version="1.1" id="Capa_1" xmlns="http://www.w3.org/2000/svg" xmlns:xlink="http://www.w3.org/1999/xlink" x="0px" y="0px"
	 viewBox="0 0 512 512" style="enable-background:new 0 0 512 512;" xml:space="preserve">
<path style="fill:#F5D7B7;" d="M223.567,265.348l2.49-5.393c1.969-4.265-1.146-9.136-5.844-9.136H118.37
	c-7.615,0-14.515-4.747-16.973-11.956c-5.301-15.545-19.646-28.101-38.2-31.372c-26.208-4.621-50.875,11.032-55.094,34.96
	c-2.173,12.324,1.506,24.435,9.164,33.918c3.566,4.416,3.566,10.73,0,15.146c-7.657,9.483-11.337,21.593-9.164,33.918
	c4.219,23.929,28.886,39.581,55.094,34.96c18.554-3.271,32.899-15.827,38.2-31.372c2.458-7.207,9.358-11.956,16.973-11.956h108.097
	c2.882,0,5.462-1.788,6.475-4.486l4.792-12.776c1.679-4.477,0.895-9.508-2.069-13.26l-11.279-14.282
	C222.833,270.294,222.517,267.622,223.567,265.348z"/>
<path style="opacity:0.1;fill:#8D4330;enable-background:new    ;" d="M232.942,312.579l4.094-10.916
	c-182.145,8.65-185.924-49.321-165.291-91.891c-2.733-0.973-5.579-1.758-8.548-2.281c-26.208-4.621-50.875,11.032-55.094,34.96
	c-2.173,12.325,1.506,24.435,9.164,33.918c3.566,4.416,3.566,10.73,0,15.146c-7.657,9.483-11.337,21.594-9.164,33.918
	c4.219,23.929,28.886,39.581,55.094,34.96c18.553-3.271,32.899-15.827,38.2-31.373c2.458-7.207,9.358-11.956,16.973-11.956h108.097
	C229.35,317.066,231.93,315.278,232.942,312.579z"/>
<path style="fill:#F5D7B7;" d="M494.733,234.226c7.657-9.483,11.337-21.594,9.164-33.918c-4.219-23.929-28.886-39.581-55.094-34.96
	c-18.553,3.271-32.899,15.827-38.2,31.372c-2.458,7.207-9.358,11.956-16.973,11.956H265.512c-2.51,0-4.791,1.459-5.844,3.738
	l-4.982,10.79c-1.05,2.275-0.734,4.947,0.819,6.913l11.279,14.282c2.964,3.753,3.748,8.782,2.069,13.26l-2.97,7.918
	c-1.696,4.521,1.646,9.345,6.475,9.345h121.272c7.615,0,14.515,4.747,16.973,11.956c5.301,15.545,19.647,28.101,38.2,31.372
	c26.208,4.621,50.875-11.031,55.094-34.96c2.173-12.324-1.506-24.435-9.164-33.918C491.167,244.955,491.167,238.642,494.733,234.226
	z"/>
<g>
	<path style="opacity:0.1;fill:#8D4330;enable-background:new    ;" d="M156.463,295.261H131.92c-4.142,0-7.5-3.358-7.5-7.5
		c0-4.142,3.358-7.5,7.5-7.5h24.542c4.142,0,7.5,3.358,7.5,7.5C163.963,291.902,160.605,295.261,156.463,295.261z"/>
	<path style="opacity:0.1;fill:#8D4330;enable-background:new    ;" d="M366.806,242.673h-24.541c-4.142,0-7.5-3.358-7.5-7.5
		c0-4.142,3.358-7.5,7.5-7.5h24.541c4.143,0,7.5,3.358,7.5,7.5C374.307,239.314,370.95,242.673,366.806,242.673z"/>
	<path style="opacity:0.1;fill:#8D4330;enable-background:new    ;" d="M499.835,257.214c-25.029,31.119-58.164,17.287-74.481,4.3
		c-17.491-13.921-120.929-8.882-155.888-11.181c0.456,2.416,0.28,4.947-0.613,7.325l-2.97,7.918
		c-1.696,4.521,1.646,9.345,6.475,9.345H393.63c7.615,0,14.515,4.747,16.973,11.956c5.301,15.545,19.647,28.101,38.2,31.372
		c26.208,4.621,50.875-11.031,55.094-34.96C505.507,274.151,503.894,265.133,499.835,257.214z"/>
</g>
<path d="M189.91,195.375c1.464,1.464,3.384,2.197,5.303,2.197s3.839-0.732,5.303-2.197c2.929-2.929,2.929-7.678,0-10.607
	l-34.357-34.357c-2.929-2.929-7.678-2.929-10.607,0c-2.929,2.929-2.929,7.678,0,10.607L189.91,195.375z M243.962,180.532
	c4.142,0,7.5-3.358,7.5-7.5v-61.507c0-4.142-3.358-7.5-7.5-7.5c-4.142,0-7.5,3.358-7.5,7.5v61.507
	C236.462,177.174,239.82,180.532,243.962,180.532z M230.595,268.02l2.272-4.921c2.003-4.337,1.661-9.33-0.913-13.354
	c-2.574-4.024-6.963-6.426-11.741-6.426H118.369c-4.503,0-8.471-2.763-9.874-6.876c-6.396-18.756-23.254-32.68-43.996-36.338
	c-14.522-2.561-29.124,0.219-41.113,7.827c-12.208,7.746-20.258,19.543-22.669,33.217c-2.452,13.909,1.453,28.464,10.715,39.933
	c1.338,1.657,1.338,4.063,0,5.721C2.17,298.272-1.735,312.828,0.717,326.735c2.411,13.674,10.463,25.471,22.669,33.217
	c9.082,5.762,19.66,8.756,30.57,8.755c3.493,0,7.021-0.307,10.544-0.928c7.528-1.328,14.579-4,20.957-7.941
	c3.523-2.178,4.614-6.8,2.437-10.324c-2.178-3.522-6.798-4.615-10.324-2.436c-4.753,2.938-10.028,4.933-15.675,5.929
	c-10.828,1.911-21.65-0.122-30.472-5.72c-8.604-5.459-14.263-13.684-15.933-23.155c-1.724-9.78,0.979-19.689,7.611-27.904
	c5.749-7.119,5.749-17.452,0-24.57c-6.632-8.214-9.337-18.123-7.611-27.904c1.67-9.473,7.328-17.696,15.934-23.156
	c8.822-5.598,19.645-7.631,30.472-5.72c15.356,2.708,27.773,12.827,32.403,26.406c3.475,10.19,13.149,17.035,24.071,17.035h100.182
	l-1.793,3.884c-2.247,4.865-1.579,10.501,1.743,14.707l11.279,14.282c1.328,1.681,1.685,3.97,0.932,5.977l-4.649,12.397H118.369
	c-9.858,0-18.9,5.684-23.039,14.48c-1.763,3.748-0.154,8.216,3.594,9.98c3.747,1.763,8.216,0.154,9.98-3.594
	c1.676-3.563,5.391-5.865,9.465-5.865h108.097c5.973,0,11.398-3.758,13.498-9.354l4.792-12.776
	c2.586-6.893,1.358-14.766-3.205-20.543L230.595,268.02z M500.568,244.66c-1.339-1.658-1.339-4.064,0-5.722
	c9.263-11.471,13.167-26.025,10.714-39.932c-2.41-13.674-10.462-25.471-22.668-33.217c-11.989-7.607-26.59-10.389-41.114-7.827
	c-20.74,3.657-37.599,17.581-43.996,36.337c-1.402,4.113-5.37,6.876-9.874,6.876h-43.29c-4.143,0-7.5,3.358-7.5,7.5
	c0,4.142,3.357,7.5,7.5,7.5h43.29c10.924,0,20.597-6.846,24.071-17.035c4.631-13.581,17.047-23.699,32.403-26.406
	c10.824-1.911,21.649,0.122,30.472,5.72c8.605,5.46,14.264,13.684,15.934,23.156c1.725,9.779-0.979,19.688-7.611,27.903
	c-5.748,7.118-5.748,17.452,0,24.571c6.633,8.213,9.337,18.122,7.611,27.903c-3.493,19.818-24.317,32.771-46.405,28.877
	c-15.356-2.708-27.773-12.827-32.403-26.406c-3.475-10.189-13.148-17.035-24.071-17.035h-120.43l2.675-7.127
	c2.586-6.894,1.357-14.766-3.206-20.543l-10.957-13.875l4.479-9.701h48.98c4.143,0,7.5-3.358,7.5-7.5c0-4.142-3.357-7.5-7.5-7.5
	h-49.659c-5.416,0-10.384,3.177-12.655,8.094l-4.982,10.791c-2.246,4.866-1.578,10.502,1.743,14.706l11.279,14.283
	c1.328,1.681,1.686,3.971,0.933,5.976l-2.971,7.919c-1.66,4.426-1.043,9.389,1.649,13.274s7.121,6.204,11.849,6.204h121.273
	c4.503,0,8.471,2.763,9.874,6.875c6.396,18.756,23.254,32.68,43.996,36.338c3.518,0.62,7.013,0.919,10.452,0.919
	c26.124-0.001,48.975-17.253,53.331-41.963C513.736,270.683,509.831,256.128,500.568,244.66z M266.946,331.468
	c-4.143,0-7.5,3.358-7.5,7.5v61.507c0,4.142,3.357,7.5,7.5,7.5s7.5-3.358,7.5-7.5v-61.507
	C274.446,334.826,271.088,331.468,266.946,331.468z M320.997,316.625c-2.929-2.929-7.677-2.93-10.608,0
	c-2.929,2.929-2.929,7.678,0,10.607l34.356,34.357c1.465,1.465,3.384,2.197,5.304,2.197c1.919,0,3.839-0.732,5.304-2.197
	c2.929-2.929,2.929-7.678,0-10.607L320.997,316.625z"/>
<g>
</g>
<g>
</g>
<g>
</g>
<g>
</g>
<g>
</g>
<g>
</g>
<g>
</g>
<g>
</g>
<g>
</g>
<g>
</g>
<g>
</g>
<g>
</g>
<g>
</g>
<g>
</g>
<g>
</g>
</svg>
