<?xml version="1.0" encoding="iso-8859-1"?>
<!-- Generator: Adobe Illustrator 19.0.0, SVG Export Plug-In . SVG Version: 6.00 Build 0)  -->
<svg version="1.1" id="Capa_1" xmlns="http://www.w3.org/2000/svg" xmlns:xlink="http://www.w3.org/1999/xlink" x="0px" y="0px"
	 viewBox="0 0 511.996 511.996" style="enable-background:new 0 0 511.996 511.996;" xml:space="preserve">
<path style="fill:#F9E78D;" d="M384.393,504.5c15.73,0,27.556-14.346,24.566-29.79c-13.901-71.8-77.1-126.017-152.961-126.017
	s-139.06,54.218-152.961,126.017c-2.99,15.444,8.836,29.79,24.566,29.79H384.393z"/>
<g>
	<path style="fill:#495059;" d="M201.822,470.484h-51.494c-5.076,0-9.191-4.115-9.191-9.191v-9.046c0-5.076,4.115-9.191,9.191-9.191
		h51.495c5.076,0,9.191,4.115,9.191,9.191v9.046C211.014,466.368,206.898,470.484,201.822,470.484z"/>
	<path style="fill:#495059;" d="M310.174,470.484h51.495c5.076,0,9.191-4.115,9.191-9.191v-9.046c0-5.076-4.115-9.191-9.191-9.191
		h-51.495c-5.076,0-9.191,4.115-9.191,9.191v9.046C300.982,466.368,305.098,470.484,310.174,470.484z"/>
</g>
<g>
	<rect x="233.578" y="383.57" style="opacity:0.15;fill:#8D4330;enable-background:new    ;" width="44.837" height="120.93"/>
	<path style="opacity:0.15;fill:#8D4330;enable-background:new    ;" d="M255.998,429.502c41.088,0,79.231-12.828,110.657-34.674
		c-28.233-28.485-67.382-46.134-110.657-46.134s-82.423,17.649-110.657,46.134C176.767,416.674,214.91,429.502,255.998,429.502z"/>
</g>
<circle style="fill:#F5D7B7;" cx="82.368" cy="225.06" r="34.786"/>
<circle style="opacity:0.25;fill:#8D4330;enable-background:new    ;" cx="82.368" cy="225.06" r="34.786"/>
<circle style="fill:#F5D7B7;" cx="429.628" cy="225.06" r="34.786"/>
<circle style="opacity:0.25;fill:#8D4330;enable-background:new    ;" cx="429.628" cy="225.06" r="34.786"/>
<circle style="fill:#F5D7B7;" cx="255.998" cy="235.16" r="173.63"/>
<g>
	<ellipse style="fill:#F8B8BD;" cx="158.118" cy="269.46" rx="36.12" ry="28.762"/>
	<ellipse style="fill:#F8B8BD;" cx="353.878" cy="269.46" rx="36.12" ry="28.762"/>
</g>
<path style="opacity:0.1;fill:#8D4330;enable-background:new    ;" d="M350.393,380.898
	c-104.405,9.268-303.827-131.768-158.5-307.142C127.732,99.261,82.371,161.911,82.371,235.159
	c0,95.891,77.735,173.627,173.627,173.627C290.807,408.786,323.219,398.535,350.393,380.898z"/>
<g>
	<path style="fill:#495059;" d="M90.979,160.42c-21.727,32.425-17.644,61.689-8.608,74.739s45.744-58.685,51.337-69.115
		L90.979,160.42z"/>
	<path style="fill:#495059;" d="M421.017,160.42c21.727,32.425,17.644,61.689,8.608,74.739s-45.744-58.685-51.337-69.115
		L421.017,160.42z"/>
</g>
<path style="fill:#E68392;" d="M255.998,171.114c54.219,0,144.499-5.044,173.627-12.21
	C387.067,49.414,312.314,36.267,255.998,36.267S124.929,49.414,82.371,158.904C111.499,166.07,201.779,171.114,255.998,171.114z"/>
<path style="opacity:0.2;fill:#8D4330;enable-background:new    ;" d="M255.998,171.114c54.219,0,144.499-5.044,173.627-12.21
	C387.067,49.414,312.314,36.267,255.998,36.267S124.929,49.414,82.371,158.904C111.499,166.07,201.779,171.114,255.998,171.114z"/>
<path style="fill:#E68392;" d="M285.49,23.513L285.49,23.513c-3.289,0-6.061-2.456-6.457-5.721l0,0
	C278.321,11.918,273.335,7.5,267.417,7.5h-22.838c-5.918,0-10.904,4.418-11.617,10.292l0,0c-0.396,3.265-3.168,5.721-6.457,5.721
	l0,0c-11.013,0-20.511,7.734-22.743,18.519l-26.708,129.082h157.887L308.233,42.032C306.002,31.247,296.503,23.513,285.49,23.513z"
	/>
<path style="fill:#F8B8BD;" d="M255.998,190.706c-89.817,0-152.596-5.614-203.555-18.205c-10.504-2.595-16.916-13.214-14.321-23.719
	c2.595-10.504,13.215-16.918,23.719-14.321c47.112,11.64,108.807,17.061,194.157,17.061s147.045-5.421,194.157-17.061
	c10.501-2.596,21.124,3.816,23.719,14.321c2.595,10.504-3.816,21.124-14.321,23.719
	C408.594,185.091,345.815,190.706,255.998,190.706z"/>
<path style="fill:#FFFFFF;" d="M268.96,122.496L268.96,122.496c-4.129,0.82-8.08,2.363-11.672,4.557l0,0
	c-0.792,0.484-1.788,0.484-2.581,0l0,0c-3.592-2.194-7.543-3.737-11.672-4.557l0,0c-4.391-0.872-7.787-4.367-8.533-8.781
	l-1.949-11.525c-0.955-5.646-3.293-10.967-6.806-15.489l0,0c-0.694-0.894-0.694-2.144,0-3.037l0,0
	c3.513-4.522,5.852-9.843,6.806-15.489l1.949-11.525c0.746-4.414,4.142-7.908,8.533-8.781l0,0c4.128-0.82,8.08-2.363,11.672-4.557
	l0,0c0.792-0.484,1.788-0.484,2.581,0l0,0c3.592,2.194,7.543,3.737,11.672,4.557l0,0c4.391,0.872,7.787,4.366,8.533,8.781
	l1.949,11.525c0.955,5.646,3.293,10.967,6.806,15.489l0,0c0.694,0.893,0.694,2.144,0,3.037l0,0
	c-3.513,4.522-5.852,9.843-6.806,15.489l-1.949,11.525C276.747,118.13,273.351,121.624,268.96,122.496z"/>
<path style="opacity:0.15;fill:#8D4330;enable-background:new    ;" d="M299.046,151.007c-13.65,0.343-27.972,0.515-43.048,0.515
	c-85.35,0-147.045-5.421-194.157-17.061c-10.503-2.597-21.124,3.816-23.719,14.321c-2.595,10.504,3.816,21.124,14.321,23.719
	c50.959,12.59,113.738,18.205,203.555,18.205c25.768,0,49.3-0.465,70.976-1.421C304.811,184.43,288.667,163.722,299.046,151.007z"/>
<path d="M271.313,85.183c0-4.142-3.358-7.5-7.5-7.5h-15.631c-4.142,0-7.5,3.358-7.5,7.5s3.358,7.5,7.5,7.5h15.631
	C267.955,92.683,271.313,89.325,271.313,85.183z M378.36,461.292v-9.046c0-9.204-7.488-16.691-16.691-16.691h-51.495
	c-9.204,0-16.691,7.487-16.691,16.691v9.046c0,9.204,7.488,16.691,16.691,16.691h51.495
	C370.872,477.983,378.36,470.496,378.36,461.292z M308.482,461.292v-9.046c0-0.932,0.759-1.691,1.691-1.691h51.495
	c0.933,0,1.691,0.759,1.691,1.691v9.046c0,0.933-0.759,1.691-1.691,1.691h-51.495C309.241,462.983,308.482,462.225,308.482,461.292z
	 M281.182,235.68c-3.122-2.721-7.86-2.396-10.582,0.727c-3.686,4.23-9.009,6.656-14.603,6.656s-10.917-2.426-14.602-6.656
	c-2.721-3.124-7.459-3.448-10.582-0.727s-3.448,7.459-0.727,10.581c6.536,7.5,15.98,11.801,25.911,11.801
	c9.931,0,19.375-4.301,25.911-11.801C284.63,243.139,284.305,238.401,281.182,235.68z M179.164,220.515c-4.142,0-7.5,3.358-7.5,7.5
	v12.754c0,4.142,3.358,7.5,7.5,7.5s7.5-3.358,7.5-7.5v-12.754C186.664,223.873,183.306,220.515,179.164,220.515z M332.832,220.515
	c-4.142,0-7.5,3.358-7.5,7.5v12.754c0,4.142,3.358,7.5,7.5,7.5s7.5-3.358,7.5-7.5v-12.754
	C340.332,223.873,336.974,220.515,332.832,220.515z M481.155,146.984c-1.735-7.025-6.104-12.955-12.299-16.695
	c-6.196-3.74-13.477-4.844-20.499-3.108c-7.106,1.755-14.558,3.366-22.378,4.838c-14.035-28.271-31.628-50.935-52.354-67.412
	c-17.553-13.953-37.102-23.573-59.64-29.34c-4.513-11.157-15.343-18.894-27.63-19.241C284.816,6.83,276.824,0,267.417,0h-22.838
	c-9.406,0-17.398,6.83-18.938,16.025c-12.288,0.347-23.12,8.086-27.632,19.244c-23.82,6.096-44.338,16.503-62.599,31.749
	c-3.18,2.655-3.605,7.384-0.951,10.564c1.483,1.777,3.615,2.693,5.761,2.693c1.695,0,3.4-0.571,4.803-1.743
	c14.514-12.117,30.643-20.856,49.021-26.555l-18.631,90.045c-27.713-1.534-52.164-3.966-73.91-7.349
	c6.017-11.582,12.663-22.125,19.847-31.4c2.536-3.274,1.937-7.985-1.337-10.522c-3.275-2.536-7.986-1.938-10.522,1.337
	c-8.612,11.119-16.489,23.863-23.471,37.929c-7.821-1.472-15.273-3.082-22.379-4.838c-7.027-1.736-14.306-0.634-20.502,3.107
	c-6.195,3.741-10.563,9.67-12.298,16.694c-1.736,7.025-0.632,14.306,3.108,20.501c3.741,6.195,9.669,10.563,16.694,12.298
	c6.6,1.631,13.396,3.144,20.413,4.546c-17.973,5.013-30.972,21.684-30.972,40.736c0,21.734,16.483,39.683,37.604,42.02
	c8.323,46.612,34.543,87.097,71.266,114.091c-27.554,23.919-46.343,56.267-53.282,92.109c-1.853,9.569,0.642,19.37,6.845,26.889
	c6.2,7.516,15.343,11.826,25.084,11.826h189.793c4.142,0,7.5-3.358,7.5-7.5s-3.358-7.5-7.5-7.5h-31.479v-83.199
	c23.164-3.867,44.856-12.134,64.176-23.928c26.726,21.954,44.946,52.392,51.503,86.263c0.999,5.158-0.346,10.44-3.689,14.492
	c-3.34,4.049-8.266,6.372-13.514,6.372h-31.498c-4.142,0-7.5,3.358-7.5,7.5s3.358,7.5,7.5,7.5h31.498
	c9.742,0,18.885-4.31,25.085-11.826c6.202-7.519,8.697-17.32,6.844-26.889c-6.94-35.843-25.728-68.191-53.282-92.109
	c36.723-26.994,62.943-67.479,71.266-114.091c21.121-2.338,37.604-20.287,37.604-42.02c0-19.052-12.999-35.723-30.972-40.736
	c7.017-1.402,13.814-2.915,20.414-4.546c7.025-1.735,12.954-6.103,16.694-12.298C481.787,161.289,482.891,154.008,481.155,146.984z
	 M410.508,134.672c-21.751,3.384-46.208,5.816-73.927,7.351l-18.628-90.031C357.739,64.39,388.163,91.569,410.508,134.672z
	 M211.094,43.612c0.032-0.112,0.056-0.226,0.083-0.339c1.61-7.119,8.005-12.26,15.328-12.26c7.074,0,13.051-5.296,13.902-12.318
	c0.256-2.106,2.049-3.695,4.171-3.695h22.838c2.123,0,3.916,1.589,4.171,3.695c0.852,7.023,6.828,12.318,13.902,12.318
	c7.323,0,13.718,5.141,15.328,12.261c0.027,0.113,0.051,0.227,0.083,0.338l20.515,99.149c-20.11,0.845-41.848,1.261-65.418,1.261
	s-45.308-0.416-65.418-1.261L211.094,43.612z M55.085,225.064c0-9.549,5.059-18.17,12.749-23.061
	c-0.293,3.642-0.331,7.24-0.094,10.753c0.63,9.34,3.157,17.977,7.159,24.633c0.058,4.75,0.299,9.456,0.717,14.112
	C63.828,248.489,55.085,237.779,55.085,225.064z M86.606,227.578c-4.465-9.075-5.917-23.83-0.521-40.477
	c8.197,1.391,16.712,2.639,25.569,3.758C97.627,215.354,90.081,224.327,86.606,227.578z M226.079,497h-98.477
	c-5.248,0-10.173-2.322-13.514-6.372c-3.343-4.052-4.688-9.335-3.689-14.492c6.558-33.87,24.778-64.308,51.503-86.263
	c19.32,11.794,41.012,20.061,64.176,23.928V497H226.079z M270.916,497h-29.837v-81.332c4.921,0.403,9.895,0.618,14.919,0.618
	c5.023,0,9.997-0.215,14.918-0.618V497z M255.998,401.286c-88.917,0-161.736-70.22-165.93-158.116
	c5.484-2.335,11.483-8.678,19.532-20.443c5.302-7.75,11.43-17.835,18.239-30.012c36.12,3.736,77.959,5.49,128.16,5.49
	s92.039-1.754,128.16-5.49c6.809,12.176,12.936,22.262,18.239,30.012c8.049,11.764,14.048,18.107,19.532,20.443
	C417.734,331.067,344.915,401.286,255.998,401.286z M425.39,227.578c-3.475-3.252-11.021-12.224-25.048-36.719
	c8.857-1.119,17.372-2.368,25.569-3.758C431.307,203.748,429.855,218.504,425.39,227.578z M444.162,202.003
	c7.69,4.89,12.749,13.512,12.749,23.061c0,12.715-8.742,23.425-20.531,26.438c0.419-4.656,0.66-9.362,0.717-14.112
	c4.003-6.656,6.529-15.294,7.159-24.633C444.493,209.243,444.455,205.646,444.162,202.003z M465.205,159.731
	c-1.669,2.765-4.315,4.714-7.451,5.488c-9.02,2.229-18.43,4.232-28.299,6.026c-0.023,0.004-0.045,0.008-0.068,0.012
	c-13.045,2.369-26.912,4.365-41.792,6.007c-0.047,0.004-0.094,0.01-0.141,0.015c-36.653,4.036-79.467,5.925-131.456,5.925
	c-51.991,0-94.808-1.889-131.462-5.926c-0.043-0.005-0.085-0.01-0.128-0.014c-14.883-1.642-28.752-3.638-41.799-6.008
	c-0.022-0.004-0.044-0.008-0.066-0.012c-9.87-1.794-19.28-3.798-28.3-6.026c-3.135-0.774-5.782-2.724-7.451-5.488
	c-1.67-2.765-2.162-6.015-1.387-9.15c0.774-3.136,2.724-5.782,5.489-7.452c1.91-1.153,4.05-1.745,6.225-1.745
	c0.974,0,1.954,0.119,2.924,0.358c47.717,11.788,109.983,17.279,195.956,17.279s148.239-5.491,195.957-17.279
	c3.135-0.775,6.383-0.282,9.148,1.387c2.765,1.669,4.715,4.316,5.49,7.452C467.367,153.717,466.874,156.966,465.205,159.731z
	 M133.636,452.246v9.046c0,9.204,7.488,16.691,16.691,16.691h51.495c9.204,0,16.691-7.488,16.691-16.691v-9.046
	c0-9.204-7.488-16.691-16.691-16.691h-51.494C141.124,435.555,133.636,443.043,133.636,452.246z M203.514,452.246v9.046
	c0,0.933-0.759,1.691-1.691,1.691h-51.495c-0.933,0-1.691-0.759-1.691-1.691v-9.046c0-0.932,0.759-1.691,1.691-1.691h51.495
	C202.755,450.555,203.514,451.314,203.514,452.246z"/>
<g>
</g>
<g>
</g>
<g>
</g>
<g>
</g>
<g>
</g>
<g>
</g>
<g>
</g>
<g>
</g>
<g>
</g>
<g>
</g>
<g>
</g>
<g>
</g>
<g>
</g>
<g>
</g>
<g>
</g>
</svg>
