<?xml version="1.0" encoding="iso-8859-1"?>
<!-- Generator: Adobe Illustrator 19.0.0, SVG Export Plug-In . SVG Version: 6.00 Build 0)  -->
<svg version="1.1" id="Capa_1" xmlns="http://www.w3.org/2000/svg" xmlns:xlink="http://www.w3.org/1999/xlink" x="0px" y="0px"
	 viewBox="0 0 512.001 512.001" style="enable-background:new 0 0 512.001 512.001;" xml:space="preserve">
<path style="fill:#C7C9CC;" d="M161.64,378.981h-30.548c0-46.723-8.93-75.405-16.105-98.452
	c-9.259-29.738-17.255-55.421,1.294-96.715c29.827-66.401,118.628-74.08,182.828-74.08v30.548
	c-116.331,0-144.153,31.989-154.961,56.049c-13.809,30.742-8.902,46.504,0.007,75.117
	C151.943,296.472,161.64,327.613,161.64,378.981z"/>
<path style="opacity:0.15;enable-background:new    ;" d="M250.252,142.529c14.259-1.444,30.445-2.247,48.855-2.247v-30.548
	c-15.268,0-31.928,0.437-48.855,1.992L250.252,142.529L250.252,142.529z"/>
<path style="fill:#E68392;" d="M372.687,504.5H225.528c-16.218,0-29.365-13.147-29.365-29.365V224.165
	c0-39.85,32.305-72.153,72.153-72.153h61.583c39.85,0,72.153,32.305,72.153,72.153v250.969
	C402.052,491.353,388.905,504.5,372.687,504.5z"/>
<rect x="272.695" y="98.001" style="fill:#F9E78D;" width="52.829" height="54.011"/>
<rect x="272.695" y="98.001" style="opacity:0.15;fill:#8D4330;enable-background:new    ;" width="52.829" height="29.992"/>
<g>
	<path style="fill:#495059;" d="M366.295,7.827L366.295,7.827c-17.23,2.321-34.162,6.49-50.499,12.437l-46.297,16.85
		c-10.099,3.676-15.306,14.842-11.63,24.941l1.947,5.349c3.676,10.099,14.842,15.306,24.941,11.63l31.924-11.619
		c25.891-9.424,52.723-16.032,80.03-19.709l0,0c7.465-1.005,12.09-8.652,9.513-15.73l0,0
		C400.243,15.543,383.626,5.493,366.295,7.827z"/>
	<path style="fill:#495059;" d="M376.324,72.115L376.324,72.115c-16.985-3.712-34.321-5.585-51.707-5.585h-49.268
		c-10.747,0-19.459,8.712-19.459,19.459v5.692c0,10.747,8.712,19.459,19.459,19.459h33.973c27.553,0,55.027,2.967,81.944,8.851l0,0
		c7.359,1.608,14.32-3.996,14.32-11.528l0,0C405.586,90.976,393.408,75.849,376.324,72.115z"/>
	<path style="fill:#495059;" d="M167.054,369.363h-41.378c-4.404,0-8.074,3.375-8.442,7.764l-5.9,70.406
		c-0.553,6.595,4.651,12.253,11.27,12.253h47.523c6.618,0,11.822-5.658,11.269-12.253l-5.9-70.406
		C175.128,372.738,171.459,369.363,167.054,369.363z"/>
</g>
<path style="fill:#FFFFFF;" d="M341.733,222.162h-85.252c-7.476,0-13.537,6.061-13.537,13.537v107.49
	c0,7.476,6.061,13.537,13.537,13.537h85.252c7.476,0,13.537-6.061,13.537-13.537V235.7
	C355.271,228.224,349.21,222.162,341.733,222.162z"/>
<g>
	<rect x="242.945" y="281.944" style="fill:#C7C9CC;" width="112.332" height="15"/>
	<rect x="310.746" y="289.444" style="fill:#C7C9CC;" width="15" height="67.281"/>
</g>
<g>
	<path style="opacity:0.15;fill:#8D4330;enable-background:new    ;" d="M196.162,442.712v32.422
		c0,16.218,13.147,29.365,29.365,29.365h147.159c16.218,0,29.365-13.147,29.365-29.365v-32.422H196.162z"/>
	<path style="opacity:0.15;fill:#8D4330;enable-background:new    ;" d="M372.687,504.5c5.506,0,10.656-1.519,15.06-4.156
		C251.71,443.232,241.343,216.074,258.168,152.736c-35.043,4.934-62.007,35.026-62.007,71.429v250.969
		c0,16.218,13.147,29.365,29.365,29.365H372.687z"/>
</g>
<path d="M338.139,459.89c-4.143,0-7.5,3.358-7.5,7.5v12.432c0,4.142,3.357,7.5,7.5,7.5s7.5-3.358,7.5-7.5V467.39
	C345.64,463.248,342.282,459.89,338.139,459.89z M260.075,459.89c-4.142,0-7.5,3.358-7.5,7.5v12.432c0,4.142,3.358,7.5,7.5,7.5
	c4.143,0,7.5-3.358,7.5-7.5V467.39C267.575,463.248,264.217,459.89,260.075,459.89z M389.665,127.32
	c1.382,0.302,2.773,0.45,4.153,0.45c4.353,0,8.598-1.476,12.07-4.271c4.574-3.683,7.197-9.162,7.197-15.034
	c0-20.854-14.787-39.224-35.161-43.677c-5.386-1.177-10.819-2.153-16.277-2.971c11.917-2.81,23.961-5.047,36.064-6.677
	c5.819-0.784,10.9-4.115,13.939-9.14c3.039-5.024,3.63-11.071,1.622-16.589c-7.133-19.597-27.311-31.799-47.98-29.016
	c-17.733,2.389-35.251,6.703-52.064,12.822l-46.297,16.85c-13.968,5.084-21.196,20.586-16.112,34.556l1.946,5.345
	c0.1,0.276,0.22,0.549,0.33,0.823c-2.968,4.331-4.708,9.565-4.708,15.2v5.692c0,4.478,1.104,8.7,3.043,12.42
	c-29.507,2.577-54.124,7.896-74.821,16.168c-3.846,1.538-5.718,5.902-4.181,9.748c1.172,2.934,3.989,4.718,6.967,4.718
	c0.926,0,1.869-0.173,2.781-0.538c22.123-8.843,49.331-14.103,83.014-16.058v15.653c-93.138,5.882-117.621,36.604-127.888,59.463
	c-14.974,33.335-9.455,51.058-0.313,80.42c6.685,21.474,14.908,47.897,16.76,88.185h-15.577
	c-1.858-38.039-9.673-63.152-16.028-83.563c-9.168-29.448-16.41-52.709,0.975-91.412c6.484-14.436,16.473-26.747,29.689-36.593
	c3.322-2.475,4.009-7.173,1.534-10.495c-2.476-3.322-7.174-4.008-10.495-1.534c-15.29,11.39-26.867,25.681-34.412,42.476
	c-8.999,20.034-12.724,37.884-11.722,56.175c0.889,16.23,5.367,30.614,10.108,45.844c6.066,19.483,13.519,43.429,15.342,79.321
	c-7.104,1.149-12.79,7.062-13.406,14.42l-5.9,70.406c-0.438,5.228,1.347,10.442,4.899,14.303c3.551,3.862,8.598,6.077,13.844,6.077
	h47.523c5.247,0,10.293-2.215,13.844-6.076c2.498-2.717,4.1-6.107,4.691-9.696v23.62c0,20.327,16.537,36.866,36.865,36.866h147.162
	c20.327,0,36.866-16.538,36.866-36.866V224.166c0-42.875-34.054-77.927-76.531-79.575v-25.192
	C352.069,120.604,371.038,123.249,389.665,127.32z M272.064,44.163l46.297-16.85c15.802-5.752,32.266-9.807,48.935-12.052
	c13.739-1.852,27.142,6.26,31.882,19.28c0.612,1.683,0.037,3.038-0.361,3.696c-0.397,0.658-1.33,1.797-3.105,2.036
	c-26.433,3.561-52.604,9.874-77.815,18.757H275.35c-3.498,0-6.84,0.677-9.909,1.895l-0.522-1.434
	C262.661,53.295,265.868,46.418,272.064,44.163z M172.93,451.056c-0.423,0.46-1.349,1.23-2.803,1.23h-47.523
	c-1.455,0-2.381-0.771-2.804-1.23c-0.423-0.459-1.113-1.447-0.992-2.896l5.9-70.406c0.042-0.499,0.467-0.89,0.968-0.89h41.378
	c0.501,0,0.926,0.391,0.968,0.891l5.9,70.406C174.043,449.61,173.353,450.597,172.93,451.056z M188.662,224.166v220.264
	l-5.692-67.929c-0.639-7.631-6.728-13.717-14.2-14.537c-1.857-42.618-10.464-70.289-17.456-92.746
	c-8.637-27.738-12.972-41.662-0.326-69.814c7.482-16.655,24.451-38.271,83.502-47.333
	C207.438,164.816,188.662,192.334,188.662,224.166z M394.552,224.166v211.046h-19.035c-4.142,0-7.5,3.358-7.5,7.5s3.358,7.5,7.5,7.5
	h19.035v24.922c0,12.056-9.809,21.865-21.865,21.865h-147.16c-12.056,0-21.864-9.809-21.864-21.865v-24.922h136.954
	c4.143,0,7.5-3.358,7.5-7.5s-3.357-7.5-7.5-7.5H203.662V224.166c0-35.651,29.003-64.654,64.653-64.654h61.584
	C365.549,159.512,394.552,188.516,394.552,224.166z M280.193,144.512v-25.87h29.128c2.899,0,5.799,0.041,8.699,0.108v25.762H280.193
	z M309.322,103.642h-33.974c-1.18,0-2.319-0.178-3.396-0.498c-0.056-0.015-0.112-0.031-0.168-0.045
	c-4.858-1.521-8.394-6.063-8.394-11.416V85.99c0-6.594,5.365-11.959,11.959-11.959h49.269c16.818,0,33.677,1.821,50.105,5.412
	c13.538,2.958,23.363,15.164,23.363,29.021c0,1.791-1.005,2.868-1.604,3.35c-0.6,0.481-1.866,1.235-3.614,0.851
	C365.472,106.678,337.363,103.642,309.322,103.642z M235.444,235.7v107.49c0,11.6,9.437,21.037,21.037,21.037h85.252
	c11.6,0,21.037-9.437,21.037-21.037V235.7c0-11.6-9.438-21.037-21.037-21.037h-85.252
	C244.881,214.662,235.444,224.099,235.444,235.7z M347.771,235.7v107.49c0,3.329-2.708,6.037-6.037,6.037h-85.252
	c-3.329,0-6.037-2.708-6.037-6.037V235.7c0-3.329,2.708-6.037,6.037-6.037h85.252C345.063,229.663,347.771,232.371,347.771,235.7z"
	/>
<g>
</g>
<g>
</g>
<g>
</g>
<g>
</g>
<g>
</g>
<g>
</g>
<g>
</g>
<g>
</g>
<g>
</g>
<g>
</g>
<g>
</g>
<g>
</g>
<g>
</g>
<g>
</g>
<g>
</g>
</svg>
