<?xml version="1.0" encoding="iso-8859-1"?>
<!-- Generator: Adobe Illustrator 19.0.0, SVG Export Plug-In . SVG Version: 6.00 Build 0)  -->
<svg version="1.1" id="Capa_1" xmlns="http://www.w3.org/2000/svg" xmlns:xlink="http://www.w3.org/1999/xlink" x="0px" y="0px"
	 viewBox="0 0 511.999 511.999" style="enable-background:new 0 0 511.999 511.999;" xml:space="preserve">
<path style="fill:#DDEFF5;" d="M467.093,471.569H44.907V138.283c0-14.567,11.809-26.376,26.376-26.376h369.434
	c14.567,0,26.376,11.809,26.376,26.376V471.569z"/>
<rect x="44.907" y="421.65" style="fill:#7397DA;" width="422.19" height="49.919"/>
<g>
	<path style="fill:#A8D1EC;" d="M467.093,183.384H44.907v-45.101c0-14.567,11.809-26.376,26.376-26.376h369.434
		c14.567,0,26.376,11.809,26.376,26.376V183.384z"/>
	<path style="fill:#A8D1EC;" d="M203.079,305.622H109.11c-8.293,0-15.016-6.723-15.016-15.016v-39.068
		c0-8.293,6.723-15.016,15.016-15.016h93.969c8.293,0,15.016,6.723,15.016,15.016v39.068
		C218.095,298.899,211.372,305.622,203.079,305.622z"/>
</g>
<rect x="148.591" y="236.52" style="opacity:0.15;fill:#003A63;enable-background:new    ;" width="15" height="69.1"/>
<path style="fill:#A8D1EC;" d="M308.921,305.622h93.969c8.293,0,15.016-6.723,15.016-15.016v-39.068
	c0-8.293-6.723-15.016-15.016-15.016h-93.969c-8.293,0-15.016,6.723-15.016,15.016v39.068
	C293.906,298.899,300.628,305.622,308.921,305.622z"/>
<rect x="348.401" y="236.52" style="opacity:0.15;fill:#003A63;enable-background:new    ;" width="15" height="69.1"/>
<path style="fill:#A8D1EC;" d="M303.858,346.92h-95.715c-11.804,0-21.373,9.569-21.373,21.373v103.275h138.461V368.293
	C325.231,356.489,315.662,346.92,303.858,346.92z"/>
<g>
	<rect x="248.501" y="346.92" style="opacity:0.15;fill:#003A63;enable-background:new    ;" width="15" height="124.65"/>
	<path style="opacity:0.15;fill:#003A63;enable-background:new    ;" d="M193.249,111.907H71.283
		c-14.567,0-26.376,11.809-26.376,26.376v333.286h351.021C187.678,407.161,187.445,199.953,193.249,111.907z"/>
</g>
<g>
	<path style="fill:#8EDBD6;" d="M123.104,471.569c4.836,0,8.513-4.306,7.813-9.092c-4.401-30.112-30.333-53.233-61.666-53.233
		s-57.265,23.121-61.666,53.233c-0.7,4.786,2.977,9.092,7.813,9.092H123.104z"/>
	<path style="fill:#8EDBD6;" d="M388.896,471.569c-4.836,0-8.513-4.306-7.813-9.092c4.401-30.112,30.333-53.233,61.666-53.233
		s57.265,23.121,61.666,53.233c0.699,4.786-2.977,9.092-7.813,9.092H388.896z"/>
</g>
<path style="opacity:0.15;fill:#2C6245;enable-background:new    ;" d="M442.214,409.257c-31.091,0.262-56.755,23.281-61.131,53.22
	c-0.699,4.786,2.977,9.092,7.813,9.092h84.053C441.118,458.614,431.382,425.073,442.214,409.257z"/>
<path style="fill:#E68392;" d="M317.513,89.559h-39.165V50.394c0-5.503-4.461-9.964-9.964-9.964h-24.768
	c-5.503,0-9.964,4.461-9.964,9.964v39.165h-39.165c-5.503,0-9.964,4.461-9.964,9.964v24.768c0,5.503,4.461,9.964,9.964,9.964h39.165
	v39.165c0,5.503,4.461,9.964,9.964,9.964h24.768c5.503,0,9.964-4.461,9.964-9.964v-39.165h39.165c5.503,0,9.964-4.461,9.964-9.964
	V99.523C327.478,94.02,323.016,89.559,317.513,89.559z"/>
<path style="opacity:0.15;fill:#2C6245;enable-background:new    ;" d="M68.717,409.257c-31.092,0.262-56.755,23.281-61.131,53.22
	c-0.699,4.786,2.977,9.092,7.813,9.092h84.053C67.621,458.614,57.885,425.073,68.717,409.257z"/>
<g style="opacity:0.15;">
	<path style="fill:#003A63;" d="M131.003,363.58H99.452c-4.142,0-7.5-3.358-7.5-7.5s3.358-7.5,7.5-7.5h31.551
		c4.142,0,7.5,3.358,7.5,7.5S135.145,363.58,131.003,363.58z"/>
	<path style="fill:#003A63;" d="M426.267,217.155h-16.898c-4.142,0-7.5-3.358-7.5-7.5s3.358-7.5,7.5-7.5h16.898
		c4.142,0,7.5,3.358,7.5,7.5S430.409,217.155,426.267,217.155z"/>
	<path style="fill:#003A63;" d="M172.122,221.613h-27.288c-4.142,0-7.5-3.358-7.5-7.5s3.358-7.5,7.5-7.5h27.288
		c4.142,0,7.5,3.358,7.5,7.5S176.264,221.613,172.122,221.613z"/>
	<path style="fill:#003A63;" d="M403.141,380.214h-27.288c-4.142,0-7.5-3.358-7.5-7.5s3.358-7.5,7.5-7.5h27.288
		c4.142,0,7.5,3.358,7.5,7.5C410.641,376.857,407.283,380.214,403.141,380.214z"/>
</g>
<g style="opacity:0.15;">
	<rect x="374.851" y="111.91" style="fill:#003A63;" width="15" height="71.48"/>
	<rect x="122.151" y="111.91" style="fill:#003A63;" width="15" height="71.48"/>
</g>
<path d="M511.836,461.393c-2.401-16.43-10.65-31.515-23.227-42.478c-4.298-3.746-9.013-6.908-14.016-9.472v-271.16
	c0-18.68-15.197-33.877-33.876-33.877H334.978v-4.884c0-9.63-7.834-17.464-17.464-17.464h-31.665V50.394
	c0-9.63-7.834-17.464-17.464-17.464h-24.768c-9.63,0-17.464,7.834-17.464,17.464v31.665h-31.665c-9.63,0-17.464,7.834-17.464,17.464
	v4.884h-90.75c-4.142,0-7.5,3.358-7.5,7.5s3.358,7.5,7.5,7.5h90.75v4.884c0,9.63,7.834,17.464,17.464,17.464h31.665v31.665
	c0,0.839,0.08,1.657,0.195,2.464H52.407v-37.601c0-4.56,1.647-8.961,4.638-12.394c2.721-3.122,2.396-7.86-0.727-10.581
	s-7.86-2.396-10.582,0.727c-5.372,6.164-8.33,14.065-8.33,22.248v271.16c-5.002,2.564-9.718,5.725-14.016,9.472
	c-12.577,10.962-20.826,26.048-23.227,42.478c-0.65,4.453,0.662,8.956,3.599,12.354c2.924,3.382,7.165,5.322,11.636,5.322h434.558
	c4.142,0,7.5-3.358,7.5-7.5s-3.358-7.5-7.5-7.5h-61.061c-0.061,0-0.174,0-0.288-0.132c-0.136-0.157-0.112-0.315-0.103-0.375
	c3.901-26.69,27.221-46.817,54.245-46.817s50.344,20.127,54.245,46.817c0.009,0.06,0.032,0.218-0.104,0.375
	c-0.114,0.132-0.228,0.132-0.288,0.132h-10.938c-4.142,0-7.5,3.358-7.5,7.5s3.358,7.5,7.5,7.5h10.937
	c4.471,0,8.711-1.94,11.636-5.322C511.174,470.348,512.486,465.846,511.836,461.393z M194.487,126.755
	c-1.359,0-2.464-1.105-2.464-2.464V99.523c0-1.359,1.105-2.464,2.464-2.464h39.165c4.142,0,7.5-3.358,7.5-7.5V50.394
	c0-1.359,1.105-2.464,2.464-2.464h24.768c1.359,0,2.464,1.105,2.464,2.464v39.165c0,4.142,3.358,7.5,7.5,7.5h39.165
	c1.359,0,2.464,1.105,2.464,2.464v24.768c0,1.359-1.105,2.464-2.464,2.464h-39.165c-4.142,0-7.5,3.358-7.5,7.5v39.165
	c0,1.359-1.105,2.464-2.464,2.464h-24.768c-1.359,0-2.464-1.105-2.464-2.464v-39.165c0-4.142-3.358-7.5-7.5-7.5
	C233.652,126.755,194.487,126.755,194.487,126.755z M123.393,463.937c-0.114,0.132-0.228,0.132-0.288,0.132H15.399
	c-0.061,0-0.174,0-0.288-0.132c-0.136-0.157-0.113-0.315-0.104-0.375c3.901-26.69,27.221-46.817,54.245-46.817
	s50.344,20.127,54.245,46.818C123.505,463.622,123.528,463.78,123.393,463.937z M179.27,464.069h-40.794
	c0.025-0.889-0.006-1.782-0.136-2.676c-1.722-11.784-6.467-22.867-13.645-32.243h54.576v34.919H179.27z M317.731,464.069H194.27
	v-95.775c0-7.65,6.224-13.874,13.873-13.874h95.715c7.649,0,13.873,6.224,13.873,13.874L317.731,464.069L317.731,464.069z
	 M373.662,461.392c-0.131,0.894-0.161,1.788-0.136,2.677h-40.795V429.15h54.576C380.128,438.525,375.384,449.608,373.662,461.392z
	 M459.593,403.822c-5.471-1.36-11.122-2.078-16.845-2.078c-14.258,0-28.091,4.371-39.705,12.405h-70.312v-45.856
	c0-15.921-12.953-28.874-28.873-28.874h-95.715c-15.92,0-28.873,12.953-28.873,28.874v45.856h-70.313
	c-11.614-8.034-25.446-12.405-39.705-12.405c-5.723,0-11.374,0.718-16.845,2.078V190.884h407.187v212.938H459.593z M459.593,175.884
	h-173.94c0.115-0.807,0.195-1.626,0.195-2.464v-31.665h31.665c9.63,0,17.464-7.834,17.464-17.464v-4.884h105.739
	c10.409,0,18.876,8.468,18.876,18.877L459.593,175.884L459.593,175.884z M308.922,313.122h93.969
	c12.415,0,22.516-10.1,22.516-22.516v-39.068c0-12.415-10.101-22.516-22.516-22.516h-93.969c-12.415,0-22.516,10.101-22.516,22.516
	v39.068C286.406,303.022,296.506,313.122,308.922,313.122z M301.406,251.538c0-4.144,3.371-7.516,7.516-7.516h93.969
	c4.144,0,7.516,3.372,7.516,7.516v39.068c0,4.144-3.372,7.516-7.516,7.516h-93.969c-4.144,0-7.516-3.371-7.516-7.516V251.538z
	 M109.11,313.122h93.969c12.415,0,22.516-10.1,22.516-22.516v-39.068c0-12.415-10.1-22.516-22.516-22.516H109.11
	c-12.415,0-22.516,10.101-22.516,22.516v39.068C86.594,303.022,96.694,313.122,109.11,313.122z M101.594,251.538
	c0-4.144,3.372-7.516,7.516-7.516h93.969c4.144,0,7.516,3.372,7.516,7.516v39.068c0,4.144-3.372,7.516-7.516,7.516H109.11
	c-4.144,0-7.516-3.371-7.516-7.516V251.538z"/>
<g>
</g>
<g>
</g>
<g>
</g>
<g>
</g>
<g>
</g>
<g>
</g>
<g>
</g>
<g>
</g>
<g>
</g>
<g>
</g>
<g>
</g>
<g>
</g>
<g>
</g>
<g>
</g>
<g>
</g>
</svg>
