<?xml version="1.0" encoding="iso-8859-1"?>
<!-- Generator: Adobe Illustrator 19.0.0, SVG Export Plug-In . SVG Version: 6.00 Build 0)  -->
<svg version="1.1" id="Capa_1" xmlns="http://www.w3.org/2000/svg" xmlns:xlink="http://www.w3.org/1999/xlink" x="0px" y="0px"
	 viewBox="0 0 511.999 511.999" style="enable-background:new 0 0 511.999 511.999;" xml:space="preserve">
<path style="fill:#DDEFF5;" d="M355.321,33.567h-30.159c-8.121,0-15.319-5.228-17.83-12.951l0,0
	C304.789,12.795,297.5,7.5,289.276,7.5h-66.547c-8.224,0-15.514,5.295-18.057,13.116l0,0c-2.511,7.723-9.709,12.951-17.83,12.951
	h-30.16c-28.634,0-51.846,23.212-51.846,51.846v267.165c0,28.634,23.212,51.846,51.846,51.846h198.639
	c28.634,0,51.846-23.212,51.846-51.846V85.412C407.167,56.779,383.955,33.567,355.321,33.567z"/>
<path style="opacity:0.15;fill:#003A63;enable-background:new    ;" d="M401.619,375.905
	c-207.852-57.277-233.923-203.7-216.218-342.338h-28.719c-28.634,0-51.846,23.212-51.846,51.846v267.165
	c0,28.634,23.212,51.846,51.846,51.846h198.639C375.562,404.423,393.081,392.818,401.619,375.905z"/>
<path style="fill:#E68392;" d="M407.167,352.578V95.592c-101.269,0.074-197.637,28.998-302.33,15.861v241.125
	c0,28.634,23.212,51.846,51.846,51.846h198.639C383.955,404.423,407.167,381.211,407.167,352.578z"/>
<path style="opacity:0.15;fill:#8D4330;enable-background:new    ;" d="M401.619,375.905
	C234.154,329.758,184.688,225.743,181.05,114.553c-25.03,0.817-50.368,0.144-76.214-3.099v241.125
	c0,28.634,23.212,51.846,51.846,51.846h198.639C375.562,404.423,393.081,392.818,401.619,375.905z"/>
<path style="fill:#FFFFFF;" d="M348.049,155.536H163.955c-7.198,0-13.034,5.835-13.034,13.034v139.318
	c0,7.198,5.836,13.034,13.034,13.034h184.093c7.198,0,13.034-5.835,13.034-13.034V168.57
	C361.082,161.372,355.247,155.536,348.049,155.536z"/>
<g>
	<ellipse style="fill:#F8B8BD;" cx="197.572" cy="220.5" rx="21.559" ry="17.17"/>
	<ellipse style="fill:#F8B8BD;" cx="314.432" cy="220.5" rx="21.559" ry="17.17"/>
</g>
<rect x="289.852" y="404.42" style="fill:#DDEFF5;" width="44.551" height="66.52"/>
<rect x="289.852" y="404.42" style="opacity:0.15;fill:#003A63;enable-background:new    ;" width="44.551" height="26.463"/>
<path style="fill:#DDEFF5;" d="M177.599,404.423v32.891c0,5.921-4.8,10.721-10.721,10.721h-28.479v44.551h32.553
	c28.276,0,51.199-22.922,51.199-51.199v-36.964H177.599z"/>
<g>
	<rect x="177.602" y="404.42" style="opacity:0.15;fill:#003A63;enable-background:new    ;" width="44.551" height="26.463"/>
	<rect x="138.402" y="448.04" style="opacity:0.15;fill:#003A63;enable-background:new    ;" width="19.486" height="44.551"/>
	<path style="opacity:0.15;fill:#003A63;enable-background:new    ;" d="M281.91,320.922c-60.164-44.035-87.9-102.45-97.245-165.386
		h-20.71c-7.198,0-13.034,5.835-13.034,13.034v139.318c0,7.198,5.836,13.034,13.034,13.034H281.91z"/>
</g>
<g>
	<path style="fill:#7397DA;" d="M339.974,504.5h-55.689c-3.504,0-6.344-2.841-6.344-6.344v-20.873c0-3.504,2.84-6.344,6.344-6.344
		h55.689c3.504,0,6.345,2.841,6.345,6.344v20.873C346.319,501.659,343.478,504.5,339.974,504.5z"/>
	<path style="fill:#7397DA;" d="M138.399,442.466v55.689c0,3.504-2.84,6.344-6.344,6.344h-20.873c-3.504,0-6.344-2.841-6.344-6.344
		v-55.689c0-3.504,2.84-6.344,6.344-6.344h20.873C135.558,436.122,138.399,438.962,138.399,442.466z"/>
</g>
<path d="M189.937,270.73c-4.142,0-7.5,3.358-7.5,7.5v14.065c0,4.142,3.358,7.5,7.5,7.5s7.5-3.358,7.5-7.5V278.23
	C197.437,274.088,194.08,270.73,189.937,270.73z M355.321,26.067h-30.159c-4.887,0-9.187-3.123-10.698-7.77
	C310.906,7.353,300.783,0,289.275,0h-66.547c-11.508,0-21.631,7.353-25.189,18.296c-1.511,4.648-5.811,7.77-10.698,7.77h-30.159
	c-32.723,0-59.346,26.623-59.346,59.346v267.165c0,32.723,26.622,59.346,59.345,59.346h13.417v25.391
	c0,1.776-1.445,3.221-3.221,3.221h-21.13c-0.945-6.721-6.717-11.914-13.694-11.914H111.18c-7.634,0-13.844,6.211-13.844,13.845
	v55.689c0,7.634,6.21,13.844,13.844,13.844h20.873c6.977,0,12.75-5.193,13.694-11.914h25.203c32.367,0,58.699-26.332,58.699-58.699
	v-29.464h52.704v51.665c-6.721,0.944-11.914,6.716-11.914,13.693v20.874c0,7.634,6.21,13.844,13.844,13.844h55.69
	c7.634,0,13.844-6.21,13.844-13.844V477.28c0-6.977-5.193-12.749-11.914-13.693v-51.665h13.416c5.626,0,11.195-0.788,16.552-2.341
	c3.979-1.153,6.268-5.313,5.115-9.292c-1.153-3.978-5.313-6.269-9.292-5.115c-4,1.16-8.164,1.747-12.376,1.747H156.682
	c-24.452,0-44.345-19.893-44.345-44.346v-232.72c15.477,1.631,31.319,2.462,48.175,2.514h0.023c4.131,0,7.487-3.343,7.499-7.477
	c0.013-4.142-3.335-7.51-7.477-7.523c-16.912-0.052-32.757-0.901-48.221-2.591V85.413c0-24.452,19.893-44.346,44.346-44.346h30.159
	c11.404,0,21.436-7.287,24.962-18.132c1.544-4.746,5.934-7.935,10.924-7.935h66.547c4.991,0,9.381,3.189,10.924,7.935
	c3.526,10.845,13.558,18.132,24.962,18.132h30.159c24.452,0,44.346,19.893,44.346,44.346v2.739
	c-39.024,0.562-77.717,5.154-115.21,9.606c-28.896,3.431-58.777,6.979-88.454,8.63c-4.136,0.23-7.302,3.769-7.072,7.905
	c0.222,3.994,3.53,7.084,7.481,7.084c0.14,0,0.282-0.004,0.423-0.012c30.146-1.677,60.264-5.253,89.389-8.712
	c37.035-4.397,75.253-8.935,113.441-9.501v249.426c0,8.908-2.628,17.497-7.601,24.837c-2.324,3.429-1.427,8.093,2.002,10.415
	c3.43,2.324,8.093,1.426,10.416-2.003c6.662-9.833,10.183-21.331,10.183-33.25V85.413C414.667,52.69,388.044,26.067,355.321,26.067z
	 M130.899,497h-18.562v-53.378h18.562V497z M297.354,411.923h29.551v51.515h-29.551V411.923z M285.44,478.438h53.378V497H285.44
	V478.438z M185.099,437.315v-25.391h29.551v29.464c0,24.096-19.603,43.699-43.699,43.699h-25.052v-29.551h20.979
	C176.925,455.535,185.099,447.361,185.099,437.315z M217.639,203.377v-7.613c0-4.142-3.358-7.5-7.5-7.5s-7.5,3.358-7.5,7.5v7.613
	c0,4.142,3.358,7.5,7.5,7.5S217.639,207.519,217.639,203.377z M301.865,210.877c4.142,0,7.5-3.358,7.5-7.5v-7.613
	c0-4.142-3.358-7.5-7.5-7.5s-7.5,3.358-7.5,7.5v7.613C294.365,207.519,297.723,210.877,301.865,210.877z M163.955,148.036
	c-11.322,0-20.534,9.212-20.534,20.534v139.318c0,11.322,9.212,20.534,20.534,20.534h184.094c11.322,0,20.534-9.211,20.534-20.534
	V168.57c0-11.322-9.212-20.534-20.534-20.534L163.955,148.036L163.955,148.036z M353.583,168.57v139.318
	c0,3.051-2.483,5.534-5.534,5.534H163.955c-3.051,0-5.534-2.482-5.534-5.534V168.57c0-3.051,2.482-5.534,5.534-5.534h184.094
	C351.1,163.036,353.583,165.519,353.583,168.57z M326.195,256.218h-31.198c-4.142,0-7.5,3.358-7.5,7.5s3.358,7.5,7.5,7.5h31.198
	c4.142,0,7.5-3.358,7.5-7.5S330.337,256.218,326.195,256.218z M276.269,41.067c4.142,0,7.5-3.358,7.5-7.5s-3.358-7.5-7.5-7.5
	h-40.533c-4.142,0-7.5,3.358-7.5,7.5s3.358,7.5,7.5,7.5H276.269z M242.976,270.73c-4.142,0-7.5,3.358-7.5,7.5v14.065
	c0,4.142,3.358,7.5,7.5,7.5s7.5-3.358,7.5-7.5V278.23C250.476,274.088,247.118,270.73,242.976,270.73z M326.195,282.333h-31.198
	c-4.142,0-7.5,3.358-7.5,7.5s3.358,7.5,7.5,7.5h31.198c4.142,0,7.5-3.358,7.5-7.5S330.337,282.333,326.195,282.333z M216.457,270.73
	c-4.142,0-7.5,3.358-7.5,7.5v14.065c0,4.142,3.358,7.5,7.5,7.5s7.5-3.358,7.5-7.5V278.23
	C223.957,274.088,220.599,270.73,216.457,270.73z M273.022,198.061c-3.122-2.722-7.86-2.398-10.582,0.726
	c-1.626,1.866-3.973,2.937-6.438,2.937c-2.465,0-4.812-1.07-6.438-2.937c-2.722-3.123-7.46-3.448-10.582-0.726
	c-3.123,2.722-3.448,7.46-0.726,10.582c4.476,5.136,10.944,8.081,17.746,8.081c6.801,0,13.27-2.945,17.746-8.081
	C276.469,205.52,276.144,200.782,273.022,198.061z"/>
<g>
</g>
<g>
</g>
<g>
</g>
<g>
</g>
<g>
</g>
<g>
</g>
<g>
</g>
<g>
</g>
<g>
</g>
<g>
</g>
<g>
</g>
<g>
</g>
<g>
</g>
<g>
</g>
<g>
</g>
</svg>
