<?xml version="1.0" encoding="iso-8859-1"?>
<!-- Generator: Adobe Illustrator 19.0.0, SVG Export Plug-In . SVG Version: 6.00 Build 0)  -->
<svg version="1.1" id="Capa_1" xmlns="http://www.w3.org/2000/svg" xmlns:xlink="http://www.w3.org/1999/xlink" x="0px" y="0px"
	 viewBox="0 0 511.999 511.999" style="enable-background:new 0 0 511.999 511.999;" xml:space="preserve">
<rect x="132.626" y="304.183" style="fill:#7397DA;" width="260.065" height="30.159"/>
<rect x="132.626" y="304.183" style="opacity:0.15;enable-background:new    ;" width="27.322" height="30.159"/>
<rect x="365.372" y="304.183" style="opacity:0.15;enable-background:new    ;" width="27.322" height="30.159"/>
<rect x="102.467" y="196.665" style="fill:#C7C9CC;" width="30.159" height="181.847"/>
<circle style="fill:#495059;" cx="117.546" cy="384.822" r="30.665"/>
<rect x="392.692" y="237.714" style="fill:#C7C9CC;" width="30.159" height="140.808"/>
<rect x="392.692" y="237.714" style="opacity:0.15;enable-background:new    ;" width="30.159" height="24.918"/>
<polygon style="opacity:0.15;enable-background:new    ;" points="102.47,231.456 132.631,242.435 132.631,196.668 102.47,196.668 
	"/>
<circle style="fill:#495059;" cx="407.771" cy="384.822" r="30.665"/>
<g>
	<circle style="fill:#7397DA;" cx="117.546" cy="384.822" r="7.159"/>
	<circle style="fill:#7397DA;" cx="407.771" cy="384.822" r="7.159"/>
</g>
<path style="fill:#A8D1EC;" d="M153.921,117.698l-52.723-19.19c-15.018-5.466-31.793,0.629-39.799,14.461l0,0
	c-4.407,7.613-0.866,17.359,7.4,20.368l87.554,31.867c8.266,3.009,17.243-2.181,18.761-10.846l0,0
	C177.871,138.616,168.938,123.163,153.921,117.698z"/>
<path style="fill:#7397DA;" d="M177.233,172.804l-139.03-50.603c-8.76-3.188-18.446,1.328-21.634,10.088L8.529,154.38
	c-3.188,8.76,1.328,18.446,10.088,21.634l148.487,54.054c13.894,5.058,28.565,7.645,43.351,7.645H487.62
	c9.322,0,16.879-7.557,16.879-16.879v-23.51c0-9.322-7.557-16.879-16.879-16.879H220.578
	C205.795,180.446,191.125,177.86,177.233,172.804z"/>
<g>
	<path style="opacity:0.15;fill:#003A63;enable-background:new    ;" d="M220.578,180.446c-14.784,0-29.452-2.587-43.344-7.643
		l-139.03-50.603c-8.76-3.188-18.446,1.328-21.634,10.088L8.529,154.38c-3.188,8.76,1.328,18.445,10.088,21.634l148.487,54.054
		c13.894,5.058,28.565,7.645,43.351,7.645h114.51c-28.903-11.407-44.051-30.22-44.167-57.267h-60.221V180.446z"/>
	<path style="opacity:0.15;fill:#003A63;enable-background:new    ;" d="M172.901,159.82c-42.596-9.241-86.497-42.712-86.096-63.152
		c-10.328,0.987-19.925,6.828-25.408,16.301l0,0c-4.407,7.613-0.866,17.359,7.4,20.368l87.554,31.867
		C162.676,167.505,169.403,164.999,172.901,159.82z"/>
</g>
<path d="M487.62,172.947h-36.545l-0.656-2.851c-4.428-19.227-21.299-32.654-41.027-32.654H287.323
	c-19.729,0-36.6,13.428-41.027,32.654l-0.656,2.851h-25.062c-13.95,0-27.671-2.419-40.779-7.19l-1.525-0.555
	c2.142-2.754,3.609-6.018,4.228-9.549c3.391-19.355-7.551-38.28-26.016-45.002l-52.724-19.19
	c-18.464-6.721-39.011,0.744-48.855,17.752c-1.796,3.103-2.77,6.546-2.899,10.032l-11.238-4.09
	c-12.629-4.594-26.648,1.938-31.246,14.571l-8.041,22.092c-2.227,6.119-1.939,12.74,0.813,18.641
	c2.753,5.902,7.638,10.379,13.757,12.605l14.835,5.4c3.892,1.418,8.196-0.59,9.613-4.482c1.417-3.892-0.59-8.196-4.482-9.613
	l-14.835-5.401c-2.354-0.856-4.234-2.579-5.293-4.849c-1.059-2.271-1.17-4.817-0.313-7.172l8.041-22.092
	c1.769-4.859,7.16-7.377,12.02-5.605l139.029,50.603c14.759,5.371,30.205,8.095,45.91,8.095h21.609l-4.479,19.451
	c-0.93,4.037,1.589,8.063,5.626,8.992c4.035,0.929,8.061-1.589,8.991-5.626l5.254-22.817h43.705v21.134c0,4.142,3.357,7.5,7.5,7.5
	s7.5-3.358,7.5-7.5v-21.134h64.148v21.134c0,4.142,3.357,7.5,7.5,7.5c4.142,0,7.5-3.358,7.5-7.5v-21.134h43.705l5.253,22.817
	c0.799,3.47,3.887,5.819,7.302,5.819c0.558,0,1.123-0.063,1.69-0.193c4.036-0.929,6.556-4.955,5.626-8.991l-4.478-19.452h33.091
	c5.172,0,9.379,4.207,9.379,9.379v23.51c0,5.171-4.207,9.379-9.379,9.379H210.456c-13.953,0-27.676-2.42-40.785-7.193L69.129,186.42
	c-3.894-1.419-8.195,0.59-9.613,4.482c-1.417,3.892,0.59,8.196,4.482,9.613L94.97,211.79v142.291
	c-9.443,6.954-15.585,18.144-15.585,30.744c0,21.045,17.121,38.165,38.165,38.165s38.165-17.121,38.165-38.165
	c0-12.6-6.141-23.789-15.584-30.743v-12.236h184.903c4.143,0,7.5-3.358,7.5-7.5c0-4.142-3.357-7.5-7.5-7.5H140.132v-15.163h245.063
	v15.163h-25.064c-4.143,0-7.5,3.358-7.5,7.5c0,4.142,3.357,7.5,7.5,7.5h25.064v12.235c-9.443,6.954-15.585,18.144-15.585,30.744
	c0,21.045,17.121,38.165,38.165,38.165s38.165-17.121,38.165-38.165c0-12.601-6.142-23.79-15.585-30.744V245.213h57.264
	c13.442,0,24.379-10.937,24.379-24.379v-23.51C511.998,183.882,501.062,172.947,487.62,172.947z M167.727,153.064
	c-0.465,2.655-2.214,4.023-3.216,4.601c-1.001,0.579-3.063,1.413-5.593,0.491l-87.555-31.867c-2.532-0.921-3.573-2.883-3.968-3.97
	c-0.396-1.087-0.856-3.259,0.494-5.592c4.666-8.061,13.15-12.715,22.021-12.715c2.906,0,5.855,0.501,8.723,1.544l52.724,19.19
	C162.976,128.974,169.859,140.884,167.727,153.064z M301.283,172.947h-40.228c3.032-12.097,13.749-20.506,26.269-20.506h13.96
	V172.947z M380.432,172.947h-64.149v-20.506h64.148L380.432,172.947L380.432,172.947z M395.432,172.947v-20.506h13.96
	c12.521,0,23.237,8.409,26.269,20.506H395.432z M109.97,217.25l15.163,5.52v124.65c-2.451-0.496-4.987-0.759-7.582-0.759
	s-5.13,0.263-7.581,0.759V217.25z M140.716,384.825c0,12.774-10.393,23.166-23.166,23.166s-23.166-10.392-23.166-23.166
	c0-12.774,10.393-23.166,23.166-23.166S140.716,372.051,140.716,384.825z M400.194,245.213h15.162v102.205
	c-2.451-0.496-4.986-0.759-7.581-0.759c-2.595,0-5.13,0.263-7.581,0.759V245.213z M140.132,296.684V228.23l24.408,8.885
	c14.76,5.374,30.207,8.098,45.916,8.098h174.739v51.471H140.132V296.684z M430.941,384.825c0,12.774-10.393,23.166-23.166,23.166
	c-12.773,0-23.166-10.392-23.166-23.166c0-12.774,10.393-23.166,23.166-23.166C420.548,361.659,430.941,372.051,430.941,384.825z"/>
<g>
</g>
<g>
</g>
<g>
</g>
<g>
</g>
<g>
</g>
<g>
</g>
<g>
</g>
<g>
</g>
<g>
</g>
<g>
</g>
<g>
</g>
<g>
</g>
<g>
</g>
<g>
</g>
<g>
</g>
</svg>
