<?xml version="1.0" encoding="iso-8859-1"?>
<!-- Generator: Adobe Illustrator 19.0.0, SVG Export Plug-In . SVG Version: 6.00 Build 0)  -->
<svg version="1.1" id="Capa_1" xmlns="http://www.w3.org/2000/svg" xmlns:xlink="http://www.w3.org/1999/xlink" x="0px" y="0px"
	 viewBox="0 0 512 512" style="enable-background:new 0 0 512 512;" xml:space="preserve">
<path style="fill:#DDEFF5;" d="M420.375,315.119H91.625c-25.619,0-46.387-20.768-46.387-46.387V53.887
	C45.238,28.268,66.007,7.5,91.625,7.5h328.749c25.619,0,46.387,20.768,46.387,46.387v214.845
	C466.762,294.351,445.993,315.119,420.375,315.119z"/>
<g>
	<circle style="fill:#7397DA;" cx="391.33" cy="98.59" r="48.547"/>
	<path style="fill:#7397DA;" d="M45.238,183.387v85.345c0,25.619,20.768,46.387,46.387,46.387h328.749
		c25.619,0,46.387-20.768,46.387-46.387v-85.345H45.238z"/>
</g>
<path style="opacity:0.15;fill:#003A63;enable-background:new    ;" d="M416.312,315.119C232.04,298.943,179.19,134.254,223.192,7.5
	H91.625c-25.619,0-46.387,20.768-46.387,46.387v214.845c0,25.619,20.768,46.387,46.387,46.387H416.312z"/>
<path style="fill:#495059;" d="M288.811,253.409H109.325c-13.215,0-23.927-10.713-23.927-23.927V93.137
	c0-13.215,10.713-23.927,23.927-23.927h179.486c13.215,0,23.928,10.713,23.928,23.927v136.344
	C312.739,242.696,302.026,253.409,288.811,253.409z"/>
<path style="fill:#8EDBD6;" d="M417.588,249.442h-52.525c-6.14,0-11.117-4.977-11.117-11.117v-15.716
	c0-6.14,4.977-11.117,11.117-11.117h52.525c6.14,0,11.117,4.977,11.117,11.117v15.716
	C428.705,244.465,423.728,249.442,417.588,249.442z"/>
<path style="fill:#F9E78D;" d="M389.715,136.319c-0.841,0-1.697-0.143-2.534-0.443c-3.898-1.4-5.924-5.695-4.524-9.593l7.249-20.188
	h-7.823c-2.441,0-4.73-1.188-6.134-3.185c-1.405-1.997-1.75-4.552-0.924-6.85l10.852-30.222c1.399-3.898,5.693-5.925,9.593-4.524
	c3.898,1.4,5.924,5.695,4.524,9.593l-7.249,20.187h7.823c2.441,0,4.73,1.188,6.134,3.185c1.405,1.997,1.749,4.552,0.924,6.85
	l-10.853,30.222C395.675,134.413,392.791,136.319,389.715,136.319z"/>
<path style="fill:#FFFFFF;" d="M185.157,222.033c-0.099,0-0.198-0.002-0.298-0.006c-3.117-0.123-5.833-2.163-6.819-5.122
	l-25.156-75.47l-10.62,23.017c-1.226,2.657-3.884,4.358-6.81,4.358H85.398v-15h45.256l16.544-35.857
	c1.289-2.793,4.142-4.51,7.225-4.347c3.071,0.17,5.728,2.199,6.701,5.117l24.867,74.603l26.185-61.827
	c1.043-2.464,3.321-4.185,5.976-4.517c2.658-0.332,5.286,0.775,6.904,2.907l18.162,23.921h69.521v15h-73.244
	c-2.345,0-4.555-1.097-5.973-2.965l-12.583-16.573l-28.878,68.186C190.883,220.239,188.158,222.033,185.157,222.033z"/>
<path style="opacity:0.1;enable-background:new    ;" d="M109.325,253.409h162.188c-48.981-48.071-68.123-117.22-61.74-184.199
	H109.325c-13.215,0-23.927,10.713-23.927,23.927v136.344C85.398,242.696,96.111,253.409,109.325,253.409z"/>
<path style="fill:#7397DA;" d="M99.673,504.5h21.79c15.219,0,27.556-12.337,27.556-27.556V365.872
	c0-15.219-12.337-27.556-27.556-27.556h-21.79c-6.347,0-11.493,5.145-11.493,11.493v143.199
	C88.18,499.355,93.326,504.5,99.673,504.5z"/>
<path style="fill:#C7C9CC;" d="M99.673,338.316h15.144V504.5H99.673c-6.347,0-11.493-5.145-11.493-11.493V349.809
	C88.18,343.461,93.326,338.316,99.673,338.316z"/>
<path style="fill:#7397DA;" d="M412.327,504.5h-21.79c-15.219,0-27.556-12.337-27.556-27.556V365.872
	c0-15.219,12.337-27.556,27.556-27.556h21.79c6.347,0,11.493,5.145,11.493,11.493v143.199
	C423.82,499.355,418.674,504.5,412.327,504.5z"/>
<path style="fill:#C7C9CC;" d="M412.327,338.316h-15.144V504.5h15.144c6.347,0,11.493-5.145,11.493-11.493V349.809
	C423.82,343.461,418.674,338.316,412.327,338.316z"/>
<g>
	<path style="opacity:0.15;fill:#003A63;enable-background:new    ;" d="M149.019,444.103
		c-39.407-7.444-55.444-70.324-56.83-103.005c-2.451,2.108-4.009,5.225-4.009,8.711v143.199c0,6.347,5.145,11.493,11.493,11.493
		h21.79c15.219,0,27.556-12.337,27.556-27.556L149.019,444.103L149.019,444.103z"/>
	<path style="opacity:0.15;fill:#003A63;enable-background:new    ;" d="M423.82,493.007v-31.37
		c-30.915-9.357-54.488-79.337-55.041-112.665c-3.63,4.667-5.798,10.528-5.798,16.899v111.072c0,15.219,12.337,27.556,27.556,27.556
		h21.79C418.674,504.5,423.82,499.355,423.82,493.007z"/>
</g>
<path d="M447.373,98.595c0-30.905-25.143-56.047-56.047-56.047s-56.047,25.142-56.047,56.047s25.143,56.047,56.047,56.047
	S447.373,129.5,447.373,98.595z M350.278,98.595c0-22.634,18.414-41.047,41.047-41.047c22.634,0,41.047,18.414,41.047,41.047
	s-18.414,41.047-41.047,41.047C368.692,139.643,350.278,121.229,350.278,98.595z M420.375,0H91.626
	C61.912,0,37.738,24.174,37.738,53.887v11.004c0,4.142,3.358,7.5,7.5,7.5s7.5-3.358,7.5-7.5V53.887
	C52.738,32.445,70.183,15,91.626,15h328.749c21.442,0,38.887,17.445,38.887,38.887v122H320.239V93.138
	c0-17.329-14.098-31.428-31.427-31.428H109.325c-17.329,0-31.427,14.099-31.427,31.428v82.749h-25.16v-76.01
	c0-4.142-3.358-7.5-7.5-7.5s-7.5,3.358-7.5,7.5v168.855c0,29.713,24.174,53.887,53.887,53.887h121.943v135.385
	c0,15.064-12.256,27.32-27.32,27.32h-30.749c0.662-2.687,1.02-5.492,1.02-8.381v-83.731h17.171c2.159,0,3.915,1.756,3.915,3.915
	v48.561c0,2.159-1.756,3.914-3.915,3.914h-5.752c-4.142,0-7.5,3.358-7.5,7.5s3.358,7.5,7.5,7.5h5.752
	c10.43,0,18.915-8.485,18.915-18.914v-48.561c0-10.43-8.485-18.915-18.915-18.915h-17.171v-12.341
	c0-19.33-15.726-35.056-35.056-35.056h-21.79c-10.473,0-18.993,8.52-18.993,18.993v143.199C80.68,503.48,89.2,512,99.673,512h21.79
	c10.354,0,19.67-4.515,26.093-11.675h38.693c23.335,0,42.32-18.985,42.32-42.32V322.619h54.863v135.385
	c0,23.335,18.985,42.32,42.32,42.32h38.693c6.423,7.16,15.739,11.675,26.092,11.675h21.79c10.473,0,18.993-8.52,18.993-18.993
	V349.809c0-10.473-8.52-18.993-18.993-18.993h-21.79c-19.33,0-35.056,15.726-35.056,35.056v12.341H338.31
	c-10.43,0-18.915,8.485-18.915,18.915v48.561c0,10.43,8.485,18.914,18.915,18.914h5.752c4.142,0,7.5-3.358,7.5-7.5
	s-3.358-7.5-7.5-7.5h-5.752c-2.159,0-3.915-1.756-3.915-3.914v-48.561c0-2.159,1.756-3.915,3.915-3.915h17.171v83.731
	c0,2.889,0.358,5.694,1.02,8.381h-30.749c-15.065,0-27.32-12.256-27.32-27.32V322.619h121.943c29.713,0,53.887-24.174,53.887-53.887
	V53.887C474.262,24.174,450.088,0,420.375,0z M107.317,497h-7.644c-2.202,0-3.993-1.791-3.993-3.993V349.809
	c0-2.202,1.791-3.993,3.993-3.993h7.644V497z M141.519,476.944c0,10.771-8.541,19.561-19.202,20.013V345.859
	c10.662,0.452,19.202,9.242,19.202,20.013V476.944z M370.481,365.872c0-10.771,8.541-19.561,19.202-20.013v97.628
	c0,4.142,3.358,7.5,7.5,7.5s7.5-3.358,7.5-7.5v-97.671h7.644c2.202,0,3.993,1.791,3.993,3.993v143.199
	c0,2.202-1.791,3.993-3.993,3.993h-7.644v-19.464c0-4.142-3.358-7.5-7.5-7.5s-7.5,3.358-7.5,7.5v19.421
	c-10.661-0.452-19.202-9.242-19.202-20.013V365.872z M92.898,93.138c0-9.058,7.369-16.428,16.427-16.428h179.486
	c9.058,0,16.427,7.37,16.427,16.428v136.344c0,9.058-7.369,16.428-16.427,16.428H109.325c-9.058,0-16.427-7.37-16.427-16.428
	C92.898,229.482,92.898,93.138,92.898,93.138z M459.262,268.732c0,21.442-17.445,38.887-38.887,38.887H298.432v-18.104
	c0-4.142-3.358-7.5-7.5-7.5s-7.5,3.358-7.5,7.5v18.104h-54.863v-18.104c0-4.142-3.358-7.5-7.5-7.5s-7.5,3.358-7.5,7.5v18.104H91.626
	c-21.442,0-38.887-17.445-38.887-38.887v-77.845h25.16v38.595c0,17.329,14.098,31.428,31.427,31.428h179.486
	c17.329,0,31.427-14.099,31.427-31.428v-38.595h139.023L459.262,268.732L459.262,268.732z M365.063,256.942h52.525
	c10.266,0,18.617-8.352,18.617-18.617v-15.716c0-10.266-8.352-18.617-18.617-18.617h-52.525c-10.265,0-18.617,8.352-18.617,18.617
	v15.716C346.446,248.59,354.798,256.942,365.063,256.942z M361.446,222.609c0-1.995,1.623-3.617,3.617-3.617h52.525
	c1.995,0,3.617,1.623,3.617,3.617v15.716c0,1.995-1.623,3.617-3.617,3.617h-52.525c-1.994,0-3.617-1.623-3.617-3.617V222.609z"/>
<g>
</g>
<g>
</g>
<g>
</g>
<g>
</g>
<g>
</g>
<g>
</g>
<g>
</g>
<g>
</g>
<g>
</g>
<g>
</g>
<g>
</g>
<g>
</g>
<g>
</g>
<g>
</g>
<g>
</g>
</svg>
