<?xml version="1.0" encoding="iso-8859-1"?>
<!-- Generator: Adobe Illustrator 19.0.0, SVG Export Plug-In . SVG Version: 6.00 Build 0)  -->
<svg version="1.1" id="Capa_1" xmlns="http://www.w3.org/2000/svg" xmlns:xlink="http://www.w3.org/1999/xlink" x="0px" y="0px"
	 viewBox="0 0 512 512" style="enable-background:new 0 0 512 512;" xml:space="preserve">
<path style="fill:#DDEFF5;" d="M12.041,136.073L12.041,136.073c-6.059,7.85-6.059,18.8,0,26.65l0,0c6.059,7.85,6.059,18.8,0,26.65
	l0,0c-6.058,7.85-6.058,18.8,0,26.65l0,0c6.059,7.85,6.059,18.8,0,26.65l0,0c-6.058,7.85-6.058,18.8,0,26.65l0,0
	c6.059,7.85,6.059,18.8,0,26.65l0,0c-6.058,7.85-6.058,18.8,0,26.65l0,0c6.059,7.85,6.059,18.8,0,26.65l0,0
	c-6.058,7.85-6.058,18.8,0,26.65l0,0c6.485,8.404,16.501,13.325,27.116,13.325h249.672V122.748H39.156
	C28.541,122.748,18.526,127.67,12.041,136.073z"/>
<g>
	<path style="opacity:0.15;fill:#003A63;enable-background:new    ;" d="M11.636,349.848c-5.634,7.804-5.51,18.414,0.405,26.078
		c6.486,8.404,16.501,13.325,27.116,13.325h249.672V122.748H180.946C175.789,217.903,147.982,380.853,11.636,349.848z"/>
	<g style="opacity:0.1;">
		<path style="fill:#003A63;" d="M161.563,192.401H75.568c-4.142,0-7.5-3.358-7.5-7.5s3.358-7.5,7.5-7.5h85.996
			c4.142,0,7.5,3.358,7.5,7.5C169.063,189.043,165.705,192.401,161.563,192.401z"/>
		<path style="fill:#003A63;" d="M135.987,240.349H75.568c-4.142,0-7.5-3.358-7.5-7.5c0-4.142,3.358-7.5,7.5-7.5h60.418
			c4.142,0,7.5,3.358,7.5,7.5C143.487,236.991,140.129,240.349,135.987,240.349z"/>
		<path style="fill:#003A63;" d="M161.563,326.321H75.568c-4.142,0-7.5-3.358-7.5-7.5s3.358-7.5,7.5-7.5h85.996
			c4.142,0,7.5,3.358,7.5,7.5C169.063,322.963,165.705,326.321,161.563,326.321z"/>
		<path style="fill:#003A63;" d="M101.482,259.362c-4.142,0-7.5-3.358-7.5-7.5v-95.655c0-4.142,3.358-7.5,7.5-7.5
			c4.142,0,7.5,3.358,7.5,7.5v95.655C108.982,256.004,105.624,259.362,101.482,259.362z"/>
		<path style="fill:#003A63;" d="M142.632,355.016c-4.142,0-7.5-3.358-7.5-7.5v-56.663c0-4.142,3.358-7.5,7.5-7.5
			c4.142,0,7.5,3.358,7.5,7.5v56.663C150.132,351.658,146.774,355.016,142.632,355.016z"/>
	</g>
</g>
<path style="fill:#DDEFF5;" d="M486.089,409.269L486.089,409.269c-81.899,16.77-166.346,16.77-248.245,0l0,0
	c-10.717-2.194-18.412-11.625-18.412-22.564V125.296c0-10.939,7.695-20.369,18.412-22.564l0,0c81.899-16.77,166.346-16.77,248.245,0
	l0,0c10.717,2.194,18.412,11.624,18.412,22.564v261.409C504.5,397.644,496.806,407.074,486.089,409.269z"/>
<g>
	<ellipse style="fill:#F8B8BD;" cx="273.112" cy="206.741" rx="32.784" ry="26.11"/>
	<ellipse style="fill:#F8B8BD;" cx="450.813" cy="206.741" rx="32.784" ry="26.11"/>
</g>
<g>
	<path style="opacity:0.05;fill:#003A63;enable-background:new    ;" d="M486.089,409.269c9.423-1.929,16.504-9.454,18.078-18.678
		c-250.13-22.407-251.192-219.596-234.509-293.507c-10.639,1.605-21.248,3.484-31.814,5.648l0,0
		c-10.717,2.194-18.412,11.624-18.412,22.564v261.409c0,10.939,7.695,20.369,18.412,22.564l0,0
		C319.742,426.039,404.19,426.039,486.089,409.269L486.089,409.269z"/>
	<g style="opacity:0.1;">
		<path style="fill:#003A63;" d="M265.452,387.879c-4.142,0-7.5-3.358-7.5-7.5v-74.948c0-4.142,3.358-7.5,7.5-7.5s7.5,3.358,7.5,7.5
			v74.948C272.952,384.521,269.594,387.879,265.452,387.879z"/>
		<path style="fill:#003A63;" d="M462.801,358.249c-4.142,0-7.5-3.358-7.5-7.5v-76.953c0-4.142,3.358-7.5,7.5-7.5s7.5,3.358,7.5,7.5
			v76.953C470.301,354.891,466.943,358.249,462.801,358.249z"/>
		<path style="fill:#003A63;" d="M302.154,371.008h-54.478c-4.142,0-7.5-3.358-7.5-7.5s3.358-7.5,7.5-7.5h54.478
			c4.142,0,7.5,3.358,7.5,7.5S306.296,371.008,302.154,371.008z"/>
		<path style="fill:#003A63;" d="M488.642,334.456h-33.599c-4.142,0-7.5-3.358-7.5-7.5c0-4.142,3.358-7.5,7.5-7.5h33.599
			c4.142,0,7.5,3.358,7.5,7.5C496.142,331.098,492.784,334.456,488.642,334.456z"/>
		<path style="fill:#003A63;" d="M473.968,300.172h-21.785c-4.142,0-7.5-3.358-7.5-7.5s3.358-7.5,7.5-7.5h21.785
			c4.142,0,7.5,3.358,7.5,7.5S478.111,300.172,473.968,300.172z"/>
		<path style="fill:#003A63;" d="M276.932,332.098h-29.163c-4.142,0-7.5-3.358-7.5-7.5s3.358-7.5,7.5-7.5h29.163
			c4.142,0,7.5,3.358,7.5,7.5C284.432,328.741,281.074,332.098,276.932,332.098z"/>
	</g>
</g>
<path style="fill:#E68392;" d="M414.259,295.935h-33.401v-33.401c0-4.693-3.805-8.497-8.498-8.497h-21.122
	c-4.693,0-8.498,3.805-8.498,8.497v33.401h-33.401c-4.693,0-8.498,3.805-8.498,8.497v21.122c0,4.693,3.805,8.497,8.498,8.497h33.401
	v33.401c0,4.693,3.805,8.498,8.498,8.498h21.122c4.693,0,8.498-3.805,8.498-8.498v-33.4h33.401c4.693,0,8.498-3.804,8.498-8.497
	v-21.123C422.757,299.739,418.952,295.935,414.259,295.935z"/>
<path style="opacity:0.15;fill:#8D4330;enable-background:new    ;" d="M306.825,296.314c-3.465,1.072-5.983,4.301-5.983,8.119
	v21.122c0,4.693,3.805,8.498,8.497,8.498h33.401v33.401c0,4.693,3.805,8.498,8.498,8.498h21.122c4.693,0,8.498-3.805,8.498-8.498
	v-9.542C348.362,341.322,324.348,319.936,306.825,296.314z"/>
<path d="M439.815,178.33c0,4.142,3.358,7.5,7.5,7.5s7.5-3.358,7.5-7.5c0-12.74-10.365-23.105-23.105-23.105
	c-12.74,0-23.105,10.365-23.105,23.105c0,4.142,3.358,7.5,7.5,7.5s7.5-3.358,7.5-7.5c0-4.469,3.636-8.105,8.105-8.105
	C436.18,170.226,439.815,173.862,439.815,178.33z M361.966,211.61c8.512,0,16.606-3.687,22.207-10.114
	c2.721-3.123,2.396-7.86-0.727-10.582c-3.123-2.721-7.861-2.396-10.582,0.727c-2.751,3.157-6.724,4.968-10.898,4.968
	c-4.175,0-8.146-1.811-10.897-4.968c-2.722-3.123-7.459-3.447-10.582-0.727c-3.123,2.721-3.448,7.459-0.728,10.582
	C345.359,207.923,353.454,211.61,361.966,211.61z M487.593,95.383c-83.36-17.069-167.894-17.069-251.254,0
	c-10.717,2.195-19.203,9.953-22.687,19.864H88.999c-4.142,0-7.5,3.358-7.5,7.5c0,4.142,3.358,7.5,7.5,7.5h122.932v251.504H39.156
	c-8.232,0-16.149-3.891-21.178-10.408c-3.973-5.147-3.973-12.337,0-17.485c8.137-10.543,8.137-25.271,0-35.814
	c-3.973-5.148-3.973-12.338,0-17.486c8.137-10.544,8.137-25.271,0-35.814c-3.973-5.148-3.973-12.338,0-17.486
	c8.137-10.543,8.137-25.271,0-35.815c-3.973-5.147-3.973-12.337,0-17.485c8.137-10.543,8.137-25.271,0-35.815
	c-3.973-5.148-3.973-12.337,0-17.485c5.029-6.517,12.946-10.407,21.178-10.407h14.525c4.142,0,7.5-3.358,7.5-7.5
	c0-4.142-3.358-7.5-7.5-7.5H39.156c-12.848,0-25.204,6.072-33.053,16.243c-8.137,10.544-8.137,25.271,0,35.814
	c3.973,5.148,3.973,12.338,0,17.486c-8.137,10.543-8.137,25.271,0,35.815c3.973,5.147,3.973,12.337,0,17.485
	c-8.137,10.543-8.137,25.271,0,35.815c3.973,5.148,3.973,12.337,0,17.485c-8.137,10.543-8.137,25.271,0,35.814
	c3.973,5.148,3.973,12.338,0,17.486c-8.137,10.543-8.137,25.271,0,35.814c7.85,10.171,20.206,16.243,33.053,16.243h174.495
	c3.484,9.911,11.969,17.669,22.687,19.864c41.68,8.535,83.653,12.802,125.626,12.802s83.948-4.267,125.627-12.802
	c8.017-1.642,15.152-6.536,19.575-13.426c2.237-3.486,1.225-8.125-2.261-10.363c-3.486-2.239-8.127-1.226-10.363,2.26
	c-2.285,3.559-5.822,5.986-9.96,6.833c-81.365,16.661-163.873,16.661-245.235,0c-6.594-1.35-11.518-6.842-12.296-13.402
	c-0.006-0.059-0.016-0.117-0.023-0.176c-0.058-0.541-0.097-1.086-0.097-1.639V125.296c0-0.562,0.041-1.115,0.1-1.663
	c0.006-0.049,0.015-0.096,0.019-0.145c0.776-6.563,5.701-12.058,12.297-13.408c81.365-16.661,163.873-16.661,245.235,0
	c7.195,1.473,12.417,7.872,12.417,15.216v240.521c0,4.142,3.358,7.5,7.5,7.5s7.5-3.358,7.5-7.5V125.296
	C512,110.86,501.736,98.281,487.593,95.383z M351.237,383.452h21.122c8.821,0,15.998-7.176,15.998-15.998v-25.901h25.9
	c8.821,0,15.997-7.176,15.997-15.998v-21.122c0-8.821-7.176-15.997-15.997-15.997h-25.9v-25.9c0-8.821-7.176-15.998-15.998-15.998
	h-21.122c-8.821,0-15.998,7.176-15.998,15.998v25.9h-25.9c-8.821,0-15.997,7.176-15.997,15.997v21.122
	c0,8.821,7.176,15.998,15.997,15.998h25.9v25.901C335.24,376.275,342.416,383.452,351.237,383.452z M309.339,326.552
	c-0.55,0-0.997-0.447-0.997-0.998v-21.122c0-0.55,0.447-0.997,0.997-0.997h33.4c4.142,0,7.5-3.358,7.5-7.5v-33.4
	c0-0.55,0.447-0.998,0.998-0.998h21.122c0.55,0,0.998,0.447,0.998,0.998v33.4c0,4.142,3.358,7.5,7.5,7.5h33.4
	c0.55,0,0.997,0.447,0.997,0.997v21.122c0,0.55-0.447,0.998-0.997,0.998h-33.4c-4.142,0-7.5,3.358-7.5,7.5v33.401
	c0,0.55-0.448,0.998-0.998,0.998h-21.122c-0.55,0-0.998-0.447-0.998-0.998v-33.401c0-4.142-3.358-7.5-7.5-7.5H309.339z
	 M300.326,178.33c0,4.142,3.358,7.5,7.5,7.5s7.5-3.358,7.5-7.5c0-12.74-10.365-23.105-23.104-23.105
	c-12.74,0-23.105,10.365-23.105,23.105c0,4.142,3.358,7.5,7.5,7.5s7.5-3.358,7.5-7.5c0-4.469,3.636-8.105,8.105-8.105
	C296.69,170.226,300.326,173.862,300.326,178.33z"/>
<g>
</g>
<g>
</g>
<g>
</g>
<g>
</g>
<g>
</g>
<g>
</g>
<g>
</g>
<g>
</g>
<g>
</g>
<g>
</g>
<g>
</g>
<g>
</g>
<g>
</g>
<g>
</g>
<g>
</g>
</svg>
