<?xml version="1.0" encoding="iso-8859-1"?>
<!-- Generator: Adobe Illustrator 19.0.0, SVG Export Plug-In . SVG Version: 6.00 Build 0)  -->
<svg version="1.1" id="Capa_1" xmlns="http://www.w3.org/2000/svg" xmlns:xlink="http://www.w3.org/1999/xlink" x="0px" y="0px"
	 viewBox="0 0 512 512" style="enable-background:new 0 0 512 512;" xml:space="preserve">
<path style="fill:#F5D7B7;" d="M201.92,40.848l269.192,269.192c44.484,44.484,44.484,116.607,0,161.09l0,0
	c-44.484,44.484-116.606,44.484-161.09,0L40.83,201.938c-44.484-44.484-44.484-116.607,0-161.09l0,0
	C85.315-3.636,157.437-3.636,201.92,40.848z"/>
<path style="opacity:0.15;fill:#8D4330;enable-background:new    ;" d="M201.92,40.848l269.192,269.192
	c44.484,44.484,44.484,116.607,0,161.09l0,0c-44.484,44.484-116.606,44.484-161.09,0L40.83,201.938
	c-44.484-44.484-44.484-116.607,0-161.09l0,0C85.315-3.636,157.437-3.636,201.92,40.848z"/>
<path style="fill:#F5D7B7;" d="M471.112,201.938L201.92,471.129c-44.484,44.484-116.607,44.484-161.09,0l0,0
	c-44.484-44.484-44.484-116.606,0-161.09L310.022,40.848c44.484-44.484,116.607-44.484,161.09,0l0,0
	C515.596,85.331,515.596,157.454,471.112,201.938z"/>
<path style="fill:#E68392;" d="M342.901,271.731l-71.188,71.188c-20.468,20.468-53.655,20.468-74.123,0l-28.55-28.55
	c-20.468-20.468-20.468-53.655,0-74.123l71.188-71.188c20.468-20.468,53.655-20.468,74.123,0l28.55,28.55
	C363.371,218.076,363.371,251.263,342.901,271.731z"/>
<g>
	
		<ellipse transform="matrix(-0.7071 -0.7071 0.7071 -0.7071 149.0725 685.1393)" style="fill:#FFFFFF;" cx="216.433" cy="311.696" rx="19.788" ry="24.848"/>
	
		<ellipse transform="matrix(0.7071 0.7071 -0.7071 0.7071 244.3533 -156.9947)" style="fill:#FFFFFF;" cx="311.686" cy="216.463" rx="19.788" ry="24.848"/>
</g>
<path style="opacity:0.1;fill:#8D4330;enable-background:new    ;" d="M284.435,388.613
	c-54.441-25.36-122.112-98.887-114.948-207.233L40.831,310.038c-44.484,44.484-44.484,116.607,0,161.09l0,0
	c44.484,44.484,116.607,44.484,161.09,0L284.435,388.613z"/>
<path d="M169.092,390.726c-2.765,2.765-2.765,7.248,0,10.013c2.765,2.765,7.248,2.765,10.013,0c2.765-2.765,2.765-7.248,0-10.013
	C176.34,387.96,171.857,387.96,169.092,390.726z M259.721,233.059c-4.133,0.284-7.252,3.864-6.969,7.997
	c0.218,3.176-0.943,6.284-3.186,8.527c-2.243,2.242-5.344,3.404-8.528,3.186c-4.125-0.287-7.712,2.836-7.996,6.969
	c-0.284,4.132,2.836,7.712,6.969,7.996c0.597,0.041,1.192,0.061,1.786,0.061c6.873,0,13.487-2.718,18.375-7.605
	c5.31-5.31,8.06-12.659,7.544-20.162C267.434,235.895,263.856,232.786,259.721,233.059z M211.824,275.993
	c-2.929-2.929-7.678-2.929-10.606,0c-2.929,2.929-2.929,7.678,0,10.606l6.204,6.205c1.464,1.464,3.384,2.197,5.303,2.197
	s3.839-0.732,5.303-2.197c2.929-2.929,2.929-7.678,0-10.606L211.824,275.993z M286.583,201.235
	c-2.929-2.928-7.678-2.929-10.606-0.001c-2.93,2.929-2.93,7.678-0.001,10.607l6.204,6.205c1.465,1.464,3.384,2.197,5.304,2.197
	c1.919,0,3.839-0.732,5.303-2.196c2.93-2.929,2.93-7.678,0.001-10.607L286.583,201.235z M395.974,125.999
	c2.765-2.765,2.765-7.248,0-10.013s-7.248-2.765-10.013,0c-2.765,2.765-2.765,7.248,0,10.013
	C388.725,128.764,393.209,128.764,395.974,125.999z M390.709,169.108c-2.765,2.765-2.765,7.248,0,10.013
	c2.765,2.765,7.248,2.765,10.013,0c2.765-2.765,2.765-7.248,0-10.013C397.957,166.343,393.474,166.343,390.709,169.108z
	 M361.774,140.173c-2.765,2.765-2.765,7.248,0,10.013c2.765,2.765,7.248,2.765,10.013,0c2.765-2.765,2.765-7.248,0-10.013
	C369.022,137.408,364.539,137.408,361.774,140.173z M319.656,163.754c-11.316-11.316-26.362-17.548-42.366-17.548
	s-31.048,6.232-42.365,17.548l-71.188,71.188c-11.316,11.316-17.548,26.361-17.548,42.365s6.232,31.048,17.548,42.365l28.55,28.55
	c11.315,11.316,26.361,17.548,42.365,17.548c16.003,0,31.048-6.232,42.366-17.548l71.188-71.188
	c11.315-11.316,17.548-26.361,17.548-42.365s-6.232-31.048-17.548-42.365L319.656,163.754z M337.597,266.428l-71.188,71.188
	c-8.482,8.483-19.761,13.154-31.757,13.154c-11.996,0-23.275-4.671-31.757-13.154l-28.55-28.55
	c-8.483-8.483-13.154-19.761-13.154-31.757c0-11.996,4.671-23.275,13.154-31.758l71.188-71.188
	c8.483-8.483,19.761-13.154,31.757-13.154c11.997,0,23.275,4.671,31.758,13.154l28.55,28.55
	c8.482,8.483,13.154,19.761,13.154,31.757C350.753,246.666,346.081,257.945,337.597,266.428z M391.225,72.876
	c2.765-2.765,2.765-7.248,0-10.013s-7.248-2.765-10.013,0c-2.765,2.765-2.765,7.248,0,10.013
	C383.977,75.641,388.46,75.641,391.225,72.876z M62.845,381.228c-2.765,2.765-2.765,7.248,0,10.013
	c2.765,2.765,7.248,2.765,10.013,0c2.765-2.765,2.765-7.248,0-10.013C70.095,378.463,65.611,378.463,62.845,381.228z
	 M342.851,121.251c2.765-2.765,2.765-7.248,0-10.013c-2.765-2.765-7.248-2.765-10.013,0s-2.765,7.248,0,10.013
	C335.602,124.016,340.085,124.016,342.851,121.251z M342.851,390.726c-2.765-2.765-7.248-2.765-10.013,0s-2.765,7.248,0,10.013
	c2.765,2.765,7.248,2.765,10.013,0C345.616,397.974,345.616,393.491,342.851,390.726z M97.047,367.055
	c2.765-2.765,2.765-7.248,0-10.013s-7.248-2.765-10.013,0s-2.765,7.248,0,10.013C89.799,369.82,94.282,369.82,97.047,367.055z
	 M367.038,97.063c2.765-2.765,2.765-7.248,0-10.013s-7.248-2.765-10.013,0c-2.765,2.765-2.765,7.248,0,10.013
	C359.79,99.829,364.273,99.829,367.038,97.063z M91.782,410.165c-2.765,2.765-2.765,7.248,0,10.013
	c2.765,2.765,7.248,2.765,10.013,0c2.765-2.765,2.765-7.248,0-10.013C99.03,407.4,94.547,407.4,91.782,410.165z M144.905,414.913
	c-2.765,2.765-2.765,7.248,0,10.013c2.765,2.765,7.248,2.765,10.013,0c2.765-2.765,2.765-7.248,0-10.013
	C152.153,412.148,147.67,412.148,144.905,414.913z M150.17,371.803c2.765-2.765,2.765-7.248,0-10.013
	c-2.765-2.765-7.248-2.765-10.013,0c-2.765,2.765-2.765,7.248,0,10.013C142.922,374.568,147.405,374.568,150.17,371.803z
	 M120.717,439.1c-2.765,2.765-2.765,7.248,0,10.013c2.765,2.765,7.248,2.765,10.013,0c2.765-2.765,2.765-7.248,0-10.013
	C127.965,436.335,123.482,436.335,120.717,439.1z M125.982,395.991c2.765-2.765,2.765-7.248,0-10.013
	c-2.765-2.765-7.248-2.765-10.013,0s-2.765,7.248,0,10.013C118.734,398.756,123.217,398.756,125.982,395.991z M121.233,342.868
	c2.765-2.765,2.765-7.248,0-10.013s-7.248-2.765-10.013,0s-2.765,7.248,0,10.013C113.985,345.633,118.468,345.633,121.233,342.868z
	 M420.161,101.813c2.765-2.765,2.765-7.248,0-10.013s-7.248-2.765-10.013,0c-2.765,2.765-2.765,7.248,0,10.013
	C412.912,104.578,417.396,104.578,420.161,101.813z M125.982,115.986c-2.765-2.765-7.248-2.765-10.013,0s-2.765,7.248,0,10.013
	c2.765,2.765,7.248,2.765,10.013,0C128.747,123.234,128.747,118.751,125.982,115.986z M111.22,169.108
	c-2.765,2.765-2.765,7.248,0,10.013c2.765,2.765,7.248,2.765,10.013,0c2.765-2.765,2.765-7.248,0-10.013
	C118.468,166.343,113.985,166.343,111.22,169.108z M449.097,391.243c2.765-2.765,2.765-7.248,0-10.013s-7.248-2.765-10.013,0
	c-2.765,2.765-2.765,7.248,0,10.013C441.849,394.008,446.332,394.008,449.097,391.243z M154.918,87.05
	c-2.765-2.765-7.248-2.765-10.013,0c-2.765,2.765-2.765,7.248,0,10.013c2.765,2.765,7.248,2.765,10.013,0
	C157.683,94.298,157.683,89.815,154.918,87.05z M169.092,111.238c-2.765,2.765-2.765,7.248,0,10.013
	c2.765,2.765,7.248,2.765,10.013,0c2.765-2.765,2.765-7.248,0-10.013C176.34,108.473,171.857,108.473,169.092,111.238z
	 M140.156,140.173c-2.765,2.765-2.765,7.248,0,10.013c2.765,2.765,7.248,2.765,10.013,0c2.765-2.765,2.765-7.248,0-10.013
	C147.405,137.408,142.922,137.408,140.156,140.173z M62.845,120.735c-2.765,2.765-2.765,7.248,0,10.013
	c2.765,2.765,7.248,2.765,10.013,0c2.765-2.765,2.765-7.248,0-10.013C70.095,117.969,65.611,117.969,62.845,120.735z
	 M87.033,144.921c-2.765,2.765-2.765,7.248,0,10.013c2.765,2.765,7.248,2.765,10.013,0c2.765-2.765,2.765-7.248,0-10.013
	C94.282,142.156,89.798,142.156,87.033,144.921z M101.795,91.798c-2.765-2.765-7.248-2.765-10.013,0s-2.765,7.248,0,10.013
	s7.248,2.765,10.013,0S104.56,94.563,101.795,91.798z M130.73,62.863c-2.765-2.765-7.248-2.765-10.013,0s-2.765,7.248,0,10.013
	s7.248,2.765,10.013,0C133.495,70.111,133.495,65.628,130.73,62.863z M385.961,395.991c2.765,2.765,7.248,2.765,10.013,0
	c2.765-2.765,2.765-7.248,0-10.013s-7.248-2.765-10.013,0C383.195,388.742,383.195,393.226,385.961,395.991z M424.909,367.055
	c2.765-2.765,2.765-7.248,0-10.013s-7.248-2.765-10.013,0c-2.765,2.765-2.765,7.248,0,10.013
	C417.661,369.82,422.144,369.82,424.909,367.055z M357.024,424.926c2.765,2.765,7.248,2.765,10.013,0
	c2.765-2.765,2.765-7.248,0-10.013s-7.248-2.765-10.013,0C354.259,417.678,354.259,422.161,357.024,424.926z M439.084,120.735
	c-2.765,2.765-2.765,7.248,0,10.013c2.765,2.765,7.248,2.765,10.013,0c2.765-2.765,2.765-7.248,0-10.013
	C446.332,117.969,441.849,117.969,439.084,120.735z M371.787,371.803c2.765-2.765,2.765-7.248,0-10.013
	c-2.765-2.765-7.248-2.765-10.013,0s-2.765,7.248,0,10.013C364.539,374.568,369.022,374.568,371.787,371.803z M427.668,255.989
	l48.748-48.748c22.931-22.93,35.559-53.419,35.559-85.848s-12.628-62.918-35.559-85.848c-47.339-47.337-124.359-47.337-171.697,0
	l-48.748,48.747l-46.105-46.104c-2.929-2.929-7.678-2.929-10.606,0c-2.929,2.929-2.929,7.678,0,10.607l46.105,46.104L94.881,245.382
	l-48.748-48.748c-41.488-41.489-41.488-108.995,0-150.484c16.664-16.664,37.786-27.116,61.08-30.225
	c22.564-3.011,45.889,1.368,65.682,12.33c3.623,2.005,8.188,0.696,10.195-2.927c2.007-3.624,0.696-8.188-2.927-10.195
	c-22.59-12.511-49.202-17.51-74.934-14.075C78.643,4.606,54.54,16.531,35.527,35.545c-47.337,47.337-47.337,124.36,0,171.696
	l48.747,48.748l-48.747,48.748c-47.337,47.337-47.337,124.36,0,171.696c23.668,23.668,54.759,35.503,85.848,35.503
	c31.09,0,62.18-11.834,85.848-35.503l48.748-48.747l48.747,48.747c3.719,3.719,7.705,7.223,11.847,10.415
	c1.363,1.051,2.975,1.56,4.572,1.56c2.247,0,4.469-1.005,5.946-2.922c2.528-3.281,1.919-7.99-1.362-10.519
	c-3.633-2.8-7.131-5.876-10.396-9.141l-48.748-48.748L417.06,266.595l48.747,48.747c41.489,41.489,41.489,108.995,0,150.484
	c-29.005,29.006-72.701,38.776-111.324,24.89c-3.893-1.401-8.193,0.622-9.595,4.52c-1.401,3.898,0.622,8.194,4.521,9.595
	c13.258,4.767,27.163,7.169,41.126,7.169c8.545,0,17.112-0.9,25.561-2.71c22.859-4.895,43.717-16.257,60.318-32.858
	c47.337-47.337,47.337-124.36,0-171.696L427.668,255.989z M411.758,250.685l-0.001,0.001l-0.001,0.001L196.617,465.826
	c-41.487,41.488-108.993,41.489-150.484,0c-41.488-41.489-41.488-108.995,0-150.484l215.14-215.14l0.001-0.001l0.001-0.001
	l54.05-54.05c20.746-20.746,47.989-31.115,75.241-31.115c27.245,0,54.5,10.374,75.241,31.115
	c20.098,20.098,31.166,46.82,31.166,75.242s-11.068,55.144-31.166,75.242L411.758,250.685z M410.147,420.178
	c2.765,2.765,7.248,2.765,10.013,0c2.765-2.765,2.765-7.248,0-10.013s-7.248-2.765-10.013,0S407.382,417.413,410.147,420.178z
	 M414.896,144.921c-2.765,2.765-2.765,7.248,0,10.013c2.765,2.765,7.248,2.765,10.013,0c2.765-2.765,2.765-7.248,0-10.013
	C422.144,142.156,417.661,142.156,414.896,144.921z M381.212,449.113c2.765,2.765,7.248,2.765,10.013,0
	c2.765-2.765,2.765-7.248,0-10.013s-7.248-2.765-10.013,0C378.447,441.865,378.447,446.348,381.212,449.113z M400.722,342.868
	c2.765-2.765,2.765-7.248,0-10.013c-2.765-2.765-7.248-2.765-10.013,0s-2.765,7.248,0,10.013
	C393.474,345.633,397.957,345.633,400.722,342.868z"/>
<g>
</g>
<g>
</g>
<g>
</g>
<g>
</g>
<g>
</g>
<g>
</g>
<g>
</g>
<g>
</g>
<g>
</g>
<g>
</g>
<g>
</g>
<g>
</g>
<g>
</g>
<g>
</g>
<g>
</g>
</svg>
