<?xml version="1.0" encoding="iso-8859-1"?>
<!-- Generator: Adobe Illustrator 19.0.0, SVG Export Plug-In . SVG Version: 6.00 Build 0)  -->
<svg version="1.1" id="Capa_1" xmlns="http://www.w3.org/2000/svg" xmlns:xlink="http://www.w3.org/1999/xlink" x="0px" y="0px"
	 viewBox="0 0 512 512" style="enable-background:new 0 0 512 512;" xml:space="preserve">
<path style="fill:#7397DA;" d="M43.562,497.806l-29.369-29.369c-8.925-8.925-8.925-23.395,0-32.321l11.369-11.369l61.689,61.689
	l-11.369,11.369C66.958,506.731,52.487,506.731,43.562,497.806z"/>
<circle style="fill:#F1C372;" cx="344.05" cy="167.95" r="102.91"/>
<path id="SVGCleanerId_0" style="fill:#8EDBD6;" d="M93.102,492.288l-73.39-73.39c-13.498-13.498-13.498-35.384,0-48.882
	L177.488,212.24c10.19-10.19,15.626-24.194,14.979-38.59l-0.742-16.517c-0.833-18.548,6.171-36.592,19.299-49.721l57.86-57.86
	c10.274-10.274,26.931-10.274,37.204,0l156.359,156.359c10.274,10.274,10.274,26.931,0,37.204l-57.86,57.86
	c-13.129,13.129-31.173,20.133-49.721,19.299l-16.517-0.742c-14.396-0.647-28.4,4.789-38.59,14.979L141.984,492.288
	C128.486,505.786,106.601,505.786,93.102,492.288z"/>
<g>
	<path id="SVGCleanerId_0_1_" style="fill:#8EDBD6;" d="M93.102,492.288l-73.39-73.39c-13.498-13.498-13.498-35.384,0-48.882
		L177.488,212.24c10.19-10.19,15.626-24.194,14.979-38.59l-0.742-16.517c-0.833-18.548,6.171-36.592,19.299-49.721l57.86-57.86
		c10.274-10.274,26.931-10.274,37.204,0l156.359,156.359c10.274,10.274,10.274,26.931,0,37.204l-57.86,57.86
		c-13.129,13.129-31.173,20.133-49.721,19.299l-16.517-0.742c-14.396-0.647-28.4,4.789-38.59,14.979L141.984,492.288
		C128.486,505.786,106.601,505.786,93.102,492.288z"/>
</g>
<path style="fill:#DDEFF5;" d="M33.211,356.517l-13.498,13.498c-13.498,13.498-13.498,35.384,0,48.882l73.39,73.39
	c13.498,13.498,35.384,13.498,48.882,0l13.498-13.498L33.211,356.517z"/>
<path style="fill:#7397DA;" d="M220.977,291.023L220.977,291.023c-16.388-16.388-42.959-16.388-59.347,0l-43.356,43.356
	c-16.388,16.388-16.388,42.959,0,59.347l0,0c16.388,16.388,42.959,16.388,59.347,0l43.356-43.356
	C237.365,333.982,237.365,307.412,220.977,291.023z"/>
<circle style="fill:#DDEFF5;" cx="191.3" cy="320.7" r="15.851"/>
<path style="fill:#7397DA;" d="M438.812,266.751L245.249,73.188l23.636-23.636c10.274-10.274,26.931-10.274,37.204,0
	l156.359,156.359c10.274,10.274,10.274,26.931,0,37.204L438.812,266.751z"/>
<rect x="182.002" y="185.625" transform="matrix(-0.7071 -0.7071 0.7071 -0.7071 407.7863 555.1609)" style="opacity:0.1;fill:#2C6245;enable-background:new    ;" width="273.737" height="15"/>
<g>
	
		<ellipse transform="matrix(0.7071 -0.7071 0.7071 0.7071 -43.8596 214.4216)" style="fill:#F8B8BD;" cx="236.9" cy="160.154" rx="23.885" ry="29.993"/>
	
		<ellipse transform="matrix(-0.7071 0.7071 -0.7071 -0.7071 795.1874 220.8358)" style="fill:#F8B8BD;" cx="351.857" cy="275.107" rx="23.885" ry="29.993"/>
</g>
<path style="opacity:0.15;fill:#2C6245;enable-background:new    ;" d="M196.353,242.815c42.452-44.44,21.805-97.979,76.802-196.719
	c-1.51,0.983-2.945,2.13-4.27,3.456l-57.86,57.86c-13.129,13.129-20.133,31.173-19.3,49.721l0.742,16.517
	c0.647,14.396-4.789,28.4-14.979,38.59L19.712,370.016c-13.498,13.498-13.498,35.384,0,48.882l73.39,73.39
	c13.498,13.498,35.384,13.498,48.882,0l121.254-121.254C152.242,376.231,135.771,306.233,196.353,242.815z"/>
<path d="M452.998,185.853c5.756-35.113-5.621-70.725-30.873-95.977c-25.253-25.252-60.864-36.632-95.978-30.873l-14.754-14.754
	c-13.182-13.18-34.63-13.18-47.812,0l-57.859,57.86c-14.581,14.581-22.414,34.76-21.488,55.36l0.742,16.517
	c0.551,12.261-4.111,24.271-12.791,32.95L27.916,351.206c-0.003,0.003-0.006,0.005-0.009,0.008s-0.005,0.006-0.008,0.009
	L14.41,364.712c-7.946,7.945-12.321,18.508-12.321,29.744s4.375,21.8,12.32,29.745l0.547,0.547l-6.066,6.066
	C3.157,436.547,0,444.169,0,452.277s3.157,15.73,8.89,21.463l29.369,29.369C43.992,508.843,51.614,512,59.723,512
	s15.73-3.157,21.463-8.891l6.066-6.066l0.547,0.547c7.945,7.945,18.509,12.321,29.744,12.321c11.236,0,21.8-4.375,29.745-12.321
	l32.686-32.686c2.929-2.929,2.929-7.678,0-10.606c-2.93-2.929-7.678-2.929-10.607,0l-13.883,13.884L43.818,356.518l138.974-138.975
	c11.649-11.65,17.907-27.771,17.168-44.23l-0.742-16.517c-0.736-16.403,5.5-32.47,17.111-44.081l28.92-28.921l15.914,15.914
	c1.465,1.464,3.385,2.197,5.304,2.197c1.919,0,3.839-0.732,5.304-2.197c2.929-2.929,2.929-7.678,0-10.606l-15.915-15.915
	l18.332-18.332c7.333-7.333,19.266-7.333,26.599,0l17.544,17.544c0.012,0.012,0.024,0.025,0.036,0.037l121.207,121.207
	c0.006,0.006,0.012,0.012,0.018,0.018l17.554,17.554c7.333,7.333,7.333,19.265,0,26.598l-18.332,18.332L296.788,114.121
	c-2.93-2.929-7.678-2.929-10.607,0s-2.929,7.678,0,10.606l142.025,142.024l-28.921,28.921c-11.609,11.611-27.679,17.853-44.08,17.11
	l-16.517-0.742c-16.438-0.74-32.579,5.518-44.23,17.168L193.639,430.026c-2.929,2.929-2.929,7.678,0,10.606
	c2.929,2.929,7.677,2.93,10.607,0l100.818-100.818c8.679-8.679,20.707-13.341,32.949-12.79l16.517,0.741
	c20.613,0.932,40.779-6.906,55.361-21.488l34.22-34.219c0.002-0.002,0.003-0.003,0.005-0.005s0.003-0.003,0.005-0.005l23.631-23.631
	c6.385-6.385,9.901-14.875,9.901-23.905s-3.517-17.52-9.901-23.905L452.998,185.853z M70.579,492.503
	c-2.899,2.9-6.755,4.497-10.856,4.497c-4.102,0-7.957-1.597-10.856-4.497l-29.369-29.369c-5.987-5.986-5.987-15.728,0-21.714
	l6.066-6.066l51.083,51.083L70.579,492.503z M144.876,478.79l-8.194,8.195c-5.112,5.112-11.909,7.927-19.139,7.927
	c-7.229,0-14.025-2.815-19.137-7.927L30.87,419.449c-0.001-0.001-0.003-0.003-0.004-0.004s-0.003-0.003-0.004-0.004l-5.846-5.846
	c-5.111-5.112-7.927-11.909-7.927-19.138s2.815-14.025,7.928-19.138l8.194-8.194L144.876,478.79z M439.369,172.225L339.775,72.63
	c26.582-1.204,52.607,8.716,71.743,27.852C430.654,119.619,440.573,145.643,439.369,172.225z M438.706,80.794
	c1.919,0,3.839-0.732,5.304-2.197l18.799-18.799c2.929-2.929,2.929-7.678,0-10.607c-2.93-2.929-7.678-2.929-10.607,0L433.403,67.99
	c-2.929,2.929-2.929,7.678,0,10.606C434.867,80.062,436.787,80.794,438.706,80.794z M344.05,41.586c4.143,0,7.5-3.358,7.5-7.5V7.5
	c0-4.142-3.357-7.5-7.5-7.5s-7.5,3.358-7.5,7.5v26.586C336.55,38.228,339.907,41.586,344.05,41.586z M361.644,251.199l7.489-7.489
	c2.929-2.929,2.929-7.678,0-10.607c-2.93-2.929-7.678-2.929-10.607,0l-7.489,7.489c-2.929,2.929-2.929,7.678,0,10.606
	c1.465,1.464,3.385,2.197,5.304,2.197C358.259,253.396,360.179,252.664,361.644,251.199z M299.507,181.733
	c-4.133-0.29-7.711,2.836-7.995,6.97c-0.59,8.608,2.565,17.039,8.655,23.13c5.607,5.607,13.196,8.726,21.081,8.726
	c0.682,0,1.366-0.023,2.051-0.07c4.132-0.284,7.252-3.864,6.969-7.996c-0.284-4.133-3.863-7.247-7.996-6.969
	c-4.273,0.299-8.473-1.271-11.497-4.297c-3.025-3.025-4.592-7.215-4.298-11.498C306.76,185.596,303.64,182.016,299.507,181.733z
	 M504.5,160.45h-26.586c-4.143,0-7.5,3.358-7.5,7.5s3.357,7.5,7.5,7.5H504.5c4.143,0,7.5-3.358,7.5-7.5S508.643,160.45,504.5,160.45
	z M271.406,160.964l7.49-7.489c2.93-2.929,2.93-7.678,0.001-10.606c-2.93-2.929-7.679-2.931-10.607-0.001l-7.49,7.489
	c-2.93,2.929-2.93,7.678-0.001,10.607c1.465,1.465,3.384,2.197,5.304,2.197C268.022,163.16,269.942,162.428,271.406,160.964z
	 M240.769,320.697c0-13.213-5.146-25.635-14.488-34.977c-9.344-9.343-21.765-14.488-34.978-14.488
	c-13.212,0-25.634,5.145-34.977,14.488l-43.355,43.355c-9.343,9.342-14.488,21.764-14.488,34.977
	c0,13.212,5.146,25.634,14.488,34.977c9.343,9.343,21.765,14.488,34.977,14.488c13.213,0,25.634-5.145,34.978-14.488l43.355-43.355
	C235.623,346.332,240.769,333.91,240.769,320.697z M215.673,345.067l-43.355,43.355c-6.509,6.509-15.164,10.094-24.37,10.094
	s-17.86-3.585-24.369-10.094c-6.51-6.51-10.096-15.165-10.096-24.37c0-9.206,3.586-17.861,10.096-24.371l43.355-43.355
	c6.509-6.509,15.163-10.094,24.369-10.094c9.206,0,17.861,3.585,24.371,10.094c6.509,6.51,10.095,15.165,10.095,24.371
	C225.769,329.903,222.183,338.558,215.673,345.067z M191.303,297.346c-6.236,0-12.101,2.429-16.512,6.839
	c-9.104,9.105-9.104,23.918,0.001,33.023c4.41,4.41,10.274,6.839,16.511,6.839s12.102-2.429,16.511-6.839c0,0,0,0,0.001,0
	c4.41-4.41,6.839-10.274,6.839-16.511s-2.429-12.101-6.839-16.511C203.404,299.775,197.54,297.346,191.303,297.346z
	 M197.208,326.601C197.207,326.602,197.207,326.602,197.208,326.601c-1.578,1.578-3.675,2.446-5.905,2.446s-4.327-0.869-5.904-2.446
	c-3.256-3.256-3.256-8.554-0.001-11.809c1.578-1.578,3.675-2.446,5.905-2.446s4.327,0.869,5.905,2.446
	c1.577,1.577,2.445,3.674,2.445,5.904C199.653,322.927,198.785,325.024,197.208,326.601z"/>
<g>
</g>
<g>
</g>
<g>
</g>
<g>
</g>
<g>
</g>
<g>
</g>
<g>
</g>
<g>
</g>
<g>
</g>
<g>
</g>
<g>
</g>
<g>
</g>
<g>
</g>
<g>
</g>
<g>
</g>
</svg>
