<?xml version="1.0" encoding="iso-8859-1"?>
<!-- Generator: Adobe Illustrator 19.0.0, SVG Export Plug-In . SVG Version: 6.00 Build 0)  -->
<svg version="1.1" id="Capa_1" xmlns="http://www.w3.org/2000/svg" xmlns:xlink="http://www.w3.org/1999/xlink" x="0px" y="0px"
	 viewBox="0 0 511.998 511.998" style="enable-background:new 0 0 511.998 511.998;" xml:space="preserve">
<path style="fill:#F1C372;" d="M382.026,88.25L382.026,88.25c-10.334,0-19.186,7.398-21.021,17.568l-1.977,10.957h45.996
	l-1.977-10.957C401.212,95.648,392.36,88.25,382.026,88.25z"/>
<path style="fill:#E68392;" d="M315.043,364.219H19.827V200.293c0-13.317,10.795-24.112,24.112-24.112h271.104V364.219z"/>
<path style="opacity:0.15;fill:#8D4330;enable-background:new    ;" d="M43.94,176.181c-13.317,0-24.112,10.795-24.112,24.112
	v163.926h208.891c-62.671-31.539-99.904-135.214-91.511-188.037L43.94,176.181L43.94,176.181z"/>
<rect x="19.827" y="301.859" style="fill:#DDEFF5;" width="295.22" height="33.591"/>
<path style="opacity:0.15;fill:#003A63;enable-background:new    ;" d="M19.827,301.861v33.591h172.529
	c-8.981-9.995-17.04-21.412-24.061-33.591H19.827z"/>
<path style="fill:#E68392;" d="M315.043,364.219h177.192v-166.01c0-44.975-36.459-81.434-81.434-81.434H353.25
	c-21.101,0-38.207,17.106-38.207,38.207V364.219z"/>
<path style="opacity:0.15;fill:#8D4330;enable-background:new    ;" d="M492.236,353.701
	c-113.462-21.302-118.14-181.777-111.258-236.927H353.25c-21.101,0-38.207,17.106-38.207,38.207v209.238h177.192v-10.518H492.236z"
	/>
<g>
	<path style="fill:#495059;" d="M455.285,375.376h40.148c5.008,0,9.068-4.06,9.068-9.067v-21.788c0-5.008-4.06-9.068-9.068-9.068
		h-40.148c-5.008,0-9.067,4.06-9.067,9.068v21.788C446.217,371.316,450.277,375.376,455.285,375.376z"/>
	<path style="fill:#495059;" d="M15.005,375.376h24.914c4.145,0,7.505-3.36,7.505-7.505v-24.914c0-4.145-3.36-7.505-7.505-7.505
		H15.005c-4.145,0-7.505,3.36-7.505,7.505v24.914C7.5,372.016,10.86,375.376,15.005,375.376z"/>
	<circle style="fill:#495059;" cx="128.75" cy="366.899" r="56.848"/>
</g>
<circle style="fill:#E8E9EA;" cx="128.75" cy="366.899" r="25.664"/>
<circle style="fill:#495059;" cx="353.27" cy="366.899" r="56.848"/>
<circle style="fill:#E8E9EA;" cx="353.27" cy="366.899" r="25.664"/>
<g>
	<path style="fill:#FFFFFF;" d="M273.083,217.597H61.788c-4.143,0-7.5-3.358-7.5-7.5s3.357-7.5,7.5-7.5h211.295
		c4.143,0,7.5,3.358,7.5,7.5S277.226,217.597,273.083,217.597z"/>
	<path style="fill:#FFFFFF;" d="M273.083,268.004H61.788c-4.143,0-7.5-3.358-7.5-7.5s3.357-7.5,7.5-7.5h211.295
		c4.143,0,7.5,3.358,7.5,7.5S277.226,268.004,273.083,268.004z"/>
	<path style="fill:#FFFFFF;" d="M167.436,268.004c-4.143,0-7.5-3.358-7.5-7.5v-50.408c0-4.142,3.357-7.5,7.5-7.5s7.5,3.358,7.5,7.5
		v50.408C174.936,264.646,171.578,268.004,167.436,268.004z"/>
	<path style="fill:#FFFFFF;" d="M113.529,268.004c-4.143,0-7.5-3.358-7.5-7.5v-50.408c0-4.142,3.357-7.5,7.5-7.5s7.5,3.358,7.5,7.5
		v50.408C121.029,264.646,117.672,268.004,113.529,268.004z"/>
	<path style="fill:#FFFFFF;" d="M221.342,268.004c-4.143,0-7.5-3.358-7.5-7.5v-50.408c0-4.142,3.357-7.5,7.5-7.5s7.5,3.358,7.5,7.5
		v50.408C228.842,264.646,225.484,268.004,221.342,268.004z"/>
</g>
<path style="fill:#DDEFF5;" d="M410.801,116.774H353.25c-21.101,0-38.207,17.106-38.207,38.207v102.296h90.263
	c10.5,0,20.867,2.356,30.336,6.895l56.593,27.127v-93.09C492.236,153.234,455.776,116.774,410.801,116.774z"/>
<path style="opacity:0.15;fill:#003A63;enable-background:new    ;" d="M380.978,116.774H353.25
	c-21.101,0-38.207,17.106-38.207,38.207v102.296h79.363C376.93,205.161,377.32,146.089,380.978,116.774z"/>
<path style="fill:#A8D1EC;" d="M417.106,222.95h75.13v-24.741c0-16.503-4.924-31.849-13.361-44.678h-61.769
	c-9.337,0-16.907,7.569-16.907,16.907v35.606C400.199,215.381,407.768,222.95,417.106,222.95z"/>
<path style="fill:#F1C372;" d="M476.38,315.571h15.856v-48.546H476.38c-9.536,0-17.267,7.731-17.267,17.267v14.012
	C459.113,307.841,466.843,315.571,476.38,315.571z"/>
<path d="M320.11,366.9c0,18.287,14.877,33.164,33.164,33.164s33.164-14.877,33.164-33.164s-14.877-33.164-33.164-33.164
	S320.11,348.613,320.11,366.9z M371.439,366.9c0,10.016-8.148,18.164-18.164,18.164s-18.164-8.148-18.164-18.164
	s8.148-18.164,18.164-18.164C363.29,348.736,371.439,356.884,371.439,366.9z M370.217,215.45h-25.191c-4.143,0-7.5,3.358-7.5,7.5
	s3.357,7.5,7.5,7.5h25.191c4.143,0,7.5-3.358,7.5-7.5S374.359,215.45,370.217,215.45z M128.751,333.736
	c-18.287,0-33.164,14.878-33.164,33.164c0,18.287,14.877,33.164,33.164,33.164s33.164-14.877,33.164-33.164
	C161.915,348.613,147.038,333.736,128.751,333.736z M128.751,385.064c-10.016,0-18.164-8.148-18.164-18.164
	s8.148-18.164,18.164-18.164s18.164,8.149,18.164,18.164S138.767,385.064,128.751,385.064z M499.735,328.539v-130.33
	c0-17.796-5.257-34.385-14.296-48.302c-0.174-0.315-0.375-0.612-0.591-0.897c-15.87-23.806-42.9-39.562-73.556-39.729l-0.865-4.794
	C407.946,90.733,396,80.751,382.025,80.751c-13.976,0-25.92,9.982-28.401,23.736l-0.866,4.801
	c-24.976,0.266-45.215,20.657-45.215,45.694v13.7H111.287c-4.143,0-7.5,3.358-7.5,7.5s3.357,7.5,7.5,7.5h196.256v110.68H27.327
	v-94.068c0-9.16,7.452-16.612,16.612-16.612h32.035c4.143,0,7.5-3.358,7.5-7.5s-3.357-7.5-7.5-7.5H43.939
	c-17.431,0-31.612,14.181-31.612,31.612v127.912C5.329,329.473,0,335.599,0,342.957v24.914c0,8.273,6.731,15.004,15.005,15.004
	h24.914c6.942,0,12.78-4.745,14.485-11.157h10.198c2.475,33.238,30.29,59.529,64.149,59.529c33.86,0,61.674-26.292,64.149-59.529
	h96.226c2.475,33.238,30.289,59.529,64.148,59.529c12.225,0,24.121-3.444,34.403-9.96c3.499-2.217,4.538-6.851,2.32-10.35
	c-2.217-3.5-6.852-4.537-10.35-2.32c-7.877,4.992-16.996,7.63-26.374,7.63c-27.21,0-49.348-22.138-49.348-49.348
	c0-27.211,22.138-49.348,49.348-49.348c27.211,0,49.349,22.138,49.349,49.348c0,6.528-1.253,12.868-3.723,18.843
	c-1.583,3.828,0.237,8.214,4.065,9.797c3.824,1.581,8.212-0.237,9.796-4.065c2.613-6.319,4.163-12.947,4.665-19.755h22.216
	c2.249,6.483,8.404,11.157,15.643,11.157h40.147c9.136,0,16.567-7.432,16.567-16.567v-21.788
	C512,336.875,506.788,330.441,499.735,328.539z M39.919,367.875H15.005L15,367.871l0.005-24.918l24.918,0.004L39.919,367.875z
	 M65.217,356.719H54.923v-13.762c0-0.001,0-0.003,0-0.004h14.12C67.282,347.327,65.981,351.933,65.217,356.719z M27.327,327.953
	v-18.591h72.665c-8.817,4.425-16.483,10.811-22.418,18.591H27.327z M128.751,416.248c-27.21,0-49.348-22.138-49.348-49.348
	c0-27.211,22.138-49.348,49.348-49.348c27.211,0,49.349,22.138,49.349,49.348S155.962,416.248,128.751,416.248z M289.74,356.719
	h-97.454c-0.764-4.785-2.065-9.391-3.826-13.766h105.106C291.806,347.327,290.504,351.933,289.74,356.719z M307.543,321.684
	c-1.947,1.969-3.764,4.064-5.446,6.268H179.929c-5.936-7.78-13.601-14.166-22.419-18.591h150.033V321.684z M474.667,161.031
	c6.388,10.931,10.068,23.63,10.068,37.178v17.241h-67.63c-5.187,0-9.406-4.22-9.406-9.407v-35.605c0-5.187,4.22-9.407,9.406-9.407
	H474.667z M368.386,107.149c1.191-6.605,6.928-11.399,13.64-11.399s12.449,4.794,13.641,11.399l0.383,2.125h-28.047L368.386,107.149
	z M322.543,154.981c0-16.932,13.775-30.707,30.707-30.707h51.732c0.011,0,0.022,0.002,0.033,0.002s0.022-0.001,0.033-0.002h5.753
	c20.422,0,38.935,8.325,52.328,21.756h-46.024c-13.458,0-24.406,10.949-24.406,24.407v35.605c0,13.458,10.948,24.407,24.406,24.407
	h67.63v29.076h-8.355c-6.898,0-13.143,2.837-17.638,7.401l-19.858-9.519c-10.417-4.993-22.027-7.632-33.578-7.632h-82.764v-94.794
	H322.543z M484.735,274.526v33.545h-8.355c-5.386,0-9.768-4.381-9.768-9.767v-14.011c0-1.683,0.428-3.267,1.18-4.651
	c0-0.001,0.001-0.002,0.002-0.003c1.656-3.043,4.884-5.113,8.586-5.113L484.735,274.526L484.735,274.526z M438.717,344.52v12.199
	H416.81c-4.896-30.66-31.518-54.167-63.535-54.167c-11.123,0-21.594,2.839-30.731,7.827v-45.602h82.764
	c9.32,0,18.689,2.129,27.094,6.158l19.538,9.366c-0.212,1.301-0.326,2.633-0.326,3.993v14.011c0,13.657,11.11,24.767,24.768,24.767
	h8.355v4.881h-29.45C446.149,327.953,438.717,335.385,438.717,344.52z M497,366.308c0,0.864-0.703,1.567-1.567,1.567h-40.147
	c-0.865,0-1.568-0.703-1.568-1.567V344.52c0-0.864,0.703-1.567,1.568-1.567h40.147c0.864,0,1.567,0.703,1.567,1.567V366.308z"/>
<g>
</g>
<g>
</g>
<g>
</g>
<g>
</g>
<g>
</g>
<g>
</g>
<g>
</g>
<g>
</g>
<g>
</g>
<g>
</g>
<g>
</g>
<g>
</g>
<g>
</g>
<g>
</g>
<g>
</g>
</svg>
