<?xml version="1.0" encoding="iso-8859-1"?>
<!-- Generator: Adobe Illustrator 19.0.0, SVG Export Plug-In . SVG Version: 6.00 Build 0)  -->
<svg version="1.1" id="Capa_1" xmlns="http://www.w3.org/2000/svg" xmlns:xlink="http://www.w3.org/1999/xlink" x="0px" y="0px"
	 viewBox="0 0 512.002 512.002" style="enable-background:new 0 0 512.002 512.002;" xml:space="preserve">
<path style="fill:#7397DA;" d="M406.137,229.743l-40.2-77.406c-5.802-11.172-17.342-18.182-29.931-18.182H175.993
	c-12.588,0-24.129,7.011-29.931,18.182l-40.2,77.406c-2.714,5.225-8.111,8.504-13.999,8.504H48.446c-12.25,0-22.18,9.93-22.18,22.18
	V365.89h459.468V260.427c0-12.25-9.93-22.18-22.18-22.18h-43.417C414.249,238.247,408.851,234.968,406.137,229.743z"/>
<rect x="26.27" y="296.051" style="fill:#DDEFF5;" width="459.47" height="69.839"/>
<path style="fill:#E68392;" d="M304.106,89.9h-37.169c-5.746,0-10.907,3.517-13.008,8.865l-13.906,35.389h90.997l-13.906-35.389
	C315.013,93.417,309.852,89.9,304.106,89.9z"/>
<g>
	<path style="fill:#DDEFF5;" d="M371.76,163.548h-83.299c-6.671,0-12.079,5.408-12.079,12.079v42.037
		c0,6.671,5.408,12.079,12.079,12.079h117.676L371.76,163.548z"/>
	<path style="fill:#DDEFF5;" d="M223.538,163.548H140.24l-34.377,66.195h117.676c6.671,0,12.079-5.408,12.079-12.079v-42.037
		C235.617,168.956,230.209,163.548,223.538,163.548z"/>
</g>
<g>
	<path style="opacity:0.15;fill:#003A63;enable-background:new    ;" d="M485.734,262.788h-39.793c-4.021,0-7.28,3.259-7.28,7.28
		s3.26,7.28,7.28,7.28h39.793V262.788z"/>
	<path style="opacity:0.15;fill:#003A63;enable-background:new    ;" d="M218.46,134.155h-42.467
		c-12.588,0-24.129,7.011-29.931,18.182l-40.2,77.406c-2.714,5.225-8.111,8.504-13.999,8.504H48.446
		c-12.25,0-22.18,9.93-22.18,22.18V365.89h318.309C212.581,318.283,205.945,198.265,218.46,134.155z"/>
</g>
<path style="fill:#F1C372;" d="M253.261,326.494l-16.622,5.911c-5.412,1.924-11.068-2.185-10.91-7.927l0.485-17.635
	c0.052-1.88-0.546-3.719-1.693-5.21l-10.758-13.982c-3.503-4.552-1.342-11.202,4.167-12.826l16.922-4.988
	c1.803-0.532,3.369-1.669,4.432-3.22l9.973-14.552c3.247-4.738,10.239-4.738,13.486,0l9.973,14.552
	c1.063,1.551,2.628,2.688,4.431,3.22l16.922,4.988c5.509,1.624,7.67,8.274,4.167,12.826l-10.758,13.982
	c-1.147,1.49-1.744,3.33-1.693,5.21l0.485,17.635c0.158,5.741-5.499,9.851-10.91,7.927l-16.622-5.911
	C256.967,325.864,255.033,325.864,253.261,326.494z"/>
<path style="opacity:0.15;fill:#8D4330;enable-background:new    ;" d="M224.521,301.634c1.146,1.49,1.744,3.33,1.693,5.21
	l-0.485,17.635c-0.158,5.741,5.499,9.851,10.91,7.927l16.622-5.911c1.772-0.63,3.706-0.63,5.478,0l16.622,5.911
	c2.405,0.855,4.855,0.514,6.824-0.627c-22.596-18.064-38.283-39.28-48.855-61.491l-15.399,4.539
	c-5.509,1.624-7.67,8.274-4.167,12.826L224.521,301.634z"/>
<g>
	<path style="fill:#F1C372;" d="M471.186,296.051h14.548v43.587h-28.493v-29.642C457.241,302.295,463.484,296.051,471.186,296.051z"
		/>
	<path style="fill:#F1C372;" d="M40.814,296.051H26.266v43.587h28.493v-29.642C54.759,302.295,48.516,296.051,40.814,296.051z"/>
</g>
<circle style="fill:#495059;" cx="139.74" cy="366.121" r="55.977"/>
<circle style="fill:#E8E9EA;" cx="139.74" cy="366.121" r="25.27"/>
<circle style="fill:#495059;" cx="372.26" cy="366.121" r="55.977"/>
<circle style="fill:#E8E9EA;" cx="372.26" cy="366.121" r="25.27"/>
<g>
	<path style="fill:#495059;" d="M492.092,376.641h-28.975c-6.853,0-12.408-5.555-12.408-12.408v-22.437
		c0-6.853,5.555-12.408,12.408-12.408h28.975c6.853,0,12.408,5.555,12.408,12.408v22.437
		C504.5,371.086,498.945,376.641,492.092,376.641z"/>
	<path style="fill:#495059;" d="M19.908,376.641h28.975c6.853,0,12.408-5.555,12.408-12.408v-22.437
		c0-6.853-5.555-12.408-12.408-12.408H19.908c-6.852,0-12.408,5.555-12.408,12.408v22.437
		C7.5,371.086,13.055,376.641,19.908,376.641z"/>
</g>
<path style="opacity:0.15;fill:#8D4330;enable-background:new    ;" d="M274.049,89.9h-7.112c-5.746,0-10.907,3.517-13.008,8.865
	l-13.906,35.389h55.955C279.1,121.534,271.387,101.038,274.049,89.9z"/>
<path d="M139.736,333.354c-18.07,0-32.771,14.701-32.771,32.771c0,18.069,14.701,32.771,32.771,32.771s32.77-14.701,32.77-32.771
	C172.507,348.055,157.806,333.354,139.736,333.354z M139.736,383.896c-9.799,0-17.771-7.972-17.771-17.771
	c0-9.799,7.972-17.771,17.771-17.771s17.77,7.973,17.77,17.771C157.507,375.924,149.535,383.896,139.736,383.896z M349.415,277.568
	c4.142,0,7.5-3.357,7.5-7.5s-3.358-7.5-7.5-7.5h-27.228c-4.142,0-7.5,3.357-7.5,7.5s3.358,7.5,7.5,7.5H349.415z M339.493,366.125
	c0,18.069,14.701,32.771,32.77,32.771c18.07,0,32.771-14.701,32.771-32.771s-14.701-32.771-32.771-32.771
	C354.194,333.354,339.493,348.055,339.493,366.125z M390.035,366.125c0,9.799-7.972,17.771-17.771,17.771
	c-9.799,0-17.77-7.972-17.77-17.771c0-9.799,7.972-17.771,17.77-17.771C382.063,348.354,390.035,356.326,390.035,366.125z
	 M493.234,321.947v-61.52c0-16.365-13.315-29.68-29.68-29.68h-43.417c-3.101,0-5.914-1.709-7.344-4.461l-0.056-0.109
	c-0.002-0.005-0.005-0.009-0.007-0.014l-34.368-66.179c-0.003-0.006-0.006-0.012-0.009-0.018l-5.758-11.087
	c-7.057-13.59-20.629-21.81-36.448-22.189l-12.051-30.669c-3.252-8.274-11.098-13.621-19.989-13.621h-37.169
	c-8.891,0-16.737,5.347-19.989,13.621l-12.036,30.633h-17.98c-4.142,0-7.5,3.357-7.5,7.5s3.358,7.5,7.5,7.5h23.047
	c0.014,0,0.028,0.002,0.042,0.002c0.009,0,0.017-0.002,0.026-0.002h94.959c10.603,0,19.677,5.286,24.275,14.14l0.132,0.254h-70.953
	c-10.796,0-19.579,8.783-19.579,19.579v42.037c0,10.796,8.783,19.579,19.579,19.579h113.681c4.365,5.334,10.913,8.504,17.994,8.504
	h43.417c8.095,0,14.68,6.585,14.68,14.68v2.142H445.94c-4.142,0-7.5,3.357-7.5,7.5s3.358,7.5,7.5,7.5h32.293v10.982h-7.048
	c-11.825,0-21.445,9.62-21.445,21.445v17.099c-4.001,3.644-6.531,8.876-6.531,14.701v16.595h-7.956
	c-3.83-31.365-30.608-55.743-62.989-55.743c-32.382,0-59.159,24.378-62.989,55.743h-106.55
	c-3.83-31.365-30.607-55.743-62.989-55.743s-59.16,24.378-62.989,55.743H68.79v-16.595c0-5.825-2.53-11.057-6.531-14.701v-17.099
	c0-11.825-9.62-21.445-21.445-21.445h-7.048v-28.124c0-8.095,6.585-14.68,14.68-14.68h43.417c7.081,0,13.63-3.169,17.994-8.504
	h113.681c10.796,0,19.579-8.783,19.579-19.579v-42.037c0-10.796-8.783-19.579-19.579-19.579h-70.952l0.132-0.254
	c4.529-8.722,13.448-14.14,23.275-14.14h5.889c4.142,0,7.5-3.357,7.5-7.5s-3.358-7.5-7.5-7.5h-5.889
	c-15.448,0-29.467,8.517-36.587,22.226l-5.756,11.083c-0.006,0.011-0.012,0.023-0.018,0.034L99.27,226.164
	c-0.002,0.005-0.005,0.009-0.007,0.014l-0.056,0.109c-1.429,2.752-4.243,4.461-7.343,4.461H48.446
	c-16.366,0-29.68,13.314-29.68,29.68v61.52C8.321,322.543,0,331.205,0,341.796v22.438c0,10.977,8.931,19.907,19.908,19.907h28.975
	c7.674,0,14.336-4.372,17.658-10.75h10.147c3.618,31.59,30.506,56.211,63.049,56.211s59.431-24.621,63.049-56.211h106.43
	c3.618,31.59,30.505,56.211,63.049,56.211c12.829,0,25.19-3.81,35.749-11.017c3.421-2.335,4.302-7.002,1.966-10.423
	c-2.335-3.42-7-4.301-10.423-1.966c-8.056,5.499-17.493,8.405-27.292,8.405c-26.73,0-48.477-21.746-48.477-48.477
	c0-26.73,21.747-48.477,48.477-48.477c26.73,0,48.478,21.747,48.478,48.477c0,5.647-0.96,11.176-2.854,16.434
	c-1.404,3.898,0.617,8.194,4.514,9.598c3.899,1.406,8.194-0.616,9.598-4.514c1.662-4.614,2.763-9.387,3.317-14.252h10.143
	c3.321,6.378,9.983,10.75,17.658,10.75h28.975c10.977,0,19.908-8.931,19.908-19.907v-22.438
	C512,331.205,503.679,322.543,493.234,321.947z M251.029,126.654l9.881-25.146c0.98-2.495,3.347-4.107,6.028-4.107h37.169
	c2.681,0,5.047,1.612,6.028,4.107l9.881,25.146H251.029z M288.461,222.243c-2.525,0-4.579-2.054-4.579-4.579v-42.037
	c0-2.525,2.054-4.579,4.579-4.579h78.743l26.587,51.195H288.461z M144.796,171.048h78.742c2.525,0,4.579,2.054,4.579,4.579v42.037
	c0,2.525-2.054,4.579-4.579,4.579h-105.33L144.796,171.048z M33.766,303.551h7.048c3.554,0,6.445,2.892,6.445,6.445v11.893H33.766
	V303.551z M53.79,364.233c0,2.706-2.202,4.907-4.908,4.907H19.908c-2.706,0-4.908-2.201-4.908-4.907v-22.438
	c0-2.706,2.202-4.907,4.908-4.907h28.975c2.706,0,4.908,2.201,4.908,4.907v22.438H53.79z M139.736,414.602
	c-26.73,0-48.478-21.746-48.478-48.477c0-26.73,21.747-48.477,48.478-48.477c26.73,0,48.477,21.747,48.477,48.477
	S166.467,414.602,139.736,414.602z M464.741,309.996c0-3.554,2.891-6.445,6.445-6.445h7.048v18.338h-13.493V309.996z M497,364.233
	c0,2.706-2.202,4.907-4.908,4.907h-28.975c-2.706,0-4.908-2.201-4.908-4.907v-22.438c0-2.706,2.202-4.907,4.908-4.907h28.975
	c2.706,0,4.908,2.201,4.908,4.907V364.233z M304.181,292.226c3.154-4.1,4.083-9.483,2.484-14.402
	c-1.598-4.919-5.514-8.728-10.475-10.191l-16.923-4.988c-0.147-0.043-0.276-0.138-0.364-0.266l-9.973-14.551
	c-2.924-4.267-7.757-6.814-12.93-6.814c-5.172,0-10.006,2.548-12.929,6.813l-9.974,14.553c-0.087,0.127-0.216,0.222-0.365,0.265
	l-16.922,4.988c-4.961,1.463-8.877,5.272-10.475,10.191c-1.599,4.919-0.67,10.303,2.484,14.402l10.758,13.981
	c0.094,0.122,0.144,0.275,0.14,0.431l-0.485,17.634c-0.143,5.17,2.27,10.071,6.454,13.111c4.184,3.04,9.592,3.822,14.466,2.089
	l16.622-5.911c0.145-0.051,0.307-0.051,0.452,0l16.623,5.911c1.71,0.608,3.486,0.906,5.251,0.906c3.266,0,6.498-1.022,9.214-2.995
	c4.184-3.04,6.597-7.941,6.454-13.11l-0.485-17.635c-0.004-0.155,0.045-0.309,0.139-0.431L304.181,292.226z M292.293,283.079
	l-10.759,13.982c-2.191,2.849-3.344,6.396-3.245,9.989l0.485,17.636c0.003,0.105,0.01,0.354-0.277,0.563
	c-0.287,0.208-0.523,0.126-0.623,0.09l-16.622-5.911c-1.693-0.603-3.472-0.903-5.251-0.903c-1.779,0-3.558,0.301-5.252,0.903l0,0
	l-16.621,5.911c-0.099,0.036-0.335,0.119-0.624-0.09c-0.287-0.209-0.28-0.458-0.277-0.564l0.485-17.635
	c0.099-3.593-1.054-7.141-3.246-9.989l-10.758-13.982c-0.065-0.084-0.217-0.282-0.107-0.62c0.11-0.338,0.349-0.409,0.451-0.439
	l16.921-4.988c3.448-1.016,6.466-3.209,8.498-6.174l9.974-14.553c0.06-0.088,0.201-0.293,0.556-0.293
	c0.355,0,0.496,0.205,0.556,0.294l9.973,14.551c2.032,2.966,5.05,5.159,8.498,6.175l16.922,4.988
	c0.102,0.029,0.341,0.101,0.451,0.439C292.509,282.797,292.357,282.995,292.293,283.079z"/>
<g>
</g>
<g>
</g>
<g>
</g>
<g>
</g>
<g>
</g>
<g>
</g>
<g>
</g>
<g>
</g>
<g>
</g>
<g>
</g>
<g>
</g>
<g>
</g>
<g>
</g>
<g>
</g>
<g>
</g>
</svg>
