<?xml version="1.0" encoding="iso-8859-1"?>
<!-- Generator: Adobe Illustrator 19.0.0, SVG Export Plug-In . SVG Version: 6.00 Build 0)  -->
<svg version="1.1" id="Capa_1" xmlns="http://www.w3.org/2000/svg" xmlns:xlink="http://www.w3.org/1999/xlink" x="0px" y="0px"
	 viewBox="0 0 512.003 512.003" style="enable-background:new 0 0 512.003 512.003;" xml:space="preserve">
<path style="fill:#7397DA;" d="M389.805,504.5c16.393,0,28.717-14.95,25.601-31.044c-14.487-74.824-80.347-131.324-159.404-131.324
	S111.085,398.632,96.598,473.455c-3.116,16.094,9.208,31.044,25.601,31.044L389.805,504.5L389.805,504.5z"/>
<ellipse style="fill:#F9E78D;" cx="331.546" cy="451.256" rx="30.728" ry="34.707"/>
<path style="fill:#FFFFFF;" d="M199.544,474.725H145.88c-5.29,0-9.578-4.288-9.578-9.578v-9.427c0-5.29,4.288-9.578,9.578-9.578
	h53.664c5.29,0,9.578,4.288,9.578,9.578v9.427C209.122,470.437,204.834,474.725,199.544,474.725z"/>
<g>
	<path style="fill:#A8D1EC;" d="M256.002,404.754l-51.039,25.031c-6.178,3.03-13.442-1.238-13.803-8.11l-2.696-51.381
		L256.002,404.754z"/>
	<path style="fill:#A8D1EC;" d="M256.002,404.754l51.039,25.031c6.178,3.03,13.442-1.238,13.803-8.11l2.696-51.381L256.002,404.754z
		"/>
</g>
<path style="opacity:0.15;fill:#003A63;enable-background:new    ;" d="M256.002,426.344c42.819,0,82.568-13.368,115.318-36.134
	c-29.422-29.684-70.22-48.077-115.318-48.077s-85.895,18.392-115.318,48.077C173.434,412.974,213.182,426.344,256.002,426.344z"/>
<circle style="fill:#F5D7B7;" cx="75.062" cy="213.293" r="36.25"/>
<circle style="opacity:0.25;fill:#8D4330;enable-background:new    ;" cx="75.062" cy="213.293" r="36.25"/>
<circle style="fill:#F5D7B7;" cx="436.937" cy="213.293" r="36.25"/>
<circle style="opacity:0.25;fill:#8D4330;enable-background:new    ;" cx="436.937" cy="213.293" r="36.25"/>
<circle style="fill:#F5D7B7;" cx="256.005" cy="223.813" r="180.942"/>
<g>
	<ellipse style="fill:#F8B8BD;" cx="153.993" cy="263.613" rx="37.639" ry="29.973"/>
	<ellipse style="fill:#F8B8BD;" cx="358.006" cy="263.613" rx="37.639" ry="29.973"/>
</g>
<path style="opacity:0.1;fill:#8D4330;enable-background:new    ;" d="M354.372,375.692
	C245.57,385.351,37.749,238.375,189.197,55.614C122.333,82.193,75.062,147.482,75.062,223.815
	c0,99.93,81.009,180.939,180.939,180.939C292.277,404.755,326.054,394.072,354.372,375.692z"/>
<path style="fill:#7397DA;" d="M426.337,44.3l-58.873,9.567c-14.791,2.404-29.947-0.792-42.51-8.963L277.028,13.73
	c-12.784-8.316-29.269-8.316-42.054,0l-47.927,31.174c-12.562,8.171-27.718,11.366-42.51,8.963L85.666,44.3
	c-13.488-2.192-24.062,11.401-18.62,23.935L90.303,121.8l44.2,29.507h242.999l44.2-29.507l23.256-53.565
	C450.4,55.702,439.825,42.109,426.337,44.3z"/>
<path style="opacity:0.15;fill:#003A63;enable-background:new    ;" d="M237.073,12.472c-0.708,0.399-1.411,0.811-2.098,1.258
	l-47.927,31.174c-12.562,8.171-27.717,11.366-42.51,8.963L85.666,44.3c-13.488-2.192-24.062,11.401-18.62,23.935L90.303,121.8
	l44.2,29.507h157.23C247.341,121.781,220.603,63.173,237.073,12.472z"/>
<g>
	<path style="fill:#495059;" d="M97.138,131.393c-15.021,7.419-24.798,31.218-22.303,59.936c0.536,6.165,6.243,10.537,12.363,9.622
		c21.904-3.272,50.955-24.02,60.506-50.968L97.138,131.393z"/>
	<path style="fill:#495059;" d="M414.865,131.393c15.021,7.419,24.798,31.218,22.303,59.936c-0.536,6.165-6.243,10.537-12.364,9.622
		c-21.904-3.272-50.955-24.02-60.506-50.968L414.865,131.393z"/>
</g>
<path style="fill:#A8D1EC;" d="M256.002,140.858c92.451,0,124.648-5.997,165.699-19.057v18.765c0,6.527-4.316,12.294-10.596,14.074
	c-36.536,10.36-70.724,12.828-155.103,12.828S137.435,165,100.899,154.64c-6.28-1.781-10.596-7.547-10.596-14.074V121.8
	C131.353,134.861,163.55,140.858,256.002,140.858z"/>
<path style="fill:#495059;" d="M256.002,199.922c36.931,0,71.246-10.675,89.59-34.542c-22.33-17.764-46.713-24.522-89.59-24.522
	s-67.26,6.758-89.59,24.523C184.756,189.247,219.071,199.922,256.002,199.922z"/>
<g>
	<ellipse style="fill:#F9E78D;" cx="256.005" cy="101.041" rx="35.25" ry="39.818"/>
	<ellipse style="fill:#F9E78D;" cx="256.005" cy="101.041" rx="35.25" ry="39.818"/>
</g>
<path style="opacity:0.15;fill:#8D4330;enable-background:new    ;" d="M256.002,140.858c6.109,0,11.855-1.757,16.864-4.845
	c-18.667-18.199-32.258-41.924-37.86-66.957c-8.65,7.256-14.257,18.88-14.257,31.984
	C220.748,123.031,236.532,140.858,256.002,140.858z"/>
<path d="M282.039,228.643c-3.125-2.721-7.859-2.395-10.582,0.727c-3.901,4.477-9.534,7.044-15.455,7.044
	c-5.921,0-11.554-2.567-15.455-7.044c-2.723-3.122-7.46-3.447-10.582-0.727c-3.122,2.722-3.448,7.459-0.727,10.582
	c6.751,7.746,16.506,12.189,26.764,12.189c10.258,0,20.013-4.442,26.764-12.189C285.487,236.102,285.161,231.365,282.039,228.643z
	 M444.28,170.178c-1.873-15.023-7.13-28.161-15.079-36.992v-9.827l22.636-52.136c3.665-8.441,2.479-17.817-3.171-25.082
	c-5.649-7.264-14.445-10.717-23.532-9.244l-58.873,9.567c-12.978,2.112-26.195-0.677-37.217-7.847L281.118,7.444
	c-15.258-9.925-34.975-9.925-50.233,0l-47.927,31.174c-11.02,7.169-24.237,9.958-37.217,7.847l-10.448-1.698
	c-4.089-0.657-7.941,2.113-8.606,6.2c-0.664,4.088,2.111,7.941,6.2,8.606l10.448,1.698c16.673,2.707,33.646-0.871,47.803-10.079
	l47.927-31.174c10.289-6.693,23.586-6.693,33.873,0l47.927,31.174c14.156,9.208,31.135,12.787,47.803,10.079l58.873-9.567
	c3.585-0.582,7.056,0.781,9.286,3.647c2.23,2.866,2.697,6.566,1.251,9.897l-21.893,50.426
	c-34.754,10.84-63.901,16.207-128.766,17.416c7.031-8.436,11.335-19.695,11.335-32.049c0-26.091-19.179-47.317-42.753-47.317
	s-42.753,21.226-42.753,47.317c0,12.355,4.305,23.614,11.336,32.05c-64.854-1.207-94.004-6.574-128.766-17.416L73.926,65.25
	c-1.446-3.332-0.979-7.032,1.251-9.898c2.23-2.867,5.706-4.23,9.286-3.647l13.729,2.231c4.093,0.659,7.942-2.112,8.606-6.2
	s-2.111-7.941-6.2-8.606L86.87,36.898c-9.084-1.476-17.881,1.979-23.531,9.243c-5.65,7.265-6.837,16.641-3.172,25.083l22.636,52.136
	v9.827c-7.949,8.829-13.206,21.968-15.079,36.992c-20.606,3.524-36.411,21.605-36.411,43.117c0,22.568,17.177,41.198,39.145,43.507
	c8.638,48.726,36.069,91.032,74.503,119.16c-28.826,24.906-48.481,58.657-55.724,96.069c-1.913,9.88,0.662,19.998,7.066,27.761
	c6.4,7.759,15.84,12.209,25.897,12.209h214.372c4.143,0,7.5-3.357,7.5-7.5c0-4.143-3.357-7.5-7.5-7.5h-73.069v-80.214l33.474,16.417
	c-2.406,5.594-3.658,11.708-3.658,18.048c0,23.273,17.149,42.208,38.229,42.208c21.079,0,38.23-18.934,38.23-42.208
	c0-23.273-17.149-42.208-38.23-42.208c-0.85,0-1.694,0.041-2.536,0.102l0.623-11.877c8.486-3.616,16.654-7.838,24.45-12.61
	c28.003,22.937,47.095,54.782,53.957,90.224c1.059,5.468-0.366,11.067-3.91,15.363c-3.542,4.293-8.764,6.755-14.327,6.755h-17.485
	c-4.143,0-7.5,3.357-7.5,7.5c0,4.143,3.357,7.5,7.5,7.5h17.485c10.058,0,19.497-4.45,25.897-12.209
	c6.404-7.763,8.98-17.881,7.066-27.761c-7.243-37.412-26.897-71.163-55.724-96.069c38.434-28.126,65.864-70.434,74.503-119.16
	c21.967-2.309,39.145-20.938,39.145-43.507C480.692,191.783,464.887,173.702,444.28,170.178z M68.375,241.252
	c-12.638-3.023-22.064-14.406-22.064-27.957c0-12.986,8.769-24.064,20.694-27.576c0.06,2.071,0.174,4.157,0.357,6.259
	c0.2,2.304,0.864,4.526,1.894,6.564c-1.121,8.36-1.694,16.848-1.694,25.274C67.561,229.695,67.846,235.508,68.375,241.252z
	 M414.201,131.965v8.601c0,3.18-2.114,6-5.142,6.858c-19.285,5.468-37.195,8.481-61.149,10.264
	c-5.811-4.4-11.816-8.125-18.23-11.239C365.958,144.077,389.222,139.408,414.201,131.965z M256.002,68.724
	c15.303,0,27.752,14.497,27.752,32.316c0,17.809-12.434,32.299-27.724,32.317c-0.01,0-0.019,0-0.028,0c-0.01,0-0.019,0-0.028,0
	c-15.29-0.018-27.724-14.507-27.724-32.317C228.249,83.221,240.699,68.724,256.002,68.724z M255.822,148.359c0.06,0,0.118,0,0.179,0
	h0.032c0.054,0,0.106,0,0.159,0c36.738,0.018,59.024,5.051,78.383,18.211c-16.533,16.518-44.625,25.853-78.574,25.853
	s-62.041-9.335-78.574-25.852C196.79,153.409,219.079,148.375,255.822,148.359z M97.802,131.965
	c24.976,7.442,48.239,12.11,84.525,14.483c-6.415,3.114-12.421,6.839-18.232,11.24c-23.955-1.783-41.866-4.796-61.15-10.264
	c-3.027-0.858-5.142-3.679-5.142-6.858L97.802,131.965L97.802,131.965z M87.306,153.929c2.83,3.742,6.833,6.59,11.546,7.927
	c9.63,2.73,19.099,4.896,29.075,6.62c-12.463,14.239-29.424,23.203-41.838,25.056c-1.269,0.19-2.172-0.349-2.601-0.688
	c-0.487-0.384-1.089-1.072-1.184-2.166C81.116,176.987,83.015,163.882,87.306,153.929z M248.502,497H122.199
	c-5.563,0-10.786-2.462-14.327-6.755c-3.544-4.296-4.969-9.896-3.91-15.363c6.862-35.443,25.953-67.287,53.957-90.224
	c7.797,4.772,15.965,8.994,24.451,12.611l1.301,24.801c0.301,5.75,3.445,10.925,8.41,13.842c2.673,1.57,5.66,2.361,8.655,2.361
	c2.568,0,5.143-0.582,7.529-1.753l40.236-19.733L248.502,497L248.502,497z M197.69,403.008c9.761,3.184,19.866,5.598,30.25,7.155
	l-26.281,12.889c-0.879,0.431-1.619,0.138-1.98-0.075c-0.363-0.213-0.979-0.716-1.03-1.693L197.69,403.008z M284.062,410.163
	c10.384-1.557,20.489-3.971,30.25-7.155l-0.959,18.276c-0.052,0.978-0.667,1.48-1.03,1.693c-0.343,0.202-1.027,0.47-1.849,0.128
	c-0.1-0.046-0.2-0.094-0.302-0.136L284.062,410.163z M331.548,424.044c12.809,0,23.229,12.205,23.229,27.207
	c0,15.002-10.42,27.207-23.229,27.207c-12.809,0-23.228-12.205-23.228-27.207c0-4.616,0.976-9.026,2.834-12.985
	c0.038,0,0.076,0.006,0.114,0.006c2.995,0,5.983-0.791,8.655-2.361c4.293-2.522,7.22-6.734,8.13-11.544
	C329.204,424.163,330.369,424.044,331.548,424.044z M256.002,397.254c-95.635,0-173.44-77.805-173.44-173.439
	c0-5.13,0.234-10.285,0.687-15.414c0.781,0.101,1.568,0.168,2.359,0.168c0.898,0,1.801-0.066,2.698-0.2
	c20.381-3.045,43.088-18.164,56.747-37.425c5.585,0.657,11.414,1.211,17.575,1.676c18.976,22.469,51.954,34.802,93.374,34.802
	s74.397-12.332,93.373-34.802c6.161-0.465,11.99-1.019,17.576-1.676c13.659,19.26,36.366,34.379,56.748,37.425
	c0.896,0.134,1.799,0.2,2.697,0.2c0.791,0,1.578-0.067,2.359-0.168c0.453,5.129,0.687,10.284,0.687,15.414
	C429.441,319.449,351.636,397.254,256.002,397.254z M429.697,190.68c-0.095,1.093-0.696,1.781-1.184,2.165
	c-0.429,0.339-1.342,0.878-2.6,0.688c-12.414-1.853-29.375-10.818-41.839-25.056c9.976-1.725,19.445-3.89,29.075-6.62
	c4.713-1.337,8.716-4.185,11.546-7.927C428.987,163.882,430.886,176.988,429.697,190.68z M443.627,241.252
	c0.53-5.743,0.814-11.557,0.814-17.436c0-8.426-0.573-16.914-1.694-25.274c1.03-2.037,1.693-4.259,1.893-6.563
	c0.183-2.102,0.297-4.189,0.357-6.26c11.925,3.512,20.694,14.59,20.694,27.576C465.692,226.846,456.266,238.229,443.627,241.252z
	 M145.881,438.642c-9.417,0-17.079,7.661-17.079,17.078v9.427c0,9.417,7.662,17.078,17.079,17.078h53.663
	c9.417,0,17.078-7.661,17.078-17.078v-9.427c0-9.417-7.661-17.078-17.078-17.078H145.881z M201.622,455.72v9.427
	c0,1.146-0.933,2.078-2.078,2.078h-53.663c-1.146,0-2.079-0.933-2.079-2.078v-9.427c0-1.146,0.933-2.078,2.079-2.078h53.663
	C200.689,453.642,201.622,454.575,201.622,455.72z M175.931,212.916c-4.143,0-7.5,3.357-7.5,7.5v13.291c0,4.143,3.357,7.5,7.5,7.5
	c4.143,0,7.5-3.357,7.5-7.5v-13.291C183.431,216.274,180.074,212.916,175.931,212.916z M336.072,212.916c-4.143,0-7.5,3.357-7.5,7.5
	v13.291c0,4.143,3.357,7.5,7.5,7.5s7.5-3.357,7.5-7.5v-13.291C343.572,216.274,340.215,212.916,336.072,212.916z"/>
<g>
</g>
<g>
</g>
<g>
</g>
<g>
</g>
<g>
</g>
<g>
</g>
<g>
</g>
<g>
</g>
<g>
</g>
<g>
</g>
<g>
</g>
<g>
</g>
<g>
</g>
<g>
</g>
<g>
</g>
</svg>
