<?xml version="1.0" encoding="iso-8859-1"?>
<!-- Generator: Adobe Illustrator 19.0.0, SVG Export Plug-In . SVG Version: 6.00 Build 0)  -->
<svg version="1.1" id="Capa_1" xmlns="http://www.w3.org/2000/svg" xmlns:xlink="http://www.w3.org/1999/xlink" x="0px" y="0px"
	 viewBox="0 0 511.998 511.998" style="enable-background:new 0 0 511.998 511.998;" xml:space="preserve">
<g>
	<path style="fill:#E68392;" d="M92.54,293.612l-56.181,9.906c-13.371,2.358-26.122-6.571-28.48-19.942l0,0
		c-2.358-13.371,6.571-26.122,19.942-28.48l56.181-9.906L92.54,293.612z"/>
	<path style="fill:#E68392;" d="M169.263,176.594c-73.473,12.956-122.322,83.51-108.3,157.038
		C74.479,404.5,142.683,452.258,213.9,440.719c64.845-10.506,110.976-65.732,112.541-128.755
		c0.449-18.089,9.523-34.874,24.303-45.311l7.093-5.01c31.267-22.082,69.188-32.715,107.377-30.108l0,0l-18.32-103.894
		L169.263,176.594z"/>
</g>
<path style="opacity:0.15;fill:#8D4330;enable-background:new    ;" d="M431.022,232.734c11.258-1.561,22.712-1.982,34.191-1.198
	l0,0l-18.32-103.894l-26.535,4.679C425.377,158.921,434.123,207.729,431.022,232.734z"/>
<g>
	<path style="fill:#F8B8BD;" d="M472.811,108.102l-18.652,3.289c-5.426,0.957-9.049,6.131-8.092,11.556l19.975,113.282
		c0.957,5.426,6.131,9.049,11.556,8.092l18.652-3.289c5.426-0.957,9.049-6.131,8.092-11.557l-19.975-113.282
		C483.411,110.768,478.237,107.145,472.811,108.102z"/>
	<circle style="fill:#F8B8BD;" cx="192.525" cy="308.494" r="90.009"/>
</g>
<g>
	
		<ellipse transform="matrix(-0.1736 -0.9848 0.9848 -0.1736 -158.3564 525.4117)" style="fill:#FFFFFF;" cx="141.269" cy="329.147" rx="15.881" ry="19.941"/>
	
		<ellipse transform="matrix(0.1736 0.9848 -0.9848 0.1736 510.3946 12.5021)" style="fill:#FFFFFF;" cx="247.748" cy="310.369" rx="15.881" ry="19.941"/>
</g>
<path style="fill:#495059;" d="M348.388,183.827l-21.101,10.594c-6.804,3.416-14.977-0.69-16.299-8.187l-5.922-33.585l46.771-8.247
	l4.249,24.097C357.189,174.749,354.059,180.98,348.388,183.827z"/>
<path style="opacity:0.15;fill:#8D4330;enable-background:new    ;" d="M169.263,176.594
	c-73.473,12.956-122.322,83.51-108.3,157.038C74.48,404.5,142.683,452.258,213.9,440.719c50.684-8.212,89.935-43.743,105.409-88.965
	C187.767,383.547,143.946,248.41,171.613,176.18L169.263,176.594z"/>
<path d="M312.507,101.285c0.642,3.639,3.806,6.198,7.377,6.198c0.432,0,0.871-0.037,1.311-0.115
	c4.079-0.719,6.803-4.609,6.084-8.688l-5.366-30.433c-0.719-4.078-4.605-6.805-8.688-6.083c-4.08,0.719-6.803,4.609-6.084,8.688
	L312.507,101.285z M355.963,115.076c1.31,0.917,2.81,1.357,4.295,1.357c2.364,0,4.691-1.115,6.15-3.199l17.725-25.313
	c2.376-3.393,1.551-8.069-1.842-10.445c-3.393-2.376-8.07-1.552-10.445,1.842l-17.725,25.313
	C351.745,108.023,352.57,112.7,355.963,115.076z M255.402,110.62l25.313,17.725c1.31,0.917,2.81,1.357,4.295,1.357
	c2.364,0,4.691-1.115,6.15-3.199c2.376-3.393,1.551-8.069-1.842-10.445l-25.314-17.725c-3.393-2.375-8.069-1.553-10.445,1.842
	C251.184,103.567,252.009,108.244,255.402,110.62z M147.452,297.206c-4.079,0.72-6.803,4.609-6.083,8.689l1.223,6.934
	c0.642,3.639,3.806,6.198,7.377,6.198c0.432,0,0.871-0.037,1.312-0.115c4.079-0.72,6.803-4.609,6.083-8.688l-1.223-6.935
	C155.421,299.21,151.534,296.483,147.452,297.206z M511.728,228.173l-19.975-113.281c-0.81-4.597-3.363-8.603-7.186-11.28
	c-3.824-2.677-8.46-3.705-13.058-2.895l-18.653,3.288c-8.572,1.512-14.567,9.071-14.418,17.512l-16.677,2.941
	c-4.079,0.719-6.803,4.608-6.084,8.688c0.642,3.639,3.806,6.198,7.377,6.198c0.432,0,0.871-0.037,1.311-0.115l16.445-2.9
	l15.402,87.348c-36.582-0.475-72.723,10.668-102.702,31.84l-7.094,5.01c-16.7,11.794-26.971,30.954-27.474,51.251
	c-1.507,60.693-46.189,111.808-106.244,121.538c-32.505,5.267-65.392-2.327-92.605-21.382
	c-27.212-19.054-45.595-47.36-51.764-79.707c-2.018-10.581-2.684-21.201-2.047-31.664c0.041-0.302,0.062-0.608,0.065-0.918
	c1.159-16.976,5.757-33.521,13.624-48.796c0.156-0.264,0.297-0.535,0.42-0.816c2.393-4.566,5.077-9.018,8.052-13.33
	c19.37-28.076,48.534-46.8,82.122-52.723l128.416-22.643l4.62,26.199c1.046,5.931,4.732,10.883,10.113,13.586
	c2.691,1.352,5.581,2.027,8.47,2.027c2.888,0,5.776-0.675,8.467-2.025l21.1-10.594c8.566-4.3,13.386-13.895,11.722-23.334
	l-2.947-16.711l28.943-5.103c4.079-0.719,6.803-4.609,6.084-8.689c-0.719-4.08-4.609-6.804-8.688-6.083l-36.318,6.404
	c-0.004,0.001-0.007,0.001-0.011,0.001c-0.003,0.001-0.007,0.002-0.01,0.002l-182.563,32.191
	c-37.572,6.625-70.197,27.57-91.864,58.977c-2.716,3.937-5.217,7.977-7.5,12.107l-42.078,7.42
	c-8.44,1.487-15.795,6.173-20.71,13.193c-4.915,7.02-6.803,15.534-5.315,23.975c2.742,15.546,16.313,26.517,31.583,26.517
	c1.843,0,3.711-0.16,5.587-0.491l13.392-2.362c0.023,8.796,0.857,17.658,2.542,26.496c6.905,36.204,27.466,67.877,57.895,89.184
	c24.125,16.893,52.245,25.728,80.994,25.727c7.514,0,15.075-0.604,22.614-1.825c67.174-10.884,117.153-68.068,118.839-135.973
	c0.387-15.581,8.287-30.3,21.132-39.37l7.094-5.01c28.19-19.908,62.343-30.113,96.762-29.032
	c1.953,7.821,9.018,13.237,16.934,13.237c1.003,0,2.021-0.087,3.042-0.268l18.653-3.289c4.597-0.811,8.603-3.363,11.28-7.186
	C511.511,237.408,512.539,232.77,511.728,228.173z M345.754,153.091l2.947,16.712c0.522,2.962-0.99,5.974-3.679,7.322
	l-21.101,10.595c-1.513,0.757-2.826,0.324-3.474-0.001c-0.648-0.325-1.78-1.121-2.074-2.786l-4.62-26.199L345.754,153.091z
	 M51.847,293.172l-16.79,2.961c-9.28,1.633-18.156-4.582-19.792-13.858c-0.792-4.494,0.213-9.028,2.83-12.767
	c2.618-3.737,6.534-6.232,11.028-7.025l31.655-5.582C56.182,268.567,53.182,280.745,51.847,293.172z M496.546,232.628
	c-0.22,0.314-0.72,0.863-1.598,1.018l-18.651,3.289c-1.341,0.235-2.632-0.663-2.869-2.009l-19.146-108.578
	c-0.001-0.004-0.001-0.007-0.001-0.011c-0.001-0.004-0.002-0.007-0.002-0.01l-0.826-4.683c-0.237-1.345,0.664-2.632,2.008-2.869
	l18.652-3.288h0.001c0.153-0.026,0.299-0.038,0.438-0.038c0.659,0,1.153,0.267,1.412,0.448c0.314,0.22,0.863,0.72,1.018,1.599
	l19.975,113.281C497.111,231.658,496.766,232.315,496.546,232.628z M233.527,304.294c0.432,0,0.871-0.037,1.311-0.115
	c4.079-0.719,6.803-4.609,6.083-8.688l-1.223-6.936c-0.719-4.078-4.607-6.806-8.689-6.083c-4.079,0.719-6.803,4.609-6.083,8.689
	l1.223,6.935C226.793,301.735,229.956,304.294,233.527,304.294z M176.082,312.244c4.009,3.238,8.972,4.968,14.041,4.968
	c1.29,0,2.586-0.112,3.875-0.34c6.356-1.121,11.915-4.938,15.251-10.475c2.138-3.548,0.995-8.157-2.553-10.295
	c-3.549-2.137-8.157-0.994-10.295,2.553c-1.098,1.821-2.923,3.077-5.009,3.445c-2.086,0.365-4.23-0.188-5.884-1.524
	c-3.223-2.604-7.944-2.103-10.547,1.121C172.359,304.918,172.861,309.641,176.082,312.244z M164.319,394.326
	c-0.964,4.028,1.52,8.075,5.549,9.039c7.428,1.777,14.958,2.667,22.525,2.667c5.677,0,11.375-0.501,17.062-1.504
	c52.951-9.337,88.434-60.012,79.097-112.962c-9.337-52.95-60.012-88.438-112.961-79.097c-52.951,9.337-88.434,60.011-79.098,112.962
	c4.426,25.099,18.234,47.144,38.88,62.076c3.356,2.427,8.045,1.674,10.472-1.682c2.427-3.356,1.674-8.045-1.682-10.473
	c-17.47-12.636-29.154-31.29-32.899-52.527c-7.9-44.805,22.124-87.685,66.93-95.586c44.797-7.895,87.685,22.125,95.586,66.931
	c7.901,44.805-22.124,87.684-66.929,95.586c-11.23,1.98-22.499,1.651-33.492-0.98C169.335,387.812,165.283,390.297,164.319,394.326z
	"/>
<g>
</g>
<g>
</g>
<g>
</g>
<g>
</g>
<g>
</g>
<g>
</g>
<g>
</g>
<g>
</g>
<g>
</g>
<g>
</g>
<g>
</g>
<g>
</g>
<g>
</g>
<g>
</g>
<g>
</g>
</svg>
