<?xml version="1.0" encoding="iso-8859-1"?>
<!-- Generator: Adobe Illustrator 19.0.0, SVG Export Plug-In . SVG Version: 6.00 Build 0)  -->
<svg version="1.1" id="Capa_1" xmlns="http://www.w3.org/2000/svg" xmlns:xlink="http://www.w3.org/1999/xlink" x="0px" y="0px"
	 viewBox="0 0 512.001 512.001" style="enable-background:new 0 0 512.001 512.001;" xml:space="preserve">
<path style="fill:#F9E78D;" d="M190.798,8.247c-26.245,4.628-43.77,29.656-39.142,55.901c4.628,26.246,29.656,43.77,55.901,39.142
	s43.77-29.656,39.142-55.901C242.072,21.143,217.044,3.619,190.798,8.247z M202.938,77.093
	c-11.777,2.077-23.008-5.787-25.084-17.564c-2.077-11.777,5.787-23.008,17.564-25.084c11.777-2.077,23.008,5.787,25.084,17.564
	C222.579,63.786,214.715,75.016,202.938,77.093z"/>
<path style="opacity:0.15;fill:#8D4330;enable-background:new    ;" d="M239.817,81.775c-13.37,1.118-24.679-1.096-33.897-5.455
	c-0.966,0.316-1.953,0.591-2.983,0.773c-11.777,2.077-23.008-5.787-25.084-17.564c-0.745-4.224-0.193-8.369,1.341-12.056
	c-4.707-12.46-4.323-25.953,1.308-36.195c-20.345,8.519-32.838,30.235-28.847,52.87c4.628,26.246,29.656,43.77,55.901,39.142
	C221.391,100.851,232.796,92.741,239.817,81.775z"/>
<g>
	<circle style="fill:#F9E78D;" cx="219.02" cy="446.178" r="58.32"/>
	<circle style="fill:#F9E78D;" cx="219.02" cy="446.178" r="58.32"/>
</g>
<path style="opacity:0.15;fill:#8D4330;enable-background:new    ;" d="M208.892,388.746c-33.143,5.844-54.779,38.607-46.386,71.84
	c7.008,27.749,33.663,46.459,62.144,43.638c12.341-1.222,23.268-6.136,31.939-13.456c-33.196,7.995-50.502-14.682-52.775-31.452
	c-0.9-6.644,3.811-12.76,10.414-13.924l61.902-10.915C269.827,403.64,240.08,383.247,208.892,388.746z"/>
<path style="fill:#F1C372;" d="M419.823,383.365l-315.939,55.708c-13.202,2.328-25.791-6.487-28.119-19.689l-3.274-18.567
	c-1.604-9.095,2.093-18.312,9.537-23.779l17.668-12.975c14.086-10.345,21.082-27.788,18.047-44.999l-14.04-79.628
	c-12.076-68.486,33.654-133.795,102.14-145.871l0,0c68.486-12.076,133.795,33.654,145.871,102.14l14.04,79.628
	c3.035,17.212,15.574,31.21,32.349,36.113l21.04,6.15c8.865,2.591,15.491,9.988,17.094,19.083l3.274,18.567
	C441.84,368.448,433.025,381.037,419.823,383.365z"/>
<path style="fill:#F9E78D;" d="M102.211,362.076c4.966-0.171,9.998,0.666,14.782,2.572l0,0c12.867,5.128,27.528,2.543,37.865-6.677
	l0,0c10.337-9.22,24.998-11.805,37.865-6.677l0,0c12.867,5.128,27.528,2.543,37.865-6.677l0,0
	c10.337-9.22,24.998-11.805,37.865-6.677l0,0c12.867,5.128,27.528,2.543,37.865-6.677l0,0c10.337-9.22,24.998-11.805,37.865-6.677
	l0,0c12.867,5.128,27.528,2.543,37.865-6.677l0,0c3.844-3.428,8.286-5.935,13.011-7.473c-15.237-5.63-26.458-18.952-29.306-35.105
	l-14.04-79.628c-2.403-13.63-6.921-26.355-13.147-37.906c-7.747,2.31-16.189,2.049-23.978-1.055l0,0
	c-12.867-5.128-27.528-2.543-37.865,6.677l0,0c-10.337,9.22-24.998,11.805-37.865,6.677l0,0
	c-12.867-5.128-27.528-2.543-37.865,6.677l0,0c-10.337,9.22-24.998,11.805-37.865,6.677l0,0
	c-12.867-5.128-27.528-2.543-37.865,6.677l0,0c-6.258,5.581-14.102,8.713-22.171,9.192c-1.9,12.984-1.793,26.486,0.61,40.116
	l14.041,79.628C120.592,335.218,114.603,351.574,102.211,362.076z"/>
<g>
	
		<ellipse transform="matrix(-0.1736 -0.9848 0.9848 -0.1736 -83.3753 495.7279)" style="fill:#F8B8BD;" cx="166.305" cy="282.846" rx="21.09" ry="26.488"/>
	
		<ellipse transform="matrix(0.1736 0.9848 -0.9848 0.1736 508.2923 -89.9377)" style="fill:#F8B8BD;" cx="307.735" cy="257.897" rx="21.09" ry="26.489"/>
</g>
<path style="opacity:0.15;fill:#8D4330;enable-background:new    ;" d="M171.335,341.096
	c13.817-47.179-37.282-158.986-9.584-230.824c-42.707,26.269-67.284,76.787-58.048,129.165l14.04,79.628
	c3.035,17.212-3.961,34.654-18.047,44.999l-17.668,12.975c-7.444,5.466-11.14,14.684-9.537,23.779l3.274,18.567
	c2.328,13.202,14.917,22.017,28.119,19.689l104.552-18.435C159.902,410.949,161.655,374.149,171.335,341.096z"/>
<path d="M194.116,27.058L194.116,27.058C178.285,29.85,167.676,45,170.468,60.83c1.352,7.669,5.61,14.352,11.989,18.818
	c4.957,3.471,10.732,5.28,16.659,5.28c1.701,0,3.415-0.149,5.125-0.451c7.669-1.352,14.352-5.609,18.819-11.988
	c4.466-6.378,6.182-14.115,4.83-21.784C225.097,34.876,209.951,24.266,194.116,27.058z M210.772,63.886
	c-2.168,3.097-5.413,5.164-9.137,5.82c-3.724,0.655-7.479-0.177-10.575-2.345c-3.097-2.168-5.164-5.413-5.82-9.137
	c-1.355-7.684,3.795-15.04,11.481-16.396l0,0c7.68-1.351,15.041,3.796,16.396,11.482C213.773,57.034,212.94,60.79,210.772,63.886z
	 M251.937,241.05c-3.547-2.137-8.157-0.993-10.294,2.553c-1.826,3.03-4.863,5.118-8.335,5.73c-3.468,0.612-7.038-0.312-9.79-2.534
	c-3.223-2.604-7.944-2.102-10.547,1.121s-2.101,7.944,1.122,10.547c4.884,3.945,10.929,6.052,17.102,6.052
	c1.57,0,3.149-0.137,4.719-0.414c7.742-1.364,14.514-6.015,18.578-12.76C256.628,247.797,255.485,243.188,251.937,241.05z
	 M446.898,353.944l-3.274-18.567c-2.115-11.992-10.689-21.564-22.376-24.979l-21.04-6.149c-14.138-4.132-24.51-15.71-27.067-30.217
	l-14.04-79.628c-6.188-35.096-25.673-65.681-54.866-86.122c-17.506-12.257-37.248-19.981-57.816-22.871
	c7.28-11.543,10.114-25.447,7.668-39.323c-2.586-14.666-10.729-27.448-22.929-35.99c-12.199-8.543-26.997-11.824-41.661-9.235
	c-30.276,5.338-50.564,34.313-45.226,64.59c2.448,13.883,9.887,25.97,20.685,34.327c-5.692,3.037-11.181,6.502-16.449,10.392
	c-3.332,2.461-4.038,7.157-1.578,10.489c2.462,3.332,7.158,4.039,10.489,1.577c8.281-6.116,17.178-11.053,26.609-14.777
	c0.117-0.048,0.24-0.083,0.354-0.137c7.285-2.85,14.885-4.981,22.765-6.371c7.943-1.4,15.903-1.986,23.785-1.787
	c0.08,0.005,0.16,0.006,0.24,0.008c22.947,0.624,45.224,7.927,64.461,21.396c12.227,8.562,22.533,19.131,30.589,31.178
	c-3.027-0.194-6.022-0.839-8.854-1.968c-15.607-6.222-33.094-3.138-45.634,8.046c-8.27,7.377-19.801,9.41-30.096,5.308
	c-15.609-6.222-33.094-3.138-45.634,8.045c-8.27,7.377-19.803,9.41-30.097,5.308c-15.606-6.221-33.094-3.138-45.634,8.046
	c-2.246,2.003-4.805,3.617-7.543,4.83c3.892-15.86,11.047-30.921,21.198-44.095c2.528-3.28,1.918-7.99-1.363-10.519
	c-3.281-2.528-7.991-1.918-10.519,1.363c-13.866,17.996-22.761,39.12-26.166,61.181c-0.165,0.586-0.262,1.198-0.279,1.829
	c-1.923,13.709-1.728,27.756,0.717,41.619l14.04,79.628c2.558,14.506-3.227,28.933-15.1,37.651l-17.668,12.976
	c-9.815,7.207-14.598,19.134-12.483,31.126l3.273,18.566c1.474,8.358,6.114,15.642,13.066,20.51
	c5.402,3.782,11.696,5.754,18.156,5.754c1.854,0,3.722-0.162,5.585-0.491l48.544-8.56c-0.826,6.537-0.675,13.201,0.471,19.706
	c5.624,31.892,33.46,54.395,64.784,54.394c3.779,0,7.613-0.328,11.461-1.007c17.313-3.053,32.401-12.665,42.485-27.065
	c10.083-14.4,13.956-31.866,10.903-49.18c-1.147-6.505-3.285-12.818-6.297-18.679l143.586-25.318
	c8.358-1.473,15.642-6.113,20.51-13.065C446.502,370.733,448.372,362.302,446.898,353.944z M228.434,84.126
	c-7.93-0.026-15.92,0.647-23.894,2.054c-7.985,1.408-15.713,3.498-23.161,6.241c-11.777-5.709-20.045-16.574-22.337-29.576
	c-3.902-22.131,10.927-43.311,33.058-47.213c10.721-1.888,21.536,0.508,30.453,6.751c8.917,6.244,14.87,15.587,16.76,26.309
	C241.606,61.695,237.552,74.733,228.434,84.126z M260.644,475.324c-7.785,11.119-19.435,18.54-32.802,20.897
	c-27.594,4.853-54.003-13.626-58.868-41.221c-1.179-6.686-1.007-13.348,0.461-19.87l92.398-16.292
	c3.61,5.625,6.051,11.828,7.229,18.515C271.42,450.72,268.43,464.205,260.644,475.324z M429.348,369.082
	c-2.57,3.67-6.415,6.119-10.827,6.897l-315.94,55.709c-4.413,0.774-8.863-0.21-12.533-2.778c-3.67-2.57-6.12-6.416-6.897-10.827
	l-3.273-18.567c-1.117-6.33,1.408-12.626,6.589-16.431l17.668-12.976c0.23-0.169,0.451-0.344,0.678-0.516
	c3.229,0.146,6.382,0.819,9.404,2.023c5.335,2.127,10.891,3.166,16.393,3.166c10.592,0,20.988-3.852,29.241-11.212
	c8.27-7.377,19.801-9.412,30.096-5.308c15.608,6.221,33.093,3.139,45.634-8.046c8.27-7.378,19.804-9.41,30.097-5.308
	c15.607,6.222,33.094,3.138,45.633-8.046c4.179-3.728,9.311-6.155,14.842-7.021c4.092-0.642,6.89-4.478,6.25-8.57
	c-0.641-4.092-4.478-6.889-8.57-6.25c-8.386,1.313-16.169,4.994-22.506,10.645c-8.27,7.377-19.802,9.409-30.096,5.308
	c-15.607-6.221-33.094-3.138-45.634,8.046c-8.271,7.377-19.803,9.41-30.097,5.308c-15.607-6.222-33.093-3.138-45.633,8.046
	c-8.27,7.376-19.803,9.409-30.096,5.308c-0.912-0.364-1.836-0.684-2.763-0.984c7.521-11.225,10.569-25.055,8.122-38.936
	l-14.041-79.628c-1.888-10.707-2.256-21.535-1.197-32.184c7.536-1.571,14.605-5.089,20.364-10.225
	c8.27-7.375,19.802-9.41,30.096-5.307c15.608,6.221,33.094,3.139,45.634-8.046c8.27-7.376,19.8-9.409,30.097-5.307
	c15.608,6.222,33.094,3.138,45.633-8.046c8.271-7.377,19.804-9.41,30.096-5.308c7.193,2.868,15.071,3.752,22.717,2.631
	c4.588,9.606,7.9,19.896,9.798,30.665l14.041,79.628c2.448,13.881,10.043,25.833,20.948,33.809c-0.768,0.6-1.526,1.216-2.259,1.87
	c-5.105,4.553-11.685,7.167-18.526,7.36c-4.141,0.117-7.402,3.568-7.285,7.709c0.115,4.068,3.449,7.288,7.493,7.288
	c0.072,0,0.143-0.001,0.216-0.003c10.372-0.293,20.347-4.257,28.086-11.16c2.429-2.166,5.164-3.876,8.146-5.116
	c0.271,0.084,0.54,0.173,0.813,0.253l21.04,6.149c6.169,1.803,10.696,6.855,11.812,13.187l3.274,18.567
	C432.904,360.961,431.917,365.412,429.348,369.082z M183.631,248.918c-0.719-4.08-4.605-6.806-8.688-6.084
	c-4.079,0.719-6.803,4.608-6.084,8.688l1.624,9.212c0.642,3.64,3.806,6.199,7.377,6.199c0.432,0,0.871-0.037,1.311-0.115
	c4.079-0.719,6.803-4.608,6.084-8.688L183.631,248.918z M294.62,229.345c-0.72-4.079-4.608-6.803-8.689-6.083
	c-4.079,0.719-6.803,4.609-6.083,8.688l1.625,9.212c0.642,3.639,3.806,6.198,7.377,6.198c0.432,0,0.871-0.037,1.312-0.115
	c4.079-0.719,6.803-4.609,6.083-8.688L294.62,229.345z"/>
<g>
</g>
<g>
</g>
<g>
</g>
<g>
</g>
<g>
</g>
<g>
</g>
<g>
</g>
<g>
</g>
<g>
</g>
<g>
</g>
<g>
</g>
<g>
</g>
<g>
</g>
<g>
</g>
<g>
</g>
</svg>
