<?xml version="1.0" encoding="iso-8859-1"?>
<!-- Generator: Adobe Illustrator 19.0.0, SVG Export Plug-In . SVG Version: 6.00 Build 0)  -->
<svg version="1.1" id="Capa_1" xmlns="http://www.w3.org/2000/svg" xmlns:xlink="http://www.w3.org/1999/xlink" x="0px" y="0px"
	 viewBox="0 0 512 512" style="enable-background:new 0 0 512 512;" xml:space="preserve">
<path style="fill:#DDEFF5;" d="M256,435.88c-99.186,0-179.88-80.694-179.88-179.88S156.814,76.12,256,76.12
	S435.88,156.814,435.88,256S355.186,435.88,256,435.88z M256,169.658c-47.609,0-86.342,38.733-86.342,86.342
	s38.733,86.342,86.342,86.342s86.342-38.733,86.342-86.342S303.609,169.658,256,169.658z"/>
<path style="opacity:0.15;fill:#003A63;enable-background:new    ;" d="M76.12,256c0,99.186,80.694,179.88,179.88,179.88
	c47.572,0,90.883-18.571,123.084-48.833c-59.844-1.014-106.791-19.098-141.868-46.787c-38.603-8.602-67.558-43.103-67.558-84.259
	c0-3.192,0.187-6.34,0.527-9.443c-18.191-49.334-18.879-103.15-4.165-146.266C112.317,131.445,76.12,189.573,76.12,256z"/>
<path style="fill:#F5D7B7;" d="M424.144,504.5c-31.245,0-57.454-9.007-82.801-17.717c-25.691-8.829-52.257-17.958-85.344-17.958
	s-59.652,9.13-85.344,17.958c-25.346,8.71-51.556,17.717-82.8,17.717C43.547,504.5,7.5,468.453,7.5,424.144
	c0-31.245,9.007-57.454,17.717-82.801c8.829-25.691,17.958-52.257,17.958-85.344s-9.13-59.652-17.958-85.344
	C16.507,145.31,7.5,119.101,7.5,87.856C7.5,43.547,43.547,7.5,87.856,7.5c31.245,0,57.454,9.007,82.8,17.717
	c25.691,8.829,52.257,17.958,85.344,17.958s59.652-9.13,85.344-17.958c25.346-8.71,51.555-17.717,82.8-17.717
	c44.309,0,80.356,36.047,80.356,80.356c0,31.245-9.007,57.454-17.717,82.8c-8.829,25.691-17.958,52.257-17.958,85.344
	s9.13,59.652,17.958,85.344c8.71,25.346,17.717,51.556,17.717,82.801C504.5,468.453,468.453,504.5,424.144,504.5z M256,433.964
	c38.909,0,69.598,10.546,96.673,19.85c23.681,8.138,46.048,15.825,71.471,15.825c25.086,0,45.495-20.409,45.495-45.495
	c0-25.422-7.687-47.789-15.825-71.471c-9.304-27.076-19.85-57.764-19.85-96.673s10.546-69.598,19.85-96.673
	c8.138-23.681,15.825-46.048,15.825-71.471c0-25.086-20.409-45.495-45.495-45.495c-25.422,0-47.789,7.687-71.471,15.825
	c-27.076,9.304-57.764,19.85-96.673,19.85s-69.598-10.546-96.673-19.85c-23.681-8.138-46.048-15.825-71.471-15.825
	c-25.086,0-45.495,20.409-45.495,45.495c0,25.422,7.687,47.789,15.825,71.471c9.304,27.075,19.85,57.764,19.85,96.673
	s-10.546,69.598-19.85,96.673c-8.138,23.681-15.825,46.048-15.825,71.471c0,25.086,20.409,45.495,45.495,45.495
	c25.422,0,47.789-7.687,71.471-15.825C186.402,444.509,217.091,433.964,256,433.964z"/>
<path style="fill:#7397DA;" d="M297.935,87.874V38.24c0-5.618-4.554-10.171-10.172-10.171h-63.527
	c-5.617,0-10.171,4.554-10.171,10.171v49.634H297.935z"/>
<path style="opacity:0.15;fill:#003A63;enable-background:new    ;" d="M245.599,28.069h-21.363
	c-5.617,0-10.171,4.554-10.171,10.172v49.633h52.705C251.949,70.926,239.897,45.436,245.599,28.069z"/>
<path style="fill:#7397DA;" d="M87.874,214.065H38.24c-5.618,0-10.171,4.554-10.171,10.171v63.527
	c0,5.618,4.554,10.172,10.171,10.172h49.634V214.065z"/>
<path style="opacity:0.15;fill:#003A63;enable-background:new    ;" d="M87.874,297.935v-83.87H59.979
	c-3.364,23.343,1.392,70.277-19.054,83.87H87.874z"/>
<path style="fill:#7397DA;" d="M214.065,424.126v49.634c0,5.617,4.554,10.172,10.171,10.172h63.527
	c5.618,0,10.172-4.554,10.172-10.172v-49.634H214.065z"/>
<path style="opacity:0.15;fill:#003A63;enable-background:new    ;" d="M214.065,473.76c0,5.618,4.554,10.172,10.172,10.172h26.372
	c-6.987-6.482-11.367-16.677-13.354-25.592c-0.613-2.748,1.796-5.234,4.567-4.74c23.609,4.21,44.754-1.057,56.112-6.939v-22.534
	h-83.87v49.633H214.065z"/>
<path style="fill:#7397DA;" d="M424.126,297.935h49.634c5.618,0,10.172-4.554,10.172-10.172v-63.527
	c0-5.618-4.554-10.171-10.172-10.171h-49.634V297.935z"/>
<path style="opacity:0.15;fill:#8D4330;enable-background:new    ;" d="M10.379,393.285H45.93c1.076-4.892,2.343-9.734,3.752-14.561
	H13.556C12.35,383.482,11.279,388.33,10.379,393.285z M10.379,118.715c0.9,4.955,1.971,9.803,3.176,14.561h36.127
	c-1.409-4.826-2.676-9.669-3.752-14.561C45.93,118.715,10.379,118.715,10.379,118.715z M462.317,378.725
	c1.409,4.827,2.676,9.669,3.752,14.561h35.551c-0.9-4.955-1.971-9.803-3.176-14.561H462.317z M118.715,501.621
	c4.955-0.9,9.803-1.971,14.561-3.176v-36.127c-4.826,1.409-9.669,2.676-14.561,3.752
	C118.715,466.07,118.715,501.621,118.715,501.621z M501.621,118.715H466.07c-1.076,4.892-2.343,9.734-3.752,14.561h36.127
	C499.65,128.518,500.721,123.67,501.621,118.715z M378.725,49.683c4.826-1.409,9.669-2.676,14.561-3.752V10.379
	c-4.955,0.9-9.803,1.971-14.561,3.176V49.683z M378.725,498.444c4.757,1.205,9.605,2.277,14.561,3.176v-35.551
	c-4.892-1.076-9.734-2.343-14.561-3.752V498.444z M118.715,45.931c4.892,1.076,9.734,2.343,14.561,3.752V13.556
	c-4.757-1.205-9.605-2.276-14.561-3.176C118.715,10.38,118.715,45.931,118.715,45.931z"/>
<g>
	<path style="fill:#E68392;" d="M190.183,88.588l32.081,87.938c10.369-4.419,21.771-6.868,33.736-6.868s23.366,2.45,33.736,6.868
		l32.081-87.938C301.423,80.543,279.218,76.12,256,76.12S210.577,80.543,190.183,88.588z"/>
	<path style="fill:#E68392;" d="M88.588,321.817l87.938-32.081c-4.419-10.369-6.868-21.771-6.868-33.736s2.45-23.366,6.868-33.736
		l-87.938-32.081C80.543,210.577,76.12,232.782,76.12,256S80.543,301.423,88.588,321.817z"/>
	<path style="fill:#E68392;" d="M321.817,423.412l-32.081-87.938c-10.369,4.419-21.771,6.868-33.736,6.868
		s-23.366-2.45-33.736-6.868l-32.081,87.938c20.394,8.046,42.599,12.469,65.817,12.469S301.423,431.457,321.817,423.412z"/>
	<path style="fill:#E68392;" d="M423.412,190.183l-87.938,32.081c4.419,10.369,6.868,21.771,6.868,33.736s-2.45,23.366-6.868,33.736
		l87.938,32.081c8.046-20.394,12.469-42.599,12.469-65.817S431.457,210.577,423.412,190.183z"/>
</g>
<g>
	<path style="opacity:0.15;fill:#8D4330;enable-background:new    ;" d="M256,435.88c23.218,0,45.423-4.423,65.817-12.469
		L304.32,375.45c-25.911-8.177-48.23-20.291-67.107-35.193c-5.169-1.153-10.172-2.748-14.949-4.784l-32.081,87.938
		C210.577,431.457,232.782,435.88,256,435.88z"/>
	<path style="opacity:0.15;fill:#8D4330;enable-background:new    ;" d="M161.397,216.745l-72.808-26.562
		C80.543,210.577,76.12,232.782,76.12,256s4.423,45.423,12.469,65.817l87.938-32.081c-4.419-10.369-6.868-21.771-6.868-33.736
		c0-3.192,0.187-6.34,0.527-9.443C166.571,236.756,163.645,226.78,161.397,216.745z"/>
</g>
<path d="M482.64,303.017c5.248-3.067,8.792-8.748,8.792-15.253v-63.527c0-6.505-3.543-12.186-8.792-15.253
	c3.219-12.528,7.28-24.379,11.236-35.889c8.91-25.929,18.124-52.74,18.124-85.238C512,39.412,472.588,0,424.144,0
	c-32.497,0-59.309,9.214-85.237,18.124c-11.51,3.955-23.361,8.016-35.89,11.236c-3.067-5.248-8.748-8.792-15.253-8.792h-63.527
	c-6.505,0-12.186,3.543-15.253,8.792c-12.528-3.219-24.379-7.281-35.89-11.236C147.165,9.214,120.354,0,87.856,0
	C39.412,0,0,39.412,0,87.855c0,32.498,9.214,59.309,18.124,85.238c3.956,11.511,8.017,23.362,11.236,35.89
	c-5.248,3.067-8.791,8.748-8.791,15.253v63.527c0,6.505,3.543,12.185,8.791,15.253c-3.219,12.528-7.28,24.379-11.236,35.89
	C9.214,364.835,0,391.647,0,424.144C0,472.588,39.412,512,87.856,512c32.497,0,59.309-9.214,85.237-18.124
	c11.51-3.956,23.361-8.017,35.89-11.236c3.067,5.248,8.748,8.792,15.253,8.792h63.527c6.505,0,12.186-3.543,15.253-8.792
	c12.528,3.219,24.379,7.28,35.89,11.236c25.929,8.91,52.74,18.124,85.237,18.124C472.588,512,512,472.588,512,424.144
	c0-32.497-9.214-59.309-18.124-85.237C489.92,327.396,485.859,315.545,482.64,303.017z M305.435,44.233
	c13.578-3.412,26.144-7.729,38.347-11.923C368.545,23.8,394.151,15,424.144,15C464.316,15,497,47.683,497,87.855
	c0,29.993-8.8,55.6-17.31,80.363c-4.194,12.203-8.511,24.769-11.923,38.347h-20.44c3.743-16.156,8.729-30.687,13.582-44.811
	c8.347-24.286,16.229-47.227,16.229-73.898c0-29.221-23.773-52.994-52.995-52.994c-26.671,0-49.611,7.883-73.907,16.232
	c-14.116,4.851-28.646,9.836-44.802,13.578L305.435,44.233L305.435,44.233z M166.843,285.284L93.039,312.21
	c-6.097-17.627-9.419-36.537-9.419-56.21s3.322-38.584,9.419-56.21l73.804,26.926c-3.036,9.219-4.685,19.062-4.685,29.284
	C162.158,266.222,163.807,276.065,166.843,285.284z M77.938,197.637c-3.765-14.858-8.425-28.426-12.662-40.758
	c-7.928-23.067-15.415-44.856-15.415-69.023c0-20.95,17.045-37.994,37.995-37.994c24.166,0,45.955,7.487,69.032,15.418
	c12.324,4.235,25.89,8.894,40.748,12.659C141.183,96.488,96.489,141.182,77.938,197.637z M71.803,221.565
	C69.721,232.732,68.62,244.239,68.62,256c0,11.761,1.101,23.268,3.183,34.435H38.467c-0.013,0-0.026,0-0.038,0H38.24
	c-1.473,0-2.671-1.198-2.671-2.671v-63.527c0-1.473,1.198-2.671,2.671-2.671h0.055c0.004,0,0.007,0.001,0.011,0.001
	c0.006,0,0.012-0.001,0.018-0.001L71.803,221.565L71.803,221.565z M77.938,314.363c18.55,56.454,63.244,101.148,119.699,119.699
	c-14.859,3.765-28.426,8.425-40.758,12.662c-23.067,7.928-44.856,15.415-69.023,15.415c-20.95,0-37.995-17.045-37.995-37.995
	c0-24.166,7.487-45.955,15.418-69.032C69.514,342.787,74.173,329.221,77.938,314.363z M185.836,413.441
	c-38.734-17.33-69.947-48.543-87.277-87.277l74.113-27.039c8.93,17.184,23.019,31.273,40.203,40.203L185.836,413.441z M177.158,256
	c0-43.474,35.368-78.842,78.842-78.842s78.842,35.368,78.842,78.842S299.474,334.842,256,334.842S177.158,299.474,177.158,256z
	 M299.125,172.672l27.039-74.113c38.734,17.33,69.948,48.543,87.277,87.277l-74.113,27.039
	C330.398,195.691,316.309,181.602,299.125,172.672z M339.328,299.125l74.113,27.039c-17.33,38.734-48.543,69.948-87.277,87.277
	l-27.039-74.113C316.309,330.398,330.398,316.309,339.328,299.125z M345.157,285.284c3.036-9.219,4.685-19.062,4.685-29.284
	c0-10.222-1.649-20.065-4.685-29.284l73.804-26.926c6.097,17.627,9.419,36.537,9.419,56.21s-3.322,38.584-9.419,56.21
	L345.157,285.284z M314.363,77.938c14.859-3.765,28.426-8.425,40.758-12.662c23.067-7.928,44.856-15.415,69.022-15.415
	c20.95,0,37.995,17.044,37.995,37.994c0,24.167-7.487,45.956-15.418,69.033c-4.235,12.324-8.894,25.89-12.659,40.747
	C415.511,141.182,370.817,96.488,314.363,77.938z M440.197,221.565h33.479c0.006,0,0.012,0.001,0.018,0.001
	c0.004,0,0.008-0.001,0.011-0.001h0.055c1.474,0,2.672,1.198,2.672,2.671v63.527c0,1.473-1.198,2.671-2.672,2.671h-0.199
	c-0.008,0-0.016,0-0.023,0h-33.34c2.083-11.166,3.183-22.674,3.183-34.435C443.38,244.239,442.279,232.732,440.197,221.565z
	 M221.565,38.24c0-1.474,1.198-2.672,2.671-2.672h63.527c1.473,0,2.671,1.198,2.671,2.672v33.563
	C279.268,69.721,267.761,68.62,256,68.62c-11.761,0-23.268,1.101-34.435,3.183V38.24z M256,83.62c19.674,0,38.584,3.322,56.21,9.419
	l-26.926,73.804c-9.219-3.036-19.062-4.685-29.284-4.685c-10.222,0-20.065,1.649-29.284,4.685l-11.344-31.093
	c-1.42-3.89-5.724-5.898-9.616-4.476c-3.892,1.42-5.896,5.725-4.476,9.616l11.595,31.782c-17.184,8.93-31.273,23.019-40.203,40.203
	l-74.113-27.039c17.33-38.734,48.543-69.947,87.277-87.277l3.41,9.346c1.11,3.043,3.984,4.932,7.047,4.932
	c0.852,0,1.722-0.146,2.569-0.456c3.892-1.42,5.895-5.725,4.476-9.616l-3.548-9.726C217.416,86.942,236.326,83.62,256,83.62z
	 M15,87.855C15,47.683,47.684,15,87.856,15c29.992,0,55.599,8.8,80.362,17.31c12.203,4.194,24.769,8.511,38.347,11.923v20.44
	c-16.156-3.742-30.687-8.728-44.811-13.581c-24.286-8.347-47.227-16.229-73.898-16.229c-29.222,0-52.995,23.773-52.995,52.994
	c0,26.672,7.883,49.612,16.232,73.908c4.851,14.116,9.836,28.646,13.578,44.802H44.233c-3.412-13.578-7.73-26.144-11.923-38.347
	C23.8,143.455,15,117.849,15,87.855z M206.565,467.767c-13.578,3.412-26.144,7.729-38.347,11.923
	C143.455,488.2,117.849,497,87.856,497C47.684,497,15,464.316,15,424.144c0-29.992,8.8-55.599,17.31-80.362
	c4.194-12.203,8.511-24.769,11.923-38.347h20.44c-3.742,16.156-8.728,30.687-13.581,44.811
	c-8.347,24.286-16.229,47.227-16.229,73.897c0,29.222,23.773,52.995,52.995,52.995c26.671,0,49.611-7.883,73.907-16.232
	c14.116-4.851,28.646-9.836,44.802-13.579v20.44H206.565z M290.435,473.76c0,1.474-1.198,2.672-2.671,2.672h-63.527
	c-1.473,0-2.671-1.198-2.671-2.672v-33.563c11.166,2.083,22.674,3.183,34.435,3.183c11.761,0,23.268-1.101,34.435-3.183v33.563
	H290.435z M256,428.38c-19.674,0-38.584-3.322-56.21-9.419l26.926-73.804c9.219,3.036,19.062,4.685,29.284,4.685
	c10.222,0,20.065-1.649,29.284-4.685l26.926,73.804C294.584,425.058,275.674,428.38,256,428.38z M424.144,497
	c-29.992,0-55.599-8.8-80.362-17.31c-12.203-4.194-24.769-8.511-38.347-11.923v-20.44c16.156,3.742,30.686,8.728,44.802,13.579
	c19.753,6.789,38.41,13.201,59.099,15.427c0.273,0.029,0.544,0.044,0.812,0.044c3.782,0,7.034-2.853,7.448-6.698
	c0.443-4.119-2.536-7.816-6.654-8.26c-19.013-2.046-36.896-8.191-55.829-14.698c-12.324-4.235-25.89-8.894-40.748-12.659
	c56.454-18.55,101.148-63.244,119.698-119.698c3.765,14.858,8.425,28.425,12.662,40.757c7.928,23.067,15.415,44.856,15.415,69.022
	c0,14.635-8.58,28.136-21.858,34.396c-3.746,1.767-5.352,6.235-3.586,9.982c1.279,2.713,3.976,4.304,6.789,4.304
	c1.071,0,2.16-0.23,3.193-0.718c18.505-8.724,30.462-27.551,30.462-47.964c0-26.671-7.883-49.611-16.232-73.907
	c-4.851-14.116-9.836-28.645-13.579-44.802h20.44c3.412,13.578,7.729,26.144,11.923,38.347c8.51,24.764,17.31,50.37,17.31,80.362
	C497,464.316,464.316,497,424.144,497z"/>
<g>
</g>
<g>
</g>
<g>
</g>
<g>
</g>
<g>
</g>
<g>
</g>
<g>
</g>
<g>
</g>
<g>
</g>
<g>
</g>
<g>
</g>
<g>
</g>
<g>
</g>
<g>
</g>
<g>
</g>
</svg>
