<?xml version="1.0" encoding="iso-8859-1"?>
<!-- Generator: Adobe Illustrator 19.0.0, SVG Export Plug-In . SVG Version: 6.00 Build 0)  -->
<svg version="1.1" id="Capa_1" xmlns="http://www.w3.org/2000/svg" xmlns:xlink="http://www.w3.org/1999/xlink" x="0px" y="0px"
	 viewBox="0 0 512 512" style="enable-background:new 0 0 512 512;" xml:space="preserve">
<path style="fill:#7397DA;" d="M251.966,388.515h-27.691v-97.633h62.667v62.657C286.942,372.856,271.283,388.515,251.966,388.515z"
	/>
<rect x="224.28" y="290.88" style="opacity:0.15;fill:#003A63;enable-background:new    ;" width="62.67" height="45.33"/>
<path style="fill:#E68392;" d="M196.677,474.308h18.879c22.261,0,37.045-23.048,27.763-43.282l0,0
	c-8.475-18.474-12.863-38.56-12.863-58.886v-58.793H129.293v45.838c0,28.861,6.23,57.382,18.265,83.615l0,0
	C156.366,462,175.553,474.308,196.677,474.308z"/>
<path style="fill:#7397DA;" d="M29.494,264.75h39.89V133.994h-39.89c-12.147,0-21.994,9.847-21.994,21.994v86.769
	C7.5,254.903,17.347,264.75,29.494,264.75z"/>
<path style="fill:#DDEFF5;" d="M458.049,359.953l-75.397-33.547c-19.351-8.61-40.295-13.059-61.475-13.059H103.328
	c-18.747,0-33.944-15.197-33.944-33.944V121.112c0-18.747,15.197-33.944,33.944-33.944h217.848c21.18,0,42.124-4.449,61.475-13.059
	l75.397-33.547c21.841-9.718,46.451,6.269,46.451,30.174V329.78C504.5,353.685,479.89,369.671,458.049,359.953z"/>
<rect x="129.29" y="313.35" style="opacity:0.15;fill:#8D4330;enable-background:new    ;" width="101.16" height="32.2"/>
<g>
	<ellipse style="fill:#F8B8BD;" cx="165.78" cy="169.97" rx="27.568" ry="21.954"/>
	<ellipse style="fill:#F8B8BD;" cx="315.21" cy="169.97" rx="27.568" ry="21.954"/>
</g>
<circle style="fill:#7397DA;" cx="299.41" cy="247.9" r="25.334"/>
<path style="opacity:0.15;fill:#003A63;enable-background:new    ;" d="M504.366,332.644c-27.88-25.78-79.464-50.471-172.908-64.077
	C152.609,242.525,144.677,147.851,169.663,87.168h-66.334c-18.747,0-33.944,15.197-33.944,33.944v158.291
	c0,18.747,15.197,33.944,33.944,33.944h217.848c21.18,0,42.124,4.449,61.475,13.059l75.398,33.547
	C479.004,369.277,502.493,354.934,504.366,332.644z"/>
<path style="fill:#E68392;" d="M458.049,40.563l-46.446,20.665v278.06l46.446,20.665c21.841,9.718,46.451-6.269,46.451-30.174
	V70.736C504.5,46.831,479.89,30.845,458.049,40.563z"/>
<path style="opacity:0.15;fill:#8D4330;enable-background:new    ;" d="M504.366,332.644c-18.586-17.186-47.729-33.883-92.763-47.14
	v53.784l46.446,20.665C479.004,369.277,502.493,354.934,504.366,332.644z"/>
<path d="M299.143,155.564c4.143,0,7.5-3.357,7.5-7.5v-9.735c0-4.143-3.357-7.5-7.5-7.5s-7.5,3.357-7.5,7.5v9.735
	C291.643,152.206,295,155.564,299.143,155.564z M493.551,36.751C481.998,29.247,467.586,28.11,455,33.71l-46.308,20.604
	c-0.009,0.004-0.018,0.008-0.027,0.012l-29.063,12.931c-18.51,8.235-38.167,12.411-58.426,12.411H103.328
	c-22.852,0-41.443,18.592-41.443,41.444v5.381H29.494C13.231,126.494,0,139.725,0,155.988v86.768
	c0,16.263,13.231,29.494,29.494,29.494h32.391v7.153c0,22.853,18.592,41.444,41.443,41.444h18.465v38.338
	c0,23.375,3.902,46.418,11.598,68.489c1.079,3.095,3.98,5.033,7.082,5.033c0.819,0,1.652-0.135,2.469-0.42
	c3.912-1.364,5.977-5.64,4.613-9.552c-7.141-20.479-10.762-41.861-10.762-63.551v-38.338h86.162v51.293
	c0,21.556,4.558,42.42,13.546,62.012c3.289,7.17,2.711,15.414-1.548,22.054c-4.259,6.639-11.51,10.602-19.397,10.602h-18.879
	c-13.254,0-25.916-5.674-34.739-15.565c-2.756-3.091-7.497-3.36-10.589-0.604c-3.091,2.757-3.362,7.498-0.605,10.589
	c11.666,13.079,28.407,20.581,45.933,20.581h18.879c13.021,0,24.992-6.543,32.022-17.503c7.031-10.961,7.986-24.57,2.557-36.407
	c-4.713-10.272-8.061-20.936-10.041-31.883h11.873c23.421,0,42.476-19.055,42.476-42.476v-32.691h26.734
	c20.261,0,39.918,4.176,58.426,12.411l29.065,12.932c0.008,0.004,0.016,0.007,0.024,0.011L455,366.806
	c5.293,2.354,10.906,3.519,16.496,3.519c7.703-0.001,15.359-2.211,22.055-6.56C505.103,356.26,512,343.556,512,329.78V70.737
	C512,56.96,505.103,44.256,493.551,36.751z M61.885,169.616H45.646c-4.143,0-7.5,3.357-7.5,7.5s3.357,7.5,7.5,7.5h16.239v29.513
	H45.646c-4.143,0-7.5,3.357-7.5,7.5s3.357,7.5,7.5,7.5h16.239v28.122H29.494c-7.992,0-14.494-6.502-14.494-14.494v-86.768
	c0-7.992,6.502-14.494,14.494-14.494h32.391V169.616z M279.442,353.539c0,15.15-12.325,27.476-27.476,27.476h-13.711
	c-0.192-2.943-0.301-5.9-0.301-8.874v-51.293h41.487v32.691H279.442z M497,329.78c0,8.807-4.235,16.608-11.621,21.406
	c-7.384,4.797-16.233,5.497-24.281,1.915l-41.994-18.685V134.11c0-4.143-3.357-7.5-7.5-7.5s-7.5,3.357-7.5,7.5v193.633
	l-18.403-8.188c-20.439-9.095-42.148-13.706-64.523-13.706h-217.85c-14.581,0-26.443-11.863-26.443-26.444V121.113
	c0-14.581,11.862-26.444,26.443-26.444h217.849c22.373,0,44.082-4.611,64.523-13.706l18.403-8.188v26.962c0,4.143,3.357,7.5,7.5,7.5
	s7.5-3.357,7.5-7.5V66.1l41.994-18.685c8.046-3.581,16.897-2.881,24.281,1.915C492.765,54.128,497,61.93,497,70.737V329.78z
	 M181.846,155.564c4.143,0,7.5-3.357,7.5-7.5v-9.735c0-4.143-3.357-7.5-7.5-7.5s-7.5,3.357-7.5,7.5v9.735
	C174.346,152.206,177.703,155.564,181.846,155.564z M260.884,142.841c-3.124-2.722-7.862-2.396-10.582,0.727
	c-2.477,2.842-6.051,4.472-9.808,4.472s-7.332-1.63-9.809-4.472c-2.723-3.122-7.46-3.447-10.582-0.727
	c-3.122,2.722-3.448,7.459-0.727,10.582c5.326,6.111,13.022,9.616,21.117,9.616c8.094,0,15.79-3.505,21.116-9.616
	C264.332,150.3,264.006,145.563,260.884,142.841z M299.412,215.068c-18.105,0-32.834,14.729-32.834,32.833
	s14.729,32.834,32.834,32.834c18.104,0,32.834-14.73,32.834-32.834C332.246,229.796,317.517,215.068,299.412,215.068z
	 M299.412,265.735c-9.834,0-17.834-8-17.834-17.834c0-9.833,8-17.833,17.834-17.833s17.834,8,17.834,17.833
	C317.246,257.735,309.246,265.735,299.412,265.735z M218.528,256.47h-62.286c-4.143,0-7.5,3.357-7.5,7.5s3.357,7.5,7.5,7.5h62.286
	c4.143,0,7.5-3.357,7.5-7.5S222.671,256.47,218.528,256.47z M218.528,223.552h-62.286c-4.143,0-7.5,3.357-7.5,7.5s3.357,7.5,7.5,7.5
	h62.286c4.143,0,7.5-3.357,7.5-7.5C226.028,226.91,222.671,223.552,218.528,223.552z"/>
<g>
</g>
<g>
</g>
<g>
</g>
<g>
</g>
<g>
</g>
<g>
</g>
<g>
</g>
<g>
</g>
<g>
</g>
<g>
</g>
<g>
</g>
<g>
</g>
<g>
</g>
<g>
</g>
<g>
</g>
</svg>
