<?xml version="1.0" encoding="iso-8859-1"?>
<!-- Generator: Adobe Illustrator 19.0.0, SVG Export Plug-In . SVG Version: 6.00 Build 0)  -->
<svg version="1.1" id="Capa_1" xmlns="http://www.w3.org/2000/svg" xmlns:xlink="http://www.w3.org/1999/xlink" x="0px" y="0px"
	 viewBox="0 0 512.001 512.001" style="enable-background:new 0 0 512.001 512.001;" xml:space="preserve">
<path style="fill:#8EDBD6;" d="M363.103,504.5H207.082c-8.75,0-15.843-7.093-15.843-15.843V204.275
	c0-35.302,28.618-63.92,63.92-63.92h59.869c35.302,0,63.92,28.618,63.92,63.92v284.382C378.947,497.407,371.853,504.5,363.103,504.5
	z"/>
<path style="opacity:0.15;fill:#2C6245;enable-background:new    ;" d="M378.185,493.503
	c-113.741-48.263-116.96-246.282-111.659-353.148h-11.368c-35.302,0-63.92,28.618-63.92,63.92v284.381
	c0,8.75,7.093,15.843,15.843,15.843h156.022C370.162,504.5,376.136,499.881,378.185,493.503z"/>
<rect x="191.24" y="244.93" style="fill:#F5D7B7;" width="187.71" height="70.63"/>
<path style="fill:#A8D1EC;" d="M140.896,239.112L140.896,239.112c-3.382-10.776-13.368-18.108-24.662-18.108l0,0
	c-11.294,0-21.28,7.332-24.662,18.108l0,0c-2.646,8.432-9.101,15.13-17.429,18.087l0,0c-8.844,3.139-14.753,11.508-14.753,20.893
	v30.865c0,13.903,9.241,26.112,22.621,29.888l0,0c22.379,6.315,46.068,6.315,68.447,0l0,0c13.381-3.776,22.621-15.985,22.621-29.888
	v-30.865c0-9.385-5.909-17.753-14.754-20.893l0,0C149.997,254.242,143.542,247.544,140.896,239.112z"/>
<path style="opacity:0.15;fill:#003A63;enable-background:new    ;" d="M82.011,338.845c22.379,6.315,46.068,6.315,68.447,0l0,0
	c6.331-1.787,11.717-5.477,15.654-10.326c-45.607-4.526-73.208-56.927-71.167-96.301c-1.432,2.083-2.587,4.39-3.373,6.894l0,0
	c-2.646,8.432-9.101,15.13-17.429,18.087l0,0c-8.844,3.139-14.754,11.508-14.754,20.893v30.865
	C59.39,322.86,68.63,335.069,82.011,338.845L82.011,338.845z"/>
<path style="fill:#495059;" d="M391.369,441.126H162.691c-33.769,0-61.241-27.473-61.241-61.242V308.97
	c0-8.166,6.619-14.785,14.785-14.785s14.785,6.619,14.785,14.785v70.914c0,17.464,14.208,31.672,31.671,31.672h228.678
	c17.464,0,31.672-14.208,31.672-31.672V130.272c0-23.059-18.759-41.818-41.818-41.818h-42.434c-8.166,0-14.785-6.619-14.785-14.785
	s6.619-14.785,14.785-14.785h42.434c39.364,0,71.389,32.025,71.389,71.389v249.612C452.611,413.654,425.138,441.126,391.369,441.126
	z"/>
<path style="fill:#C7C9CC;" d="M294.918,7.5h-19.65c-7.895,0-14.295,6.4-14.295,14.295v118.56h48.24V21.795
	C309.212,13.9,302.812,7.5,294.918,7.5z"/>
<rect x="260.97" y="106.48" style="opacity:0.1;enable-background:new    ;" width="48.24" height="14.413"/>
<path style="fill:#8EDBD6;" d="M355.501,98.065V50.559c0-4.645-3.766-8.411-8.411-8.411H102.189v64.328H347.09
	C351.736,106.476,355.501,102.711,355.501,98.065z"/>
<circle style="fill:#FFFFFF;" cx="188.54" cy="74.31" r="45.904"/>
<path style="fill:#E68392;" d="M188.545,81.813c-1.919,0-3.839-0.732-5.303-2.196c-2.929-2.93-2.929-7.678,0-10.607L202.252,50
	c2.929-2.928,7.678-2.928,10.606,0c2.929,2.93,2.929,7.678,0,10.607l-19.01,19.01C192.383,81.08,190.464,81.813,188.545,81.813z"/>
<path style="opacity:0.1;enable-background:new    ;" d="M188.545,28.408c-20.019,0-37.035,12.82-43.313,30.694
	c48.298-33.832,77.071,16.478,79.59,43.322c6.029-7.769,9.627-17.517,9.627-28.111C234.449,48.96,213.897,28.408,188.545,28.408z"/>
<path style="fill:#495059;" d="M75.093,124.404h19.093c4.42,0,8.003-3.583,8.003-8.003V32.224c0-4.42-3.583-8.003-8.003-8.003
	H75.093c-4.42,0-8.003,3.583-8.003,8.003V116.4C67.09,120.82,70.673,124.404,75.093,124.404z"/>
<path style="opacity:0.15;fill:#8D4330;enable-background:new    ;" d="M266.245,244.928h-75.006v70.631h82.197
	C269.692,292.082,267.454,268.163,266.245,244.928z"/>
<path d="M381.222,51.384h-18.221V50.56c0-8.774-7.138-15.911-15.911-15.911h-30.378V21.795C316.712,9.777,306.935,0,294.917,0
	h-19.649c-12.018,0-21.795,9.777-21.795,21.795v12.853h-29.212c-9.469-8.535-21.995-13.74-35.716-13.74
	c-13.721,0-26.247,5.205-35.716,13.74H109.69v-2.425c0-8.549-6.955-15.503-15.503-15.503H75.093
	c-8.548,0-15.503,6.954-15.503,15.503V116.4c0,8.549,6.955,15.503,15.503,15.503h19.093c8.549,0,15.503-6.954,15.503-15.503v-2.424
	h43.139c9.469,8.535,21.995,13.74,35.716,13.74c13.721,0,26.247-5.205,35.716-13.74h29.212v18.913
	c-15.337,0.35-29.816,5.46-41.968,14.857c-3.277,2.533-3.879,7.244-1.345,10.521c2.534,3.276,7.245,3.882,10.521,1.345
	c9.946-7.69,21.868-11.756,34.478-11.756h59.868c31.11,0,56.42,25.309,56.42,56.42v33.153H198.738v-33.153
	c0-6.913,1.233-13.661,3.667-20.057c1.473-3.872-0.472-8.204-4.343-9.677c-3.871-1.474-8.204,0.473-9.676,4.343
	c-3.083,8.105-4.647,16.647-4.647,25.391v199.781h-21.048c-13.328,0-24.171-10.844-24.171-24.172v-30.711
	c4.743-0.799,9.426-1.827,13.975-3.111c16.536-4.665,28.085-19.924,28.085-37.105v-30.865c0-12.533-7.935-23.77-19.745-27.96
	c-6.074-2.157-10.853-7.116-12.783-13.266c-4.386-13.974-17.172-23.362-31.817-23.362s-27.432,9.389-31.818,23.362
	c-1.93,6.149-6.708,11.108-12.782,13.265c-11.811,4.191-19.746,15.428-19.746,27.961v30.865c0,17.182,11.549,32.44,28.085,37.105
	c4.55,1.284,9.232,2.312,13.975,3.111v30.712c0,37.904,30.837,68.742,68.742,68.742h21.048v40.029
	c0,12.872,10.472,23.344,23.343,23.344h156.022c12.871,0,23.343-10.472,23.343-23.344v-40.029h4.922
	c5.493,0,10.966-0.654,16.266-1.945c4.024-0.98,6.493-5.037,5.513-9.062c-0.98-4.024-5.037-6.499-9.061-5.513
	c-4.14,1.009-8.419,1.52-12.717,1.52H162.691c-29.633,0-53.742-24.108-53.742-53.742v-70.914c0-4.017,3.268-7.285,7.285-7.285
	c4.017,0,7.285,3.269,7.285,7.285v70.914c0,21.6,17.572,39.172,39.171,39.172h228.678c21.6,0,39.172-17.572,39.172-39.172V130.273
	c0-27.194-22.124-49.318-49.318-49.318h-18.221v-14.57h18.221c35.228,0,63.889,28.66,63.889,63.889v249.612
	c0,13.695-5.176,26.749-14.573,36.757c-2.836,3.02-2.687,7.766,0.333,10.601c1.447,1.36,3.292,2.033,5.132,2.033
	c1.999,0,3.993-0.794,5.469-2.366c12.021-12.799,18.64-29.5,18.64-47.024V130.273C460.111,86.773,424.721,51.384,381.222,51.384z
	 M94.69,42.139c0,0.003,0,0.006,0,0.01s0,0.006,0,0.01v64.309c0,0.003,0,0.007,0,0.01s0,0.006,0,0.01v9.914
	c0,0.277-0.226,0.503-0.503,0.503H75.093c-0.277,0-0.503-0.226-0.503-0.503V32.224c0-0.277,0.226-0.503,0.503-0.503h19.093
	c0.277,0,0.503,0.226,0.503,0.503v9.915H94.69z M198.738,448.627h172.708v40.029c0,4.6-3.742,8.344-8.343,8.344H207.082
	c-4.6,0-8.343-3.743-8.343-8.344L198.738,448.627L198.738,448.627z M116.234,286.685c-12.288,0-22.285,9.997-22.285,22.285v24.97
	c-3.355-0.638-6.668-1.402-9.901-2.314c-10.103-2.851-17.158-12.173-17.158-22.67v-30.865c0-6.196,3.923-11.752,9.763-13.825
	c10.491-3.725,18.743-12.288,22.076-22.908c2.413-7.688,9.448-12.854,17.506-12.854s15.093,5.166,17.506,12.854
	c3.333,10.62,11.585,19.184,22.077,22.909c5.839,2.072,9.762,7.628,9.762,13.824v30.865c0,10.497-7.056,19.819-17.158,22.67
	c-3.233,0.912-6.546,1.676-9.902,2.314v-24.97C138.519,296.683,128.522,286.685,116.234,286.685z M371.447,404.057H198.738v-80.998
	h172.708v80.998H371.447z M371.447,308.059H198.738v-55.63h172.708v55.63H371.447z M268.473,21.795c0-3.747,3.048-6.795,6.795-6.795
	h19.649c3.747,0,6.795,3.048,6.795,6.795v12.853h-33.239L268.473,21.795L268.473,21.795z M141.2,98.977h-31.51V49.648h31.51
	c-3.862,7.384-6.06,15.77-6.06,24.664S137.338,91.593,141.2,98.977z M188.545,112.717c-21.176,0-38.404-17.229-38.404-38.404
	s17.228-38.404,38.404-38.404s38.404,17.229,38.404,38.404S209.721,112.717,188.545,112.717z M301.712,132.855h-33.239v-18.879
	h33.239L301.712,132.855L301.712,132.855z M235.889,98.977c3.862-7.384,6.06-15.77,6.06-24.664s-2.197-17.28-6.06-24.664H347.09
	c0.502,0,0.911,0.409,0.911,0.911v47.506c0,0.502-0.409,0.911-0.911,0.911H235.889z M381.222,95.954
	c18.923,0,34.318,15.396,34.318,34.318v249.612c0,13.328-10.844,24.172-24.172,24.172h-4.922V204.275
	c0-38.816-31.132-70.476-69.734-71.377v-18.922h30.378c8.773,0,15.911-7.138,15.911-15.911v-2.111
	C363.001,95.954,381.222,95.954,381.222,95.954z"/>
<g>
</g>
<g>
</g>
<g>
</g>
<g>
</g>
<g>
</g>
<g>
</g>
<g>
</g>
<g>
</g>
<g>
</g>
<g>
</g>
<g>
</g>
<g>
</g>
<g>
</g>
<g>
</g>
<g>
</g>
</svg>
