<?xml version="1.0" encoding="iso-8859-1"?>
<!-- Generator: Adobe Illustrator 19.0.0, SVG Export Plug-In . SVG Version: 6.00 Build 0)  -->
<svg version="1.1" id="Capa_1" xmlns="http://www.w3.org/2000/svg" xmlns:xlink="http://www.w3.org/1999/xlink" x="0px" y="0px"
	 viewBox="0 0 512 512" style="enable-background:new 0 0 512 512;" xml:space="preserve">
<path style="fill:#F1C372;" d="M366.794,200.331V11.846c-31.578,1.662-71.733,5.821-110.794,5.821s-79.216-4.159-110.794-5.821
	v188.485H366.794z"/>
<path style="opacity:0.07;fill:#8D4330;enable-background:new    ;" d="M366.794,85.356c-50.613-1.325-91.585-39.304-107.299-67.712
	c-1.165,0.007-2.332,0.023-3.495,0.023c-39.061,0-79.216-4.159-110.794-5.821v188.485h221.588V85.356z"/>
<path style="fill:#F9E78D;" d="M225.422,504.5H39.647c-16.888,0-30.578-13.69-30.578-30.578V253.169
	c0-26.092,8.851-51.412,25.107-71.821l0,0c28.366-35.612,42.835-80.313,40.717-125.793l0,0C73.675,29.384,94.564,7.5,120.763,7.5
	h11.134C200.437,7.5,256,63.063,256,131.603v342.318C256,490.81,242.31,504.5,225.422,504.5z"/>
<g>
	<path style="opacity:0.07;fill:#8D4330;enable-background:new    ;" d="M225.422,504.5H39.647
		c-16.888,0-30.578-13.69-30.578-30.578V253.169c0-26.092,8.851-51.412,25.107-71.821l0,0
		c28.366-35.612,42.835-80.313,40.717-125.793l0,0C73.675,29.384,94.564,7.5,120.763,7.5h11.134C200.437,7.5,256,63.063,256,131.603
		v342.318C256,490.81,242.31,504.5,225.422,504.5z"/>
	<path style="opacity:0.07;fill:#8D4330;enable-background:new    ;" d="M256,473.922v-64.306
		C133.163,372.584,104.534,119.647,122.065,7.5h-1.303c-26.199,0-47.088,21.884-45.869,48.055l0,0
		c2.117,45.479-12.352,90.18-40.717,125.793l0,0C17.92,201.757,9.068,227.077,9.068,253.169v220.753
		c0,16.888,13.69,30.578,30.578,30.578h185.775C242.31,504.5,256,490.81,256,473.922z"/>
</g>
<path style="fill:#F9E78D;" d="M286.578,504.5h185.775c16.888,0,30.578-13.69,30.578-30.578V253.169
	c0-26.092-8.851-51.412-25.107-71.821l0,0c-28.365-35.612-42.834-80.313-40.717-125.793l0,0c1.218-26.17-19.671-48.055-45.87-48.055
	h-11.134C311.563,7.5,256,63.063,256,131.603v342.318C256,490.81,269.69,504.5,286.578,504.5z"/>
<path style="fill:#FFFFFF;" d="M388.048,162.641h-65.542c-7.663,0-13.876-6.212-13.876-13.876v-14.021
	c0-7.663,6.212-13.876,13.876-13.876h65.542c7.663,0,13.876,6.212,13.876,13.876v14.021
	C401.924,156.428,395.712,162.641,388.048,162.641z"/>
<rect x="9.07" y="265.7" style="fill:#495059;" width="493.86" height="43.15"/>
<rect x="79.41" y="265.7" style="opacity:0.15;enable-background:new    ;" width="93.06" height="43.15"/>
<rect x="9.07" y="383.61" style="fill:#495059;" width="493.86" height="43.15"/>
<rect x="79.41" y="383.61" style="opacity:0.15;enable-background:new    ;" width="93.06" height="43.15"/>
<rect x="339.53" y="265.7" style="opacity:0.15;enable-background:new    ;" width="93.06" height="43.15"/>
<rect x="339.53" y="383.61" style="opacity:0.15;enable-background:new    ;" width="93.06" height="43.15"/>
<g>
	<path style="fill:#F1C372;" d="M144.645,458.488H107.24c-5.22,0-9.453-4.232-9.453-9.452V230.267c0-5.221,4.232-9.453,9.453-9.453
		h37.404c5.22,0,9.452,4.232,9.452,9.453v218.769C154.097,454.256,149.865,458.488,144.645,458.488z"/>
	<path style="fill:#F1C372;" d="M367.355,458.488h37.404c5.22,0,9.453-4.232,9.453-9.452V230.267c0-5.221-4.232-9.453-9.453-9.453
		h-37.404c-5.221,0-9.453,4.232-9.453,9.453v218.769C357.903,454.256,362.135,458.488,367.355,458.488z"/>
</g>
<g>
	<path style="fill:#C7C9CC;" d="M287.914,441.61h-63.828c-5.342,0-9.672-4.33-9.672-9.672v-53.511c0-5.341,4.33-9.672,9.672-9.672
		h63.828c5.342,0,9.672,4.33,9.672,9.672v53.511C297.586,437.28,293.256,441.61,287.914,441.61z"/>
	<path style="fill:#C7C9CC;" d="M287.914,323.708h-63.828c-5.342,0-9.672-4.33-9.672-9.672v-53.511c0-5.342,4.33-9.672,9.672-9.672
		h63.828c5.342,0,9.672,4.33,9.672,9.672v53.511C297.586,319.377,293.256,323.708,287.914,323.708z"/>
</g>
<g>
	<path style="opacity:0.15;fill:#8D4330;enable-background:new    ;" d="M107.24,458.488h37.404c5.22,0,9.453-4.232,9.453-9.452
		v-51.514c-45.508-0.521-47.356-99.751-38.82-176.708h-8.037c-5.22,0-9.452,4.232-9.452,9.452v218.769
		C97.788,454.256,102.02,458.488,107.24,458.488z"/>
	<path style="opacity:0.15;fill:#8D4330;enable-background:new    ;" d="M367.355,458.488h37.404c5.22,0,9.453-4.232,9.453-9.452
		v-51.514c-45.508-0.521-47.356-99.751-38.82-176.708h-8.037c-5.221,0-9.453,4.232-9.453,9.452v218.769
		C357.903,454.256,362.135,458.488,367.355,458.488z"/>
</g>
<path d="M510.432,308.855c0-0.003,0-0.006,0-0.01v-43.131c0-0.003,0-0.006,0-0.01c0-0.003,0-0.006,0-0.01v-12.526
	c0-27.679-9.497-54.845-26.74-76.494C456.45,142.473,442.567,99.581,444.6,55.903c0.686-14.725-4.542-28.706-14.72-39.368
	C419.701,5.872,405.978,0,391.237,0h-11.134c-13.69,0-26.897,2.103-39.318,6.001l-6.705,0.477
	c-24.196,1.729-51.62,3.689-78.08,3.689c-26.471,0-53.907-1.961-78.113-3.691l-6.675-0.475C158.792,2.103,145.586,0,131.897,0
	h-11.134C106.023,0,92.3,5.872,82.122,16.535c-10.178,10.662-15.406,24.643-14.72,39.368c0.276,5.943,0.257,11.966-0.056,17.901
	c-0.218,4.137,2.958,7.667,7.094,7.885c4.133,0.23,7.667-2.957,7.885-7.094c0.339-6.429,0.359-12.952,0.06-19.39
	c-0.493-10.59,3.267-20.646,10.587-28.315c7.32-7.666,17.19-11.89,27.791-11.89h11.134C196.192,15,248.5,67.309,248.5,131.604
	v111.75h-24.414c-8.68,0-15.858,6.479-16.996,14.852h-45.492v-27.939c0-9.348-7.605-16.952-16.953-16.952H107.24
	c-9.348,0-16.953,7.604-16.953,16.952v27.939H16.568v-5.037c0-24.296,8.336-48.143,23.474-67.148
	c17.674-22.189,30.08-47.408,36.872-74.954c0.992-4.022-1.464-8.086-5.486-9.078c-4.02-0.988-8.085,1.465-9.077,5.486
	c-6.271,25.432-17.724,48.715-34.042,69.2c-17.244,21.65-26.741,48.815-26.741,76.493v220.754C1.568,494.918,18.65,512,39.647,512
	h185.775c12.513,0,23.633-6.068,30.578-15.415c6.945,9.346,18.066,15.415,30.578,15.415h137.58c4.142,0,7.5-3.357,7.5-7.5
	s-3.358-7.5-7.5-7.5h-137.58c-12.725,0-23.078-10.353-23.078-23.078V449.11h24.414c8.68,0,15.858-6.479,16.996-14.852h45.492v14.777
	c0,9.348,7.605,16.952,16.953,16.952h37.404c9.348,0,16.953-7.605,16.953-16.952v-14.777h73.719v39.663
	c0,12.726-10.353,23.078-23.078,23.078h-12.875c-4.142,0-7.5,3.357-7.5,7.5s3.358,7.5,7.5,7.5h12.875
	c20.997,0,38.078-17.082,38.078-38.078v-47.153c0-0.003,0-0.006,0-0.01c0-0.003,0-0.006,0-0.01v-43.132c0-0.003,0-0.006,0-0.01
	c0-0.003,0-0.006,0-0.01v-74.732C510.431,308.862,510.432,308.859,510.432,308.855z M206.804,23.462
	c16.066,0.968,32.761,1.704,49.196,1.704c16.434,0,33.129-0.735,49.195-1.703C282.7,39.093,265.294,61.55,256,87.813
	C246.706,61.55,229.3,39.092,206.804,23.462z M221.914,260.524c0-1.197,0.974-2.171,2.172-2.171h63.828
	c1.198,0,2.172,0.974,2.172,2.171v53.512c0,1.197-0.974,2.172-2.172,2.172h-31.895c-0.007,0-0.013-0.001-0.019-0.001
	s-0.013,0.001-0.019,0.001h-31.895c-1.198,0-2.172-0.975-2.172-2.172V260.524z M161.597,273.205h45.317v28.15h-45.317V273.205z
	 M161.597,316.355h45.492c1.138,8.373,8.316,14.853,16.996,14.853H248.5v30.048h-24.414c-8.68,0-15.857,6.479-16.996,14.852h-45.493
	V316.355z M161.597,391.107h45.317v28.151h-45.317V391.107z M105.288,230.267c0-1.076,0.876-1.952,1.953-1.952h37.404
	c1.077,0,1.953,0.876,1.953,1.952v218.77c0,1.076-0.876,1.952-1.953,1.952H107.24c-1.077,0-1.953-0.876-1.953-1.952v-218.77H105.288
	z M16.568,273.205h73.719v28.15H16.568V273.205z M16.568,316.355h73.719v59.752H16.568V316.355z M16.568,391.107h73.719v28.151
	H16.568V391.107z M248.5,473.922c0,12.726-10.353,23.078-23.078,23.078H39.647c-12.726,0-23.079-10.353-23.079-23.078v-39.663
	h73.719v14.777c0,9.348,7.605,16.952,16.953,16.952h37.404c9.348,0,16.953-7.605,16.953-16.952v-14.777h45.493
	c1.139,8.372,8.316,14.852,16.996,14.852H248.5V473.922z M290.086,431.939c0,1.197-0.974,2.172-2.172,2.172h-63.828
	c-1.198,0-2.172-0.975-2.172-2.172v-53.511c0-1.197,0.974-2.172,2.172-2.172h63.828c1.198,0,2.172,0.975,2.172,2.172V431.939z
	 M350.403,419.259h-45.317v-28.151h45.317V419.259z M350.403,376.107H304.91c-1.139-8.372-8.316-14.852-16.996-14.852H263.5v-30.048
	h24.414c8.68,0,15.858-6.48,16.996-14.853h45.492v59.753H350.403z M350.403,301.355h-45.317v-28.15h45.317V301.355z
	 M406.712,449.036c0,1.076-0.876,1.952-1.953,1.952h-37.404c-1.077,0-1.953-0.876-1.953-1.952v-218.77
	c0-1.076,0.876-1.952,1.953-1.952h37.404c1.077,0,1.953,0.876,1.953,1.952V449.036z M495.431,419.259h-73.719v-28.151h73.719
	V419.259z M495.431,376.107h-73.719v-59.752h73.719V376.107z M495.431,301.355h-73.719v-28.15h73.719V301.355z M495.431,258.205
	h-73.719v-27.939c0-9.348-7.605-16.952-16.953-16.952h-37.404c-9.348,0-16.953,7.604-16.953,16.952v27.939H304.91
	c-1.138-8.372-8.316-14.852-16.996-14.852H263.5v-111.75C263.5,67.308,315.808,15,380.103,15h11.134
	c10.601,0,20.471,4.224,27.791,11.892c7.32,7.669,11.08,17.725,10.587,28.315c-2.203,47.311,12.835,93.768,42.342,130.814
	c15.137,19.005,23.474,42.852,23.474,67.148L495.431,258.205L495.431,258.205z M388.048,113.368h-65.542
	c-11.787,0-21.376,9.589-21.376,21.376v14.021c0,11.787,9.589,21.376,21.376,21.376h65.542c11.787,0,21.376-9.589,21.376-21.376
	v-14.021C409.424,122.957,399.835,113.368,388.048,113.368z M394.424,148.765c0,3.516-2.86,6.376-6.376,6.376h-65.542
	c-3.516,0-6.376-2.86-6.376-6.376v-14.021c0-3.516,2.86-6.376,6.376-6.376h65.542c3.516,0,6.376,2.86,6.376,6.376V148.765z"/>
<g>
</g>
<g>
</g>
<g>
</g>
<g>
</g>
<g>
</g>
<g>
</g>
<g>
</g>
<g>
</g>
<g>
</g>
<g>
</g>
<g>
</g>
<g>
</g>
<g>
</g>
<g>
</g>
<g>
</g>
</svg>
