<?xml version="1.0" encoding="iso-8859-1"?>
<!-- Generator: Adobe Illustrator 19.0.0, SVG Export Plug-In . SVG Version: 6.00 Build 0)  -->
<svg version="1.1" id="Capa_1" xmlns="http://www.w3.org/2000/svg" xmlns:xlink="http://www.w3.org/1999/xlink" x="0px" y="0px"
	 viewBox="0 0 512 512" style="enable-background:new 0 0 512 512;" xml:space="preserve">
<path style="fill:#7397DA;" d="M129.154,265.247l26.716-26.043c12.265-11.956,12.39-31.632,0.279-43.743l-37.753-37.753
	c-12.357-12.357-32.518-11.938-44.351,0.921l-44.577,48.443C1.029,237.978,0.014,285.211,27.1,317.308l0,0
	c51.017,60.458,107.054,116.495,167.512,167.512l0,0c32.098,27.086,79.331,26.071,110.236-2.368l48.442-44.578
	c12.859-11.833,13.279-31.994,0.921-44.351l-37.753-37.753c-12.111-12.111-31.787-11.986-43.743,0.279l-26.043,26.716
	c-6.261,6.423-16.419,6.917-23.274,1.132l0,0c-34.424-29.048-66.329-60.955-95.378-95.378l0,0
	C122.238,281.666,122.733,271.507,129.154,265.247z"/>
<g>
	<path style="fill:#A8D1EC;" d="M354.213,393.524l-37.753-37.753c-12.111-12.111-31.787-11.986-43.743,0.279l-12.01,12.32
		l80.565,80.565l12.02-11.061C366.151,426.041,366.569,405.88,354.213,393.524z"/>
	<path style="fill:#A8D1EC;" d="M74.046,158.63l-11.061,12.02l80.565,80.565l12.321-12.01c12.265-11.956,12.39-31.632,0.279-43.743
		l-37.753-37.753C106.04,145.351,85.88,145.769,74.046,158.63z"/>
</g>
<g>
	
		<ellipse transform="matrix(0.7071 -0.7071 0.7071 0.7071 -212.2334 161.5571)" style="fill:#F8B8BD;" cx="88.9" cy="336.967" rx="17.88" ry="22.452"/>
	
		<ellipse transform="matrix(-0.7071 0.7071 -0.7071 -0.7071 597.7811 598.4392)" style="fill:#F8B8BD;" cx="174.95" cy="423.024" rx="17.88" ry="22.452"/>
</g>
<path style="fill:#F1C372;" d="M464.549,44.67C413.861-4.601,332.363-4.816,281.43,44.201c-36.855,35.47-48.51,86.962-34.975,132.57
	c2.807,9.46,3.079,19.492,1.144,29.168l-11.073,55.365c-1.676,8.378,5.711,15.765,14.09,14.09l56.059-11.211
	c9.321-1.864,18.983-1.565,28.087,1.167c44.935,13.486,95.649,2.484,131.147-33.015C517.811,180.434,517.358,96.003,464.549,44.67z"
	/>
<g>
	<path style="fill:#FFFFFF;" d="M372.748,161.152L372.748,161.152c-12.604,0-23.121-9.628-24.23-22.184l-5.877-66.54
		c-1.561-17.673,12.365-32.883,30.106-32.883l0,0c17.742,0,31.668,15.21,30.106,32.883l-5.877,66.54
		C395.868,151.524,385.352,161.152,372.748,161.152z"/>
	<circle style="fill:#FFFFFF;" cx="372.751" cy="203.312" r="22.27"/>
</g>
<path style="opacity:0.15;fill:#8D4330;enable-background:new    ;" d="M320.82,18.137c-14.254,6.07-27.636,14.753-39.389,26.064
	c-36.855,35.47-48.51,86.962-34.975,132.57c2.807,9.46,3.079,19.492,1.144,29.168l-11.073,55.365
	c-1.675,8.379,5.712,15.765,14.09,14.09l56.059-11.212c9.321-1.864,18.983-1.564,28.087,1.168
	c44.935,13.486,95.649,2.483,131.147-33.015c4.173-4.173,8.004-8.56,11.5-13.119C344.081,221.418,295.68,75.773,320.82,18.137z"/>
<path style="opacity:0.15;fill:#003A63;enable-background:new    ;" d="M151.017,314.584c-7.848-8.519-15.52-17.205-22.995-26.063
	l0,0c-5.785-6.855-5.29-17.013,1.132-23.274l26.716-26.043c12.265-11.956,12.39-31.632,0.279-43.743l-37.753-37.753
	c-12.357-12.357-32.518-11.938-44.351,0.921l-44.577,48.442C1.029,237.978,0.014,285.211,27.1,317.308l0,0
	c51.017,60.458,107.054,116.495,167.512,167.512l0,0c18.06,15.24,40.911,21.583,62.949,19.152
	C161.764,458.569,152.664,384.402,151.017,314.584z"/>
<path d="M178.612,390.25l-5.606,5.606c-2.929,2.93-2.929,7.679,0,10.608c1.464,1.464,3.384,2.196,5.304,2.196
	c1.919,0,3.839-0.732,5.304-2.196l5.606-5.606c2.929-2.93,2.929-7.679,0-10.609C186.291,387.321,181.541,387.321,178.612,390.25z
	 M152.677,369.055c-2.662,0.189-5.265-0.79-7.144-2.669c-1.878-1.878-2.851-4.482-2.668-7.143c0.284-4.132-2.836-7.713-6.969-7.997
	c-4.141-0.287-7.714,2.835-7.998,6.97c-0.48,6.988,2.081,13.833,7.028,18.778c4.553,4.553,10.713,7.084,17.114,7.084
	c0.553,0,1.109-0.018,1.665-0.057c4.132-0.284,7.253-3.864,6.969-7.997C160.391,371.892,156.809,368.786,152.677,369.055z
	 M111.063,322.701l-5.607,5.606c-2.929,2.929-2.929,7.679-0.001,10.607c1.465,1.465,3.384,2.197,5.305,2.197
	c1.919,0,3.839-0.732,5.304-2.196l5.607-5.606c2.929-2.929,2.929-7.679,0.001-10.607
	C118.741,319.772,113.993,319.773,111.063,322.701z M410.325,73.088c0.929-10.514-2.626-21.009-9.753-28.793
	c-7.128-7.785-17.269-12.25-27.824-12.25c-10.555,0-20.696,4.464-27.824,12.249c-7.127,7.785-10.683,18.279-9.754,28.794
	l5.877,66.54c1.461,16.547,15.09,29.024,31.702,29.024c16.611,0,30.239-12.478,31.702-29.024L410.325,73.088z M395.382,71.767
	l-5.877,66.54c-0.773,8.747-7.978,15.344-16.758,15.344c-8.781,0-15.985-6.597-16.758-15.344l-5.877-66.54
	c-0.567-6.426,1.519-12.585,5.876-17.343c4.356-4.759,10.308-7.379,16.76-7.379c6.452,0,12.403,2.62,16.76,7.379
	C393.863,59.182,395.949,65.341,395.382,71.767z M372.748,173.546c-16.416,0-29.771,13.355-29.771,29.771
	s13.355,29.771,29.771,29.771s29.771-13.355,29.771-29.771S389.163,173.546,372.748,173.546z M372.748,218.086
	c-8.144,0-14.77-6.626-14.77-14.77c0-8.144,6.626-14.77,14.77-14.77c8.144,0,14.77,6.626,14.77,14.77
	C387.517,211.461,380.891,218.086,372.748,218.086z M469.776,39.292c-24.758-24.066-57.534-37.964-92.291-39.135
	c-34.59-1.158-68.098,10.345-94.334,32.41c-3.17,2.667-3.578,7.398-0.912,10.568c2.665,3.171,7.397,3.577,10.568,0.913
	c23.394-19.675,53.282-29.943,84.172-28.899c31.02,1.045,60.263,13.439,82.34,34.9c24.057,23.386,37.436,54.723,37.673,88.239
	c0.237,33.525-12.685,65.041-36.389,88.744c-32.383,32.382-79.777,44.313-123.686,31.134c-10.05-3.016-21.015-3.478-31.715-1.339
	l-56.058,11.212c-2.119,0.425-3.532-0.716-4.04-1.224c-0.509-0.509-1.646-1.921-1.223-4.039l11.073-55.365
	c2.216-11.085,1.764-22.419-1.309-32.774c-10.923-36.81-4.059-77.269,18.362-108.227c2.43-3.354,1.68-8.045-1.675-10.475
	c-3.355-2.43-8.046-1.68-10.475,1.675c-25.135,34.706-32.834,80.05-20.593,121.294c2.381,8.023,2.72,16.863,0.98,25.564
	l-11.073,55.364c-1.28,6.399,0.711,12.975,5.325,17.589c3.693,3.694,8.645,5.708,13.756,5.708c1.273,0,2.558-0.125,3.835-0.38
	l56.059-11.212c8.297-1.661,16.756-1.316,24.461,0.997c13.244,3.974,26.764,5.911,40.17,5.91
	c36.4-0.002,71.914-14.283,98.436-40.805c26.566-26.566,41.049-61.888,40.783-99.458C511.73,100.617,496.735,65.497,469.776,39.292z
	 M321.763,350.466c-7.228-7.228-16.818-11.198-27.029-11.198c-0.084,0-0.168,0-0.251,0.001
	c-10.306,0.065-19.943,4.165-27.137,11.545l-26.043,26.716c-3.497,3.588-9.237,3.866-13.064,0.637
	c-34.001-28.692-65.789-60.481-94.483-94.483c-3.231-3.829-2.952-9.568,0.636-13.065l26.716-26.043
	c7.38-7.194,11.48-16.831,11.546-27.137c0.065-10.306-3.911-19.994-11.199-27.281l-37.753-37.753
	c-7.436-7.436-17.332-11.423-27.832-11.19c-10.512,0.219-20.222,4.601-27.342,12.337L23.95,201.995
	c-30.919,33.6-32.03,85.254-2.581,120.152c51.143,60.608,107.803,117.267,168.407,168.407
	c16.917,14.275,37.767,21.369,58.594,21.369c22.137-0.001,44.247-8.019,61.56-23.951l48.442-44.577
	c7.737-7.119,12.118-16.83,12.336-27.342c0.218-10.513-3.756-20.397-11.191-27.832L321.763,350.466z M79.566,163.708
	c4.326-4.701,10.227-7.363,16.615-7.496c0.167-0.004,0.333-0.006,0.5-0.006c6.202,0,12.013,2.406,16.414,6.807l37.753,37.753
	c4.428,4.428,6.845,10.314,6.805,16.577c-0.04,6.263-2.531,12.118-7.016,16.49l-7.018,6.841l-70.242-70.24L79.566,163.708z
	 M348.212,432.355l-6.725,6.189l-5.841-5.841c-2.929-2.928-7.679-2.929-10.608,0.001c-2.929,2.929-2.929,7.679,0,10.607l5.4,5.399
	l-30.669,28.222c-28.054,25.816-71.183,26.743-100.32,2.154C139.49,428.492,83.431,372.434,32.833,312.471
	c-24.588-29.137-23.661-72.265,2.155-100.32l28.221-30.668l69.664,69.665l-8.955,8.729v-0.001c-9.194,8.962-9.91,23.67-1.629,33.483
	c29.237,34.648,61.628,67.037,96.273,96.274c9.814,8.281,24.521,7.565,33.483-1.63l8.729-8.955l42.269,42.268
	c1.464,1.464,3.384,2.196,5.304,2.196c1.92,0,3.839-0.732,5.304-2.196c2.929-2.93,2.929-7.679,0-10.608l-42.404-42.403l6.841-7.018
	c4.371-4.485,10.228-6.977,16.49-7.017h0.153c6.205,0,12.032,2.413,16.425,6.806l37.752,37.753
	c4.519,4.517,6.934,10.523,6.801,16.912C355.576,422.128,352.913,428.029,348.212,432.355z"/>
<g>
</g>
<g>
</g>
<g>
</g>
<g>
</g>
<g>
</g>
<g>
</g>
<g>
</g>
<g>
</g>
<g>
</g>
<g>
</g>
<g>
</g>
<g>
</g>
<g>
</g>
<g>
</g>
<g>
</g>
</svg>
