<?xml version="1.0" encoding="iso-8859-1"?>
<!-- Generator: Adobe Illustrator 19.0.0, SVG Export Plug-In . SVG Version: 6.00 Build 0)  -->
<svg version="1.1" id="Capa_1" xmlns="http://www.w3.org/2000/svg" xmlns:xlink="http://www.w3.org/1999/xlink" x="0px" y="0px"
	 viewBox="0 0 512 512" style="enable-background:new 0 0 512 512;" xml:space="preserve">
<circle style="fill:#E68392;" cx="237.824" cy="136.843" r="116.322"/>
<path style="fill:#FFFFFF;" d="M296.281,115.605h-37.219V78.386c0-5.23-4.239-9.469-9.469-9.469h-23.537
	c-5.23,0-9.469,4.239-9.469,9.469v37.219h-37.219c-5.23,0-9.469,4.239-9.469,9.469v23.536c0,5.23,4.239,9.469,9.469,9.469h37.219
	v37.219c0,5.23,4.239,9.469,9.469,9.469h23.537c5.23,0,9.469-4.239,9.469-9.469V158.08h37.219c5.23,0,9.469-4.239,9.469-9.469
	v-23.536C305.75,119.845,301.511,115.605,296.281,115.605z"/>
<path style="opacity:0.15;fill:#8D4330;enable-background:new    ;" d="M341.458,189.714
	c-126.495,51.31-189.338-85.213-170.662-147.939c-29.815,21.06-49.287,55.789-49.287,95.068c0,64.24,52.077,116.317,116.317,116.317
	C283.027,253.159,322.205,227.376,341.458,189.714z"/>
<circle style="fill:#DDEFF5;" cx="125.073" cy="309.401" r="117.572"/>
<g>
	<path style="opacity:0.15;fill:#003A63;enable-background:new    ;" d="M240.279,333.022
		C84.663,418.375,37.182,266.327,88.1,197.762c-46.818,15.5-80.599,59.62-80.599,111.636c0,64.937,52.641,117.577,117.577,117.577
		C181.922,426.975,229.343,386.636,240.279,333.022z"/>
	<path style="opacity:0.15;fill:#003A63;enable-background:new    ;" d="M7.501,309.398c0,2.446,0.084,4.872,0.231,7.281h234.692
		c0.147-2.409,0.231-4.835,0.231-7.281c0-2.446-0.084-4.872-0.231-7.281H7.732C7.585,304.526,7.501,306.953,7.501,309.398z"/>
	<g style="opacity:0.15;">
		<circle style="fill:#003A63;" cx="70.697" cy="246.405" r="8.679"/>
		<circle style="fill:#003A63;" cx="157.936" cy="226.212" r="8.679"/>
		<circle style="fill:#003A63;" cx="190.729" cy="255.085" r="8.679"/>
		<circle style="fill:#003A63;" cx="70.697" cy="360.616" r="8.679"/>
		<circle style="fill:#003A63;" cx="96.73" cy="385.749" r="8.679"/>
	</g>
</g>
<path style="fill:#8EDBD6;" d="M473.965,298.094L311.119,460.94c-40.782,40.781-106.902,40.781-147.684,0l0,0
	c-40.782-40.782-40.782-106.902,0-147.684L326.281,150.41c40.782-40.782,106.902-40.782,147.684,0l0,0
	C514.746,191.192,514.746,257.312,473.965,298.094z"/>
<path style="fill:#7397DA;" d="M473.965,298.094l-81.423,81.423L244.858,231.833l81.423-81.423
	c40.782-40.782,106.902-40.782,147.684,0l0,0C514.746,191.192,514.746,257.312,473.965,298.094z"/>
<g>
	
		<ellipse transform="matrix(0.7071 -0.7071 0.7071 0.7071 -62.5638 290.8452)" style="fill:#F8B8BD;" cx="319.799" cy="220.944" rx="17.378" ry="21.822"/>
	
		<ellipse transform="matrix(-0.7071 0.7071 -0.7071 -0.7071 904.0751 234.6779)" style="fill:#F8B8BD;" cx="403.434" cy="304.579" rx="17.378" ry="21.822"/>
</g>
<path style="opacity:0.15;fill:#003A63;enable-background:new    ;" d="M300.849,175.842L163.435,313.256
	c-40.782,40.781-40.782,106.902,0,147.684l0,0c40.782,40.782,106.902,40.782,147.684,0l56.299-56.299
	C250.132,411.488,237.825,265.91,300.849,175.842z"/>
<path d="M479.27,145.105c-32.071-32.068-78.921-40.571-118.829-25.507c-8.414-60.552-60.359-106.574-122.615-106.574
	c-25.735,0-50.411,7.822-71.359,22.62c-3.383,2.391-4.188,7.071-1.798,10.454c2.389,3.383,7.07,4.189,10.454,1.799
	c18.403-13,40.086-19.872,62.704-19.872c56.256,0,102.933,42.752,108.294,98.179c-9.023,4.965-17.503,11.261-25.143,18.9l-8.47,8.47
	c0.482-1.571,0.745-3.237,0.745-4.965v-23.536c0-9.357-7.613-16.971-16.971-16.971h-29.718V78.385c0-9.357-7.613-16.97-16.97-16.97
	h-23.536c-9.358,0-16.97,7.612-16.97,16.97v29.718H179.37c-9.357,0-16.97,7.613-16.97,16.971v23.536
	c0,9.357,7.613,16.97,16.97,16.97h29.718v29.719c0,9.357,7.613,16.97,16.97,16.97h23.536c1.727,0,3.394-0.263,4.965-0.745
	l-26.669,26.669c-20.323-29.252-52.363-48.534-87.525-52.91c-7.436-14.954-11.356-31.616-11.356-48.44
	c0-23.95,7.628-46.666,22.058-65.692c2.503-3.3,1.857-8.006-1.443-10.509c-3.301-2.506-8.006-1.857-10.509,1.443
	c-16.426,21.655-25.108,47.507-25.108,74.758c0,16.327,3.255,32.521,9.464,47.498C55.242,185.205,0,240.968,0,309.399
	c0,68.968,56.11,125.077,125.078,125.077c3.517,0,7.055-0.165,10.574-0.46c5.378,11.68,12.869,22.618,22.479,32.229
	c21.82,21.82,50.483,32.73,79.146,32.73c28.662,0,57.325-10.909,79.146-32.73l13.984-13.984c2.929-2.93,2.929-7.679,0-10.609
	c-2.929-2.927-7.678-2.929-10.608,0l-13.984,13.984c-18.307,18.308-42.647,28.39-68.538,28.39s-50.231-10.083-68.538-28.391
	c-37.792-37.791-37.792-99.283,0-137.075l76.12-76.12l137.075,137.076l-37.271,37.271c-2.929,2.93-2.929,7.679,0,10.608
	c2.93,2.928,7.679,2.926,10.609,0L479.27,303.397C522.91,259.757,522.91,188.747,479.27,145.105z M130.115,419.345
	c-1.681,0.076-3.362,0.129-5.038,0.129c-58.175,0-105.946-45.365-109.815-102.574h134.835
	C126.446,346.227,119.784,384.806,130.115,419.345z M164.185,301.898H15.263c3.869-57.211,51.64-102.575,109.815-102.575
	c37.013,0,71.746,18.9,92.01,49.672L164.185,301.898z M251.562,158.08v37.22c0,1.085-0.883,1.968-1.968,1.968h-23.536
	c-1.085,0-1.968-0.883-1.968-1.968v-37.22c0-4.143-3.358-7.501-7.501-7.501h-37.219c-1.085,0-1.968-0.883-1.968-1.968v-23.536
	c0-1.086,0.883-1.969,1.968-1.969h37.219c4.142,0,7.501-3.357,7.501-7.501V78.385c0-1.085,0.883-1.968,1.968-1.968h23.536
	c1.085,0,1.968,0.883,1.968,1.968v37.219c0,4.143,3.358,7.501,7.501,7.501h37.219c1.086,0,1.969,0.883,1.969,1.969v23.536
	c0,1.085-0.883,1.968-1.969,1.968h-37.219C254.92,150.579,251.562,153.936,251.562,158.08z M301.248,164.835l-35.429,35.429
	c0.482-1.571,0.745-3.238,0.745-4.965v-29.719h29.718C298.008,165.58,299.675,165.317,301.248,164.835z M468.661,292.789
	l-76.119,76.119L255.466,231.833l76.12-76.119c37.791-37.793,99.284-37.793,137.076,0
	C506.453,193.506,506.453,254.997,468.661,292.789z M406.847,272.571l-5.449,5.449c-2.929,2.93-2.929,7.679,0,10.608
	c1.465,1.464,3.385,2.196,5.305,2.196c1.919,0,3.839-0.732,5.305-2.196l5.449-5.449c2.929-2.93,2.929-7.679,0-10.609
	C414.525,269.644,409.777,269.644,406.847,272.571z M341.195,206.92l-5.449,5.449c-2.929,2.93-2.929,7.679,0,10.608
	c1.465,1.464,3.385,2.196,5.305,2.196c1.919,0,3.839-0.732,5.305-2.196l5.449-5.449c2.929-2.93,2.929-7.679,0-10.608
	C348.873,203.991,344.125,203.991,341.195,206.92z M381.774,251.911c-2.528,0.17-4.996-0.75-6.778-2.532
	c-1.783-1.782-2.706-4.253-2.532-6.778c0.284-4.133-2.836-7.714-6.969-7.998c-4.147-0.276-7.714,2.836-7.998,6.969
	c-0.471,6.854,2.04,13.565,6.891,18.416c4.464,4.463,10.505,6.947,16.782,6.946c0.542,0,1.088-0.019,1.634-0.056
	c4.132-0.284,7.253-3.864,6.969-7.998C389.488,254.747,385.905,251.632,381.774,251.911z"/>
<g>
</g>
<g>
</g>
<g>
</g>
<g>
</g>
<g>
</g>
<g>
</g>
<g>
</g>
<g>
</g>
<g>
</g>
<g>
</g>
<g>
</g>
<g>
</g>
<g>
</g>
<g>
</g>
<g>
</g>
</svg>
