<?xml version="1.0" encoding="iso-8859-1"?>
<!-- Generator: Adobe Illustrator 19.0.0, SVG Export Plug-In . SVG Version: 6.00 Build 0)  -->
<svg version="1.1" id="Capa_1" xmlns="http://www.w3.org/2000/svg" xmlns:xlink="http://www.w3.org/1999/xlink" x="0px" y="0px"
	 viewBox="0 0 512 512" style="enable-background:new 0 0 512 512;" xml:space="preserve">
<path style="fill:#495059;" d="M91.069,480.789c-30.235,0-57.277-15.653-72.337-41.871c-15.059-26.219-14.954-57.463,0.281-83.581
	l164.93-282.74C199.061,46.682,225.998,31.21,256,31.21c30.003,0,56.939,15.471,72.057,41.387l164.93,282.74
	c15.234,26.118,15.34,57.362,0.281,83.581c-15.059,26.218-42.102,41.871-72.337,41.871H91.069z"/>
<path style="opacity:0.1;enable-background:new    ;" d="M211.827,43.727c-11.263,7.029-20.853,16.818-27.884,28.871l-164.93,282.74
	c-15.234,26.118-15.34,57.362-0.281,83.581c15.059,26.218,42.102,41.871,72.337,41.871h232.145
	C167.461,422.85,158.345,166.702,211.827,43.727z"/>
<path style="fill:#F1C372;" d="M420.932,449.672H91.069c-40.366,0-65.517-43.788-45.178-78.656L210.823,88.276
	c20.182-34.598,70.173-34.598,90.355,0l164.931,282.739C486.449,405.883,461.298,449.672,420.932,449.672z"/>
<g>
	<path style="fill:#495059;" d="M256,321.09L256,321.09c-19.874,0-36.456-15.182-38.205-34.979l-9.267-104.919
		c-2.461-27.867,19.497-51.85,47.472-51.85l0,0c27.975,0,49.933,23.983,47.472,51.85l-9.267,104.92
		C292.457,305.908,275.874,321.09,256,321.09z"/>
	<circle style="fill:#495059;" cx="255.998" cy="379.622" r="35.118"/>
</g>
<g>
	<ellipse style="fill:#FFFFFF;" cx="154.433" cy="402.371" rx="37.476" ry="29.845"/>
	<ellipse style="fill:#FFFFFF;" cx="357.564" cy="402.371" rx="37.476" ry="29.845"/>
</g>
<path style="opacity:0.15;fill:#8D4330;enable-background:new    ;" d="M177.058,146.158L45.892,371.015
	c-20.339,34.867,4.811,78.656,45.178,78.656h184.784C168.689,390.566,165.281,236.796,177.058,146.158z"/>
<path d="M160.697,343.549c-4.143,0-7.5,3.358-7.5,7.5v16.086c0,4.143,3.357,7.5,7.5,7.5c4.143,0,7.5-3.357,7.5-7.5v-16.086
	C168.197,346.905,164.84,343.549,160.697,343.549z M256,337.011c-23.498,0-42.615,19.117-42.615,42.615s19.117,42.615,42.615,42.615
	c23.498,0,42.615-19.117,42.615-42.615C298.615,356.128,279.498,337.011,256,337.011z M256,407.242
	c-15.227,0-27.616-12.388-27.616-27.616c0-15.227,12.388-27.616,27.616-27.616c15.228,0,27.616,12.388,27.616,27.616
	C283.616,394.853,271.229,407.242,256,407.242z M307.656,84.497C296.818,65.92,277.508,54.828,256,54.828
	s-40.818,11.091-51.656,29.669L39.414,367.236c-10.921,18.723-10.996,41.122-0.201,59.917
	c10.795,18.796,30.182,30.018,51.857,30.018h329.862c21.676,0,41.062-11.221,51.857-30.018c10.795-18.795,10.72-41.194-0.201-59.917
	L307.656,84.497z M459.782,419.683c-8.088,14.081-22.611,22.488-38.851,22.488H91.07c-16.239,0-30.764-8.407-38.85-22.488
	c-8.087-14.081-8.031-30.862,0.151-44.889l164.93-282.739C225.42,78.137,239.887,69.827,256,69.827s30.581,8.31,38.699,22.228
	l164.93,282.74C467.812,388.821,467.869,405.602,459.782,419.683z M461.475,461.717c-11.987,7.571-26.008,11.572-40.544,11.572
	H91.07c-27.517,0-52.129-14.245-65.834-38.106c-13.705-23.861-13.609-52.298,0.256-76.066l145.026-248.617
	c2.087-3.578,0.878-8.171-2.699-10.258c-3.578-2.088-8.171-0.879-10.258,2.699L12.535,351.557
	c-16.603,28.467-16.719,62.52-0.307,91.096c16.414,28.576,45.888,45.636,78.841,45.636h329.862c17.375,0,34.164-4.803,48.554-13.889
	c3.502-2.212,4.548-6.844,2.337-10.346C469.609,460.552,464.977,459.507,461.475,461.717z M351.304,343.549
	c-4.143,0-7.5,3.358-7.5,7.5v16.086c0,4.143,3.357,7.5,7.5,7.5c4.143,0,7.5-3.357,7.5-7.5v-16.086
	C358.804,346.905,355.446,343.549,351.304,343.549z M256,121.842c-15.432,0-30.261,6.528-40.681,17.909
	c-10.422,11.382-15.619,26.727-14.262,42.1l9.268,104.92c2.106,23.841,21.742,41.819,45.676,41.819s43.569-17.978,45.676-41.819
	l9.268-104.92c1.357-15.373-3.841-30.718-14.262-42.1C286.261,128.37,271.433,121.842,256,121.842z M296.003,180.53l-9.268,104.92
	c-1.417,16.042-14.63,28.141-30.735,28.141s-29.318-12.098-30.735-28.141l-9.268-104.92c-1.003-11.355,2.685-22.241,10.384-30.65
	S244.6,136.841,256,136.841c11.4,0,21.92,4.631,29.619,13.039C293.318,158.289,297.005,169.175,296.003,180.53z M499.466,351.557
	L334.535,68.818C318.057,40.574,288.699,23.712,256,23.712c-32.698,0-62.057,16.862-78.534,45.107l-2.111,3.619
	c-2.087,3.578-0.879,8.17,2.699,10.258c3.577,2.088,8.17,0.88,10.258-2.699l2.111-3.619C204.181,52.791,228.696,38.711,256,38.711
	s51.82,14.08,65.578,37.666l164.93,282.74c13.865,23.769,13.961,52.206,0.257,76.064c-0.707,1.231-1.445,2.44-2.192,3.595
	c-2.252,3.477-1.259,8.121,2.218,10.372c1.26,0.816,2.673,1.206,4.07,1.206c2.458,0,4.866-1.207,6.302-3.424
	c0.892-1.376,1.769-2.814,2.609-4.276C516.184,414.078,516.069,380.024,499.466,351.557z"/>
<g>
</g>
<g>
</g>
<g>
</g>
<g>
</g>
<g>
</g>
<g>
</g>
<g>
</g>
<g>
</g>
<g>
</g>
<g>
</g>
<g>
</g>
<g>
</g>
<g>
</g>
<g>
</g>
<g>
</g>
</svg>
