<svg id="_01-Lungs" height="512" viewBox="0 0 64 64" width="512" xmlns="http://www.w3.org/2000/svg" data-name="01-Lungs"><path d="m35 8a2.006 2.006 0 0 1 2 2 2.015 2.015 0 0 1 -2 2h-6a2.006 2.006 0 0 1 -2-2 2.015 2.015 0 0 1 2-2z" fill="#d1093a"/><path d="m39 34v5h-1c-6 0-6-5-6-5 0 5-6 5-6 5h-1v-5h1a2.938 2.938 0 0 0 3-3v-19h6v19a2.938 2.938 0 0 0 3 3z" fill="#c83c50"/><path d="m25 39v8.96a6.018 6.018 0 0 1 -6 6.03l-14 .01a4.01 4.01 0 0 1 -4-4.02v-1.01c0-11.51 16.42-38.93 22.75-31.9a5.162 5.162 0 0 1 1.25 3.45z" fill="#f25a6b"/><path d="m63 48.97v1.01a4.01 4.01 0 0 1 -4 4.02l-14-.01a6.018 6.018 0 0 1 -6-6.03v-27.44a5.162 5.162 0 0 1 1.25-3.45c6.33-7.03 22.75 20.39 22.75 31.9z" fill="#f25a6b"/><path d="m36.41 9.41a1.955 1.955 0 0 1 -1.41.59h-6a2 2 0 0 1 -1.721-1 1.963 1.963 0 0 0 -.279 1 2.006 2.006 0 0 0 2 2h6a1.984 1.984 0 0 0 1.721-3 1.938 1.938 0 0 1 -.311.41z" fill="#a30034"/><path d="m38 34a3.572 3.572 0 0 1 -1-.133v1.6a1 1 0 0 1 -1.639.773c-1.105-.979-2.361-3.197-2.361-8.24v-12a2 2 0 0 1 2-2v-2h-6v2a2 2 0 0 1 2 2v12c0 5.043-1.256 7.261-2.361 8.235a1 1 0 0 1 -1.639-.773v-1.6a3.572 3.572 0 0 1 -1 .138h-1v5h1s6 0 6-5c0 0 0 5 6 5h1v-5z" fill="#a13040"/><path d="m59 49.01a16 16 0 0 1 -16-16v-13a3.982 3.982 0 0 1 1.982-3.435c-1.834-.913-3.481-.884-4.732.5a5.162 5.162 0 0 0 -1.25 3.455v27.44a6.018 6.018 0 0 0 6 6.03l14 .01a4.01 4.01 0 0 0 4-4.02v-1.01a16.977 16.977 0 0 0 -.241-2.648 3.989 3.989 0 0 1 -3.759 2.678z" fill="#c83c50"/><path d="m5 49.01a16 16 0 0 0 16-16v-13a3.982 3.982 0 0 0 -1.982-3.435c1.834-.913 3.481-.884 4.732.5a5.162 5.162 0 0 1 1.25 3.455v27.44a6.018 6.018 0 0 1 -6 6.03l-14 .01a4.01 4.01 0 0 1 -4-4.02v-1.01a16.977 16.977 0 0 1 .241-2.648 3.989 3.989 0 0 0 3.759 2.678z" fill="#c83c50"/><g fill="#ff9696"><path d="m52.967 34.272c.807 1.65 1.742 3.237 2.665 4.829.726 1.253 1.366 3.31 3.3 2.827.04-.01.08-.021.119-.034 1.385-.463.91-2.415.658-3.421a18.316 18.316 0 0 0 -.876-2.274 11.683 11.683 0 0 0 -2.612-4.363 10.348 10.348 0 0 0 -1.45-1.213c-.763-.515-2.013-1.091-2.564-.011a3.012 3.012 0 0 0 .278 2.642q.234.513.482 1.018z"/><path d="m60.951 46.038c.012-.066.022-.13.032-.188a2.792 2.792 0 0 0 -.013-.677 6.17 6.17 0 0 0 -.267-1.4c-.136-.421-.336-.857-.776-.753a.7.7 0 0 0 -.478.51 2.488 2.488 0 0 0 -.024.68 2.521 2.521 0 0 1 -.113.93c-.059.141-.159.222-.211.37a1.374 1.374 0 0 0 .145 1.332.772.772 0 0 0 .489.156 1.3 1.3 0 0 0 .533-.05 1.28 1.28 0 0 0 .495-.39 1.148 1.148 0 0 0 .188-.52z"/><path d="m12.033 34.272c-.807 1.65-1.742 3.237-2.665 4.829-.726 1.253-1.366 3.31-3.3 2.827-.04-.01-.08-.021-.119-.034-1.385-.463-.91-2.415-.658-3.421a18.316 18.316 0 0 1 .872-2.273 11.683 11.683 0 0 1 2.612-4.363 10.348 10.348 0 0 1 1.45-1.213c.763-.515 2.013-1.091 2.564-.011a3.012 3.012 0 0 1 -.278 2.642q-.229.512-.478 1.017z"/><path d="m4.049 46.038c-.012-.066-.022-.13-.032-.188a2.792 2.792 0 0 1 .013-.677 6.17 6.17 0 0 1 .267-1.4c.136-.421.336-.857.776-.753a.7.7 0 0 1 .478.51 2.488 2.488 0 0 1 .024.68 2.521 2.521 0 0 0 .113.93c.059.141.159.222.211.37a1.374 1.374 0 0 1 -.145 1.332.772.772 0 0 1 -.489.156 1.3 1.3 0 0 1 -.533-.05 1.28 1.28 0 0 1 -.5-.39 1.148 1.148 0 0 1 -.183-.52z"/></g></svg>