<svg height="512" viewBox="0 0 64 64" width="512" xmlns="http://www.w3.org/2000/svg"><g id="_02-Hospital_Bed" data-name="02-Hospital Bed"><path d="m63 33v5h-2-4-50-4-2v-5h4 54z" fill="#e1e7f7"/><path d="m63 27v6h-4v-6a2 2 0 0 1 4 0z" fill="#d3d9f2"/><path d="m61 47.54a3.974 3.974 0 1 1 -2-.54 3.98 3.98 0 0 1 2 .54zm-1 3.46a1 1 0 1 0 -1 1 1 1 0 0 0 1-1z" fill="#484c6b"/><path d="m61 38v9.54a3.974 3.974 0 0 0 -4 0v-9.54z" fill="#848ab8"/><path d="m59 27v6h-54v-6h2 8 6 15z" fill="#5369f5"/><path d="m7 42h50v3h-50z" fill="#60658f"/><path d="m32 12v7l-4 1-4-1v-7h4z" fill="#a6c9ff"/><rect fill="#a6c9ff" height="6" rx="2" width="12" x="5" y="21"/><path d="m3 47.54a4 4 0 1 1 -2 3.46 3.989 3.989 0 0 1 2-3.46zm3 3.46a1 1 0 1 0 -1 1 1 1 0 0 0 1-1z" fill="#484c6b"/><path d="m7 45v2.54a3.974 3.974 0 0 0 -4 0v-9.54h4z" fill="#848ab8"/><path d="m5 27v6h-4v-14a2 2 0 0 1 4 0z" fill="#d3d9f2"/><rect fill="#a8accf" height="2" rx="1" width="16" x="13" y="8"/><path d="m20 10h2v17h-2z" fill="#a8accf"/><g fill="#e1e7f7"><circle cx="59" cy="51" r="1"/><circle cx="5" cy="51" r="1"/><path d="m24 12v7l4 1 4-1v-7zm7 6.219-3 .75-3-.75v-5.219h6z"/></g><circle cx="5" cy="51" fill="#60658f" r="1"/><path d="m28 9h-14a.986.986 0 0 1 -.847-.5.977.977 0 0 0 -.153.5 1 1 0 0 0 1 1h14a1 1 0 0 0 1-1 .977.977 0 0 0 -.153-.5.986.986 0 0 1 -.847.5z" fill="#848ab8"/><path d="m27.5 10v2h1v-2.153a.977.977 0 0 1 -.5.153z" fill="#a6c9ff"/><path d="m33 22.5h-2a2.5 2.5 0 0 1 -2.5-2.5v-.125l-.5.125-.5-.125v.125a3.5 3.5 0 0 0 3.5 3.5h2a2.5 2.5 0 0 1 2.5 2.5v1h1v-1a3.5 3.5 0 0 0 -3.5-3.5z" fill="#a6c9ff"/><path d="m22 10h-2v17h1v-15h1z" fill="#848ab8"/><path d="m27 14h5v1h-5z" fill="#e1e7f7"/><path d="m27 16h5v1h-5z" fill="#e1e7f7"/><path d="m8 27a4 4 0 0 0 4 4h40a4 4 0 0 0 4-4h3v6h-54v-6z" fill="#3b51c4"/><path d="m7 22v-1a2.006 2.006 0 0 0 -2 2v2a2.006 2.006 0 0 0 2 2h8a2.006 2.006 0 0 0 2-2h-7a3 3 0 0 1 -3-3z" fill="#78a2ff"/><path d="m61 30v-4a1 1 0 0 1 .583-.9 1.978 1.978 0 0 0 -.583-.1 2.006 2.006 0 0 0 -2 2v6h4v-2h-1a1 1 0 0 1 -1-1z" fill="#848ab8"/><path d="m3 30v-12a1 1 0 0 1 .583-.9 1.978 1.978 0 0 0 -.583-.1 2.006 2.006 0 0 0 -2 2v14h4v-2h-1a1 1 0 0 1 -1-1z" fill="#848ab8"/><path d="m3 33v1a2 2 0 0 0 2 2h54a2 2 0 0 0 2-2v-1h2v5h-62v-5z" fill="#a8accf"/><rect fill="#848ab8" height="2" rx="1" width="5" x="41" y="36"/><rect fill="#848ab8" height="2" rx="1" width="24" x="15" y="36"/><path d="m10 42a2 2 0 0 0 2 2h40a2 2 0 0 0 2-2h3v3h-50v-3z" fill="#373a52"/><path d="m57 38v9.54a3.989 3.989 0 0 1 2-.54v-4a2 2 0 0 1 2-2v-3z" fill="#60658f"/><path d="m3 38v9.54a3.989 3.989 0 0 1 2-.54v-4a2 2 0 0 1 2-2v-3z" fill="#60658f"/><path d="m59 49a2 2 0 1 0 2 2 2 2 0 0 0 -2-2zm0 3a1 1 0 1 1 1-1 1 1 0 0 1 -1 1z" fill="#848ab8"/><path d="m5 49a2 2 0 1 0 2 2 2 2 0 0 0 -2-2zm0 3a1 1 0 1 1 1-1 1 1 0 0 1 -1 1z" fill="#848ab8"/><circle cx="59" cy="51" fill="#60658f" r="1"/></g></svg>