<svg height="512" viewBox="0 0 64 64" width="512" xmlns="http://www.w3.org/2000/svg"><g id="_05-Syringe" data-name="05-Syringe"><path d="m63 18a4 4 0 0 1 -8 0c0-2.21 4-8 4-8s4 5.79 4 8z" fill="#6b95ff"/><path d="m26 50-3 3-3-3-6-6-3-3 3-3z" fill="#e1e7f7"/><path d="m14 60-3 3-10-10 3-3 2 2 6 6z" fill="#f7f7ff"/><path d="m7.343 46.757h11.314v8.485h-11.314z" fill="#e1e7f7" transform="matrix(.707 -.707 .707 .707 -32.255 24.13)"/><path d="m63 1-16 16-2-2 14-14z" fill="#5369f5"/><path d="m52 22-3 3-10-10 3-3 3 3 2 2z" fill="#d3d9f2"/><path d="m51 27-24 24-1-1-12-12-1-1 24-24 2 2 10 10zm-8 3 3-3-9-9-19 19 9 9 4-4 3-3 3-3 3-3z" fill="#f7f7ff"/><path d="m43 30-3 3-3 3-3 3-3 3-4 4-9-9 19-19 9 9z" fill="#5369f5"/><path d="m20 50-6-6-2.5 2.5 2.086 2.086a2 2 0 0 1 0 2.828l-4.086 4.086 2.5 2.5z" fill="#848ab8"/><path d="m12.414 58.586a2 2 0 0 1 -2.828 0l-7.086-7.086-1.5 1.5 10 10 3-3-1.5-1.5z" fill="#c7ccf0"/><path d="m26 50-12-12-1 1 8.586 8.586a2 2 0 0 1 0 2.828l-.586.586 2 2z" fill="#b8bce0"/><path d="m46.879 20.879-6.879-6.879-1 1 10 10 3-3-1.012-1.012a2.992 2.992 0 0 1 -4.109-.109z" fill="#848ab8"/><path d="m47.5 15.5a.707.707 0 0 1 -1-1l13.5-13.5h-1l-14 14 2 2 16-16h-1z" fill="#c7ccf0"/><path d="m47 23-2.5 2.5 1.5 1.5-3 3-3 3-3 3-3 3-3 3-4 4-9-9 1.5-1.5-2.5-2.5-4 4 1 1 12 12 1 1 24-24-2-2z" fill="#d3d9f2"/><path d="m19.929 35.929-.429-.429-1.5 1.5 9 9 4-4 3-3 3-3 3-3 3-3 3-3-1.5-1.5-10.429 10.429a10 10 0 0 1 -14.142 0z" fill="#3b51c4"/><path d="m28 37.172h2v5.657h-2z" fill="#b8bce0" transform="matrix(.707 -.707 .707 .707 -19.79 32.222)"/><path d="m31.5 35.379h2v4.243h-2z" fill="#b8bce0" transform="matrix(.707 -.707 .707 .707 -16.997 33.964)"/><path d="m34 31.172h2v5.657h-2z" fill="#b8bce0" transform="matrix(.707 -.707 .707 .707 -13.79 34.707)"/><path d="m37.5 29.379h2v4.243h-2z" fill="#b8bce0" transform="matrix(.707 -.707 .707 .707 -10.997 36.45)"/><path d="m40 25.172h2v5.657h-2z" fill="#b8bce0" transform="matrix(.707 -.707 .707 .707 -7.79 37.192)"/><g fill="#e1e7f7"><path d="m29.054 38.64-1.347-1.347-1.414 1.414.123.123a10.076 10.076 0 0 0 2.638-.19z"/><path d="m31.707 35.293-1.414 1.414 1.118 1.118a9.979 9.979 0 0 0 1.738-1.09z"/><path d="m33.25 31.482h2v3.536h-2z" transform="matrix(.707 -.707 .707 .707 -13.48 33.957)"/><path d="m36.75 29.689h2v2.121h-2z" transform="matrix(.707 -.707 .707 .707 -10.687 35.7)"/><path d="m39.25 25.482h2v3.536h-2z" transform="matrix(.707 -.707 .707 .707 -7.48 36.442)"/></g><path d="m56.2 14.631a9.049 9.049 0 0 0 -1.2 3.369 3.988 3.988 0 0 0 7.46 1.973 6.99 6.99 0 0 1 -6.26-5.342z" fill="#5369f5"/><path d="m59.917 15.547a6.8 6.8 0 0 0 -.247 1.165 2.4 2.4 0 0 0 .041.952 1.617 1.617 0 0 0 .66.871 1.325 1.325 0 0 0 .51.245.982.982 0 0 0 .6-.205c.687-.49.49-1.671.246-2.356-.174-.489-.9-1.96-1.561-1.2a1.419 1.419 0 0 0 -.249.528z" fill="#fff"/></g></svg>