<svg height="512" viewBox="0 0 64 64" width="512" xmlns="http://www.w3.org/2000/svg"><g id="_07-Medicine" data-name="07-Medicine"><path d="m63 31v22h-36v-22zm-11 14v-6h-4v-4h-6v4h-4v6h4v4h6v-4z" fill="#5369f5"/><path d="m33 1v6h-2-28-2v-6z" fill="#e1e7f7"/><path d="m32 11h26a2.006 2.006 0 0 1 2 2v6h-30v-6a2 2 0 0 1 2-2z" fill="#5369f5"/><path d="m3 13h20v24h-20z" fill="#e1e7f7"/><path d="m32 19v4s-5 0-5 5v25h-24v-16h20v-24h-20v-6h28v4l.05.24a2.012 2.012 0 0 0 -1.05 1.76v6z" fill="#d6475c"/><path d="m63 53v6a4 4 0 0 1 -4 4h-28a4 4 0 0 1 -4-4v-6z" fill="#f7f7ff"/><path d="m63 28v3h-36v-3c0-5 5-5 5-5v-4h26v4s5 0 5 5z" fill="#f7f7ff"/><path d="m52 39v6h-4v4h-6v-4h-4v-6h4v-4h6v4z" fill="#d6475c"/><path d="m32 19h26v4h-26z" fill="#b8bce0"/><path d="m34 14h2v5h-2z" fill="#f7f7ff"/><path d="m38 14h2v5h-2z" fill="#f7f7ff"/><path d="m42 14h2v5h-2z" fill="#f7f7ff"/><path d="m46 14h2v5h-2z" fill="#f7f7ff"/><path d="m50 14h2v5h-2z" fill="#f7f7ff"/><path d="m54 14h2v5h-2z" fill="#f7f7ff"/><path d="m32 44v-13h-5v22h8.02a14.912 14.912 0 0 1 -3.02-9z" fill="#3b51c4"/><path d="m61 59h-14a14.962 14.962 0 0 1 -11.98-6h-8.02v6a4 4 0 0 0 4 4h28a4 4 0 0 0 4-4v-2a2 2 0 0 1 -2 2z" fill="#b8bce0"/><path d="m32 28.559a5.257 5.257 0 0 1 3.305-4.881 2.7 2.7 0 0 0 .983-.678h-4.288s-5 0-5 5v3h5z" fill="#b8bce0"/><path d="m37 19h-5v4h4.288a2.7 2.7 0 0 0 .712-1.826v-.174h21v-2z" fill="#6c72a1"/><path d="m30 19v-6a2.012 2.012 0 0 1 1.05-1.76l-.05-.24v-4h-28v3h23v9h2v4s-5 0-5 5v9a10 10 0 0 1 -10 10h-10v6h24v-25c0-5 5-5 5-5v-4z" fill="#ad3445"/><path d="m3 13h4v24h-4z" fill="#f7f7ff"/><path d="m3 10h4v3h-4z" fill="#ff636e"/><path d="m3 37h4v10h-4z" fill="#ff636e"/><path d="m4 1v2a2 2 0 0 0 2 2h22a2 2 0 0 0 2-2v-2h3v6h-32v-6z" fill="#b8bce0"/><path d="m52 38h-3v-3a1 1 0 0 0 -1-1h-6a1 1 0 0 0 -1 1v3h-3a1 1 0 0 0 -1 1v6a1 1 0 0 0 1 1h3v3a1 1 0 0 0 1 1h6a1 1 0 0 0 1-1v-3h3a1 1 0 0 0 1-1v-6a1 1 0 0 0 -1-1zm0 7h-4v4h-6v-4h-4v-6h4v-4h6v4h4z" fill="#f7f7ff"/><path d="m54.7 32.557a1.274 1.274 0 0 0 -.7 1.117 5.9 5.9 0 0 0 1.088 2.757 10.792 10.792 0 0 0 2.3 2.793 3.762 3.762 0 0 0 .983.656c1.127.473 2.091-.552 2.663-1.391a5.878 5.878 0 0 0 .966-3.13 3.383 3.383 0 0 0 -.347-1.782 3.589 3.589 0 0 0 -1.8-1.389 4.145 4.145 0 0 0 -1.379-.164q-.757-.036-1.516-.018a4.94 4.94 0 0 0 -2.258.551z" fill="#6b95ff"/><ellipse cx="59.182" cy="43.208" fill="#f6fafd" rx=".825" ry="1.148" transform="matrix(.707 -.707 .707 .707 -13.215 54.528)"/><path d="m40 16a3 3 0 0 1 -3-3v-2h-5a2 2 0 0 0 -2 2v6h30v-3z" fill="#3b51c4"/><g fill="#b8bce0"><path d="m34 14v5h1 1v-5z"/><path d="m38 15.221v3.779h2v-3a2.978 2.978 0 0 1 -2-.779z"/><path d="m42 16v3h1 1v-3z"/><path d="m46 16v3h1 1v-3z"/><path d="m50 16v3h1 1v-3z"/><path d="m54 16v3h1 1v-3z"/><rect height="2" rx="1" width="14" x="6" y="16"/><rect height="2" rx="1" width="9" x="10" y="20"/><rect height="2" rx="1" width="3" x="6" y="20"/></g><path d="m21.15 54.05a2.9 2.9 0 0 1 -4.1 4.1l-4.1-4.1 4.1-4.1z" fill="#d6475c"/><path d="m17.05 49.95-4.1 4.1-4.1-4.1a2.9 2.9 0 0 1 4.1-4.1z" fill="#e1e7f7"/><path d="m21.05 53.95-.636.636a2 2 0 0 1 -2.828 0l-2.586-2.586-2.05 2.05 4.1 4.1a2.9 2.9 0 1 0 4.1-4.1z" fill="#ad3445"/><path d="m8.85 45.85a2.9 2.9 0 0 0 0 4.1l4.1 4.1 2.05-2.05z" fill="#b8bce0"/></g></svg>