<svg height="512" viewBox="0 0 64 64" width="512" xmlns="http://www.w3.org/2000/svg"><g id="_08-Emergency_Call" data-name="08-Emergency Call"><path d="m43 1a20 20 0 0 1 0 40h-16l4.02-4.02a19.977 19.977 0 0 1 11.98-35.98zm7 23v-6h-4v-4h-6v4h-4v6h4v4h6v-4z" fill="#5369f5"/><path d="m50 18v6h-4v4h-6v-4h-4v-6h4v-4h6v4z" fill="#d6475c"/><path d="m44.4 52.27a2.041 2.041 0 0 1 -.11 2.99l-1.4 1.21-9.61-9.61 1.22-1.4a2.057 2.057 0 0 1 2.99-.11z" fill="#5369f5"/><path d="m18.65 26.51a2.057 2.057 0 0 1 -.11 2.99l-1.4 1.22-9.61-9.61 1.21-1.4a2.041 2.041 0 0 1 2.99-.11z" fill="#5369f5"/><path d="m42.89 56.47-7.55 6.53c-14.08-6.14-28.2-20.26-34.34-34.34l6.53-7.55 9.61 9.61-1.81 1.56a63.535 63.535 0 0 0 16.39 16.39l1.56-1.81z" fill="#e1e7f7"/><path d="m28 15a19.912 19.912 0 0 1 2.418-9.541 19.959 19.959 0 0 0 .6 31.521l-4.018 4.02h16a19.99 19.99 0 0 0 17.588-10.467 19.992 19.992 0 0 1 -32.588-15.533z" fill="#3b51c4"/><path d="m18.65 26.51-6.92-6.91a2.041 2.041 0 0 0 -2.99.11l-.526.609a2.027 2.027 0 0 1 2.516.281l6.92 6.91a2.05 2.05 0 0 1 .268 2.532l.622-.542a2.057 2.057 0 0 0 .11-2.99z" fill="#6b95ff"/><path d="m44.4 52.27-6.91-6.92a2.057 2.057 0 0 0 -2.99.11l-.542.622a2.05 2.05 0 0 1 2.532.268l6.91 6.92a2.027 2.027 0 0 1 .281 2.516l.609-.526a2.041 2.041 0 0 0 .11-2.99z" fill="#6b95ff"/><path d="m4.107 25.068-3.107 3.592c6.14 14.08 20.26 28.2 34.34 34.34l3.592-3.107c-14.264-6.305-28.52-20.561-34.825-34.825z" fill="#b8bce0"/><g fill="#f7f7ff"><path d="m30 50 1.493-1.493a63.558 63.558 0 0 1 -16.141-16.2l-1.352 1.693s4 10 16 16z"/><path d="m50 17h-3v-3a1 1 0 0 0 -1-1h-6a1 1 0 0 0 -1 1v3h-3a1 1 0 0 0 -1 1v6a1 1 0 0 0 1 1h3v3a1 1 0 0 0 1 1h6a1 1 0 0 0 1-1v-3h3a1 1 0 0 0 1-1v-6a1 1 0 0 0 -1-1zm0 7h-4v4h-6v-4h-4v-6h4v-4h6v4h4z"/><path d="m45 7.033c-.043 0-.087 0-.131-.005-.286-.018-.577-.028-.869-.028a2 2 0 0 1 0-4c.379 0 .756.013 1.13.037a2 2 0 0 1 -.128 4z"/><path d="m59 22a2 2 0 0 1 -2-2 13.051 13.051 0 0 0 -6.517-11.269 2 2 0 1 1 2-3.464 17.064 17.064 0 0 1 8.517 14.733 2 2 0 0 1 -2 2z"/></g></g></svg>