<svg height="512" viewBox="0 0 64 64" width="512" xmlns="http://www.w3.org/2000/svg"><g id="_13-First_Aid" data-name="13-First Aid"><path d="m10 44h4a2.006 2.006 0 0 1 2 2v1h-8v-1a2.006 2.006 0 0 1 2-2z" fill="#6c72a1"/><path d="m54 44a2.006 2.006 0 0 1 2 2v1h-8v-1a2.006 2.006 0 0 1 2-2z" fill="#6c72a1"/><path d="m8 47h8v1a2.006 2.006 0 0 1 -2 2h-4a2.006 2.006 0 0 1 -2-2z" fill="#60658f"/><path d="m48 47h8v1a2.006 2.006 0 0 1 -2 2h-4a2.006 2.006 0 0 1 -2-2z" fill="#60658f"/><path d="m46 11v4h-4v-3a1 1 0 0 0 -1-1h-2v-4h3a4 4 0 0 1 4 4z" fill="#f7f7ff"/><path d="m25 7v4h-2a1 1 0 0 0 -1 1v3h-4v-4a4 4 0 0 1 4-4z" fill="#f7f7ff"/><path d="m16 15v2a2.006 2.006 0 0 1 -2 2h-4a2.006 2.006 0 0 1 -2-2v-2z" fill="#60658f"/><path d="m56 15v2a2.006 2.006 0 0 1 -2 2h-4a2.006 2.006 0 0 1 -2-2v-2z" fill="#60658f"/><path d="m32 23a13 13 0 1 1 -13 13 13 13 0 0 1 13-13zm7 16v-6h-4v-4h-6v4h-4v6h4v4h6v-4z" fill="#f7f7ff"/><path d="m10 50h4v7h-4z" fill="#d3d9f2"/><path d="m10 19h4v25h-4z" fill="#f7f7ff"/><path d="m50 50h4v7h-4z" fill="#d3d9f2"/><path d="m50 19h4v25h-4z" fill="#f7f7ff"/><path d="m25 7h14v4h-14z" fill="#d6475c"/><path d="m10 50v7h-5a4 4 0 0 1 -4-4v-34a4 4 0 0 1 4-4h3v2a2.006 2.006 0 0 0 2 2v25a2.006 2.006 0 0 0 -2 2v2a2.006 2.006 0 0 0 2 2z" fill="#d6475c"/><path d="m63 19v34a4 4 0 0 1 -4 4h-5v-7a2.006 2.006 0 0 0 2-2v-2a2.006 2.006 0 0 0 -2-2v-25a2.006 2.006 0 0 0 2-2v-2h3a4 4 0 0 1 4 4z" fill="#d6475c"/><path d="m50 50v7h-36v-7a2.006 2.006 0 0 0 2-2v-2a2.006 2.006 0 0 0 -2-2v-25a2.006 2.006 0 0 0 2-2v-2h32v2a2.006 2.006 0 0 0 2 2v25a2.006 2.006 0 0 0 -2 2v2a2.006 2.006 0 0 0 2 2zm-5-14a13 13 0 1 0 -13 13 13 13 0 0 0 13-13z" fill="#d6475c"/><path d="m39 33v6h-4v4h-6v-4h-4v-6h4v-4h6v4z" fill="#d6475c"/><g fill="#ad3445"><path d="m1 49v4a4 4 0 0 0 4 4h5v-4h-5a4 4 0 0 1 -4-4z"/><path d="m59 53h-5v4h5a4 4 0 0 0 4-4v-4a4 4 0 0 1 -4 4z"/><path d="m14 53h36v4h-36z"/><path d="m8 17v-2h-3a4 4 0 0 0 -4 4v4a4 4 0 0 1 4-4h3a2.006 2.006 0 0 0 2 2v-2a2.006 2.006 0 0 1 -2-2z"/><path d="m59 15h-3v2a2.006 2.006 0 0 1 -2 2v2a2.006 2.006 0 0 0 2-2h3a4 4 0 0 1 4 4v-4a4 4 0 0 0 -4-4z"/><path d="m48 17v-2h-32v2a2.006 2.006 0 0 1 -2 2v2a2.006 2.006 0 0 0 2-2h32a2.006 2.006 0 0 0 2 2v-2a2.006 2.006 0 0 1 -2-2z"/></g><path d="m54 21v-2h-4v25h4v-2a2 2 0 0 1 -2-2v-17a2 2 0 0 1 2-2z" fill="#d3d9f2"/><path d="m10 21v23h4v-2a2 2 0 0 1 -2-2v-17a2 2 0 0 1 2-2v-2h-4z" fill="#d3d9f2"/><path d="m41 7v2a3 3 0 0 1 3 3v1a1 1 0 0 0 1 1h1v1h-4v-3a1 1 0 0 0 -1-1h-2v-4z" fill="#b8bce0"/><path d="m23 7v2a3 3 0 0 0 -3 3v1a1 1 0 0 1 -1 1h-1v1h4v-3a1 1 0 0 1 1-1h2v-4z" fill="#b8bce0"/><path d="m27 7a2 2 0 0 0 2 2h6a2 2 0 0 0 2-2h2v4h-14v-4z" fill="#ad3445"/><path d="m39 32h-3v-3a1 1 0 0 0 -1-1h-6a1 1 0 0 0 -1 1v3h-3a1 1 0 0 0 -1 1v6a1 1 0 0 0 1 1h3v3a1 1 0 0 0 1 1h6a1 1 0 0 0 1-1v-3h3a1 1 0 0 0 1-1v-6a1 1 0 0 0 -1-1zm0 7h-4v4h-6v-4h-4v-6h4v-4h6v4h4z" fill="#ad3445"/><path d="m32 22a14 14 0 1 0 14 14 14 14 0 0 0 -14-14zm0 27a13 13 0 1 1 13-13 13 13 0 0 1 -13 13z" fill="#ad3445"/><path d="m54 50v2a2 2 0 0 0 2-2v-2a2.006 2.006 0 0 1 -2 2z" fill="#ad3445"/><path d="m48 48v2a2 2 0 0 0 2 2v-2a2.006 2.006 0 0 1 -2-2z" fill="#ad3445"/><path d="m50 50h4v2h-4z" fill="#999dc2"/><path d="m50 53h4v4h-4z" fill="#999dc2"/><path d="m14 50v2a2 2 0 0 0 2-2v-2a2.006 2.006 0 0 1 -2 2z" fill="#ad3445"/><path d="m8 48v2a2 2 0 0 0 2 2v-2a2.006 2.006 0 0 1 -2-2z" fill="#ad3445"/><path d="m10 50h4v2h-4z" fill="#999dc2"/><path d="m10 53h4v4h-4z" fill="#999dc2"/><path d="m14 44h-4a2 2 0 0 0 -2 2v2a2 2 0 0 0 2 2h4a2 2 0 0 0 2-2v-2a2 2 0 0 0 -2-2zm0 5h-4a1 1 0 0 1 -1-1v-2a1 1 0 0 1 1-1h4a1 1 0 0 1 1 1v2a1 1 0 0 1 -1 1z" fill="#f7f7ff"/><path d="m54 44h-4a2 2 0 0 0 -2 2v2a2 2 0 0 0 2 2h4a2 2 0 0 0 2-2v-2a2 2 0 0 0 -2-2zm0 5h-4a1 1 0 0 1 -1-1v-2a1 1 0 0 1 1-1h4a1 1 0 0 1 1 1v2a1 1 0 0 1 -1 1z" fill="#f7f7ff"/><path d="m8 15h8v1h-8z" fill="#6c72a1"/><path d="m15 15v2a1 1 0 0 1 -1 1h-4a1 1 0 0 1 -1-1v-2h-1v2a2.006 2.006 0 0 0 2 2h4a2.006 2.006 0 0 0 2-2v-2z" fill="#f7f7ff"/><path d="m48 15h8v1h-8z" fill="#6c72a1"/><path d="m55 15v2a1 1 0 0 1 -1 1h-4a1 1 0 0 1 -1-1v-2h-1v2a2.006 2.006 0 0 0 2 2h4a2.006 2.006 0 0 0 2-2v-2z" fill="#f7f7ff"/><rect fill="#fff" height="2" rx="1" transform="matrix(0 -1 1 0 29.5 76.5)" width="3" x="51.5" y="22.5"/><rect fill="#fff" height="2" rx="1" transform="matrix(0 -1 1 0 20 86)" width="14" x="46" y="32"/><rect fill="#fff" height="2" rx="1" transform="matrix(0 -1 1 0 -10.5 36.5)" width="3" x="11.5" y="22.5"/><rect fill="#fff" height="2" rx="1" transform="matrix(0 -1 1 0 -20 46)" width="14" x="6" y="32"/><path d="m56.108 21.557a1.3 1.3 0 0 0 -.608 1.117 6.4 6.4 0 0 0 .952 2.757 10.612 10.612 0 0 0 2.016 2.793 3.286 3.286 0 0 0 .86.656c.986.473 1.83-.552 2.33-1.391a6.471 6.471 0 0 0 .839-3.13 3.809 3.809 0 0 0 -.3-1.782 3.241 3.241 0 0 0 -1.573-1.389 3.193 3.193 0 0 0 -1.206-.164q-.663-.036-1.327-.018a3.894 3.894 0 0 0 -1.983.551z" fill="#f25a6b"/><path d="m7.892 21.557a1.3 1.3 0 0 1 .608 1.117 6.4 6.4 0 0 1 -.952 2.757 10.612 10.612 0 0 1 -2.016 2.793 3.286 3.286 0 0 1 -.86.656c-.986.473-1.83-.552-2.33-1.391a6.471 6.471 0 0 1 -.839-3.13 3.809 3.809 0 0 1 .3-1.782 3.241 3.241 0 0 1 1.573-1.389 3.193 3.193 0 0 1 1.206-.164q.663-.036 1.327-.018a3.894 3.894 0 0 1 1.983.551z" fill="#f25a6b"/></g></svg>