<svg height="512" viewBox="0 0 64 64" width="512" xmlns="http://www.w3.org/2000/svg"><g id="_16-Flask" data-name="16-Flask"><circle cx="25" cy="44" fill="#3b51c4" r="3"/><circle cx="42" cy="51" fill="#3b51c4" r="2"/><path d="m33 7h7v16.43a23 23 0 0 1 6.87 39.11 2.017 2.017 0 0 1 -1.29.46h-27.16a2.017 2.017 0 0 1 -1.29-.46 23 23 0 0 1 6.87-39.11v-16.43zm-16.51 27.05a18.9 18.9 0 0 0 2.4 24.67 1.017 1.017 0 0 0 .7.28h24.82a1.017 1.017 0 0 0 .7-.28 18.983 18.983 0 1 0 -28.62-24.67z" fill="#e6e8ff"/><path d="m47.53 34.05c-1.54.28-1.7 1.95-3.53 1.95-2 0-2-2-4-2s-2 2-4 2-2-2-4-2-2 2-4 2-2-2-4-2-2 2-4 2c-1.82 0-1.98-1.66-3.51-1.95a18.981 18.981 0 0 1 31.04 0z" fill="#fff"/><path d="m18.89 58.72a18.9 18.9 0 0 1 -2.4-24.67c1.53.29 1.69 1.95 3.51 1.95 2 0 2-2 4-2s2 2 4 2 2-2 4-2 2 2 4 2 2-2 4-2 2 2 4 2c1.83 0 1.99-1.67 3.53-1.95a18.962 18.962 0 0 1 -2.42 24.67 1.017 1.017 0 0 1 -.7.28h-24.82a1.017 1.017 0 0 1 -.7-.28zm25.11-7.72a2 2 0 1 0 -2 2 2.006 2.006 0 0 0 2-2zm-16-7a3 3 0 1 0 -3 3 3 3 0 0 0 3-3z" fill="#5369f5"/><rect fill="#e1e7f7" height="6" rx="3" width="22" x="21" y="1"/><path d="m29.85 30.12a18.956 18.956 0 0 1 15.55 5.418c.693-.516 1.115-1.3 2.133-1.488a18.981 18.981 0 0 0 -31.04 0c1.022.194 1.44.991 2.143 1.505a18.815 18.815 0 0 1 11.214-5.435z" fill="#f7f7ff"/><path d="m40 4h-16a2.987 2.987 0 0 1 -2.584-1.5 2.968 2.968 0 0 0 -.416 1.5 3 3 0 0 0 3 3h16a3 3 0 0 0 3-3 2.968 2.968 0 0 0 -.416-1.5 2.987 2.987 0 0 1 -2.584 1.5z" fill="#c2c9ff"/><path d="m47.62 61a2 2 0 0 1 -1.488-3.336 18.939 18.939 0 0 0 -1.844-27.14 2 2 0 1 1 2.59-3.048 22.941 22.941 0 0 1 2.232 32.86 2 2 0 0 1 -1.49.664z" fill="#c2c9ff"/><path d="m16.38 61a2 2 0 0 1 -1.49-.664 22.941 22.941 0 0 1 2.232-32.86 2 2 0 1 1 2.59 3.048 18.939 18.939 0 0 0 -1.844 27.14 2 2 0 0 1 -1.488 3.336z" fill="#c2c9ff"/><rect fill="#d9dcff" height="4" rx="2" width="22" x="21" y="59"/><path d="m24 23 1.257-.419a6.937 6.937 0 0 0 4.743-6.581 4 4 0 0 1 4-4h6v-5h-16z" fill="#afb7f0"/><path d="m11.5 35c-.072 0-.14.017-.211.021a22.779 22.779 0 0 0 -.9 17.782 3.4 3.4 0 0 0 3.836-1.13 18.872 18.872 0 0 1 .493-14.551 3.5 3.5 0 0 0 -3.218-2.122z" fill="#e0e4ff"/><path d="m52.711 35.021c-.071 0-.139-.021-.211-.021a3.5 3.5 0 0 0 -3.217 2.122 18.872 18.872 0 0 1 .493 14.551 3.4 3.4 0 0 0 3.836 1.13 22.779 22.779 0 0 0 -.9-17.782z" fill="#e0e4ff"/><path d="m47.53 34.05a3.368 3.368 0 0 0 -1.756 1.171 18.613 18.613 0 0 1 2.226 8.899 18.2 18.2 0 0 1 -4.96 12.622.817.817 0 0 1 -.589.258h-20.9a.819.819 0 0 1 -.59-.258 18.611 18.611 0 0 1 -2.72-21.512 3.416 3.416 0 0 0 -1.751-1.18 18.9 18.9 0 0 0 2.4 24.67 1.017 1.017 0 0 0 .7.28h24.82a1.017 1.017 0 0 0 .7-.28 18.962 18.962 0 0 0 2.42-24.67z" fill="#3b51c4"/><circle cx="30" cy="45" fill="#8cb0ff" r="1"/><circle cx="35" cy="38" fill="#3b51c4" r="1"/><circle cx="46" cy="46" fill="#3b51c4" r="1"/><circle cx="21" cy="39" fill="#8cb0ff" r="1"/><circle cx="29" cy="33" fill="#6b95ff" r="1"/><circle cx="30.5" cy="37.5" fill="#3b51c4" r=".5"/><g fill="#8cb0ff"><circle cx="34.5" cy="52.5" r=".5"/><circle cx="42.5" cy="44.5" r=".5"/><circle cx="21.5" cy="48.5" r=".5"/><circle cx="36.5" cy="47.5" r=".5"/><circle cx="38.5" cy="55.5" r=".5"/></g><circle cx="37" cy="44" fill="#3b51c4" r="2"/><circle cx="17.5" cy="44.5" fill="#3b51c4" r="1.5"/><circle cx="35" cy="31" fill="#6b95ff" r="2"/><path d="m35.774 15.961c-.817 1.42-1.567 2.887-2.316 4.354a5.585 5.585 0 0 0 -.405.926.866.866 0 0 0 -.046.384.812.812 0 0 0 .442.523 8.311 8.311 0 0 0 4.062.845c.383.013.681.049.932-.358a2.442 2.442 0 0 0 .271-.846 17.857 17.857 0 0 0 .281-3.073 5.046 5.046 0 0 0 -.372-2.563 2.353 2.353 0 0 0 -1.5-1.131c-.623-.138-1.041.402-1.349.939z" fill="#f7f7ff"/><path d="m37.134 34.285a2.533 2.533 0 0 0 -.131.84 2.607 2.607 0 0 0 .729 2.054q1.135 1.314 2.379 2.517c.793.767 1.482 1.646 2.283 2.4a2.389 2.389 0 0 0 2.1.878 2.334 2.334 0 0 0 .953-.358c1.327-.9 1.725-3.223 1.483-4.76a5.765 5.765 0 0 0 -2.591-3.892 7.754 7.754 0 0 0 -5.728-.708 2.839 2.839 0 0 0 -1.242.663 1.045 1.045 0 0 0 -.235.366z" fill="#fff"/><path d="m27.972 52.706a1.1 1.1 0 0 0 -.346-1.083 6.362 6.362 0 0 0 -2.526-1.135 10.987 10.987 0 0 0 -3.269-.488 3.424 3.424 0 0 0 -1.031.128c-.993.322-.869 1.5-.639 2.339a5.667 5.667 0 0 0 1.559 2.494 3.658 3.658 0 0 0 1.418.929 3.356 3.356 0 0 0 2.015-.115 3.045 3.045 0 0 0 .932-.656q.476-.393.915-.821a3.407 3.407 0 0 0 .972-1.592z" fill="#fff"/><rect fill="#f7f7ff" height="3" rx="1.5" width="14" x="25" y="1"/></g></svg>