<svg height="512" viewBox="0 0 64 64" width="512" xmlns="http://www.w3.org/2000/svg"><g id="_17-Appointment" data-name="17-Appointment"><path d="m5 7h54a4 4 0 0 1 4 4v6a0 0 0 0 1 0 0h-62a0 0 0 0 1 0 0v-6a4 4 0 0 1 4-4z" fill="#ad3445"/><path d="m1 17h62a0 0 0 0 1 0 0v42a4 4 0 0 1 -4 4h-54a4 4 0 0 1 -4-4v-42a0 0 0 0 1 0 0z" fill="#848ab8"/><path d="m5 61h54a2 2 0 0 0 2-2v-42h-58v42a2 2 0 0 0 2 2z" fill="#e1e7f7"/><path d="m32 55c-17.135 0-31-7.156-31-16v20a4 4 0 0 0 4 4h54a4 4 0 0 0 4-4v-20c0 8.844-13.865 16-31 16z" fill="#c7ccf0"/><path d="m39 37v6h-4v4h-6v-4h-4v-6h4v-4h6v4z" fill="#d6475c"/><path d="m48 40a16 16 0 1 1 -16-16 16 16 0 0 1 16 16zm-9 3v-6h-4v-4h-6v4h-4v6h4v4h6v-4z" fill="#5369f5"/><path d="m20 34a15.931 15.931 0 0 1 1.041-5.638 15.989 15.989 0 1 0 25.918 17.276 15.985 15.985 0 0 1 -26.959-11.638z" fill="#3b51c4"/><rect fill="#c7ccf0" height="12" rx="3" width="6" x="50" y="1"/><rect fill="#c7ccf0" height="12" rx="3" width="6" x="29" y="1"/><rect fill="#c7ccf0" height="12" rx="3" width="6" x="8" y="1"/><path d="m39 36h-3v-3a1 1 0 0 0 -1-1h-6a1 1 0 0 0 -1 1v3h-3a1 1 0 0 0 -1 1v6a1 1 0 0 0 1 1h3v3a1 1 0 0 0 1 1h6a1 1 0 0 0 1-1v-3h3a1 1 0 0 0 1-1v-6a1 1 0 0 0 -1-1zm0 7h-4v4h-6v-4h-4v-6h4v-4h6v4h4z" fill="#fffdfa"/><path d="m32 23a17 17 0 1 0 17 17 17 17 0 0 0 -17-17zm0 33a16 16 0 1 1 16-16 16 16 0 0 1 -16 16z" fill="#1b2b85"/><path d="m32 29.033c-.043 0-.087 0-.131-.005-.286-.018-.577-.028-.869-.028a2 2 0 0 1 0-4c.379 0 .756.013 1.13.037a2 2 0 0 1 -.128 4z" fill="#f7f7ff"/><path d="m45 42a1.894 1.894 0 0 1 -2-1.765 11.347 11.347 0 0 0 -6.517-9.943 1.658 1.658 0 0 1 -.732-2.411 2.15 2.15 0 0 1 2.732-.646c5.253 2.676 8.517 7.657 8.517 13a1.894 1.894 0 0 1 -2 1.765z" fill="#f7f7ff"/><g fill="#d6475c"><path d="m5 9h1v-2h-1a4 4 0 0 0 -4 4v2a4 4 0 0 1 4-4z"/><path d="m35 7h13v2h-13z"/><path d="m59 7h-3v2h3a4 4 0 0 1 4 4v-2a4 4 0 0 0 -4-4z"/><path d="m14 7h13v2h-13z"/></g><path d="m48 7h2v2h-2z" fill="#ad3445"/><path d="m53 13a3 3 0 0 1 -3-3v-1h-2v3a2.992 2.992 0 0 0 5.86.86 2.873 2.873 0 0 1 -.382.092 2.591 2.591 0 0 1 -.478.048z" fill="#85002a"/><path d="m27 7h2v2h-2z" fill="#ad3445"/><path d="m32 13a3 3 0 0 1 -3-3v-1h-2v3a2.992 2.992 0 0 0 5.86.86 2.873 2.873 0 0 1 -.382.092 2.591 2.591 0 0 1 -.478.048z" fill="#85002a"/><path d="m6 7h2v2h-2z" fill="#ad3445"/><path d="m11 13a3 3 0 0 1 -3-3v-1h-2v3a2.992 2.992 0 0 0 5.86.86 2.873 2.873 0 0 1 -.382.092 2.591 2.591 0 0 1 -.478.048z" fill="#85002a"/><path d="m61 59a2 2 0 0 1 -2 2h-54a2 2 0 0 1 -2-2v-42h-2v42a4 4 0 0 0 4 4h54a4 4 0 0 0 4-4v-42h-2z" fill="#6c72a1"/><path d="m53.892 29.69a1.834 1.834 0 0 0 .856.31 1.726 1.726 0 0 0 1.352-1.008 7.188 7.188 0 0 0 .459-5.992c-.643-1.8-2.392-4.343-4.318-4.871-2.021-.553-4.87.743-5.207 3.009a5.256 5.256 0 0 0 1.423 3.825 18.924 18.924 0 0 0 5.435 4.727z" fill="#fffdfa"/><path d="m56.016 32.309a4.11 4.11 0 0 0 .424 2.134 2.8 2.8 0 0 0 .858 1.122 2.638 2.638 0 0 0 1.191.419.909.909 0 0 0 .455-.026.882.882 0 0 0 .342-.3 3.666 3.666 0 0 0 .714-2.27c-.013-1.026-.475-3.1-1.684-3.358-1.226-.258-2.197 1.229-2.3 2.279z" fill="#fffdfa"/><path d="m11 10v-9a3 3 0 0 0 -3 3v3a3 3 0 0 0 3 3z" fill="#c7ccf0"/><path d="m32 10v-9a3 3 0 0 0 -3 3v3a3 3 0 0 0 3 3z" fill="#c7ccf0"/><path d="m53 10v-9a3 3 0 0 0 -3 3v3a3 3 0 0 0 3 3z" fill="#c7ccf0"/><path d="m53 10v3a3.013 3.013 0 0 0 .478-.048 3.484 3.484 0 0 0 .382-.092 2.985 2.985 0 0 0 2.14-2.86v-3a3 3 0 0 1 -3 3z" fill="#a8accf"/><path d="m50 10a3 3 0 0 0 3 3v-3a3 3 0 0 1 -3-3z" fill="#848ab8"/><path d="m56 7v-3a3 3 0 0 0 -3-3v9a3 3 0 0 0 3-3z" fill="#e1e7f7"/><path d="m32 10v3a3.013 3.013 0 0 0 .478-.048 3.484 3.484 0 0 0 .382-.092 2.985 2.985 0 0 0 2.14-2.86v-3a3 3 0 0 1 -3 3z" fill="#a8accf"/><path d="m29 10a3 3 0 0 0 3 3v-3a3 3 0 0 1 -3-3z" fill="#848ab8"/><path d="m35 7v-3a3 3 0 0 0 -3-3v9a3 3 0 0 0 3-3z" fill="#e1e7f7"/><path d="m11 10v3a3.013 3.013 0 0 0 .478-.048 3.484 3.484 0 0 0 .382-.092 2.985 2.985 0 0 0 2.14-2.86v-3a3 3 0 0 1 -3 3z" fill="#a8accf"/><path d="m8 10a3 3 0 0 0 3 3v-3a3 3 0 0 1 -3-3z" fill="#848ab8"/><path d="m14 7v-3a3 3 0 0 0 -3-3v9a3 3 0 0 0 3-3z" fill="#e1e7f7"/><path d="m61 17v42a2 2 0 0 1 -2 2h-54a2 2 0 0 1 -2-2v-42h-2v42a4 4 0 0 0 4 4h54a4 4 0 0 0 4-4v-42z" fill="#848ab8"/></g></svg>