<svg height="512" viewBox="0 0 64 64" width="512" xmlns="http://www.w3.org/2000/svg"><g id="_18-Doctor" data-name="18-Doctor"><path d="m40 51v6h-7-9v-6h12z" fill="#5369f5"/><path d="m20 27a5.1 5.1 0 0 0 1 3.04c.03.04.05.07.08.11a5.19 5.19 0 0 0 1.92 1.51 3.656 3.656 0 0 0 .46.18 8.975 8.975 0 0 0 2.18 3.52 8.879 8.879 0 0 0 2.36 1.7v5.94l-4.99 1.25-6.01 1.5v-25.75a14.9 14.9 0 0 1 3.52-9.64c.59 1.55 1.18 3.09 1.77 4.64a25.682 25.682 0 0 1 9.73-1.92l-.02.92c-2 3-5 4-9 6v5h-1a2.006 2.006 0 0 0 -2 2z" fill="#373a52"/><path d="m40.99 44.25-4.99-1.25v-5.94a9.011 9.011 0 0 0 4.54-5.22 3.656 3.656 0 0 0 .46-.18 5.19 5.19 0 0 0 1.92-1.51 5.108 5.108 0 0 0 1.08-3.15 2.006 2.006 0 0 0 -2-2h-1v-5c-4-2-7-3-9-6l.02-.92a25.445 25.445 0 0 1 9.69 1.92c.59-1.55 1.18-3.09 1.77-4.64a14.9 14.9 0 0 1 3.52 9.64v25.75z" fill="#373a52"/><path d="m32 46s-1 3-4 3a4.808 4.808 0 0 1 -4.99-4.75l4.99-1.25c0 1.66 1.79 3 4 3z" fill="#f7f7ff"/><path d="m36 43 4.99 1.25a4.808 4.808 0 0 1 -4.99 4.75c-3 0-4-3-4-3 2.21 0 4-1.34 4-3z" fill="#f7f7ff"/><path d="m47.46 45.86-.46-.11-6.01-1.5a4.808 4.808 0 0 1 -4.99 4.75c-3 0-4-3-4-3s-1 3-4 3a4.808 4.808 0 0 1 -4.99-4.75l-6.01 1.5-.46.11a6 6 0 0 0 -4.54 5.82v9.32a2.006 2.006 0 0 0 2 2h19v-6h-9v-6h16v12h12v-11.32a6 6 0 0 0 -4.54-5.82z" fill="#e1e7f7"/><path d="m46 3.77q-1.26 3.285-2.52 6.59c-.59 1.55-1.18 3.09-1.77 4.64a25.513 25.513 0 0 0 -19.42 0c-.59-1.55-1.18-3.09-1.77-4.64q-1.26-3.3-2.52-6.59a36.8 36.8 0 0 1 28 0z" fill="#e1e7f7"/><path d="m33 57h7v6h-7z" fill="#ffcdba"/><path d="m36 37.06v5.94c0 1.66-1.79 3-4 3s-4-1.34-4-3v-5.94a8.716 8.716 0 0 0 2.42.8l.39.06q.33.045.66.06c.17.01.35.02.53.02s.36-.01.53-.02q.33-.015.66-.06l.39-.06a8.716 8.716 0 0 0 2.42-.8z" fill="#ffcdba"/><path d="m21 30.04a5.1 5.1 0 0 1 -1-3.04 2.006 2.006 0 0 1 2-2h1v4c0 .22.01.44.03.65 0 .09.01.18.02.28.02.18.04.35.07.53.04.24.08.47.14.7s.12.46.2.68a3.656 3.656 0 0 1 -.46-.18 5.19 5.19 0 0 1 -1.92-1.51c-.03-.04-.05-.07-.08-.11z" fill="#ffcdba"/><path d="m40.95 29.93c.01-.1.02-.19.02-.28.02-.21.03-.43.03-.65v-4h1a2.006 2.006 0 0 1 2 2 5.108 5.108 0 0 1 -1.08 3.15 5.19 5.19 0 0 1 -1.92 1.51 3.656 3.656 0 0 1 -.46.18c.08-.22.14-.45.2-.68s.1-.46.14-.7c.03-.18.05-.35.07-.53z" fill="#ffeee0"/><path d="m41 25v4c0 .22-.01.43-.03.65 0 .09-.01.18-.02.28-.02.18-.04.35-.07.53-.04.24-.08.47-.14.7s-.12.46-.2.68a9.011 9.011 0 0 1 -4.54 5.22 8.716 8.716 0 0 1 -2.42.8l-.39.06q-.33.045-.66.06c-.17.01-.35.02-.53.02s-.36-.01-.53-.02q-.33-.015-.66-.06l-.39-.06a8.716 8.716 0 0 1 -2.42-.8 8.879 8.879 0 0 1 -2.36-1.7 8.975 8.975 0 0 1 -2.18-3.52c-.08-.22-.14-.45-.2-.68s-.1-.46-.14-.7c-.03-.18-.05-.35-.07-.53-.01-.1-.02-.19-.02-.28-.02-.22-.03-.43-.03-.65v-9c4-2 7-3 9-6 2 3 5 4 9 6z" fill="#ffe0c7"/><path d="m12 57h21a0 0 0 0 1 0 0v6a0 0 0 0 1 0 0h-19a2 2 0 0 1 -2-2v-4a0 0 0 0 1 0 0z" fill="#e1e7f7"/><path d="m48.159 46.1c-3.437.753-5.159 5.9-5.159 5.9l1.69 2.19c1.38 1.73 1.69 3.08.83 5.11l-1.52 3.7h8v-11.32a5.99 5.99 0 0 0 -3.841-5.58z" fill="#e1e7f7"/><path d="m41.92 30.15a5.108 5.108 0 0 0 1.08-3.15 2.006 2.006 0 0 0 -2-2v4a8.972 8.972 0 0 1 -.289 2.254 5.07 5.07 0 0 0 1.209-1.104z" fill="#ffcdba"/><path d="m23 25a2.006 2.006 0 0 0 -2 2 5.034 5.034 0 0 0 2.289 4.254 8.972 8.972 0 0 1 -.289-2.254z" fill="#fcb59a"/><path d="m45 6.387c.334-.872.667-1.747 1-2.617a36.8 36.8 0 0 0 -28 0c.334.87.667 1.745 1 2.617a36.768 36.768 0 0 1 26 0z" fill="#f7f7ff"/><path d="m43 52s1.722-5.147 5.159-5.9a6.054 6.054 0 0 0 -.7-.239l-.459-.111-6.01-1.5a4.808 4.808 0 0 1 -4.99 4.75c-3 0-4-3-4-3s-1 3-4 3a4.5 4.5 0 0 1 -4.351-2.459l-2.392.956a2 2 0 0 0 -1.257 1.857v7.646h4v-6h16v12h4l1.52-3.7c.86-2.03.55-3.38-.83-5.11z" fill="#c7ccf0"/><g fill="#f7f7ff"><path d="m33 57h-17a1 1 0 0 0 -1 1 1 1 0 0 0 1 1h10a4 4 0 0 1 4 4h3z"/><path d="m14 58v-6.28a5 5 0 0 1 3.563-4.789l5.612-1.683a6.552 6.552 0 0 1 -.165-1l-6.01 1.502-.46.11a6 6 0 0 0 -4.54 5.82v8.32a2 2 0 0 0 2-2z"/><path d="m48.159 46.1a4.641 4.641 0 0 0 -1.751.823l.029.009a5 5 0 0 1 3.563 4.788v6.28a2 2 0 0 0 2 2v-8.32a5.99 5.99 0 0 0 -3.841-5.58z"/></g><path d="m48.159 46.1a6.054 6.054 0 0 0 -.7-.239l-.459-.111-6.01-1.5a6.552 6.552 0 0 1 -.165 1l5.583 1.674a4.641 4.641 0 0 1 1.751-.824z" fill="#e1e7f7"/><path d="m33 57h7v4a1 1 0 0 1 -1 1 1 1 0 0 1 -1-1v-1a1 1 0 0 0 -1-1h-4z" fill="#ffe0c7"/><path d="m29.183 40.624a.991.991 0 0 1 1.256-1.138 9.323 9.323 0 0 0 5.561-.029v-2.4a8.716 8.716 0 0 1 -2.42.8l-.39.06q-.33.045-.66.06c-.17.01-.35.02-.53.02s-.36-.01-.53-.02q-.33-.015-.66-.06l-.39-.06a8.716 8.716 0 0 1 -2.42-.8v5.943c0 1.66 1.79 3 4 3a5.169 5.169 0 0 0 1.4-.2c-2.871-.732-3.872-3.4-4.217-5.176z" fill="#fcb59a"/><path d="m25 21.029c3.01-1.436 5.351-2.555 7-5.029 2 3 5 4 9 6v-2c-4-2-7-3-9-6-1.649 2.474-3.99 3.593-7 5.029h-.007l-.6.287c-.451.216-.91.438-1.394.68v9a8.972 8.972 0 0 0 10 8.941 9 9 0 0 1 -7.999-8.937z" fill="#ffcdba"/><path d="m39.606 19.32-.6-.287h-.007v9.967a9 9 0 0 1 -8 8.941 8.972 8.972 0 0 0 10.001-8.941v-9c-.48-.24-.943-.464-1.394-.68z" fill="#ffeee0"/><path d="m41 31.66a5.19 5.19 0 0 0 1.92-1.51 5.108 5.108 0 0 0 1.08-3.15 2.006 2.006 0 0 0 -2-2h-1v-5l3-3 2.35-.65a16.533 16.533 0 0 1 .65 4.65v24.75l-11-2.75v-5.94a8.961 8.961 0 0 0 4.53-5.22h.01a3.656 3.656 0 0 0 .46-.18z" fill="#2c2f42"/><path d="m23 31.66a5.19 5.19 0 0 1 -1.92-1.51 5.108 5.108 0 0 1 -1.08-3.15 2.006 2.006 0 0 1 2-2h1v-5l-3-3-2.35-.65a16.533 16.533 0 0 0 -.65 4.65v24.75l11-2.75v-5.94a8.961 8.961 0 0 1 -4.53-5.22h-.01a3.656 3.656 0 0 1 -.46-.18z" fill="#2c2f42"/><path d="m41 20v5h1a1.975 1.975 0 0 1 1 .279v-7.279z" fill="#161821"/><path d="m45.735 40.912a4 4 0 0 1 -2.735-3.795v-7.089c-.029.039-.05.084-.08.122a5.19 5.19 0 0 1 -1.92 1.51 3.656 3.656 0 0 1 -.46.18h-.01a8.961 8.961 0 0 1 -4.53 5.22v5.94l11 2.75v-4.417z" fill="#161821"/><path d="m22 25h1v-5l-2-2v7.279a1.975 1.975 0 0 1 1-.279z" fill="#181f1f"/><path d="m23.47 31.84h-.01a3.656 3.656 0 0 1 -.46-.18 5.19 5.19 0 0 1 -1.92-1.51c-.03-.038-.051-.083-.08-.122v7.089a4 4 0 0 1 -2.735 3.8l-1.265.416v4.417l11-2.75v-5.94a8.961 8.961 0 0 1 -4.53-5.22z" fill="#161821"/><path d="m31 11c-4.944 0-9.239-1.271-11.438-3.144q.48 1.253.958 2.5c.59 1.55 1.18 3.09 1.77 4.64a25.513 25.513 0 0 1 19.42 0c.59-1.55 1.18-3.09 1.77-4.64q.479-1.254.957-2.5c-2.198 1.873-6.493 3.144-11.437 3.144z" fill="#b8bce0"/><path d="m42 56.062v-2.062a2 2 0 0 0 -2-2v11h4l1.26-3.068a3.932 3.932 0 0 1 -3.26-3.87z" fill="#a8accf"/><path d="m24 52h-1v2a2 2 0 0 1 -2 2h-1v1h4z" fill="#a8accf"/><path d="m26 51v3a2 2 0 0 0 2 2h12v1h-16v-6z" fill="#2e3f99"/><path d="m35 6h-2v-2h-2v2h-2v2h2v2h2v-2h2z" fill="#d6475c"/><path d="m31 53h6v1h-6z" fill="#e1e7f7"/><path d="m27 53h2v1h-2z" fill="#e1e7f7"/><ellipse cx="37" cy="24" fill="#161821" rx="1" ry="2"/><ellipse cx="26.999" cy="24" fill="#161821" rx="1" ry="2"/><path d="m33 27.857c0 1.657-.448 2.143-1 2.143s-1-.486-1-2.143.447-3.857 1-3.857 1 2.2 1 3.857z" fill="#fcb59a"/><path d="m29 32h6s0 2-3 2-3-2-3-2z" fill="#ff8088"/></g></svg>