<svg height="512" viewBox="0 0 64 64" width="512" xmlns="http://www.w3.org/2000/svg"><g id="_19-Medical_History" data-name="19-Medical History"><path d="m48 23a16 16 0 1 1 -16-16 16 16 0 0 1 16 16zm-9 3v-6h-4v-4h-6v4h-4v6h4v4h6v-4z" fill="#5369f5"/><path d="m39 20v6h-4v4h-6v-4h-4v-6h4v-4h6v4z" fill="#d6475c"/><path d="m10 30.55 14.19 11.25-.03.04-19.99 19.99a4.025 4.025 0 0 1 -1.17-2.83v-34z" fill="#e1e7f7"/><path d="m54 30.55 7-5.55v34a4.025 4.025 0 0 1 -1.17 2.83l-19.99-19.99-.03-.04z" fill="#e1e7f7"/><path d="m39.84 41.84 19.99 19.99a4.025 4.025 0 0 1 -2.83 1.17h-50a4.025 4.025 0 0 1 -2.83-1.17l19.99-19.99.03-.04 7.81 6.2 7.81-6.2z" fill="#c7ccf0"/><path d="m10 18v12.55l-7-5.55z" fill="#ad3445"/><path d="m61 25-7 5.55v-12.55z" fill="#ad3445"/><path d="m48 23a16 16 0 1 0 -16 16 16 16 0 0 0 16-16zm-4-16a4 4 0 0 0 4 4h6v19.55l-14.19 11.25-7.81 6.2-7.81-6.2-14.19-11.25v-27.55a2.006 2.006 0 0 1 2-2h32z" fill="#f7f7ff"/><path d="m54 11h-6a4 4 0 0 1 -4-4v-6z" fill="#e1e7f7"/><path d="m10 20v-2l-7 7 7 5.55v-3.379l-4-3.171z" fill="#8c2a38"/><path d="m61 25-7-7v2l4 4-4 3.171v3.379z" fill="#8c2a38"/><path d="m37.473 38.02-5.473 3.98-5.473-3.98a16.009 16.009 0 0 1 -7.135-5.189l-9.392-6.831v4.55l14.19 11.25 7.81 6.2 7.81-6.2 14.19-11.25v-4.55l-9.392 6.831a16.009 16.009 0 0 1 -7.135 5.189z" fill="#e1e7f7"/><path d="m20 17a15.931 15.931 0 0 1 1.041-5.638 15.989 15.989 0 1 0 25.918 17.276 15.985 15.985 0 0 1 -26.959-11.638z" fill="#3b51c4"/><path d="m39 19h-3v-3a1 1 0 0 0 -1-1h-6a1 1 0 0 0 -1 1v3h-3a1 1 0 0 0 -1 1v6a1 1 0 0 0 1 1h3v3a1 1 0 0 0 1 1h6a1 1 0 0 0 1-1v-3h3a1 1 0 0 0 1-1v-6a1 1 0 0 0 -1-1zm0 7h-4v4h-6v-4h-4v-6h4v-4h6v4h4z" fill="#fffdfa"/><path d="m32 6a17 17 0 1 0 17 17 17 17 0 0 0 -17-17zm0 33a16 16 0 1 1 16-16 16 16 0 0 1 -16 16z" fill="#1b2b85"/><path d="m32 12.033c-.043 0-.087 0-.131 0-.286-.023-.577-.033-.869-.033a2 2 0 0 1 0-4c.379 0 .756.013 1.13.037a2 2 0 0 1 -.128 4z" fill="#f7f7ff"/><path d="m45 25a1.894 1.894 0 0 1 -2-1.765 11.347 11.347 0 0 0 -6.517-9.943 1.658 1.658 0 0 1 -.732-2.411 2.15 2.15 0 0 1 2.732-.646c5.253 2.676 8.517 7.657 8.517 13a1.894 1.894 0 0 1 -2 1.765z" fill="#f7f7ff"/><path d="m39.84 41.84-.03-.04-7.81 6.2-7.81-6.2-.03.04-19.99 19.99a4.025 4.025 0 0 0 2.83 1.17h1l17-17 7 5 7-5 17 17h1a4.025 4.025 0 0 0 2.83-1.17z" fill="#b8bce0"/><path d="m24.16 41.84.03-.04-14.19-11.25-7-5.55v4l18.961 15.038z" fill="#d6475c"/><path d="m54 30.55-14.19 11.25.03.04 2.199 2.198 18.961-15.038v-4z" fill="#d6475c"/><path d="m32 51-7-5-.25.25 7.25 5.75 7.25-5.75-.25-.25z" fill="#700029"/><path d="m21.961 44.038 2.789 2.212.25-.25 7 5 7-5 .25.25 2.789-2.212-2.199-2.198-.03-.04-7.81 6.2-7.81-6.2-.03.04z" fill="#ad3445"/><g fill="#f7f7ff"><path d="m58.242 34c1.478.082 1.745 1.938 1.749 2.914v1.187 8.329a4.068 4.068 0 0 1 -.557 2.817 1.687 1.687 0 0 1 -2.216.534 3.494 3.494 0 0 1 -.886-.776 25.7 25.7 0 0 1 -3.061-4.205 7.672 7.672 0 0 1 -1.232-4.533 2.578 2.578 0 0 1 .806-1.576c.591-.515 1.117-1.084 1.68-1.635.661-.646 1.354-1.265 2.057-1.874.418-.361 1.024-1.216 1.66-1.182z"/><path d="m5.749 34c-1.479.083-1.749 1.939-1.749 2.915v1.187 8.328a4.068 4.068 0 0 0 .557 2.817 1.687 1.687 0 0 0 2.216.534 3.489 3.489 0 0 0 .885-.776 25.7 25.7 0 0 0 3.062-4.205 7.68 7.68 0 0 0 1.232-4.533 2.574 2.574 0 0 0 -.807-1.576c-.591-.515-1.116-1.084-1.68-1.635-.66-.646-1.354-1.265-2.056-1.874-.415-.361-1.025-1.216-1.66-1.182z"/></g></g></svg>