<svg height="512" viewBox="0 0 64 64" width="512" xmlns="http://www.w3.org/2000/svg"><g id="_21-Hospital" data-name="21-Hospital"><path d="m16 59v4h-12a2.006 2.006 0 0 1 -2-2v-2z" fill="#ad3445"/><path d="m62 59v2a2.006 2.006 0 0 1 -2 2h-12v-4z" fill="#ad3445"/><path d="m32 63v-24h9a2.006 2.006 0 0 1 2 2v22z" fill="#bfd8ff"/><path d="m32 39v24h-11v-22a2.006 2.006 0 0 1 2-2z" fill="#bfd8ff"/><path d="m6 39h6v6h-6z" fill="#8cb0ff"/><path d="m52 39h6v6h-6z" fill="#8cb0ff"/><path d="m19 27h6v6h-6z" fill="#567bff"/><path d="m29 27h6v6h-6z" fill="#567bff"/><path d="m39 27h6v6h-6z" fill="#567bff"/><path d="m42 1h-20a2.006 2.006 0 0 0 -2 2v18h24v-18a2.006 2.006 0 0 0 -2-2zm-3 13h-4v4h-6v-4h-4v-6h4v-4h6v4h4z" fill="#f7f7ff"/><path d="m39 8v6h-4v4h-6v-4h-4v-6h4v-4h6v4z" fill="#ad3445"/><path d="m50 15v6h-2-4v-6z" fill="#ad3445"/><path d="m20 15v6h-4-2v-6z" fill="#ad3445"/><path d="m16 31v4h-14-1v-4z" fill="#ad3445"/><path d="m63 31v4h-1-14v-4z" fill="#ad3445"/><path d="m2 49h14v10h-14z" fill="#c7ccf0"/><path d="m48 49h14v10h-14z" fill="#c7ccf0"/><path d="m16 35v14h-14v-14zm-4 10v-6h-6v6z" fill="#e1e7f7"/><path d="m62 35v14h-14v-14zm-4 10v-6h-6v6z" fill="#e1e7f7"/><path d="m19 27v6h6v-6zm26 6v-6h-6v6zm3-2v32h-5v-22a2.006 2.006 0 0 0 -2-2h-18a2.006 2.006 0 0 0 -2 2v22h-5v-42h32zm-13 2v-6h-6v6z" fill="#e1e7f7"/><path d="m35 15.95v2.05h-6v-2.05a10 10 0 0 1 -9-9.95v15h24v-15a10 10 0 0 1 -9 9.95z" fill="#d3d9f2"/><path d="m35 18v-2.05c-.329.032-.662.05-1 .05h-4c-.338 0-.671-.018-1-.05v2.05z" fill="#85002a"/><path d="m43 41-11 11v11l11-11z" fill="#e6f0ff"/><path d="m43 41a2.006 2.006 0 0 0 -2-2h-9v13z" fill="#d6e6ff"/><path d="m32 63h11v-11z" fill="#a6c9ff"/><path d="m23 39a2.006 2.006 0 0 0 -2 2v9l11-11z" fill="#e6f0ff"/><path d="m21 63h11v-11z" fill="#e6f0ff"/><path d="m32 39-11 11v13l11-11z" fill="#d6e6ff"/><path d="m42 1h-20a2.006 2.006 0 0 0 -2 2v18h24v-18a2.006 2.006 0 0 0 -2-2zm1 19h-22v-17a1 1 0 0 1 1-1h20a1 1 0 0 1 1 1z" fill="#ad3445"/><path d="m35 15.95v2.05h-6v-2.05a10 10 0 0 1 -9-9.95v15h24v-15a10 10 0 0 1 -9 9.95z" fill="#d3d9f2"/><g fill="#85002a"><path d="m35 18v-2.05c-.329.032-.662.05-1 .05h-4c-.338 0-.671-.018-1-.05v2.05z"/><path d="m43 20h-22v-9.651a9.948 9.948 0 0 1 -1-4.349v15h24v-15a9.948 9.948 0 0 1 -1 4.349z"/><path d="m46 15v1a3 3 0 0 0 3 3h1v2h-6v-6z"/><path d="m18 15v1a3 3 0 0 1 -3 3h-1v2h6v-6z"/><path d="m51 31a2 2 0 0 0 2 2h10v2h-15v-4z"/><path d="m13 31a2 2 0 0 1 -2 2h-10v2h15v-4z"/></g><path d="m45 26h-6a1 1 0 0 0 -1 1v6a1 1 0 0 0 1 1h6a1 1 0 0 0 1-1v-6a1 1 0 0 0 -1-1zm0 7h-6v-6h6z" fill="#c7ccf0"/><path d="m40 33v-4h4v4h1v-6h-6v6z" fill="#3b51c4"/><path d="m35 26h-6a1 1 0 0 0 -1 1v6a1 1 0 0 0 1 1h6a1 1 0 0 0 1-1v-6a1 1 0 0 0 -1-1zm0 7h-6v-6h6z" fill="#c7ccf0"/><path d="m30 33v-4h4v4h1v-6h-6v6z" fill="#3b51c4"/><path d="m25 26h-6a1 1 0 0 0 -1 1v6a1 1 0 0 0 1 1h6a1 1 0 0 0 1-1v-6a1 1 0 0 0 -1-1zm0 7h-6v-6h6z" fill="#c7ccf0"/><path d="m20 33v-4h4v4h1v-6h-6v6z" fill="#3b51c4"/><path d="m52 39h6v6h-6z" fill="#8cb0ff"/><path d="m58 38h-6a1 1 0 0 0 -1 1v6a1 1 0 0 0 1 1h6a1 1 0 0 0 1-1v-6a1 1 0 0 0 -1-1zm0 7h-6v-6h6z" fill="#848ab8"/><path d="m53 45v-4h4v4h1v-6h-6v6z" fill="#3b51c4"/><path d="m52 52h6v6h-6z" fill="#8cb0ff"/><path d="m58 51h-6a1 1 0 0 0 -1 1v6a1 1 0 0 0 1 1h6a1 1 0 0 0 1-1v-6a1 1 0 0 0 -1-1zm0 7h-6v-6h6z" fill="#848ab8"/><path d="m53 58v-4h4v4h1v-6h-6v6z" fill="#3b51c4"/><path d="m62 37h-10a2 2 0 0 0 -2 2v10h-2v-14h14z" fill="#c7ccf0"/><path d="m62 49h-14v10h2v-6a2 2 0 0 1 2-2h10z" fill="#babfe8"/><path d="m60 61h-8a2 2 0 0 1 -2-2h-2v4h12a2.006 2.006 0 0 0 2-2v-2a2 2 0 0 1 -2 2z" fill="#85002a"/><path d="m6 39h6v6h-6z" fill="#8cb0ff"/><path d="m5 39v6a1 1 0 0 0 1 1h6a1 1 0 0 0 1-1v-6a1 1 0 0 0 -1-1h-6a1 1 0 0 0 -1 1zm1 0h6v6h-6z" fill="#848ab8"/><path d="m11 45v-4h-4v4h-1v-6h6v6z" fill="#3b51c4"/><path d="m6 52h6v6h-6z" fill="#8cb0ff"/><path d="m5 52v6a1 1 0 0 0 1 1h6a1 1 0 0 0 1-1v-6a1 1 0 0 0 -1-1h-6a1 1 0 0 0 -1 1zm1 0h6v6h-6z" fill="#848ab8"/><path d="m11 58v-4h-4v4h-1v-6h6v6z" fill="#3b51c4"/><path d="m2 37h10a2 2 0 0 1 2 2v10h2v-14h-14z" fill="#c7ccf0"/><path d="m2 49h14v10h-2v-6a2 2 0 0 0 -2-2h-10z" fill="#babfe8"/><path d="m4 61h8a2 2 0 0 0 2-2h2v4h-12a2.006 2.006 0 0 1 -2-2v-2a2 2 0 0 0 2 2z" fill="#85002a"/><path d="m16 21h32v3h-32z" fill="#c7ccf0"/><rect fill="#8cb0ff" height="6" rx="1" width="2" x="35" y="48"/><rect fill="#8cb0ff" height="6" rx="1" width="2" x="27" y="48"/><path d="m32 39h-1v24h1 1v-24z" fill="#c7ccf0"/></g></svg>