<svg height="512" viewBox="0 0 64 64" width="512" xmlns="http://www.w3.org/2000/svg"><g id="_23-Bandage" data-name="23-Bandage"><path d="m21 24h2a2.006 2.006 0 0 0 -2 2z" fill="#ad3445"/><path d="m25.18 33.82a6.235 6.235 0 0 1 0 8.81l-4.27 4.28-2 2-8.81-8.81 3-3 3.27-3.28a6.175 6.175 0 0 1 4.4-1.82 1.77 1.77 0 0 1 .23.01 6.189 6.189 0 0 1 4.18 1.81z" fill="#3b51c4"/><path d="m18.91 48.91-7.28 7.27a6.23 6.23 0 0 1 -8.81-8.81l7.28-7.27z" fill="#ad3445"/><path d="m47 26 .02.15c-4.22.53-2.62 2.28-6.02 2.74v-22.89h4a1.959 1.959 0 0 1 2 2z" fill="#c7ccf0"/><path d="m41 6v22.89a15.421 15.421 0 0 1 -2 .11v-3a2.006 2.006 0 0 0 -2-2h-2v-16a2.006 2.006 0 0 0 -2-2z" fill="#999dc2"/><path d="m25 22v2h-2-2v2 2h-6v-4h-4v-6h4v-4h6v4h4z" fill="#fff"/><path d="m35 8v16h-10v-6h-4v-4h-6v4h-4v6h4v4h6v4.01a1.77 1.77 0 0 0 -.23-.01 6.175 6.175 0 0 0 -4.4 1.82l-3.27 3.28-.1-.1h-10a2.006 2.006 0 0 1 -2-2v-27a2.006 2.006 0 0 1 2-2h30a2.006 2.006 0 0 1 2 2z" fill="#d6475c"/><path d="m39 26v2h-18v-2a2.006 2.006 0 0 1 2-2h14a2.006 2.006 0 0 1 2 2z" fill="#6c72a1"/><path d="m39 52v2a2.006 2.006 0 0 1 -2 2h-14a2.006 2.006 0 0 1 -2-2v-2z" fill="#6c72a1"/><path d="m39 29v23h-18v-5l-.09-.09 4.27-4.28a6.219 6.219 0 0 0 -4.18-10.62v-4.01h18z" fill="#e1e7f7"/><path d="m63 29v25c-4 0-4-3-13-3v-25c9 0 9 3 13 3z" fill="#d3d9f2"/><path d="m41 28.89c3.4-.46 1.8-2.21 6.02-2.74a25.938 25.938 0 0 1 2.98-.15v25c-9 0-4 3-11 3v-25a15.421 15.421 0 0 0 2-.11z" fill="#c7ccf0"/><path d="m57 47a25.316 25.316 0 0 0 -7-.641v4.641c9 0 9 3 13 3v-8.121c-1.189 1.143-3.058 1.775-6 1.121z" fill="#c7ccf0"/><path d="m49.475 46.383a5.012 5.012 0 0 1 -5.475-4.975v-14.144a4.18 4.18 0 0 1 -3 1.626 15.421 15.421 0 0 1 -2 .11v25c7 0 2-3 11-3v-4.641c-.171.01-.362.01-.525.024z" fill="#a8accf"/><path d="m16.1 40.1 3.27-3.28a6.175 6.175 0 0 1 4.4-1.82 1.77 1.77 0 0 1 .23.01 6.205 6.205 0 0 1 2.417.595 6.158 6.158 0 0 0 -5.417-3.595 1.77 1.77 0 0 0 -.23-.01 6.175 6.175 0 0 0 -4.4 1.82l-3.27 3.28-3 3 3 3z" fill="#5369f5"/><path d="m5.82 50.37 7.28-7.27-3-3-7.28 7.27a6.207 6.207 0 0 0 1.77 10.04 6.224 6.224 0 0 1 1.23-7.04z" fill="#d6475c"/><path d="m21 26a2.006 2.006 0 0 1 2-2h-2z" fill="#ad3445"/><path d="m21 26v-2h4v-2h-6a2.006 2.006 0 0 0 -2 2v4h4z" fill="#e1e7f7"/><path d="m33 22h-8v2h10a2.006 2.006 0 0 0 -2-2z" fill="#ad3445"/><path d="m13.1 37.1 3.27-3.28a6.175 6.175 0 0 1 4.4-1.82 1.77 1.77 0 0 1 .23.01v-4.01h-4v2.01a1.77 1.77 0 0 0 -.23-.01 6.175 6.175 0 0 0 -4.4 1.82l-3.27 3.28-1.9 1.9h5.8z" fill="#ad3445"/><g fill="#fff"><path d="m50 29.5a.5.5 0 0 1 -.5-.5v-2a.5.5 0 0 1 1 0v2a.5.5 0 0 1 -.5.5z"/><path d="m50 34.5a.5.5 0 0 1 -.5-.5v-2a.5.5 0 0 1 1 0v2a.5.5 0 0 1 -.5.5z"/><path d="m50 39.5a.5.5 0 0 1 -.5-.5v-2a.5.5 0 0 1 1 0v2a.5.5 0 0 1 -.5.5z"/><path d="m50 44.5a.5.5 0 0 1 -.5-.5v-2a.5.5 0 0 1 1 0v2a.5.5 0 0 1 -.5.5z"/></g><path d="m50 50.5a.5.5 0 0 1 -.5-.5v-2a.5.5 0 0 1 1 0v2a.5.5 0 0 1 -.5.5z" fill="#e1e7f7"/><path d="m52.079 29.078a1.546 1.546 0 0 0 -.079.315 20.9 20.9 0 0 0 0 2.875v2.607c0 .764-.182 1.859.332 2.442a1.421 1.421 0 0 0 2.294.175 5.4 5.4 0 0 0 1.137-2.554 13.943 13.943 0 0 0 .17-2.905 6.11 6.11 0 0 0 -.179-1.573 3.686 3.686 0 0 0 -1.811-2.15c-.422-.233-.758-.473-1.174-.161a2.049 2.049 0 0 0 -.69.929z" fill="#e1e7f7"/><path d="m46.4 35.662a2.414 2.414 0 0 0 -.2.208 3.657 3.657 0 0 0 -.681 2.13 6.432 6.432 0 0 0 .173 1.948 5.241 5.241 0 0 0 1.289 2.718c.243.24.647.453.935.26a.6.6 0 0 0 .189-.23 2.628 2.628 0 0 0 .221-1.151l.146-3.724c.022-.566.044-1.134.011-1.7-.019-.312-.056-.852-.392-1.032-.527-.283-1.266.169-1.691.573z" fill="#d3d9f2"/><path d="m33 26h-12v2h14a2 2 0 0 0 -2-2z" fill="#373a52"/><path d="m35 54v-2h-14v2a2.006 2.006 0 0 0 2 2h10a2 2 0 0 0 2-2z" fill="#373a52"/><path d="m27 42.32v-1.32a2.99 2.99 0 0 0 -.223-1.126 6.184 6.184 0 0 1 -1.6 2.756l-4.27 4.28.093.09v4.143l3.206-2.743a8 8 0 0 0 2.794-6.08z" fill="#848ab8"/><path d="m35 28h-14v4.01a6.208 6.208 0 0 1 5.777 7.864 2.99 2.99 0 0 1 .223 1.126v1.32a8 8 0 0 1 -2.794 6.08l-3.206 2.743v.857h14z" fill="#b8bce0"/><path d="m31.008 29.344a2.226 2.226 0 0 0 -1.481 2.282 4.241 4.241 0 0 0 .931 1.605 26.607 26.607 0 0 1 1.574 2.62c.288.5.467 1.062 1.1 1.137 1.761.211 1.32-2.478 1.32-3.576v-1.929c0-1 .158-2.286-1.161-2.452a4.668 4.668 0 0 0 -2.283.313z" fill="#d3d9f2"/><path d="m22.325 33.97a2.7 2.7 0 0 0 -2.248-1.47 3.933 3.933 0 0 0 -1.5.321 6.459 6.459 0 0 0 -2.691 2.636 1.812 1.812 0 0 0 -.387.955 1.183 1.183 0 0 0 1.169 1.088 3.761 3.761 0 0 0 1.632-.5 8.193 8.193 0 0 1 1.866-.619 9.28 9.28 0 0 0 1.206-.237 1.65 1.65 0 0 0 .976-.752 1.62 1.62 0 0 0 -.023-1.422z" fill="#e1e7f7"/><path d="m43 9a1 1 0 0 1 1 1v10a3.992 3.992 0 0 0 3 3.859v-15.859a1.959 1.959 0 0 0 -2-2h-4v3z" fill="#e1e7f7"/><path d="m35 8v1h6v-3h-8a2.006 2.006 0 0 1 2 2z" fill="#c7ccf0"/><path d="m35 8a2.006 2.006 0 0 0 -2-2h-30a2.006 2.006 0 0 0 -2 2v1h34z" fill="#ff475a"/></g></svg>