<?xml version="1.0" encoding="iso-8859-1"?>
<!-- Generator: Adobe Illustrator 19.0.0, SVG Export Plug-In . SVG Version: 6.00 Build 0)  -->
<svg version="1.1" id="Capa_1" xmlns="http://www.w3.org/2000/svg" xmlns:xlink="http://www.w3.org/1999/xlink" x="0px" y="0px"
	 viewBox="0 0 512.001 512.001" style="enable-background:new 0 0 512.001 512.001;" xml:space="preserve">
<path style="fill:#DDEFF5;" d="M400.237,203.662l-23.218-41.516c-13.243-23.68-38.255-38.35-65.387-38.35H75.359
	c-28.217,0-51.092,22.875-51.092,51.092v202.741h466.405V276.778c0-15.433-9.458-29.29-23.831-34.912l-41.312-16.161
	C414.8,221.508,405.86,213.717,400.237,203.662z"/>
<path style="fill:#A8D1EC;" d="M44.131,268.811H24.267v-79.673H44.13c8.219,0,14.881,6.662,14.881,14.881v49.911
	C59.012,262.148,52.349,268.811,44.131,268.811z"/>
<path style="opacity:0.15;fill:#003A63;enable-background:new    ;" d="M149.847,123.795H75.359
	c-28.217,0-51.092,22.875-51.092,51.092v202.741h243.871C196.581,319.887,139.252,221.961,149.847,123.795z"/>
<path style="fill:#E68392;" d="M203.437,192.525h-28.738v-28.738c0-4.038-3.273-7.311-7.311-7.311h-18.174
	c-4.038,0-7.311,3.273-7.311,7.311v28.738h-28.738c-4.038,0-7.311,3.273-7.311,7.311v18.174c0,4.038,3.273,7.311,7.311,7.311h28.738
	v28.738c0,4.038,3.273,7.311,7.311,7.311h18.174c4.038,0,7.311-3.273,7.311-7.311v-28.738h28.738c4.038,0,7.311-3.273,7.311-7.311
	v-18.174C210.748,195.798,207.475,192.525,203.437,192.525z"/>
<rect x="24.267" y="326.351" style="opacity:0.15;fill:#003A63;enable-background:new    ;" width="466.4" height="51.28"/>
<g>
	<path style="fill:#495059;" d="M13.752,342.423h45.259c3.453,0,6.252,2.799,6.252,6.252v31.054c0,3.453-2.799,6.252-6.252,6.252
		H13.752c-3.453,0-6.252-2.799-6.252-6.252v-31.054C7.5,345.223,10.299,342.423,13.752,342.423z"/>
	<path style="fill:#495059;" d="M449.541,342.423h47.992c3.848,0,6.967,3.119,6.967,6.967v29.625c0,3.848-3.119,6.967-6.967,6.967
		h-47.992c-3.848,0-6.967-3.119-6.967-6.967V349.39C442.574,345.543,445.693,342.423,449.541,342.423z"/>
	<circle style="fill:#495059;" cx="135.65" cy="377.631" r="51.28"/>
</g>
<circle style="fill:#E8E9EA;" cx="135.65" cy="377.631" r="23.15"/>
<circle style="fill:#495059;" cx="354.5" cy="377.631" r="51.28"/>
<circle style="fill:#E8E9EA;" cx="354.5" cy="377.631" r="23.15"/>
<path style="fill:#E68392;" d="M294.285,83.091h-43.698c-4.458,0-8.335,3.058-9.373,7.394l-7.973,33.311h78.39l-7.973-33.311
	C302.62,86.149,298.744,83.091,294.285,83.091z"/>
<path style="fill:#A8D1EC;" d="M400.237,203.662l-23.218-41.516c-1.093-1.954-2.274-3.841-3.522-5.67H290.13
	c-6.908,0-12.509,5.6-12.509,12.509v40.307c0,6.908,5.6,12.509,12.509,12.509h127.549
	C410.448,217.373,404.422,211.146,400.237,203.662z"/>
<g>
	<path style="fill:#F1C372;" d="M469.888,303.24h20.785v39.183h-34.744v-25.224C455.928,309.49,462.178,303.24,469.888,303.24z"/>
	<path style="fill:#F1C372;" d="M45.052,303.24H24.267v39.183h34.744v-25.224C59.012,309.49,52.762,303.24,45.052,303.24z"/>
</g>
<g>
	<path style="opacity:0.15;fill:#8D4330;enable-background:new    ;" d="M113.164,225.321h28.738v28.738
		c0,4.038,3.273,7.311,7.311,7.311h18.174c2.93,0,5.45-1.727,6.616-4.215c-14.648-31.758-23.867-65.91-25.24-100.657
		c-3.827,0.233-6.862,3.402-6.862,7.289v28.738h-28.738c-4.038,0-7.311,3.273-7.311,7.311v18.174
		C105.853,222.047,109.126,225.321,113.164,225.321z"/>
	<path style="opacity:0.15;fill:#8D4330;enable-background:new    ;" d="M261.76,83.091h-11.172c-4.458,0-8.335,3.058-9.373,7.394
		l-7.973,33.311h48.642C270.429,112.085,262.385,95.454,261.76,83.091z"/>
</g>
<path d="M98.353,218.01c0,8.167,6.645,14.811,14.812,14.811h21.238v21.238c0,8.167,6.645,14.811,14.812,14.811h18.173
	c8.167,0,14.811-6.644,14.811-14.811v-21.238h21.238c8.167,0,14.812-6.644,14.812-14.811v-18.174
	c0-8.167-6.645-14.812-14.812-14.812h-21.238v-21.238c0-8.167-6.645-14.811-14.811-14.811h-18.173
	c-8.167,0-14.812,6.645-14.812,14.811v21.238h-21.238c-8.167,0-14.812,6.645-14.812,14.812V218.01z M113.353,200.024h28.549
	c4.142,0,7.5-3.358,7.5-7.5v-28.549h17.796v28.549c0,4.142,3.358,7.5,7.5,7.5h28.549v17.796h-28.549c-4.142,0-7.5,3.358-7.5,7.5
	v28.549h-17.796v-28.548c0-4.142-3.358-7.5-7.5-7.5h-28.549V200.024z M308.142,261.612c4.142,0,7.5-3.358,7.5-7.5
	s-3.358-7.5-7.5-7.5h-30.521c-4.142,0-7.5,3.358-7.5,7.5s3.358,7.5,7.5,7.5H308.142z M498.172,334.956v-58.178
	c0-18.655-11.226-35.101-28.599-41.896l-41.313-16.161c-9.088-3.555-16.715-10.204-21.478-18.72l-23.218-41.517
	c-1.186-2.121-2.467-4.169-3.82-6.156c-0.02-0.031-0.041-0.061-0.062-0.091c-14.14-20.699-37.032-33.899-62.081-35.72l-6.649-27.778
	c-1.852-7.742-8.706-13.149-16.666-13.149h-43.698c-7.96,0-14.814,5.407-16.667,13.148l-6.596,27.557H126.913
	c-4.142,0-7.5,3.358-7.5,7.5s3.358,7.5,7.5,7.5h184.689c0.008,0,0.015,0.002,0.023,0.002c0.009,0,0.018-0.001,0.027-0.002
	c17.068,0.005,33.225,6.492,45.47,17.679H290.13c-11.033,0-20.009,8.976-20.009,20.009v40.307c0,11.033,8.976,20.009,20.009,20.009
	h125.532c2.29,1.286,4.671,2.425,7.135,3.389l41.313,16.161c11.23,4.393,18.586,14.84,19.021,26.809h-40.556
	c-4.142,0-7.5,3.358-7.5,7.5s3.358,7.5,7.5,7.5h40.598v5.081h-13.285c-11.833,0-21.46,9.626-21.46,21.459v17.78
	c-7.457,0.572-13.354,6.809-13.354,14.41v20.738h-22.289c-3.697-28.882-28.417-51.283-58.288-51.283s-54.591,22.401-58.288,51.283
	H193.934c-3.697-28.882-28.417-51.283-58.288-51.283s-54.591,22.401-58.288,51.283h-4.595v-21.453c0-4.816-2.493-9.055-6.252-11.512
	v-19.964c0-11.833-9.626-21.459-21.46-21.459H31.768v-19.43h12.363c12.341,0,22.381-10.04,22.381-22.381v-49.911
	c0-12.341-10.04-22.381-22.381-22.381H31.768v-6.751c0-24.037,19.555-43.592,43.592-43.592h15.971c4.142,0,7.5-3.358,7.5-7.5
	s-3.358-7.5-7.5-7.5H75.359c-32.308,0-58.592,26.284-58.592,58.592v14.241c0,0.003,0,0.006,0,0.01s0,0.006,0,0.01v79.656
	c0,0.003,0,0.007,0,0.01s0,0.006,0,0.01v34.41c0,0.003,0,0.007,0,0.01c0,0.003,0,0.006,0,0.01v31.673h-3.016
	C6.169,334.923,0,341.093,0,348.676v31.054c0,7.583,6.169,13.752,13.752,13.752h45.26c5.667,0,10.543-3.447,12.645-8.354h5.701
	c3.697,28.882,28.417,51.283,58.288,51.283s54.591-22.401,58.288-51.283H296.21c3.697,28.882,28.417,51.283,58.288,51.283
	c11.306,0,22.288-3.22,31.759-9.311c3.483-2.241,4.492-6.881,2.251-10.365c-2.241-3.484-6.881-4.491-10.365-2.251
	c-7.046,4.532-15.222,6.927-23.645,6.927c-24.142,0-43.783-19.641-43.783-43.783s19.641-43.783,43.783-43.783
	s43.783,19.641,43.783,43.783c0,4.707-0.741,9.334-2.202,13.753c-1.3,3.933,0.835,8.175,4.767,9.475
	c3.934,1.299,8.175-0.834,9.475-4.767c1.179-3.569,2.003-7.236,2.478-10.961h23.65c2.31,4.926,7.302,8.354,13.093,8.354h47.992
	c7.977,0,14.467-6.49,14.467-14.467V349.39C512,341.629,505.852,335.294,498.172,334.956z M242.749,116.295l5.76-24.065
	c0.231-0.965,1.086-1.64,2.079-1.64h43.698c0.993,0,1.848,0.674,2.079,1.641l5.76,24.064
	C302.125,116.295,242.749,116.295,242.749,116.295z M290.13,214.3c-2.762,0-5.009-2.247-5.009-5.009v-40.307
	c0-2.762,2.247-5.009,5.009-5.009h79.278c0.363,0.604,0.719,1.213,1.065,1.831l23.218,41.517c1.369,2.448,2.923,4.774,4.623,6.978
	H290.13V214.3z M31.768,196.638h12.363c4.07,0,7.381,3.311,7.381,7.381v49.911c0,4.07-3.311,7.381-7.381,7.381H31.768V196.638z
	 M31.768,310.74h13.285c3.562,0,6.459,2.897,6.459,6.459v17.724H31.768V310.74z M57.764,378.482H15v-28.559h42.764V378.482z
	 M135.646,421.412c-24.142,0-43.783-19.641-43.783-43.783s19.641-43.783,43.783-43.783s43.783,19.641,43.783,43.783
	C179.429,401.771,159.788,421.412,135.646,421.412z M463.428,317.2c0-3.562,2.898-6.459,6.46-6.459h13.285v24.183h-19.744V317.2
	H463.428z M497,378.482h-46.926v-28.559H497V378.482z M323.846,377.628c0,16.901,13.75,30.651,30.651,30.651
	s30.651-13.75,30.651-30.651s-13.75-30.651-30.651-30.651S323.846,360.727,323.846,377.628z M370.148,377.628
	c0,8.63-7.021,15.651-15.651,15.651s-15.651-7.021-15.651-15.651s7.021-15.651,15.651-15.651S370.148,368.998,370.148,377.628z
	 M135.646,346.977c-16.901,0-30.651,13.75-30.651,30.651s13.75,30.651,30.651,30.651s30.651-13.75,30.651-30.651
	S152.547,346.977,135.646,346.977z M135.646,393.28c-8.63,0-15.651-7.021-15.651-15.651s7.021-15.651,15.651-15.651
	s15.651,7.021,15.651,15.651S144.276,393.28,135.646,393.28z"/>
<g>
</g>
<g>
</g>
<g>
</g>
<g>
</g>
<g>
</g>
<g>
</g>
<g>
</g>
<g>
</g>
<g>
</g>
<g>
</g>
<g>
</g>
<g>
</g>
<g>
</g>
<g>
</g>
<g>
</g>
</svg>
