<?xml version="1.0" encoding="iso-8859-1"?>
<!-- Generator: Adobe Illustrator 19.0.0, SVG Export Plug-In . SVG Version: 6.00 Build 0)  -->
<svg version="1.1" id="Capa_1" xmlns="http://www.w3.org/2000/svg" xmlns:xlink="http://www.w3.org/1999/xlink" x="0px" y="0px"
	 viewBox="0 0 512 512" style="enable-background:new 0 0 512 512;" xml:space="preserve">
<path style="fill:#7397DA;" d="M339.036,135.337v-31.235c0-13.288-10.81-24.098-24.098-24.098H197.062
	c-13.288,0-24.098,10.81-24.098,24.098v31.235h-43.473v-31.235c0-37.258,30.313-67.571,67.571-67.571h117.876
	c37.259,0,67.571,30.313,67.571,67.571v31.235H339.036z"/>
<path style="fill:#E68392;" d="M467.182,475.47H44.818c-20.61,0-37.318-16.708-37.318-37.318V172.654
	c0-20.61,16.708-37.318,37.318-37.318h422.363c20.61,0,37.318,16.708,37.318,37.318v265.497
	C504.5,458.762,487.792,475.47,467.182,475.47z"/>
<path style="fill:#FFFFFF;" d="M319.17,301.967h-40.22v-40.22c0-5.651-4.581-10.233-10.233-10.233h-25.435
	c-5.651,0-10.232,4.581-10.232,10.233v40.22h-40.22c-5.651,0-10.233,4.581-10.233,10.233v25.435c0,5.651,4.581,10.233,10.233,10.233
	h40.22v40.22c0,5.651,4.581,10.232,10.232,10.232h25.435c5.651,0,10.233-4.581,10.233-10.232v-40.22h40.22
	c5.651,0,10.233-4.581,10.233-10.233V312.2C329.403,306.548,324.821,301.967,319.17,301.967z"/>
<g>
	<ellipse style="fill:#F8B8BD;" cx="160.77" cy="223.529" rx="35.14" ry="27.982"/>
	<ellipse style="fill:#F8B8BD;" cx="351.23" cy="223.529" rx="35.14" ry="27.982"/>
</g>
<path style="opacity:0.15;fill:#8D4330;enable-background:new    ;" d="M352.028,426.355H159.972
	c-16.701,0-30.24,13.539-30.24,30.24v18.875h252.535v-18.875C382.267,439.895,368.729,426.355,352.028,426.355z"/>
<g>
	<path style="fill:#F8B8BD;" d="M36.257,419.563H7.5v18.589c0,20.61,16.708,37.318,37.318,37.318h21.678v-25.667
		C66.497,433.102,52.958,419.563,36.257,419.563z"/>
	<path style="fill:#F8B8BD;" d="M475.743,419.563H504.5v18.589c0,20.61-16.708,37.318-37.319,37.318h-21.678v-25.667
		C445.503,433.102,459.042,419.563,475.743,419.563z"/>
	<path style="fill:#F8B8BD;" d="M475.743,191.243H504.5v-18.589c0-20.61-16.708-37.318-37.319-37.318h-21.678v25.667
		C445.503,177.704,459.042,191.243,475.743,191.243z"/>
	<path style="fill:#F8B8BD;" d="M36.257,191.243H7.5v-18.589c0-20.61,16.708-37.318,37.318-37.318h21.678v25.667
		C66.497,177.704,52.958,191.243,36.257,191.243z"/>
</g>
<path style="opacity:0.15;fill:#8D4330;enable-background:new    ;" d="M163.788,135.337H44.818
	c-20.61,0-37.318,16.708-37.318,37.318v265.497c0,20.61,16.708,37.318,37.318,37.318h361.775
	C150.078,394.549,151.103,209.994,163.788,135.337z"/>
<path style="opacity:0.15;fill:#003A63;enable-background:new    ;" d="M197.062,36.529c-37.258,0-67.571,30.313-67.571,67.571
	v31.235h43.473V104.1c0-13.288,10.81-24.098,24.098-24.098h66.075c-18.073-10.678-25.637-31.566-21.984-43.473H197.062z"/>
<g>
	<path style="opacity:0.15;fill:#8D4330;enable-background:new    ;" d="M438.223,346.178c0,4.021,3.26,7.28,7.28,7.28H504.5
		v-14.561h-58.997C441.482,338.898,438.223,342.158,438.223,346.178z M438.223,305.403c0,4.021,3.26,7.28,7.28,7.28H504.5v-14.561
		h-58.997C441.482,298.122,438.223,301.383,438.223,305.403z M445.503,257.346c-4.021,0-7.28,3.259-7.28,7.28s3.26,7.28,7.28,7.28
		H504.5v-14.56H445.503z"/>
	<path style="opacity:0.15;fill:#8D4330;enable-background:new    ;" d="M73.777,264.628c0-4.021-3.26-7.28-7.28-7.28H7.5v14.561
		h58.997C70.517,271.908,73.777,268.648,73.777,264.628z M73.777,305.404c0-4.021-3.26-7.28-7.28-7.28H7.5v14.561h58.997
		C70.517,312.684,73.777,309.424,73.777,305.404z M66.497,353.46c4.021,0,7.28-3.26,7.28-7.28c0-4.021-3.26-7.28-7.28-7.28H7.5
		v14.561h58.997V353.46z"/>
</g>
<path d="M181.248,203.117c4.142,0,7.5-3.358,7.5-7.5V183.21c0-4.142-3.358-7.5-7.5-7.5s-7.5,3.358-7.5,7.5v12.408
	C173.748,199.759,177.106,203.117,181.248,203.117z M338.251,183.21c0-4.142-3.358-7.5-7.5-7.5s-7.5,3.358-7.5,7.5v12.408
	c0,4.142,3.358,7.5,7.5,7.5s7.5-3.358,7.5-7.5V183.21z M256,212.646c9.721,0,18.964-4.21,25.362-11.551
	c2.721-3.123,2.396-7.86-0.727-10.582c-3.124-2.721-7.861-2.396-10.582,0.727c-3.548,4.071-8.67,6.406-14.054,6.406
	c-5.383,0-10.506-2.335-14.054-6.406c-2.723-3.123-7.459-3.447-10.582-0.727c-3.123,2.722-3.448,7.459-0.727,10.582
	C237.036,208.436,246.279,212.646,256,212.646z M243.283,405.82h25.435c9.778,0,17.733-7.955,17.733-17.733v-32.72h32.72
	c9.778,0,17.732-7.955,17.732-17.732V312.2c0-9.778-7.955-17.732-17.732-17.732h-32.72v-32.72c0-9.778-7.955-17.732-17.733-17.732
	h-25.435c-9.778,0-17.733,7.954-17.733,17.732v32.72h-32.72c-9.778,0-17.732,7.955-17.732,17.732v25.435
	c0,9.778,7.955,17.732,17.732,17.732h32.72v32.72C225.55,397.865,233.505,405.82,243.283,405.82z M192.83,340.367
	c-1.507,0-2.732-1.226-2.732-2.732V312.2c0-1.507,1.226-2.732,2.732-2.732h40.22c4.142,0,7.5-3.358,7.5-7.5v-40.22
	c0-1.507,1.226-2.732,2.733-2.732h25.435c1.507,0,2.733,1.226,2.733,2.732v40.22c0,4.142,3.358,7.5,7.5,7.5h40.22
	c1.507,0,2.732,1.226,2.732,2.732v25.435c0,1.507-1.226,2.732-2.732,2.732h-40.22c-4.142,0-7.5,3.358-7.5,7.5v40.22
	c0,1.507-1.226,2.733-2.733,2.733h-25.435c-1.507,0-2.733-1.226-2.733-2.733v-40.22c0-4.142-3.358-7.5-7.5-7.5H192.83z
	 M504.5,372.138c4.142,0,7.5-3.358,7.5-7.5V172.654c0-24.713-20.106-44.818-44.818-44.818H390.01v-23.735
	c0-41.395-33.677-75.071-75.071-75.071H197.062c-11.804,0-23.113,2.676-33.613,7.953c-3.701,1.86-5.193,6.369-3.333,10.069
	c1.86,3.701,6.368,5.192,10.069,3.333c8.39-4.217,17.433-6.356,26.877-6.356h117.876c33.124,0,60.071,26.948,60.071,60.071v23.735
	h-28.474V104.1c0-17.423-14.175-31.598-31.598-31.598H197.062c-17.423,0-31.598,14.175-31.598,31.598v23.735H136.99V104.1
	c0-11.85,3.462-23.32,10.012-33.168c2.294-3.449,1.357-8.105-2.092-10.398c-3.45-2.293-8.104-1.357-10.398,2.092
	c-8.191,12.318-12.521,26.66-12.521,41.475v23.735H44.818C20.105,127.837,0,147.941,0,172.654v265.497
	c0,24.713,20.105,44.818,44.818,44.818h422.363c24.713,0,44.818-20.105,44.818-44.818v-37.857c0-4.142-3.358-7.5-7.5-7.5
	s-7.5,3.358-7.5,7.5v11.768h-21.257c-20.81,0-37.74,16.93-37.74,37.74v18.167H73.997v-18.167c0-20.81-16.93-37.74-37.74-37.74H15
	V198.743h21.257c20.81,0,37.74-16.93,37.74-37.74v-18.167h364.007v18.167c0,20.81,16.93,37.74,37.74,37.74H497v165.894
	C497,368.78,500.358,372.138,504.5,372.138z M453.003,449.803c0-12.539,10.201-22.74,22.74-22.74H497v11.089
	c0,16.442-13.377,29.818-29.818,29.818h-14.178v-18.167H453.003z M36.257,427.063c12.539,0,22.74,10.201,22.74,22.74v18.167H44.818
	C28.376,467.97,15,454.594,15,438.152v-11.089L36.257,427.063L36.257,427.063z M58.997,161.003c0,12.539-10.201,22.74-22.74,22.74
	H15v-11.089c0-16.442,13.376-29.818,29.818-29.818h14.178L58.997,161.003L58.997,161.003z M331.536,127.837H180.464v-23.735
	c0-9.152,7.446-16.598,16.598-16.598h117.876c9.152,0,16.598,7.446,16.598,16.598V127.837z M475.743,183.743
	c-12.539,0-22.74-10.201-22.74-22.74v-18.167h14.178c16.442,0,29.818,13.376,29.818,29.818v11.089H475.743z"/>
<g>
</g>
<g>
</g>
<g>
</g>
<g>
</g>
<g>
</g>
<g>
</g>
<g>
</g>
<g>
</g>
<g>
</g>
<g>
</g>
<g>
</g>
<g>
</g>
<g>
</g>
<g>
</g>
<g>
</g>
</svg>
