<?xml version="1.0" encoding="iso-8859-1"?>
<!-- Generator: Adobe Illustrator 19.0.0, SVG Export Plug-In . SVG Version: 6.00 Build 0)  -->
<svg version="1.1" id="Capa_1" xmlns="http://www.w3.org/2000/svg" xmlns:xlink="http://www.w3.org/1999/xlink" x="0px" y="0px"
	 viewBox="0 0 512 512" style="enable-background:new 0 0 512 512;" xml:space="preserve">
<path style="fill:#7397DA;" d="M129.156,265.248l26.716-26.043c12.265-11.956,12.39-31.632,0.279-43.743l-37.753-37.753
	c-12.357-12.357-32.518-11.938-44.351,0.921L29.47,207.073c-28.439,30.905-29.454,78.139-2.368,110.236l0,0
	c51.017,60.458,107.054,116.495,167.512,167.512l0,0c32.098,27.086,79.332,26.071,110.236-2.368l48.442-44.578
	c12.859-11.833,13.279-31.994,0.921-44.351L316.46,355.77c-12.111-12.111-31.787-11.986-43.743,0.279l-26.043,26.716
	c-6.261,6.423-16.419,6.917-23.274,1.133l0,0c-34.424-29.048-66.329-60.955-95.378-95.378l0,0
	C122.24,281.667,122.735,271.508,129.156,265.248z"/>
<g>
	<path style="fill:#A8D1EC;" d="M354.215,393.525l-37.753-37.753c-12.111-12.111-31.787-11.986-43.743,0.279l-12.01,12.32
		l80.565,80.565l12.02-11.061C366.153,426.042,366.572,405.882,354.215,393.525z"/>
	<path style="fill:#A8D1EC;" d="M74.048,158.63l-11.061,12.02l80.565,80.565l12.32-12.01c12.265-11.956,12.39-31.632,0.279-43.743
		l-37.753-37.753C106.042,145.352,85.882,145.771,74.048,158.63z"/>
</g>
<g>
	
		<ellipse transform="matrix(0.7071 -0.7071 0.7071 0.7071 -212.2404 161.5557)" style="fill:#F8B8BD;" cx="88.895" cy="336.975" rx="17.88" ry="22.452"/>
	
		<ellipse transform="matrix(-0.7071 0.7071 -0.7071 -0.7071 597.7919 598.4559)" style="fill:#F8B8BD;" cx="174.952" cy="423.035" rx="17.88" ry="22.452"/>
</g>
<path style="fill:#DDEFF5;" d="M464.551,44.671C413.863-4.601,332.365-4.816,281.432,44.202
	c-36.855,35.47-48.51,86.962-34.976,132.57c2.807,9.46,3.079,19.492,1.144,29.168l-11.073,55.365
	c-1.675,8.378,5.712,15.765,14.09,14.09l56.059-11.212c9.321-1.864,18.983-1.564,28.087,1.168
	c44.935,13.486,95.649,2.483,131.147-33.015C517.813,180.435,517.36,96.004,464.551,44.671z"/>
<path style="opacity:0.15;fill:#003A63;enable-background:new    ;" d="M320.822,18.138c-14.254,6.07-27.636,14.753-39.389,26.064
	c-36.855,35.47-48.51,86.962-34.976,132.571c2.807,9.46,3.079,19.492,1.144,29.168l-11.073,55.365
	c-1.675,8.379,5.712,15.765,14.09,14.09l56.059-11.212c9.321-1.864,18.983-1.564,28.087,1.168
	c44.935,13.486,95.649,2.483,131.147-33.015c4.173-4.173,8.004-8.56,11.5-13.119C344.083,221.418,295.682,75.773,320.822,18.138z"/>
<path style="fill:#E68392;" d="M434.048,116.904h-39.029V77.874c0-5.484-4.446-9.93-9.929-9.93h-24.682
	c-5.484,0-9.93,4.445-9.93,9.93v39.029h-39.029c-5.484,0-9.929,4.445-9.929,9.929v24.682c0,5.484,4.446,9.929,9.929,9.929h39.029
	v39.029c0,5.484,4.445,9.929,9.93,9.929h24.682c5.484,0,9.929-4.446,9.929-9.929v-39.029h39.029c5.484,0,9.929-4.446,9.929-9.929
	v-24.681C443.978,121.349,439.533,116.904,434.048,116.904z"/>
<path style="opacity:0.15;fill:#8D4330;enable-background:new    ;" d="M327.677,116.904H311.45c-5.484,0-9.929,4.445-9.929,9.929
	v24.682c0,5.484,4.446,9.929,9.929,9.929h39.029v39.029c0,5.485,4.445,9.929,9.93,9.929h24.682c5.484,0,9.929-4.446,9.929-9.929
	v-2.529C362.806,178.554,340.514,148.248,327.677,116.904z"/>
<path style="opacity:0.15;fill:#003A63;enable-background:new    ;" d="M151.019,314.585c-7.848-8.519-15.52-17.204-22.996-26.063
	l0,0c-5.785-6.855-5.29-17.013,1.132-23.274l26.716-26.043c12.265-11.956,12.39-31.632,0.279-43.743l-37.753-37.753
	c-12.357-12.357-32.518-11.938-44.351,0.921L29.47,207.073c-28.439,30.905-29.454,78.139-2.368,110.236l0,0
	c51.017,60.458,107.054,116.495,167.512,167.512l0,0c18.06,15.24,40.911,21.583,62.949,19.152
	C161.766,458.57,152.666,384.403,151.019,314.585z"/>
<path d="M152.679,369.056c-2.663,0.185-5.265-0.791-7.143-2.668c-1.878-1.879-2.851-4.482-2.669-7.144
	c0.284-4.133-2.836-7.714-6.969-7.998c-4.135-0.288-7.713,2.836-7.998,6.969c-0.48,6.988,2.081,13.833,7.028,18.78
	c4.553,4.552,10.713,7.084,17.114,7.084c0.553,0,1.109-0.019,1.665-0.057c4.132-0.284,7.253-3.864,6.969-7.998
	C160.392,371.892,156.806,368.785,152.679,369.056z M111.065,322.702l-5.607,5.606c-2.929,2.929-2.929,7.679-0.001,10.608
	c1.465,1.464,3.384,2.197,5.305,2.197c1.919,0,3.839-0.732,5.304-2.196l5.607-5.606c2.929-2.929,2.929-7.679,0-10.608
	C118.743,319.773,113.995,319.773,111.065,322.702z M469.778,39.292c-24.758-24.066-57.534-37.965-92.291-39.135
	c-34.607-1.159-68.098,10.344-94.333,32.411c-3.17,2.666-3.579,7.398-0.913,10.568c2.668,3.169,7.4,3.579,10.568,0.912
	c23.395-19.675,53.278-29.941,84.172-28.898c31.02,1.045,60.263,13.439,82.34,34.9c24.058,23.385,37.437,54.722,37.674,88.24
	c0.237,33.524-12.686,65.04-36.39,88.743c-32.382,32.383-79.775,44.313-123.687,31.133c-10.047-3.016-21.013-3.479-31.714-1.338
	l-56.06,11.212c-2.12,0.422-3.531-0.714-4.039-1.223c-0.509-0.509-1.646-1.921-1.223-4.04l11.073-55.365
	c2.217-11.084,1.764-22.418-1.309-32.774c-10.923-36.81-4.059-77.269,18.362-108.227c2.43-3.355,1.68-8.045-1.675-10.475
	c-3.354-2.429-8.045-1.68-10.475,1.675c-25.135,34.706-32.834,80.049-20.593,121.294c2.381,8.024,2.72,16.864,0.98,25.564
	l-11.073,55.364c-1.28,6.4,0.711,12.975,5.326,17.59c3.693,3.693,8.644,5.707,13.754,5.707c1.274,0,2.559-0.125,3.836-0.38
	l56.059-11.211c8.3-1.66,16.758-1.315,24.46,0.997c13.244,3.974,26.765,5.911,40.17,5.911c36.4-0.002,71.913-14.283,98.437-40.806
	c26.565-26.565,41.049-61.886,40.782-99.457C511.732,100.619,496.737,65.499,469.778,39.292z M321.765,350.468
	c-7.228-7.228-16.818-11.199-27.03-11.199c-0.083,0-0.167,0-0.251,0c-10.306,0.066-19.942,4.166-27.136,11.545l-26.044,26.716
	c-3.497,3.587-9.235,3.867-13.064,0.636c-34.003-28.692-65.79-60.481-94.483-94.483c-3.231-3.829-2.952-9.568,0.636-13.064
	l26.716-26.043c7.379-7.194,11.479-16.831,11.545-27.136c0.066-10.305-3.911-19.994-11.198-27.281l-37.753-37.753
	c-7.436-7.436-17.348-11.421-27.832-11.191c-10.512,0.218-20.223,4.6-27.343,12.336L23.95,201.993
	c-30.919,33.601-32.03,85.255-2.581,120.153c51.143,60.606,107.802,117.266,168.408,168.408
	c16.917,14.275,37.767,21.369,58.594,21.368c22.137-0.001,44.247-8.018,61.559-23.95l48.443-44.578
	c7.737-7.12,12.118-16.83,12.337-27.342c0.219-10.512-3.756-20.397-11.19-27.832L321.765,350.468z M79.568,163.71
	c4.326-4.702,10.227-7.364,16.615-7.497c0.167-0.003,0.333-0.005,0.499-0.005c6.202,0,12.013,2.406,16.414,6.806l37.752,37.753
	c4.428,4.428,6.845,10.316,6.805,16.578c-0.04,6.263-2.531,12.118-7.016,16.49l-7.018,6.842l-70.24-70.242L79.568,163.71z
	 M348.214,432.355l-6.726,6.189l-5.84-5.84c-2.93-2.929-7.679-2.929-10.609,0c-2.929,2.929-2.929,7.679,0,10.608l5.4,5.4
	l-30.668,28.222c-28.055,25.816-71.183,26.743-100.32,2.155C139.49,428.491,83.432,372.433,32.835,312.472
	C8.247,283.335,9.174,240.206,34.99,212.152l28.222-30.668l69.664,69.664l-8.955,8.73h0.001c-9.195,8.962-9.91,23.67-1.629,33.483
	c29.235,34.646,61.627,67.037,96.273,96.273c9.813,8.28,24.52,7.566,33.483-1.629l8.729-8.955l42.268,42.268
	c1.465,1.464,3.385,2.197,5.305,2.197c1.919,0,3.839-0.732,5.305-2.197c2.929-2.929,2.929-7.679,0-10.607l-42.405-42.404
	l6.842-7.019c4.37-4.483,10.227-6.976,16.489-7.016c6.234-0.048,12.149,2.376,16.577,6.805l37.753,37.753
	c4.518,4.518,6.934,10.524,6.801,16.913C355.578,422.129,352.915,428.029,348.214,432.355z M178.613,390.25l-5.606,5.607
	c-2.929,2.929-2.928,7.679,0.001,10.608c1.465,1.464,3.384,2.196,5.304,2.196c1.919,0,3.839-0.732,5.305-2.197l5.606-5.607
	c2.929-2.929,2.928-7.679,0-10.608C186.292,387.321,181.542,387.322,178.613,390.25z M385.09,60.444h-24.682
	c-9.611,0-17.431,7.819-17.431,17.431v31.528H311.45c-9.611,0-17.431,7.819-17.431,17.431v24.682
	c0,9.611,7.819,17.431,17.431,17.431h31.527v31.529c0,9.611,7.819,17.43,17.431,17.43h24.682c9.611,0,17.431-7.819,17.431-17.43
	v-31.529h31.528c9.61,0,17.43-7.819,17.43-17.431v-24.682c0-9.611-7.819-17.431-17.43-17.431h-31.529V77.875
	C402.52,68.263,394.701,60.444,385.09,60.444z M434.049,124.405c1.339,0,2.428,1.089,2.428,2.429v24.682
	c0,1.339-1.089,2.429-2.428,2.429H395.02c-4.143,0-7.501,3.358-7.501,7.501v39.029c0,1.339-1.09,2.428-2.429,2.428h-24.682
	c-1.339,0-2.429-1.089-2.429-2.428v-39.029c0-4.142-3.357-7.501-7.501-7.501H311.45c-1.339,0-2.429-1.089-2.429-2.429v-24.682
	c0-1.339,1.09-2.429,2.429-2.429h39.028c4.143,0,7.501-3.358,7.501-7.501V77.875c0-1.339,1.09-2.429,2.429-2.429h24.682
	c1.339,0,2.429,1.089,2.429,2.429v39.028c0,4.142,3.357,7.501,7.501,7.501C395.02,124.405,434.049,124.405,434.049,124.405z"/>
<g>
</g>
<g>
</g>
<g>
</g>
<g>
</g>
<g>
</g>
<g>
</g>
<g>
</g>
<g>
</g>
<g>
</g>
<g>
</g>
<g>
</g>
<g>
</g>
<g>
</g>
<g>
</g>
<g>
</g>
</svg>
