<?xml version="1.0" encoding="iso-8859-1"?>
<!-- Generator: Adobe Illustrator 19.0.0, SVG Export Plug-In . SVG Version: 6.00 Build 0)  -->
<svg version="1.1" id="Capa_1" xmlns="http://www.w3.org/2000/svg" xmlns:xlink="http://www.w3.org/1999/xlink" x="0px" y="0px"
	 viewBox="0 0 512.001 512.001" style="enable-background:new 0 0 512.001 512.001;" xml:space="preserve">
<path style="fill:#F8B8BD;" d="M256,477.879c-21.282,0-41.289-8.288-56.339-23.336L55.277,310.158
	c-62.939-62.939-63.818-165.221-1.96-228.003c30.518-30.974,71.265-48.033,114.735-48.033c31.71,0,62.02,9.102,87.948,26.071
	c25.928-16.969,56.238-26.071,87.948-26.071c43.47,0,84.217,17.059,114.736,48.034c61.858,62.782,60.979,165.063-1.961,228.002
	L312.337,454.543C297.29,469.591,277.281,477.879,256,477.879z"/>
<path style="fill:#E68392;" d="M256,107.225c-48.795-48.795-128.044-48.572-176.56,0.669
	c-48.134,48.853-46.726,127.836,1.768,176.331l144.386,144.386c16.793,16.793,44.019,16.793,60.813,0l144.385-144.385
	c48.495-48.495,49.902-127.478,1.768-176.331C384.045,58.655,304.794,58.431,256,107.225z"/>
<g>
	<ellipse style="fill:#F8B8BD;" cx="147.585" cy="195.417" rx="40.001" ry="31.856"/>
	<ellipse style="fill:#F8B8BD;" cx="364.412" cy="195.417" rx="40.001" ry="31.856"/>
</g>
<g>
	<path style="opacity:0.15;fill:#8D4330;enable-background:new    ;" d="M131.776,76.182c-19.191,5.832-37.25,16.402-52.337,31.713
		c-48.134,48.853-46.726,127.836,1.769,176.331l144.385,144.386c16.793,16.793,44.019,16.793,60.813,0l82.684-82.684
		C156.071,321.828,116.998,176.154,131.776,76.182z"/>
	<path style="opacity:0.15;fill:#8D4330;enable-background:new    ;" d="M453.177,253.958
		c24.878-46.934,18.444-106.42-20.617-146.063c-39.223-39.809-98.533-47.574-145.599-23.305
		C349.305,75.831,458.191,106.255,453.177,253.958z"/>
</g>
<path d="M170.9,142.01c-4.142,0-7.5,3.358-7.5,7.5v14.126c0,4.142,3.358,7.5,7.5,7.5s7.5-3.358,7.5-7.5v-14.126
	C178.4,145.368,175.042,142.01,170.9,142.01z M341.1,142.01c-4.142,0-7.5,3.358-7.5,7.5v14.126c0,4.142,3.358,7.5,7.5,7.5
	c4.142,0,7.5-3.358,7.5-7.5v-14.126C348.6,145.368,345.242,142.01,341.1,142.01z M465.065,319.581h-7.159l4.121-4.121
	c65.842-65.841,66.739-172.863,2-238.568c-31.939-32.417-74.584-50.27-120.078-50.27c-31.299,0-61.598,8.522-87.948,24.692
	c-26.351-16.171-56.649-24.692-87.948-24.692c-27.72,0-55.124,6.81-79.249,19.695c-3.654,1.952-5.034,6.496-3.083,10.149
	c1.952,3.654,6.497,5.032,10.149,3.082c21.958-11.727,46.918-17.927,72.181-17.927c30.011,0,59.003,8.592,83.841,24.847
	c2.494,1.633,5.72,1.633,8.214,0c24.838-16.255,53.83-24.847,83.841-24.847c41.445,0,80.295,16.265,109.393,45.797
	c58.977,59.858,58.115,157.398-1.921,217.434l-14.727,14.727h-30.65l30.053-30.053c51.649-51.648,52.459-135.49,1.808-186.898
	c-24.862-25.234-58.054-39.202-93.462-39.334c-0.168,0-0.335,0-0.504,0c-32.78,0-63.716,11.868-87.937,33.601
	c-24.222-21.734-55.154-33.601-87.936-33.601c-0.167,0-0.337,0-0.504,0.001c-35.408,0.131-68.6,14.1-93.463,39.334
	c-50.652,51.408-49.841,135.25,1.808,186.898l30.053,30.053H75.307L60.58,304.854C0.544,244.818-0.318,147.278,58.66,87.42
	c2.949-2.993,6.047-5.896,9.209-8.628c3.134-2.709,3.479-7.444,0.771-10.579c-2.709-3.134-7.444-3.479-10.579-0.771
	c-3.463,2.993-6.857,6.172-10.086,9.45c-64.739,65.706-63.843,172.728,1.999,238.569l4.121,4.121h-7.159c-4.142,0-7.5,3.358-7.5,7.5
	s3.358,7.5,7.5,7.5h22.16l125.264,125.264c16.466,16.466,38.357,25.533,61.642,25.533s45.175-9.067,61.642-25.533l13.77-13.77
	c2.929-2.929,2.929-7.678,0-10.606c-2.929-2.929-7.678-2.929-10.607,0l-13.77,13.77c-13.632,13.631-31.757,21.14-51.035,21.14
	c-19.278,0-37.402-7.507-51.035-21.14L90.308,334.582h30.65l99.332,99.332c9.845,9.845,22.778,14.769,35.709,14.769
	c12.932,0,25.865-4.923,35.709-14.769l99.332-99.332h30.65l-75.665,75.666c-2.929,2.929-2.929,7.678,0,10.607
	c1.464,1.464,3.384,2.197,5.303,2.197s3.839-0.732,5.303-2.197l86.272-86.272h22.16c4.142,0,7.5-3.358,7.5-7.5
	S469.207,319.581,465.065,319.581z M281.103,423.307c-6.705,6.705-15.621,10.397-25.103,10.397s-18.398-3.692-25.103-10.397
	l-88.725-88.725h52.342c3.228,0,6.094-2.066,7.115-5.128c6.92-20.76,16.755-50.011,23.432-69.419
	c5.56,17.314,15.599,47.824,33.719,102.025c0.988,2.957,3.703,4.994,6.819,5.116c0.099,0.004,0.197,0.006,0.296,0.006
	c3,0,5.725-1.793,6.903-4.572l29.897-70.511l16.392,37.957c1.186,2.747,3.893,4.526,6.885,4.526h43.856L281.103,423.307z
	 M384.829,319.581h-53.926l-21.386-49.522c-1.186-2.748-3.893-4.526-6.885-4.526h-0.025c-3.001,0.01-5.708,1.809-6.88,4.572
	l-28.998,68.389c-14.624-43.899-32.282-97.422-33.654-103.098c-0.471-3.202-2.972-5.842-6.238-6.372
	c-1.794-0.294-6.225-0.331-8.634,5.56c-0.292,0.714-0.694,1.765-1.188,3.106c-0.877,2.382-2.118,5.873-3.686,10.376
	c-2.624,7.534-6.217,18.043-10.679,31.232c-5.433,16.06-10.862,32.277-13.538,40.282h-61.939l-40.659-40.659
	c-45.843-45.843-46.619-120.204-1.729-165.764c22.036-22.364,51.453-34.745,82.834-34.861c0.149-0.001,0.297-0.001,0.446-0.001
	c31.217,0,60.549,12.146,82.635,34.232c2.929,2.929,7.678,2.929,10.606,0c22.192-22.191,51.695-34.321,83.082-34.232
	c31.38,0.117,60.797,12.497,82.833,34.861c44.888,45.56,44.113,119.921-1.73,165.764L384.829,319.581z M283.363,158.609
	c-3.123-2.721-7.86-2.396-10.582,0.727c-4.236,4.861-10.352,7.648-16.782,7.648c-6.429,0-12.545-2.788-16.782-7.648
	c-2.721-3.124-7.459-3.448-10.581-0.727c-3.123,2.721-3.448,7.459-0.727,10.582c7.085,8.131,17.325,12.794,28.091,12.794
	s21.005-4.663,28.091-12.794C286.812,166.068,286.486,161.33,283.363,158.609z"/>
<g>
</g>
<g>
</g>
<g>
</g>
<g>
</g>
<g>
</g>
<g>
</g>
<g>
</g>
<g>
</g>
<g>
</g>
<g>
</g>
<g>
</g>
<g>
</g>
<g>
</g>
<g>
</g>
<g>
</g>
</svg>
