<?xml version="1.0" encoding="iso-8859-1"?>
<!-- Generator: Adobe Illustrator 19.0.0, SVG Export Plug-In . SVG Version: 6.00 Build 0)  -->
<svg version="1.1" id="Capa_1" xmlns="http://www.w3.org/2000/svg" xmlns:xlink="http://www.w3.org/1999/xlink" x="0px" y="0px"
	 viewBox="0 0 511.999 511.999" style="enable-background:new 0 0 511.999 511.999;" xml:space="preserve">
<path style="fill:#7397DA;" d="M454.187,504.5H57.812c-16.366,0-29.632-13.267-29.632-29.632v-40.174
	c0-16.366,13.267-29.632,29.632-29.632h396.374c16.365,0,29.632,13.267,29.632,29.632v40.174
	C483.818,491.233,470.552,504.5,454.187,504.5z"/>
<path style="fill:#F9E78D;" d="M454.187,504.5H57.812c-16.366,0-29.632-13.267-29.632-29.632v-40.174
	c0-16.366,13.267-29.632,29.632-29.632h396.374c16.365,0,29.632,13.267,29.632,29.632v40.174
	C483.818,491.233,470.552,504.5,454.187,504.5z"/>
<path style="fill:#E68392;" d="M320.547,99.053H191.451c-33.372,0-61.486,24.926-65.483,58.057L96.051,405.061h319.895
	L386.031,157.11C382.032,123.979,353.919,99.053,320.547,99.053z"/>
<ellipse style="opacity:0.15;fill:#8D4330;enable-background:new    ;" cx="235.889" cy="267.35" rx="55.15" ry="94.34"/>
<ellipse style="fill:#F8B8BD;" cx="311.149" cy="267.35" rx="55.15" ry="94.34"/>
<path style="opacity:0.15;fill:#8D4330;enable-background:new    ;" d="M393.821,405.061
	C288.073,360.36,162.936,212.116,184.076,99.48c-30.055,3.358-54.408,26.974-58.107,57.63L96.051,405.061H393.821z"/>
<polygon style="fill:#7397DA;" points="108.805,299.356 403.193,299.356 395.469,235.333 116.53,235.333 "/>
<path style="opacity:0.15;fill:#003A63;enable-background:new    ;" d="M116.53,235.333l-7.725,64.023h149.615
	c-16.957-20.155-32.088-41.792-44.343-64.023L116.53,235.333L116.53,235.333z"/>
<path style="opacity:0.15;fill:#8D4330;enable-background:new    ;" d="M57.812,405.061c-16.365,0-29.632,13.267-29.632,29.632
	v40.175c0,16.365,13.267,29.632,29.632,29.632h287.159c-55.388-20.121-73.16-75.804-68.141-99.439L57.812,405.061L57.812,405.061z"
	/>
<path d="M419.925,109.107c1.919,0,3.839-0.732,5.304-2.197l32.802-32.801c2.929-2.929,2.929-7.678,0-10.606
	c-2.929-2.929-7.677-2.929-10.608,0l-32.802,32.801c-2.929,2.929-2.929,7.678,0,10.606
	C416.086,108.376,418.005,109.107,419.925,109.107z M255.999,64.366c4.143,0,7.5-3.358,7.5-7.5V7.5c0-4.142-3.357-7.5-7.5-7.5
	c-4.143,0-7.5,3.358-7.5,7.5v49.366C248.499,61.008,251.856,64.366,255.999,64.366z M86.771,106.911
	c1.465,1.464,3.385,2.197,5.304,2.197s3.839-0.732,5.304-2.197c2.929-2.929,2.929-7.678,0-10.606L64.575,63.503
	c-2.93-2.929-7.678-2.929-10.607,0s-2.929,7.678,0,10.606L86.771,106.911z M454.188,397.561h-31.591l-29.119-241.35
	c-4.448-36.861-35.802-64.659-72.93-64.659H191.451c-37.128,0-68.481,27.797-72.93,64.659l-29.119,241.35h-31.59
	c-20.475,0-37.132,16.657-37.132,37.132v40.174c0,20.475,16.657,37.132,37.132,37.132h45.732c4.143,0,7.5-3.358,7.5-7.5
	s-3.357-7.5-7.5-7.5H57.812c-12.203,0-22.132-9.929-22.132-22.132v-40.174c0-12.204,9.929-22.132,22.132-22.132h358.104
	c0.007,0,0.014,0.001,0.021,0.001c0.005,0,0.011-0.001,0.016-0.001h38.234c12.203,0,22.132,9.929,22.132,22.132v40.174
	c0,12.204-9.929,22.132-22.132,22.132H138.613c-4.143,0-7.5,3.358-7.5,7.5s3.357,7.5,7.5,7.5h315.573
	c20.475,0,37.132-16.658,37.132-37.132v-40.174C491.318,414.218,474.661,397.561,454.188,397.561z M133.414,158.008
	c3.539-29.335,28.49-51.456,58.037-51.456h129.096c29.547,0,54.498,22.121,58.037,51.456l8.424,69.825h-18.016
	c-1.771-6.948-4.002-13.556-6.671-19.7c-1.651-3.799-6.065-5.543-9.867-3.891c-3.799,1.65-5.541,6.068-3.891,9.867
	c1.875,4.317,3.512,8.909,4.896,13.723h-84.623c8.192-28.664,24.58-47.332,42.315-47.332c6.605,0,13.059,2.565,19.182,7.625
	c3.192,2.638,7.92,2.189,10.559-1.003c2.639-3.193,2.189-7.921-1.004-10.559c-8.757-7.237-18.694-11.063-28.736-11.063
	c-13.897,0-26.981,7.015-37.837,20.288c-8.897,10.878-15.751,25.327-20.003,42.044H124.99L133.414,158.008z M123.18,242.833h136.058
	c0.009,0,0.019,0.002,0.028,0.002c0.006,0,0.011-0.002,0.017-0.002h103.722c0.011,0,0.022,0.002,0.034,0.002
	c0.009,0,0.019-0.002,0.028-0.002h25.752l5.915,49.023H363.12c-0.028,0-0.056,0-0.084,0h-103.76c-0.032,0-0.064,0-0.096,0H117.265
	L123.18,242.833z M353.467,306.856c-8.192,28.664-24.58,47.332-42.316,47.332c-17.735,0-34.122-18.668-42.315-47.332H353.467z
	 M104.511,397.561l10.944-90.705h137.857c4.252,16.717,11.105,31.166,20.003,42.044c10.855,13.273,23.94,20.288,37.837,20.288
	c13.898,0,26.982-7.015,37.838-20.288c8.897-10.878,15.75-25.327,20.003-42.044h27.551l10.944,90.705L104.511,397.561
	L104.511,397.561z"/>
<g>
</g>
<g>
</g>
<g>
</g>
<g>
</g>
<g>
</g>
<g>
</g>
<g>
</g>
<g>
</g>
<g>
</g>
<g>
</g>
<g>
</g>
<g>
</g>
<g>
</g>
<g>
</g>
<g>
</g>
</svg>
