<?xml version="1.0" encoding="iso-8859-1"?>
<!-- Generator: Adobe Illustrator 19.0.0, SVG Export Plug-In . SVG Version: 6.00 Build 0)  -->
<svg version="1.1" id="Capa_1" xmlns="http://www.w3.org/2000/svg" xmlns:xlink="http://www.w3.org/1999/xlink" x="0px" y="0px"
	 viewBox="0 0 512.001 512.001" style="enable-background:new 0 0 512.001 512.001;" xml:space="preserve">
<path style="fill:#E68392;" d="M263.759,48.819c-101.56,0-184.185,82.625-184.185,184.184s82.625,184.184,184.185,184.184
	s184.185-82.625,184.185-184.184S365.32,48.819,263.759,48.819z M263.759,301.411c-37.721,0-68.409-30.688-68.409-68.409
	s30.688-68.409,68.409-68.409s68.409,30.688,68.409,68.409S301.48,301.411,263.759,301.411z"/>
<path style="opacity:0.15;fill:#8D4330;enable-background:new    ;" d="M263.759,417.187c40.221,0,77.464-12.968,107.79-34.93
	c-222.726,17.336-234.087-110.926-234.087-149.255l-57.886,0.122C79.642,334.628,162.239,417.187,263.759,417.187z"/>
<path style="fill:#F8B8BD;" d="M263.759,106.706c-69.64,0-126.297,56.657-126.297,126.297s56.657,126.296,126.297,126.296
	s126.297-56.656,126.297-126.297S333.4,106.706,263.759,106.706z M263.759,301.412c-37.781,0-68.409-30.628-68.409-68.409
	s30.628-68.409,68.409-68.409s68.409,30.628,68.409,68.409S301.54,301.412,263.759,301.412z"/>
<path style="opacity:0.15;fill:#8D4330;enable-background:new    ;" d="M377.435,113.91h-28.011c-3.369,0-6.1,2.731-6.1,6.101
	v10.668h-79.565v33.915c20.769,0,39.392,9.315,51.948,23.973h27.617v10.668c0,3.369,2.731,6.101,6.1,6.101h28.011
	c3.369,0,6.1-2.731,6.1-6.101v-79.224C383.535,116.642,380.804,113.91,377.435,113.91z"/>
<rect x="263.759" y="106.71" style="fill:#F8B8BD;" width="79.56" height="57.888"/>
<path style="fill:#F9E78D;" d="M349.424,181.363h28.011c3.369,0,6.1-2.731,6.1-6.101V96.038c0-3.369-2.731-6.101-6.1-6.101h-28.011
	c-3.369,0-6.1,2.731-6.1,6.101v79.224C343.324,178.632,346.055,181.363,349.424,181.363z"/>
<rect x="79.579" y="233" style="fill:#E68392;" width="57.888" height="184.18"/>
<path style="fill:#495059;" d="M100.784,504.5h15.468c4.308,0,8.068-2.922,9.131-7.097l11.395-44.741h-56.52l11.395,44.741
	C92.716,501.578,96.476,504.5,100.784,504.5z"/>
<path style="fill:#F9E78D;" d="M72.778,417.187h71.48c4.818,0,8.724,3.906,8.724,8.724v18.026c0,4.818-3.906,8.724-8.724,8.724
	h-71.48c-4.818,0-8.724-3.906-8.724-8.724v-18.026C64.054,421.093,67.96,417.187,72.778,417.187z"/>
<path style="opacity:0.15;fill:#8D4330;enable-background:new    ;" d="M220.804,173.822c0,1.836,0.37,3.585,1.034,5.18
	c11.59-9.018,26.134-14.408,41.922-14.408V48.819c-14.787,0-29.168,1.763-42.955,5.07L220.804,173.822L220.804,173.822z"/>
<path style="fill:#495059;" d="M273.111,7.5h-18.703c-6.697,0-12.127,5.429-12.127,12.126v154.196
	c0,7.452,6.041,13.492,13.492,13.492h15.971c7.452,0,13.492-6.041,13.492-13.492V19.626C285.237,12.929,279.808,7.5,273.111,7.5z"/>
<path style="opacity:0.15;fill:#8D4330;enable-background:new    ;" d="M72.778,417.187c-4.818,0-8.724,3.906-8.724,8.724v18.026
	c0,4.818,3.906,8.724,8.724,8.724h48.532c-12.886-6.128-18.91-25.968-11.085-35.475H72.778V417.187z"/>
<path d="M406.479,105.167c-29.823-33.262-70.004-54.981-113.742-61.649V19.626C292.737,8.804,283.933,0,273.11,0h-18.702
	c-10.822,0-19.627,8.804-19.627,19.626V43.52c-26.686,4.086-52.583,13.932-75.264,28.683
	c-23.933,15.566-44.458,36.657-59.358,60.994c-2.163,3.532-1.053,8.149,2.48,10.313c1.222,0.748,2.573,1.104,3.909,1.104
	c2.524,0,4.988-1.274,6.403-3.585c13.741-22.444,32.671-41.895,54.743-56.251c20.258-13.176,43.301-22.098,67.086-26.062v43.666
	c-28.257,6.277-53.958,21.736-72.912,43.994c-20.575,24.163-31.907,54.928-31.907,86.628v134.008c0.001,0.062-0.002,0.125,0,0.187
	v42.489H87.074V233.003c0-21.193,3.73-41.929,11.088-61.632c1.449-3.88-0.522-8.201-4.402-9.65c-3.884-1.449-8.201,0.521-9.65,4.403
	c-7.986,21.387-12.035,43.889-12.035,66.879v176.72c-8.618,0.373-15.521,7.48-15.521,16.189v18.026
	c0,8.946,7.278,16.225,16.225,16.225h1.651l9.956,39.09c1.91,7.505,8.653,12.748,16.4,12.748h15.469
	c7.744,0,14.487-5.241,16.398-12.746l9.956-39.092h1.652c8.945,0,16.224-7.278,16.224-16.225v-18.026
	c0-8.709-6.902-15.817-15.52-16.189v-26.391c33.774,26.77,75.361,41.355,118.797,41.355c105.695,0,191.686-85.989,191.686-191.684
	C455.444,185.783,438.055,140.384,406.479,105.167z M83.893,445.162H72.778c-0.675,0-1.225-0.549-1.225-1.225v-18.026
	c0-0.675,0.55-1.225,1.225-1.225h11.114L83.893,445.162L83.893,445.162z M98.893,424.687h19.251v20.475H98.893V424.687z
	 M118.116,495.552c-0.218,0.853-0.983,1.448-1.863,1.448h-15.469c-0.88,0-1.646-0.595-1.863-1.448l-9.014-35.39h37.222
	L118.116,495.552z M145.482,425.912v18.026c0,0.675-0.549,1.225-1.224,1.225h-11.115v-20.475h11.115
	C144.934,424.687,145.482,425.236,145.482,425.912z M350.824,147.379v-23.458h25.211v23.458H350.824z M376.035,162.379v11.483
	h-25.211v-11.483H376.035z M350.824,108.921V97.438h25.211v11.483C376.035,108.921,350.824,108.921,350.824,108.921z
	 M292.737,58.699c22.566,3.742,44.061,11.849,63.379,23.739h-6.693c-7.499,0-13.6,6.101-13.6,13.601v3.168h-43.087V58.699H292.737z
	 M292.737,114.206h43.087v42.888h-43.087V114.206z M249.781,167.95c0-0.013,0-0.026,0-0.04V19.626c0-2.551,2.075-4.626,4.627-4.626
	h18.702c2.552,0,4.627,2.075,4.627,4.626V167.91c0,0.013,0,0.026,0,0.04v5.872c0,3.304-2.689,5.992-5.992,5.992h-15.972
	c-3.304,0-5.992-2.688-5.992-5.992V167.95z M235.469,179.057c2.335,9.046,10.54,15.757,20.305,15.757h15.972
	c9.765,0,17.97-6.712,20.305-15.757c19.844,10.376,32.618,30.985,32.618,53.945c0,33.585-27.324,60.909-60.909,60.909
	s-60.908-27.324-60.908-60.909C202.851,210.042,215.625,189.434,235.469,179.057z M263.759,409.687
	c-44.117,0-86.172-16.325-118.797-46.026v-69.155c22.307,42.912,67.183,72.293,118.797,72.293c20.256,0,39.731-4.434,57.884-13.179
	c3.731-1.798,5.3-6.28,3.502-10.012c-1.798-3.732-6.283-5.299-10.012-3.502c-16.105,7.758-33.391,11.692-51.374,11.692
	c-65.505,0-118.797-53.292-118.797-118.796c0-28.14,10.061-55.451,28.328-76.903c16.106-18.914,37.693-32.283,61.491-38.287v45.037
	c-28.283,11.653-46.931,39.184-46.931,70.152c0,41.857,34.053,75.909,75.908,75.909c41.856,0,75.909-34.052,75.909-75.909
	c0-24.511-11.682-46.87-30.576-60.909h26.732v3.168c0,7.499,6.101,13.601,13.6,13.601h24.62c5.645,14.027,8.513,28.849,8.513,44.14
	c0,33.957-14.64,66.385-40.164,88.972c-3.103,2.745-3.392,7.485-0.647,10.587c1.482,1.675,3.547,2.53,5.62,2.53
	c1.767,0,3.54-0.621,4.967-1.883c28.741-25.432,45.225-61.955,45.225-100.205c0-17.084-3.179-33.655-9.44-49.35
	c1.822-2.314,2.918-5.224,2.918-8.39v-64.67c1.447,1.504,2.878,3.028,4.276,4.588c29.104,32.461,45.133,74.304,45.133,117.822
	C440.444,330.427,361.184,409.687,263.759,409.687z"/>
<g>
</g>
<g>
</g>
<g>
</g>
<g>
</g>
<g>
</g>
<g>
</g>
<g>
</g>
<g>
</g>
<g>
</g>
<g>
</g>
<g>
</g>
<g>
</g>
<g>
</g>
<g>
</g>
<g>
</g>
</svg>
