<?xml version="1.0" encoding="iso-8859-1"?>
<!-- Generator: Adobe Illustrator 19.0.0, SVG Export Plug-In . SVG Version: 6.00 Build 0)  -->
<svg version="1.1" id="Capa_1" xmlns="http://www.w3.org/2000/svg" xmlns:xlink="http://www.w3.org/1999/xlink" x="0px" y="0px"
	 viewBox="0 0 512 512" style="enable-background:new 0 0 512 512;" xml:space="preserve">
<path style="fill:#F5D7B7;" d="M344.772,484.135l-41.78,18.767c-11.572,5.198-24.767-2.793-25.522-15.457l0,0
	c-5.089-85.383-16.561-170.265-34.32-253.935l-12.945-60.989l73.687-12.993l27.478,185.47c5.174,34.923,14.659,69.07,28.238,101.659
	l0,0C365.626,461.107,359.049,477.722,344.772,484.135z"/>
<path style="opacity:0.15;fill:#8D4330;enable-background:new    ;" d="M237.999,209.244l3.846,18.118
	c15.213,7.942,30.376,18.544,33.457,34.425c2.555,13.174-3.434,29.203-17.805,47.784c1.054,6.367,2.079,12.738,3.06,19.115
	c23.467-26.548,32.973-49.388,29.038-69.671C284.491,232.696,257.913,218.618,237.999,209.244z M329.227,330.546l-2.291-15.464
	c-11.786,5.85-20.688,15.656-26.094,28.966c-12.471,30.707-3.334,71.152,7.751,87.37c1.41,2.064,3.693,3.172,6.018,3.172
	c1.415,0,2.845-0.411,4.101-1.27c3.32-2.269,4.171-6.799,1.902-10.119c-9.259-13.548-16.31-48.985-6.282-73.675
	C317.693,341.254,322.686,334.919,329.227,330.546z"/>
<path style="fill:#E68392;" d="M359.606,446.659L359.606,446.659c-7.958-19.099-14.498-38.736-19.6-58.748
	c-20.638,11.364-46.358,21.017-68.305,28.174c2.413,23.738,4.349,47.528,5.769,71.361l0,0c0.755,12.664,13.95,20.655,25.522,15.456
	l41.78-18.767C359.049,477.722,365.626,461.107,359.606,446.659z"/>
<path style="opacity:0.15;fill:#8D4330;enable-background:new    ;" d="M282.185,208.164c9.478-1.26,18.993-2.137,28.521-2.635
	l-6.815-45.999l-73.687,12.993l12.945,60.989c17.76,83.67,29.231,168.552,34.32,253.935l0,0c0,12.636,13.031,21.067,24.557,15.89
	l42.745-19.201c5.369-2.412,9.649-6.267,12.58-10.907c-55.809-7.624-72.917-164.101-84.285-253.275
	C272.331,214.18,276.418,208.93,282.185,208.164z"/>
<path style="fill:#E68392;" d="M243.807,56.587l-87.9,15.499c-33.813,5.963-60.921,31.316-69.129,64.655l0,0
	c-1.419,5.763,3.556,11.083,9.402,10.052l41.23-7.27c5.868-1.035,11.652,2.213,13.824,7.762l11.342,28.986
	c4.894,12.508,17.93,19.828,31.157,17.495l72.026-12.701c43.562-7.681,88.172-7.207,131.561,1.399l0,0
	c9.964,1.977,19.736-4.176,22.261-14.016l0,0c13.441-52.374,3.633-108.001-26.911-152.619l0,0
	c-5.738-8.382-17.025-10.821-25.712-5.556l0,0C329.126,33.202,287.369,48.905,243.807,56.587z"/>
<g>
	<path style="fill:#C7C9CC;" d="M392.667,15.832c-5.738-8.382-17.025-10.821-25.712-5.556l0,0
		c-11.282,6.837-22.919,13.016-34.843,18.547l26.12,148.132c13.096,1.12,26.145,2.945,39.085,5.512l0,0
		c9.964,1.977,19.736-4.176,22.261-14.016l0,0C433.019,116.078,423.21,60.451,392.667,15.832L392.667,15.832z"/>
	<path style="fill:#C7C9CC;" d="M86.777,136.741L86.777,136.741c-1.419,5.763,3.556,11.083,9.401,10.053l40.657-7.168
		l-20.158-49.751C102.13,101.559,91.424,117.868,86.777,136.741z"/>
</g>
<g>
	
		<ellipse transform="matrix(-0.1736 -0.9848 0.9848 -0.1736 94.2435 341.6543)" style="fill:#F8B8BD;" cx="190.469" cy="131.285" rx="16.33" ry="20.506"/>
	
		<ellipse transform="matrix(0.1736 0.9848 -0.9848 0.1736 358.137 -202.8583)" style="fill:#F8B8BD;" cx="299.941" cy="111.966" rx="16.33" ry="20.506"/>
</g>
<path style="opacity:0.15;fill:#8D4330;enable-background:new    ;" d="M419.577,168.451c1.661-6.474,2.965-12.998,3.921-19.545
	c-240.168,29.634-268.314-27.795-242.53-81.239l-25.063,4.419c-33.812,5.963-60.921,31.316-69.129,64.655l0,0
	c-1.419,5.763,3.556,11.083,9.402,10.052l41.23-7.27c5.868-1.035,11.652,2.213,13.824,7.762l11.341,28.987
	c4.894,12.508,17.93,19.828,31.157,17.495l72.026-12.701c43.562-7.681,88.172-7.207,131.561,1.399l0,0
	C407.281,184.443,417.053,178.291,419.577,168.451L419.577,168.451z"/>
<path d="M285.332,105.522c0.432,0,0.872-0.038,1.313-0.115c4.082-0.721,6.808-4.614,6.088-8.696l-1.258-7.131
	c-0.721-4.082-4.612-6.806-8.696-6.088c-4.082,0.721-6.808,4.614-6.088,8.696l1.258,7.131
	C278.592,102.96,281.759,105.522,285.332,105.522z M398.861,11.593c-7.984-11.663-23.706-15.061-35.796-7.736
	c-10.944,6.633-22.189,12.618-33.691,17.978c-0.295,0.115-0.577,0.252-0.852,0.402c-27.319,12.643-56.117,21.686-86.019,26.959
	l-58.839,10.375c-4.082,0.72-6.808,4.613-6.089,8.696c0.721,4.083,4.613,6.811,8.695,6.089l58.84-10.375
	c28.128-4.96,55.319-13.114,81.287-24.339l22.764,129.105c-28.241-1.666-56.582-0.029-84.71,4.931l-72.026,12.7
	c-9.668,1.704-19.286-3.694-22.864-12.839l-11.342-28.986c-2.746-7.02-9.174-11.742-16.386-12.575l-16.042-39.591
	c7.819-5.416,16.68-9.47,26.269-11.824c4.026-0.988,6.488-5.052,5.5-9.078s-5.056-6.49-9.078-5.5
	c-34.15,8.38-60.588,34.807-68.997,68.965c-1.275,5.181,0.14,10.599,3.784,14.496c3.644,3.896,8.954,5.667,14.209,4.742l40.77-7.189
	h0.001l0.459-0.081c2.338-0.416,4.665,0.894,5.529,3.105l11.342,28.986c5.41,13.828,18.821,22.693,33.286,22.692
	c2.041,0,4.102-0.176,6.164-0.539l32.366-5.707l8.408,39.615c17.624,83.032,29.12,168.093,34.17,252.823
	c0.501,8.409,5.103,16.035,12.308,20.4c4.064,2.462,8.663,3.708,13.28,3.708c3.569,0,7.15-0.746,10.501-2.251l41.78-18.767
	c11.463-5.149,19.363-15.657,21.133-28.109c0.583-4.104-2.271-7.904-6.375-8.487c-4.101-0.579-7.903,2.271-8.487,6.375
	c-1.042,7.323-5.685,13.501-12.423,16.529l-41.78,18.767c-3.231,1.452-6.822,1.232-9.854-0.603c-3.03-1.835-4.89-4.917-5.1-8.453
	c-1.304-21.885-3.041-43.792-5.193-65.68c21.599-7.261,40.16-14.77,55.396-22.402c2.877,10.343,6.135,20.577,9.764,30.659
	c1.101,3.061,3.986,4.966,7.062,4.966c0.844,0,1.702-0.143,2.542-0.445c3.9-1.403,5.924-5.703,4.52-9.604
	c-9.383-26.07-16.199-53.185-20.26-80.591l-23.783-160.536c14.037-0.518,28.081-0.176,42.09,1.008
	c0.284,0.043,0.572,0.069,0.864,0.079c12.67,1.103,25.311,2.883,37.893,5.379c13.865,2.748,27.477-5.82,30.992-19.512
	C440.827,115.848,430.626,57.995,398.861,11.593z M94.874,139.402c-0.112,0.019-0.376,0.067-0.639-0.213
	c-0.262-0.28-0.198-0.542-0.17-0.652c3.392-13.779,10.281-26.053,19.693-35.881l12.638,31.189L94.874,139.402z M323.944,346.1
	c1.885,12.73,4.35,25.397,7.367,37.935c-14.363,7.433-32.169,14.796-53.114,21.963c-6.274-58.465-15.541-116.735-27.706-174.046
	l-8.301-39.107l24.868-4.385c10.941-1.929,21.918-3.329,32.906-4.211L323.944,346.1z M412.308,166.586
	c-1.534,5.978-7.477,9.719-13.531,8.519c-11.344-2.25-22.734-3.95-34.151-5.114L340.503,33.181
	c10.33-4.999,20.453-10.492,30.342-16.487c5.277-3.197,12.141-1.715,15.628,3.378C415.795,62.905,425.211,116.307,412.308,166.586z
	 M240.7,118.804c1.314,0,2.634-0.114,3.948-0.345c6.477-1.142,12.142-5.033,15.542-10.675c2.14-3.551,0.996-8.163-2.555-10.303
	c-3.552-2.141-8.163-0.995-10.303,2.555c-1.16,1.924-3.088,3.251-5.291,3.64c-2.207,0.389-4.469-0.198-6.218-1.61
	c-3.224-2.605-7.95-2.103-10.555,1.123c-2.605,3.225-2.103,7.951,1.123,10.555C230.477,117.042,235.534,118.804,240.7,118.804z
	 M199.408,120.673c0.432,0,0.872-0.038,1.312-0.115c4.082-0.72,6.808-4.613,6.089-8.695l-1.257-7.131
	c-0.72-4.082-4.609-6.807-8.695-6.089c-4.082,0.72-6.808,4.613-6.089,8.695l1.257,7.131
	C192.667,118.111,195.834,120.673,199.408,120.673z"/>
<g>
</g>
<g>
</g>
<g>
</g>
<g>
</g>
<g>
</g>
<g>
</g>
<g>
</g>
<g>
</g>
<g>
</g>
<g>
</g>
<g>
</g>
<g>
</g>
<g>
</g>
<g>
</g>
<g>
</g>
</svg>
