<?xml version="1.0" encoding="iso-8859-1"?>
<!-- Generator: Adobe Illustrator 19.0.0, SVG Export Plug-In . SVG Version: 6.00 Build 0)  -->
<svg version="1.1" id="Capa_1" xmlns="http://www.w3.org/2000/svg" xmlns:xlink="http://www.w3.org/1999/xlink" x="0px" y="0px"
	 viewBox="0 0 512 512" style="enable-background:new 0 0 512 512;" xml:space="preserve">
<path style="fill:#DDEFF5;" d="M366.477,183.744H107.616c-7.61,0-14.465-4.602-17.347-11.646l0,0
	c-4.022-9.832-13.591-16.256-24.215-16.256H42.098c-14.673,0-25.378,13.881-21.648,28.073l4.568,17.383
	c7.068,26.894,31.38,45.642,59.186,45.642h77.125c22.175,0,40.945,16.375,43.953,38.346l3.106,22.692
	c5.31,38.794,38.451,67.707,77.607,67.707h151.064c27.825,0,52.22-18.589,59.603-45.416l0,0c7.026-25.53,0.491-52.879-17.317-72.475
	l-36.645-40.323C423.179,195.991,395.501,183.744,366.477,183.744z"/>
<path style="opacity:0.15;fill:#003A63;enable-background:new    ;" d="M437.058,375.684c14.318,0,27.721-4.932,38.372-13.366
	C280.187,366.4,256.076,236.299,262.313,183.744H107.616c-7.61,0-14.465-4.602-17.347-11.646l0,0
	c-4.022-9.832-13.591-16.256-24.215-16.256H42.098c-14.673,0-25.378,13.881-21.647,28.073l4.568,17.383
	c7.068,26.894,31.38,45.642,59.186,45.642h77.125c22.175,0,40.945,16.375,43.953,38.346l3.106,22.692
	c5.31,38.794,38.451,67.707,77.607,67.707L437.058,375.684L437.058,375.684z"/>
<path style="fill:#7397DA;" d="M185.089,183.744h-77.473c-7.61,0-14.465-4.602-17.347-11.646l0,0
	c-4.022-9.832-13.591-16.256-24.215-16.256H42.098c-14.673,0-25.378,13.881-21.647,28.073l4.568,17.383
	c7.068,26.894,31.38,45.642,59.186,45.642h37.69L185.089,183.744z"/>
<path style="fill:#E68392;" d="M338.61,266.527h-26.812v-26.813c0-3.767-3.054-6.821-6.821-6.821h-16.955
	c-3.767,0-6.821,3.054-6.821,6.821v26.812h-26.812c-3.767,0-6.821,3.054-6.821,6.821v16.955c0,3.767,3.054,6.821,6.821,6.821h26.812
	v26.812c0,3.767,3.054,6.821,6.821,6.821h16.955c3.767,0,6.821-3.054,6.821-6.821v-26.812h26.812c3.767,0,6.821-3.054,6.821-6.821
	v-16.955C345.431,269.581,342.377,266.527,338.61,266.527z"/>
<path style="opacity:0.15;fill:#8D4330;enable-background:new    ;" d="M276.491,266.527h-22.103c-3.767,0-6.821,3.054-6.821,6.821
	v16.955c0,3.767,3.054,6.821,6.821,6.821h26.812v26.812c0,3.767,3.054,6.821,6.821,6.821h16.955c3.767,0,6.821-3.054,6.821-6.821
	v-9.754C295.632,299.686,284.271,283.185,276.491,266.527z"/>
<path style="fill:#A8D1EC;" d="M368.487,238.84l3.587,11.068c8.585,26.492,33.262,44.434,61.109,44.434h64.69
	c-2.734-13.421-9.025-26.09-18.53-36.549l-36.645-40.323c-0.772-0.85-1.562-1.68-2.36-2.501h-54.496
	C373.454,214.97,364.667,227.053,368.487,238.84z"/>
<path style="fill:#C7C9CC;" d="M255.586,116.117H105.824c-20.895,0-40.311-10.786-51.35-28.528l0,0
	c-5.444-8.749,0.847-20.074,11.152-20.074h153.167c20.319,0,36.792,16.472,36.792,36.792L255.586,116.117L255.586,116.117z"/>
<path style="fill:#495059;" d="M22.923,258.946c-3.95,0-7.9-1.507-10.913-4.52c-6.028-6.027-6.028-15.799,0-21.826l81.033-81.034
	c6.026-6.028,15.799-6.028,21.826,0c6.028,6.027,6.028,15.799,0,21.826l-81.033,81.033
	C30.822,257.439,26.873,258.946,22.923,258.946z"/>
<path style="fill:#C7C9CC;" d="M445.545,116.117c10.305,0,16.596-11.325,11.152-20.074l0,0
	c-11.039-17.741-30.455-28.528-51.35-28.528H292.378c-20.319,0-36.792,16.472-36.792,36.792v11.81H445.545z"/>
<g>
	<path style="fill:#495059;" d="M255.586,67.514L255.586,67.514c-12.86,0-23.286,10.425-23.286,23.285v92.945h46.571V90.8
		C278.872,77.94,268.447,67.514,255.586,67.514z"/>
	<rect x="324.187" y="375.687" style="fill:#495059;" width="27.549" height="39.031"/>
</g>
<rect x="324.187" y="375.687" style="opacity:0.15;enable-background:new    ;" width="27.549" height="19.517"/>
<path style="fill:#495059;" d="M429.235,444.485H232.387c-8.219,0-14.882-6.663-14.882-14.882s6.663-14.882,14.882-14.882h196.848
	c13.484,0,26.162-5.251,35.697-14.786l14.162-14.162c5.811-5.812,15.233-5.812,21.046-0.001c5.812,5.812,5.812,15.235,0,21.046
	l-14.162,14.163C470.821,436.139,450.669,444.485,429.235,444.485z"/>
<circle style="fill:#C7C9CC;" cx="63.441" cy="202.994" r="15.429"/>
<path d="M288.021,338.259h16.956c7.897,0,14.32-6.424,14.32-14.321v-19.311h19.311c7.897,0,14.321-6.424,14.321-14.321v-16.956
	c0-7.897-6.425-14.321-14.321-14.321h-19.311v-19.312c0-7.897-6.424-14.321-14.32-14.321h-16.956
	c-7.896,0-14.321,6.424-14.321,14.321v19.311h-19.311c-7.896,0-14.321,6.424-14.321,14.321v16.956
	c0,7.897,6.425,14.321,14.321,14.321H273.7v19.311C273.699,331.835,280.124,338.259,288.021,338.259z M255.067,289.625v-15.598
	H281.2c4.143,0,7.5-3.358,7.5-7.5v-26.133h15.598v26.133c0,4.142,3.357,7.5,7.5,7.5h26.134v15.598h-26.134
	c-4.143,0-7.5,3.358-7.5,7.5v26.134H288.7v-26.134c0-4.142-3.357-7.5-7.5-7.5H255.067z M505.444,380.467
	c-4.229-4.227-9.85-6.555-15.827-6.554c-5.978,0-11.599,2.329-15.824,6.556l-14.163,14.162
	c-8.118,8.118-18.912,12.589-30.394,12.589h-69.998v-24.036h77.82c31.1,0,58.582-20.941,66.834-50.926
	c7.752-28.166,0.649-57.889-18.998-79.509l-36.644-40.323c-0.847-0.931-1.713-1.841-2.588-2.74
	c-0.011-0.011-0.022-0.022-0.033-0.034c-20.728-21.274-49.354-33.409-79.152-33.409h-6.419c-4.142,0-7.5,3.358-7.5,7.5
	s3.358,7.5,7.5,7.5h6.419c19.083,0,37.611,5.761,53.218,16.225h-33.852c-8.333,0-15.922,3.865-20.822,10.605
	c-4.9,6.739-6.237,15.15-3.669,23.077l3.587,11.068c9.618,29.681,37.044,49.622,68.244,49.622h58.337
	c0.984,8.708,0.323,17.663-2.091,26.436c-6.466,23.496-28.002,39.906-52.371,39.906H285.994c-35.23,0-65.397-26.321-70.177-61.224
	l-3.106-22.692c-3.497-25.557-25.588-44.829-51.383-44.829H84.205c-7.135,0-14.137-1.412-20.647-4.128l44.066-44.067H324.71
	c4.142,0,7.5-3.358,7.5-7.5s-3.358-7.5-7.5-7.5h-38.338v-52.627h159.173c7.602,0,14.345-3.967,18.037-10.613
	c3.692-6.646,3.5-14.468-0.517-20.924c-12.494-20.077-34.072-32.065-57.718-32.065H292.378c-7.091,0-13.975,1.677-20.198,4.875
	c-4.793-3.08-10.486-4.875-16.594-4.875s-11.801,1.795-16.593,4.875c-6.223-3.198-13.107-4.875-20.198-4.875H65.626
	c-7.602,0-14.346,3.968-18.038,10.614s-3.499,14.468,0.518,20.923c12.495,20.078,34.072,32.065,57.719,32.065h118.976v52.627
	H122.271c2.982-3.952,4.619-8.728,4.619-13.766c0-6.125-2.386-11.885-6.717-16.216c-4.332-4.332-10.091-6.718-16.217-6.718
	c-6.127,0-11.886,2.386-16.217,6.718l-5.988,5.988c-4.818-2.544-10.21-3.909-15.696-3.909H42.098
	c-9.337,0-17.962,4.241-23.665,11.634c-5.701,7.394-7.61,16.814-5.237,25.845l4.568,17.382c0.865,3.291,2.009,6.52,3.365,9.669
	L6.706,227.295c-8.941,8.942-8.941,23.492,0,32.434c4.332,4.332,10.091,6.717,16.217,6.717s11.885-2.385,16.217-6.717l13.16-13.16
	c9.82,5.158,20.732,7.871,31.905,7.871h77.124c18.334,0,34.035,13.698,36.522,31.863l3.106,22.692
	c2.814,20.559,12.976,39.395,28.612,53.036c15.636,13.641,35.676,21.154,56.426,21.154h30.695v24.036h-84.303
	c-12.342,0-22.382,10.04-22.382,22.382c0,12.342,10.04,22.382,22.382,22.382H243.3c4.143,0,7.5-3.358,7.5-7.5
	c0-4.142-3.357-7.5-7.5-7.5h-10.913c-4.07,0-7.382-3.311-7.382-7.382c0-4.07,3.312-7.382,7.382-7.382h196.848
	c15.487,0,30.049-6.031,41-16.983l14.163-14.163c1.395-1.394,3.247-2.162,5.219-2.162s3.826,0.768,5.221,2.162
	c1.395,1.394,2.162,3.247,2.162,5.219c0,1.972-0.768,3.826-2.163,5.22l-14.162,14.163c-13.74,13.74-32.009,21.307-51.44,21.307
	H278.156c-4.143,0-7.5,3.358-7.5,7.5c0,4.142,3.357,7.5,7.5,7.5h151.078c23.438,0,45.474-9.127,62.047-25.702l14.161-14.162
	c4.229-4.228,6.557-9.849,6.557-15.827C512,390.316,509.672,384.695,505.444,380.467z M433.183,286.842
	c-24.677,0-46.367-15.772-53.975-39.246l-3.587-11.068c-1.072-3.308-0.514-6.818,1.531-9.631c2.045-2.812,5.213-4.426,8.69-4.426
	h51.263c0.014,0.015,0.028,0.03,0.042,0.045l36.646,40.323c6.458,7.106,11.263,15.277,14.307,24.004H433.183z M292.378,75.014
	h112.969c18.429,0,35.245,9.342,44.983,24.99c1.581,2.541,0.625,4.843,0.141,5.715c-0.483,0.871-1.933,2.898-4.925,2.898H286.373
	V90.799c0-5.117-1.262-9.943-3.481-14.193C285.921,75.568,289.113,75.014,292.378,75.014z M239.8,90.799
	c0-8.704,7.082-15.785,15.786-15.785s15.785,7.081,15.785,15.785v85.445H239.8V90.799z M105.824,108.617
	c-18.429,0-35.245-9.342-44.982-24.99c-1.581-2.541-0.626-4.842-0.142-5.714c0.484-0.871,1.934-2.898,4.926-2.898h153.167
	c3.265,0,6.457,0.554,9.487,1.592c-2.219,4.251-3.481,9.076-3.481,14.193v17.816C224.8,108.617,105.824,108.617,105.824,108.617z
	 M98.347,156.869c1.498-1.498,3.49-2.324,5.609-2.324s4.111,0.826,5.61,2.325c1.498,1.498,2.323,3.49,2.323,5.609
	c0,2.119-0.825,4.111-2.324,5.61l-25.324,25.324c-1.102-2.4-2.614-4.657-4.588-6.631c-1.974-1.974-4.231-3.486-6.631-4.589
	L98.347,156.869z M30.312,169.137c2.84-3.683,7.135-5.794,11.785-5.794h23.957c1.393,0,2.773,0.176,4.121,0.484l-37.371,37.371
	c-0.181-0.601-0.372-1.2-0.532-1.806l-4.568-17.383C26.521,177.51,27.472,172.819,30.312,169.137z M45.747,231.907
	c-0.018,0.018-0.035,0.035-0.053,0.053l-17.161,17.161c-1.498,1.498-3.49,2.323-5.609,2.323s-4.111-0.825-5.609-2.323
	c-3.094-3.093-3.094-8.126,0-11.22l18.153-18.153c0.015-0.015,0.03-0.03,0.045-0.045l7.125-7.125c1.102,2.4,2.614,4.656,4.588,6.63
	c1.974,1.974,4.231,3.486,6.631,4.589L45.747,231.907z M57.833,208.602c-3.092-3.092-3.092-8.122,0-11.213
	c1.545-1.545,3.575-2.318,5.605-2.318c2.031,0,4.062,0.773,5.607,2.318c3.092,3.092,3.092,8.122,0,11.213
	C65.955,211.692,60.923,211.693,57.833,208.602z M344.237,407.22h-12.548v-24.036h12.548V407.22z"/>
<g>
</g>
<g>
</g>
<g>
</g>
<g>
</g>
<g>
</g>
<g>
</g>
<g>
</g>
<g>
</g>
<g>
</g>
<g>
</g>
<g>
</g>
<g>
</g>
<g>
</g>
<g>
</g>
<g>
</g>
</svg>
