<?xml version="1.0" encoding="iso-8859-1"?>
<!-- Generator: Adobe Illustrator 19.0.0, SVG Export Plug-In . SVG Version: 6.00 Build 0)  -->
<svg version="1.1" id="Capa_1" xmlns="http://www.w3.org/2000/svg" xmlns:xlink="http://www.w3.org/1999/xlink" x="0px" y="0px"
	 viewBox="0 0 512 512" style="enable-background:new 0 0 512 512;" xml:space="preserve">
<rect x="152.6" y="182.69" style="fill:#E68392;" width="206.8" height="271.46"/>
<path style="opacity:0.15;fill:#8D4330;enable-background:new    ;" d="M152.6,182.685v271.464h206.801v-6.461
	c-88.109-36.95-116.164-195.566-113.78-265.003H152.6z"/>
<g>
	<path style="fill:#F8B8BD;" d="M374.248,119.698H137.752c-10.7,0-19.374,8.674-19.374,19.374v24.239
		c0,10.7,8.674,19.374,19.374,19.374h236.497c10.7,0,19.374-8.674,19.374-19.374v-24.239
		C393.622,128.372,384.948,119.698,374.248,119.698z"/>
	<path style="fill:#F8B8BD;" d="M374.248,337.571H137.752c-10.7,0-19.374,8.674-19.374,19.374v24.239
		c0,10.7,8.674,19.374,19.374,19.374h236.497c10.7,0,19.374-8.674,19.374-19.374v-24.239
		C393.622,346.245,384.948,337.571,374.248,337.571z"/>
	<path style="fill:#F8B8BD;" d="M376.3,454.149H135.7c-9.567,0-17.322,7.755-17.322,17.322v25.195c0,4.327,3.507,7.834,7.834,7.834
		h259.576c4.327,0,7.834-3.507,7.834-7.834V471.47C393.622,461.904,385.867,454.149,376.3,454.149z"/>
	<circle style="fill:#F8B8BD;" cx="256" cy="260.13" r="49.872"/>
</g>
<circle style="fill:#E68392;" cx="256" cy="260.13" r="20.636"/>
<path style="fill:#F8B8BD;" d="M129.355,310H152.6v-99.744h-23.245c-6.062,0-10.977,4.914-10.977,10.977v77.791
	C118.378,305.085,123.292,310,129.355,310z"/>
<path style="fill:#E68392;" d="M118.378,280.763h-17.075c-3.152,0-5.708-2.555-5.708-5.708V245.2c0-3.152,2.555-5.708,5.708-5.708
	h17.075C118.378,239.492,118.378,280.763,118.378,280.763z"/>
<path style="fill:#F8B8BD;" d="M382.645,310H359.4v-99.744h23.245c6.062,0,10.977,4.914,10.977,10.977v77.791
	C393.622,305.085,388.708,310,382.645,310z"/>
<g>
	<path style="fill:#E68392;" d="M393.622,280.763h17.075c3.152,0,5.708-2.555,5.708-5.708V245.2c0-3.152-2.556-5.708-5.708-5.708
		h-17.075V280.763z"/>
	<path style="fill:#E68392;" d="M221.71,40.6h68.58c38.169,0,69.111,30.942,69.111,69.111v9.988H152.6v-9.988
		C152.6,71.542,183.541,40.6,221.71,40.6z"/>
</g>
<path style="fill:#F8B8BD;" d="M273.189,7.5h-34.378c-8.284,0-14.999,6.715-14.999,14.999V40.6h64.376V22.499
	C288.188,14.215,281.473,7.5,273.189,7.5z"/>
<g>
	<path style="opacity:0.15;fill:#8D4330;enable-background:new    ;" d="M234.058,40.6H221.71
		c-38.169,0-69.111,30.942-69.111,69.111v9.988h107.017C234.734,100.155,224.282,66.341,234.058,40.6z"/>
	<g style="opacity:0.15;">
		<path style="fill:#8D4330;" d="M256,95.559c-4.143,0-7.5-3.358-7.5-7.5V72.24c0-4.142,3.357-7.5,7.5-7.5s7.5,3.358,7.5,7.5v15.819
			C263.5,92.201,260.143,95.559,256,95.559z"/>
		<path style="fill:#8D4330;" d="M199.089,95.559c-4.143,0-7.5-3.358-7.5-7.5V72.24c0-4.142,3.357-7.5,7.5-7.5s7.5,3.358,7.5,7.5
			v15.819C206.589,92.201,203.231,95.559,199.089,95.559z"/>
		<path style="fill:#8D4330;" d="M312.911,95.559c-4.143,0-7.5-3.358-7.5-7.5V72.24c0-4.142,3.357-7.5,7.5-7.5s7.5,3.358,7.5,7.5
			v15.819C320.411,92.201,317.054,95.559,312.911,95.559z"/>
	</g>
	<path style="opacity:0.15;fill:#8D4330;enable-background:new    ;" d="M137.752,337.571c-10.7,0-19.374,8.674-19.374,19.374
		v24.239c0,10.7,8.674,19.374,19.374,19.374h173.731c-31.301-10.728-37.823-38.741-28.738-62.986H137.752V337.571z"/>
	<path style="opacity:0.15;fill:#8D4330;enable-background:new    ;" d="M137.752,119.698c-10.7,0-19.374,8.674-19.374,19.374
		v24.239c0,10.7,8.674,19.374,19.374,19.374h173.731c-31.301-10.728-37.708-42.047-27.853-62.986L137.752,119.698L137.752,119.698z"
		/>
	<path style="opacity:0.15;fill:#8D4330;enable-background:new    ;" d="M283.362,454.148H135.7
		c-9.567,0-17.322,7.755-17.322,17.322v25.195c0,4.327,3.508,7.834,7.834,7.834h187.047
		C289.825,497.505,276.636,484.041,283.362,454.148z"/>
</g>
<path d="M329.266,376.312c4.003,0,7.248-3.245,7.248-7.248s-3.245-7.248-7.248-7.248s-7.248,3.245-7.248,7.248
	C322.018,373.067,325.263,376.312,329.266,376.312z M256,376.312c4.003,0,7.248-3.245,7.248-7.248s-3.245-7.248-7.248-7.248
	c-4.003,0-7.248,3.245-7.248,7.248C248.752,373.067,251.997,376.312,256,376.312z M410.697,231.992h-9.575v-10.759
	c0-10.189-8.288-18.477-18.477-18.477H366.9v-12.571h7.348c14.818,0,26.874-12.056,26.874-26.874v-24.239
	c0-14.818-12.056-26.874-26.874-26.874H366.9v-2.487c0-40.426-31.481-73.617-71.212-76.399V22.499
	C295.689,10.093,285.596,0,273.19,0h-34.379c-12.406,0-22.499,10.093-22.499,22.499v10.796c-11.637,0.82-22.961,4.277-33.034,10.13
	c-3.582,2.081-4.798,6.671-2.718,10.252c2.082,3.582,6.671,4.798,10.253,2.717c9.341-5.427,20.024-8.295,30.898-8.295h68.58
	c33.972,0,61.61,27.639,61.61,61.611v2.487H160.1v-2.487c0-10.935,2.899-21.672,8.384-31.051c2.091-3.576,0.887-8.17-2.688-10.26
	c-3.576-2.091-8.168-0.888-10.261,2.688C148.709,82.761,145.1,96.116,145.1,109.71v2.487h-7.348
	c-14.818,0-26.874,12.056-26.874,26.874v24.239c0,14.818,12.056,26.874,26.874,26.874h7.348v12.571h-15.745
	c-10.189,0-18.477,8.288-18.477,18.477v10.759h-9.575c-7.283,0-13.208,5.925-13.208,13.208v29.855
	c0,7.283,5.925,13.208,13.208,13.208h9.575v10.76c0,10.188,8.288,18.477,18.477,18.477H145.1v12.571h-7.348
	c-14.818,0-26.874,12.055-26.874,26.873v24.239c0,14.818,12.056,26.874,26.874,26.874h7.348v38.592h-9.4
	c-13.687,0-24.822,11.135-24.822,24.822v25.196c0,8.455,6.879,15.334,15.334,15.334h259.576c8.455,0,15.334-6.879,15.334-15.334
	V471.47c0-13.687-11.135-24.822-24.822-24.822h-9.4v-38.592h7.348c14.818,0,26.874-12.056,26.874-26.874v-24.239
	c0-14.818-12.056-26.873-26.874-26.873H366.9V317.5h15.745c10.189,0,18.477-8.289,18.477-18.477v-10.76h9.575
	c7.283,0,13.208-5.925,13.208-13.208V245.2C423.905,237.917,417.98,231.992,410.697,231.992z M280.689,33.1h-49.377V22.499
	c0-4.135,3.364-7.499,7.499-7.499h34.379c4.135,0,7.499,3.364,7.499,7.499V33.1z M110.878,273.263h-7.783v-26.271h7.783V273.263z
	 M129.355,302.5c-1.917,0-3.477-1.56-3.477-3.477v-77.79c0-1.917,1.56-3.477,3.477-3.477H145.1V302.5H129.355z M376.3,461.648
	c5.416,0,9.822,4.406,9.822,9.822v25.196c0,0.184-0.149,0.334-0.334,0.334H126.212c-0.185,0-0.334-0.15-0.334-0.334V471.47
	c0-5.415,4.406-9.822,9.822-9.822h168.554c4.143,0,7.5-3.358,7.5-7.5s-3.357-7.5-7.5-7.5H160.1v-38.592h191.8v38.592h-12.657
	c-4.143,0-7.5,3.358-7.5,7.5s3.357,7.5,7.5,7.5H376.3z M374.248,345.071c6.548,0,11.874,5.327,11.874,11.873v24.239
	c0,6.547-5.326,11.874-11.874,11.874H137.752c-6.548,0-11.874-5.327-11.874-11.874v-24.239c0-6.547,5.326-11.873,11.874-11.873
	H374.248z M160.1,330.071V190.185h191.8v139.886L160.1,330.071L160.1,330.071z M137.752,175.185
	c-6.548,0-11.874-5.327-11.874-11.874v-24.239c0-6.547,5.326-11.874,11.874-11.874h236.496c6.548,0,11.874,5.327,11.874,11.874
	v24.239c0,6.547-5.326,11.874-11.874,11.874H137.752z M386.122,299.023c0,1.917-1.56,3.477-3.477,3.477H366.9v-84.744h15.745
	c1.917,0,3.477,1.56,3.477,3.477L386.122,299.023L386.122,299.023z M408.905,273.263h-7.783v-26.271h7.783V273.263z
	 M182.734,376.312c4.003,0,7.248-3.245,7.248-7.248s-3.245-7.248-7.248-7.248c-4.003,0-7.248,3.245-7.248,7.248
	C175.485,373.067,178.73,376.312,182.734,376.312z M182.734,143.943c-4.003,0-7.248,3.245-7.248,7.248s3.245,7.248,7.248,7.248
	c4.003,0,7.248-3.245,7.248-7.248C189.982,147.188,186.737,143.943,182.734,143.943z M329.266,143.943
	c-4.003,0-7.248,3.245-7.248,7.248s3.245,7.248,7.248,7.248s7.248-3.245,7.248-7.248
	C336.515,147.188,333.27,143.943,329.266,143.943z M256,143.943c-4.003,0-7.248,3.245-7.248,7.248s3.245,7.248,7.248,7.248
	c4.003,0,7.248-3.245,7.248-7.248C263.248,147.188,260.003,143.943,256,143.943z M256,202.755
	c-31.635,0-57.372,25.737-57.372,57.372s25.737,57.372,57.372,57.372s57.372-25.737,57.372-57.372S287.635,202.755,256,202.755z
	 M256,302.5c-23.364,0-42.372-19.008-42.372-42.372s19.008-42.372,42.372-42.372s42.372,19.008,42.372,42.372
	S279.364,302.5,256,302.5z M256,231.992c-15.514,0-28.136,12.622-28.136,28.136s12.622,28.136,28.136,28.136
	s28.136-12.622,28.136-28.136C284.136,244.613,271.514,231.992,256,231.992z M256,273.263c-7.243,0-13.136-5.893-13.136-13.136
	c0-7.243,5.893-13.136,13.136-13.136c7.243,0,13.136,5.893,13.136,13.136C269.136,267.371,263.243,273.263,256,273.263z"/>
<g>
</g>
<g>
</g>
<g>
</g>
<g>
</g>
<g>
</g>
<g>
</g>
<g>
</g>
<g>
</g>
<g>
</g>
<g>
</g>
<g>
</g>
<g>
</g>
<g>
</g>
<g>
</g>
<g>
</g>
</svg>
