<?xml version="1.0" encoding="iso-8859-1"?>
<!-- Generator: Adobe Illustrator 19.0.0, SVG Export Plug-In . SVG Version: 6.00 Build 0)  -->
<svg version="1.1" id="Capa_1" xmlns="http://www.w3.org/2000/svg" xmlns:xlink="http://www.w3.org/1999/xlink" x="0px" y="0px"
	 viewBox="0 0 512.001 512.001" style="enable-background:new 0 0 512.001 512.001;" xml:space="preserve">
<path style="fill:#7397DA;" d="M300.571,122.744h-89.14c-13.704,0-24.813,11.109-24.813,24.813v214.882h138.766V147.557
	C325.384,133.853,314.275,122.744,300.571,122.744z"/>
<rect x="234.611" y="406.94" style="fill:#DDEFF5;" width="42.773" height="68.795"/>
<rect x="234.611" y="406.94" style="opacity:0.15;fill:#003A63;enable-background:new    ;" width="42.773" height="24.554"/>
<path style="fill:#7397DA;" d="M303.149,475.739h-94.297c-3.659,0-6.624,2.966-6.624,6.624v15.512c0,3.659,2.966,6.625,6.624,6.625
	h94.297c3.659,0,6.624-2.966,6.624-6.625v-15.512C309.774,478.705,306.808,475.739,303.149,475.739z"/>
<path style="fill:#A8D1EC;" d="M349.728,406.944H162.274c-6.726,0-12.179-5.453-12.179-12.179v-20.148
	c0-6.726,5.453-12.179,12.179-12.179h187.454c6.726,0,12.179,5.453,12.179,12.179v20.148
	C361.907,401.491,356.454,406.944,349.728,406.944z"/>
<path style="opacity:0.15;fill:#003A63;enable-background:new    ;" d="M325.384,350.483
	c-92.909-20.776-103.738-164.382-98.924-227.739h-15.029c-13.704,0-24.813,11.109-24.813,24.813v214.882h138.766V350.483z"/>
<rect x="186.621" y="201.8" style="fill:#F9E78D;" width="138.77" height="160.64"/>
<path style="fill:#A8D1EC;" d="M292.395,122.744h-72.788V93.055c0-4.555,3.693-8.248,8.248-8.248h56.292
	c4.555,0,8.248,3.693,8.248,8.248V122.744z"/>
<g>
	<ellipse style="fill:#F8B8BD;" cx="210.381" cy="259.69" rx="16.832" ry="13.404"/>
	<ellipse style="fill:#F8B8BD;" cx="301.621" cy="259.69" rx="16.832" ry="13.404"/>
</g>
<g style="opacity:0.15;">
	<path style="fill:#003A63;" d="M301.619,330.569h-33.421c-4.143,0-7.5-3.358-7.5-7.5s3.357-7.5,7.5-7.5h33.421
		c4.142,0,7.5,3.358,7.5,7.5S305.762,330.569,301.619,330.569z"/>
	<path style="fill:#003A63;" d="M301.619,299.848h-33.421c-4.143,0-7.5-3.358-7.5-7.5s3.357-7.5,7.5-7.5h33.421
		c4.142,0,7.5,3.358,7.5,7.5S305.762,299.848,301.619,299.848z"/>
	<path style="fill:#003A63;" d="M301.619,178.579h-33.421c-4.143,0-7.5-3.358-7.5-7.5s3.357-7.5,7.5-7.5h33.421
		c4.142,0,7.5,3.358,7.5,7.5S305.762,178.579,301.619,178.579z"/>
</g>
<path style="opacity:0.15;fill:#8D4330;enable-background:new    ;" d="M325.384,350.483
	c-63.102-14.111-88.334-84.877-96.526-148.683h-42.24v160.638h138.766V350.483z"/>
<path style="opacity:0.15;fill:#003A63;enable-background:new    ;" d="M162.274,362.438c-6.726,0-12.179,5.453-12.179,12.179
	v20.148c0,6.726,5.453,12.179,12.179,12.179h131.567c-14.964-10.337-18.835-32.685-15.664-44.506L162.274,362.438L162.274,362.438z"
	/>
<path d="M256.001,258.387c5.787,0,11.29-2.505,15.096-6.874c2.721-3.124,2.395-7.861-0.728-10.581
	c-3.122-2.721-7.86-2.396-10.582,0.728c-0.562,0.645-1.801,1.727-3.785,1.727c-1.984,0-3.224-1.082-3.785-1.727
	c-2.723-3.124-7.46-3.45-10.582-0.728c-3.123,2.721-3.449,7.458-0.729,10.581C244.711,255.881,250.214,258.387,256.001,258.387z
	 M349.728,354.938h-16.845V147.557c0-17.817-14.495-32.313-32.313-32.313h-0.677V93.055c0-8.684-7.065-15.748-15.748-15.748h-20.644
	V7.5c0-4.142-3.357-7.5-7.5-7.5s-7.5,3.358-7.5,7.5v69.807h-20.646c-8.684,0-15.748,7.064-15.748,15.748v22.189h-0.677
	c-10.044,0-19.345,4.552-25.518,12.488c-2.543,3.27-1.954,7.981,1.315,10.524c3.268,2.544,7.98,1.954,10.525-1.315
	c3.311-4.256,8.296-6.697,13.678-6.697h89.141c9.546,0,17.313,7.767,17.313,17.313V194.3H194.118v-32.33c0-4.142-3.357-7.5-7.5-7.5
	s-7.5,3.358-7.5,7.5v192.968h-16.845c-10.851,0-19.679,8.828-19.679,19.679v20.148c0,10.851,8.828,19.679,19.679,19.679h64.841
	v53.795h-18.262c-7.788,0-14.124,6.336-14.124,14.125v15.512c0,7.788,6.336,14.125,14.124,14.125h94.297
	c7.788,0,14.124-6.336,14.124-14.125v-15.512c0-7.788-6.336-14.125-14.124-14.125h-18.262v-53.795h22.132c4.142,0,7.5-3.358,7.5-7.5
	s-3.358-7.5-7.5-7.5H162.273c-2.58,0-4.679-2.099-4.679-4.679v-20.148c0-2.58,2.099-4.679,4.679-4.679h187.455
	c2.58,0,4.679,2.099,4.679,4.679v20.148c0,2.58-2.099,4.679-4.679,4.679h-7.771c-4.143,0-7.5,3.358-7.5,7.5s3.357,7.5,7.5,7.5h7.771
	c10.851,0,19.679-8.828,19.679-19.679v-20.148C369.407,363.766,360.579,354.938,349.728,354.938z M284.895,115.244h-57.787V93.055
	c0-0.413,0.336-0.748,0.748-0.748h56.291c0.412,0,0.748,0.336,0.748,0.748L284.895,115.244L284.895,115.244z M302.273,483.239V497
	h-92.545v-13.761H302.273z M242.114,414.444h27.773v53.795h-27.773L242.114,414.444L242.114,414.444z M317.884,354.938H194.118
	V209.3h123.766V354.938z M291.81,253.822c4.143,0,7.5-3.358,7.5-7.5v-5.944c0-4.142-3.357-7.5-7.5-7.5s-7.5,3.358-7.5,7.5v5.944
	C284.31,250.464,287.667,253.822,291.81,253.822z M220.192,253.822c4.143,0,7.5-3.358,7.5-7.5v-5.944c0-4.142-3.357-7.5-7.5-7.5
	s-7.5,3.358-7.5,7.5v5.944C212.692,250.464,216.05,253.822,220.192,253.822z"/>
<g>
</g>
<g>
</g>
<g>
</g>
<g>
</g>
<g>
</g>
<g>
</g>
<g>
</g>
<g>
</g>
<g>
</g>
<g>
</g>
<g>
</g>
<g>
</g>
<g>
</g>
<g>
</g>
<g>
</g>
</svg>
