<?xml version="1.0" encoding="iso-8859-1"?>
<!-- Generator: Adobe Illustrator 19.0.0, SVG Export Plug-In . SVG Version: 6.00 Build 0)  -->
<svg version="1.1" id="Capa_1" xmlns="http://www.w3.org/2000/svg" xmlns:xlink="http://www.w3.org/1999/xlink" x="0px" y="0px"
	 viewBox="0 0 511.999 511.999" style="enable-background:new 0 0 511.999 511.999;" xml:space="preserve">
<rect x="111.194" y="310.591" transform="matrix(-0.7071 -0.7071 0.7071 -0.7071 82.685 689.8175)" style="fill:#7397DA;" width="146.029" height="34.387"/>
<g>
	
		<rect x="130.174" y="264.774" transform="matrix(-0.7071 -0.7071 0.7071 -0.7071 36.8587 579.2014)" style="opacity:0.15;fill:#003A63;enable-background:new    ;" width="16.423" height="34.387"/>
	
		<rect x="221.815" y="356.421" transform="matrix(-0.7071 -0.7071 0.7071 -0.7071 128.4943 800.4523)" style="opacity:0.15;fill:#003A63;enable-background:new    ;" width="16.423" height="34.386"/>
</g>
<rect x="203.26" y="218.531" transform="matrix(-0.7071 -0.7071 0.7071 -0.7071 304.9475 597.7609)" style="fill:#7397DA;" width="146.029" height="34.386"/>
<g>
	
		<rect x="222.24" y="172.71" transform="matrix(-0.7071 -0.7071 0.7071 -0.7071 259.1241 487.138)" style="opacity:0.15;fill:#003A63;enable-background:new    ;" width="16.423" height="34.386"/>
	
		<rect x="313.89" y="264.361" transform="matrix(-0.7071 -0.7071 0.7071 -0.7071 350.7731 708.4031)" style="opacity:0.15;fill:#003A63;enable-background:new    ;" width="16.423" height="34.386"/>
</g>
<rect x="295.328" y="126.468" transform="matrix(-0.7071 -0.7071 0.7071 -0.7071 527.2163 505.7018)" style="fill:#7397DA;" width="146.029" height="34.386"/>
<path style="fill:#F5D7B7;" d="M72.858,335.885l-29.47-29.47l295.62-295.62c4.394-4.394,11.519-4.394,15.913,0l13.557,13.557
	c4.394,4.394,4.394,11.519,0,15.913L72.858,335.885z"/>
<path style="fill:#495059;" d="M59.144,369.983L9.291,320.129c-2.566-2.566-2.337-6.791,0.49-9.065l9.796-7.878
	c6.49-5.219,15.869-4.712,21.758,1.177l33.575,33.575c5.889,5.889,6.396,15.268,1.177,21.758l-7.878,9.796
	C65.935,372.32,61.71,372.548,59.144,369.983z"/>
<path style="opacity:0.15;enable-background:new    ;" d="M68.209,369.492l3.54-4.401c-21.05-13.778-39.179-40.858-43.508-65.417
	c-3.076,0.294-6.096,1.448-8.663,3.512l-9.796,7.878c-2.828,2.274-3.056,6.499-0.49,9.065l49.853,49.853
	C61.71,372.548,65.935,372.32,68.209,369.492z"/>
<path style="fill:#F5D7B7;" d="M176.119,439.147l29.47,29.47l295.62-295.62c4.394-4.394,4.394-11.519,0-15.913l-13.557-13.557
	c-4.394-4.394-11.519-4.394-15.913,0L176.119,439.147z"/>
<path style="fill:#495059;" d="M142.022,452.861l49.853,49.853c2.566,2.566,6.791,2.337,9.065-0.49l7.878-9.796
	c5.219-6.49,4.712-15.869-1.177-21.758l-33.575-33.575c-5.889-5.889-15.268-6.396-21.758-1.177l-9.796,7.878
	C139.685,446.069,139.456,450.295,142.022,452.861z"/>
<path style="opacity:0.15;enable-background:new    ;" d="M200.94,502.223l3.54-4.402c-21.05-13.778-39.179-40.858-43.508-65.417
	c-3.076,0.294-6.096,1.448-8.663,3.512l-9.796,7.878c-2.828,2.274-3.056,6.499-0.49,9.065l49.853,49.853
	C194.441,505.28,198.666,505.051,200.94,502.223z"/>
<g>
	<circle style="fill:#E68392;" cx="301.98" cy="77.3" r="7.182"/>
	<circle style="fill:#E68392;" cx="209.91" cy="169.36" r="7.182"/>
	<circle style="fill:#E68392;" cx="117.84" cy="261.43" r="7.182"/>
	<circle style="fill:#E68392;" cx="434.71" cy="210.03" r="7.182"/>
	<circle style="fill:#E68392;" cx="342.64" cy="302.09" r="7.182"/>
	<circle style="fill:#E68392;" cx="250.57" cy="394.16" r="7.182"/>
</g>
<g>
	
		<rect x="314.306" y="80.64" transform="matrix(-0.7071 -0.7071 0.7071 -0.7071 481.3929 395.0648)" style="opacity:0.15;fill:#003A63;enable-background:new    ;" width="16.423" height="34.386"/>
	
		<rect x="405.955" y="172.291" transform="matrix(-0.7071 -0.7071 0.7071 -0.7071 573.041 616.3302)" style="opacity:0.15;fill:#003A63;enable-background:new    ;" width="16.423" height="34.387"/>
</g>
<g>
	<path style="opacity:0.15;fill:#8D4330;enable-background:new    ;" d="M43.388,306.415l29.47,29.47l149.911-149.911
		c-18.922-4.994-17.95-27.254-7.943-50.997L43.388,306.415z"/>
	<path style="opacity:0.15;fill:#8D4330;enable-background:new    ;" d="M176.119,439.147l29.47,29.47L355.5,318.706
		c-18.922-4.994-17.949-27.254-7.943-50.997L176.119,439.147z"/>
</g>
<path d="M506.512,151.78l-13.557-13.557c-7.311-7.31-19.208-7.312-26.52,0l-34.303,34.303l-92.654-92.655l34.303-34.303
	c7.311-7.312,7.311-19.209,0-26.521L360.224,5.493C356.682,1.951,351.973,0,346.964,0s-9.718,1.95-13.26,5.492l-23.618,23.617
	c-2.929,2.93-2.929,7.678,0,10.607c2.929,2.927,7.678,2.929,10.607,0L344.311,16.1c0.957-0.957,2.073-1.1,2.653-1.1
	c0.581,0,1.697,0.143,2.653,1.1l13.557,13.557c1.463,1.463,1.463,3.843,0,5.306l-39.606,39.606c0,0,0,0-0.001,0.001
	c0,0,0,0-0.001,0.001l-92.064,92.065c-0.001,0.001-0.002,0.001-0.002,0.002c-0.001,0.001-0.001,0.002-0.002,0.002L115.122,283.015
	c-0.001,0.001-0.003,0.003-0.004,0.004s-0.003,0.003-0.004,0.004l-42.256,42.256l-18.864-18.863L295.936,64.475
	c2.929-2.93,2.929-7.678,0-10.607c-2.929-2.928-7.678-2.928-10.606,0L43.07,296.126c-8.501-5.725-19.924-5.434-28.193,1.215
	l-9.796,7.879c-3.005,2.416-4.848,6.01-5.057,9.86c-0.208,3.852,1.236,7.625,3.963,10.353l49.852,49.852
	c2.554,2.555,6.025,3.983,9.618,3.983c0.243,0,0.487-0.007,0.731-0.02c3.851-0.208,7.446-2.051,9.864-5.057l7.878-9.797
	c6.65-8.268,6.942-19.69,1.216-28.193l37.273-37.273l92.654,92.654l-37.274,37.274c-8.502-5.725-19.924-5.434-28.193,1.215
	l-9.797,7.879c-3.005,2.417-4.848,6.012-5.056,9.863c-0.208,3.85,1.237,7.623,3.964,10.35l0,0l49.854,49.854
	c2.554,2.554,6.024,3.982,9.618,3.982c0.244,0,0.488-0.007,0.732-0.02c3.851-0.209,7.445-2.051,9.863-5.057l7.877-9.797
	c6.65-8.268,6.942-19.691,1.216-28.194l28.18-28.18c2.929-2.93,2.929-7.678,0-10.607c-2.929-2.928-7.678-2.928-10.606,0
	l-27.863,27.863l-18.863-18.863L477.04,148.829c0.957-0.957,2.073-1.1,2.654-1.1c0.58,0,1.697,0.143,2.653,1.1l13.557,13.557
	c0.957,0.956,1.099,2.072,1.099,2.653c0,0.58-0.143,1.696-1.099,2.652L258.087,405.512c-2.929,2.93-2.929,7.678,0,10.607
	c2.929,2.928,7.678,2.928,10.606,0l237.818-237.818C513.823,170.989,513.823,159.092,506.512,151.78z M70.243,354.995l-6.899,8.58
	L15.699,315.93l8.58-6.9c3.513-2.824,8.566-2.552,11.754,0.637l31.514,31.513c0.003,0.003,0.006,0.007,0.009,0.01
	c0.003,0.003,0.007,0.005,0.009,0.009l2.042,2.042C72.795,346.429,73.068,351.482,70.243,354.995z M202.338,475.973
	c3.188,3.188,3.461,8.24,0.635,11.754l-6.899,8.58l-47.645-47.646l8.58-6.899c3.514-2.826,8.566-2.553,11.754,0.636L202.338,475.973
	z M223.682,380.976l-92.654-92.654l13.708-13.708l92.654,92.654L223.682,380.976z M247.997,356.662l-92.654-92.654l57.146-57.146
	l92.654,92.654L247.997,356.662z M315.75,288.909l-92.654-92.654l13.708-13.708l92.654,92.655L315.75,288.909z M340.065,264.594
	l-92.654-92.655l57.145-57.145l92.654,92.654L340.065,264.594z M407.817,196.842l-92.654-92.654l13.708-13.708l92.654,92.655
	L407.817,196.842z"/>
<g>
</g>
<g>
</g>
<g>
</g>
<g>
</g>
<g>
</g>
<g>
</g>
<g>
</g>
<g>
</g>
<g>
</g>
<g>
</g>
<g>
</g>
<g>
</g>
<g>
</g>
<g>
</g>
<g>
</g>
</svg>
