<?xml version="1.0" encoding="iso-8859-1"?>
<!-- Generator: Adobe Illustrator 19.0.0, SVG Export Plug-In . SVG Version: 6.00 Build 0)  -->
<svg version="1.1" id="Capa_1" xmlns="http://www.w3.org/2000/svg" xmlns:xlink="http://www.w3.org/1999/xlink" x="0px" y="0px"
	 viewBox="0 0 511.998 511.998" style="enable-background:new 0 0 511.998 511.998;" xml:space="preserve">
<rect x="106.44" y="349.969" style="fill:#A8D1EC;" width="299.12" height="33.842"/>
<g>
	<polygon style="opacity:0.15;fill:#003A63;enable-background:new    ;" points="163.178,349.966 106.44,349.966 106.44,383.808 
		151.739,383.808 	"/>
	<polygon style="opacity:0.15;fill:#003A63;enable-background:new    ;" points="348.822,349.966 405.56,349.966 405.56,383.808 
		360.261,383.808 	"/>
</g>
<path style="fill:#F1C372;" d="M477.738,285.64H34.262c-14.78,0-26.762-11.982-26.762-26.762v-48.946
	c0-14.78,11.982-26.762,26.762-26.762h443.475c14.78,0,26.762,11.982,26.762,26.762v48.946
	C504.5,273.658,492.518,285.64,477.738,285.64z"/>
<g>
	<ellipse style="fill:#FFFFFF;" cx="188.02" cy="250.099" rx="25.08" ry="19.976"/>
	<ellipse style="fill:#FFFFFF;" cx="323.98" cy="250.099" rx="25.08" ry="19.976"/>
</g>
<path style="opacity:0.15;fill:#8D4330;enable-background:new    ;" d="M34.262,183.17c-14.781,0-26.762,11.982-26.762,26.762
	v48.946c0,14.78,11.982,26.762,26.762,26.762h215.271c-64.103-17.163-78.76-56.608-51.714-102.47L34.262,183.17L34.262,183.17z"/>
<g>
	<path style="fill:#495059;" d="M169.013,183.17H34.262c-14.78,0-26.762,11.982-26.762,26.762v48.946
		c0,14.78,11.982,26.762,26.762,26.762h32.281L169.013,183.17z"/>
	<path style="fill:#495059;" d="M445.457,183.17l-102.47,102.47h134.751c14.78,0,26.762-11.982,26.762-26.762v-48.946
		c0-14.78-11.982-26.762-26.762-26.762H445.457z"/>
</g>
<path style="fill:#F5D7B7;" d="M97.214,436.334h-34.08c-7.002,0-11.934-6.875-9.692-13.507L99.813,285.64h56.184l-48.424,143.262
	C106.07,433.344,101.903,436.334,97.214,436.334z"/>
<path style="fill:#E68392;" d="M139.294,75.664h-23.909c-9.614,0-17.867,6.84-19.652,16.287l-10.657,56.406h84.527l-10.657-56.406
	C157.161,82.504,148.908,75.664,139.294,75.664z"/>
<path style="opacity:0.15;fill:#8D4330;enable-background:new    ;" d="M123.981,75.664h-8.596c-9.614,0-17.867,6.84-19.652,16.287
	l-10.657,56.406h56.052C122.821,130.382,111.984,100.156,123.981,75.664z"/>
<path style="fill:#A8D1EC;" d="M186.418,183.17H68.261v-27.263c0-4.17,3.381-7.551,7.551-7.551h103.055
	c4.17,0,7.551,3.381,7.551,7.551V183.17z"/>
<path style="fill:#F5D7B7;" d="M414.786,436.334h34.08c7.001,0,11.934-6.875,9.692-13.507L412.187,285.64h-56.184l48.424,143.262
	C405.93,433.344,410.097,436.334,414.786,436.334z"/>
<path style="fill:#E68392;" d="M372.706,75.664h23.909c9.614,0,17.867,6.84,19.652,16.287l10.657,56.406h-84.527l10.657-56.406
	C354.839,82.504,363.092,75.664,372.706,75.664z"/>
<path style="opacity:0.15;fill:#8D4330;enable-background:new    ;" d="M381.302,75.664h-8.596c-9.614,0-17.867,6.84-19.652,16.287
	l-10.657,56.406h56.052C380.143,130.382,369.305,100.156,381.302,75.664z"/>
<path style="fill:#A8D1EC;" d="M325.582,183.17h118.157v-27.263c0-4.17-3.381-7.551-7.551-7.551H333.133
	c-4.17,0-7.551,3.381-7.551,7.551V183.17z"/>
<g>
	<polygon style="opacity:0.15;fill:#8D4330;enable-background:new    ;" points="412.188,285.64 356.004,285.64 366.888,317.843 
		423.073,317.843 	"/>
	<polygon style="opacity:0.15;fill:#8D4330;enable-background:new    ;" points="88.928,317.843 145.112,317.843 155.996,285.64 
		99.812,285.64 	"/>
</g>
<path d="M309.363,213.81c-4.143,0-7.5,3.357-7.5,7.5v8.857c0,4.143,3.357,7.5,7.5,7.5s7.5-3.357,7.5-7.5v-8.857
	C316.863,217.168,313.506,213.81,309.363,213.81z M477.737,175.67h-26.498v-19.763c0-8.299-6.752-15.051-15.051-15.051h-3.048
	l-9.503-50.299c-2.452-12.976-13.816-22.394-27.021-22.394h-23.909c-13.205,0-24.569,9.418-27.022,22.394l-9.502,50.299h-3.049
	c-8.299,0-15.051,6.752-15.051,15.051v19.763H193.918v-19.763c0-8.299-6.752-15.051-15.051-15.051h-3.048l-9.503-50.299
	c-2.452-12.976-13.815-22.394-27.021-22.394h-23.909c-13.206,0-24.57,9.418-27.022,22.394l-9.502,50.299h-3.048
	c-8.299,0-15.051,6.752-15.051,15.051v19.763H34.262C15.37,175.67,0,191.04,0,209.933v48.945c0,18.893,15.37,34.263,34.262,34.263
	H89.36L46.336,420.426c-1.825,5.397-0.931,11.385,2.391,16.015s8.708,7.394,14.406,7.394h34.08c7.911,0,14.929-5.035,17.463-12.531
	l13.519-39.995h255.608l13.519,39.996c2.533,7.495,9.552,12.53,17.463,12.53h34.08c5.699,0,11.084-2.764,14.406-7.394
	c3.322-4.63,4.216-10.617,2.392-16.015l-4.472-13.229c-1.327-3.925-5.585-6.026-9.507-4.704c-3.925,1.327-6.03,5.583-4.704,9.507
	l4.472,13.228c0.391,1.155-0.063,2.042-0.367,2.467c-0.306,0.425-1,1.139-2.22,1.139h-34.08c-1.474,0-2.781-0.938-3.253-2.334
	l-26.623-78.764c0-0.001-0.001-0.002-0.001-0.004l-18.453-54.592h40.349l28.689,84.872c1.058,3.128,3.977,5.101,7.104,5.101
	c0.797,0,1.607-0.128,2.402-0.396c3.924-1.327,6.03-5.583,4.704-9.507l-27.065-80.069h55.097c18.893,0,34.263-15.37,34.263-34.263
	v-48.945C512,191.04,496.63,175.67,477.737,175.67z M360.423,93.343c1.115-5.898,6.28-10.179,12.283-10.179h23.909
	c6.003,0,11.168,4.281,12.283,10.179l8.975,47.514h-66.427L360.423,93.343z M333.133,155.856l103.106,0.051v19.763H333.096
	L333.133,155.856z M103.102,93.343c1.115-5.898,6.28-10.179,12.283-10.179h23.909c6.002,0,11.168,4.28,12.282,10.179l8.977,47.514
	H94.126L103.102,93.343z M75.812,155.856l103.106,0.051v19.763H75.775L75.812,155.856z M84.65,278.141l42.646-42.646
	c2.929-2.93,2.929-7.678,0-10.607c-2.929-2.928-7.678-2.928-10.606,0l-53.254,53.254H34.262C23.641,278.141,15,269.499,15,258.878
	v-48.945c0-10.621,8.641-19.263,19.262-19.263h116.644l-9.115,9.115c-2.929,2.93-2.929,7.678,0,10.607
	c1.464,1.464,3.384,2.196,5.303,2.196c1.919,0,3.839-0.732,5.303-2.196l19.722-19.723H427.35l-87.471,87.471H84.65V278.141z
	 M127.092,347.731c-0.001,0.002-0.001,0.004-0.002,0.006l-26.623,78.762c-0.472,1.397-1.78,2.335-3.253,2.335h-34.08
	c-1.22,0-1.914-0.714-2.219-1.139c-0.305-0.426-0.759-1.311-0.368-2.467l44.648-132.088h40.351L127.092,347.731z M378.734,376.308
	H133.266l6.369-18.842h232.729L378.734,376.308z M367.295,342.466h-222.59l16.673-49.325h189.244L367.295,342.466z M497,258.878
	c0,10.621-8.642,19.263-19.263,19.263H361.094l87.471-87.471h29.173c10.621,0,19.263,8.642,19.263,19.263v48.945H497z
	 M274.996,224.906c-3.123-2.722-7.861-2.397-10.581,0.728c-2.125,2.438-5.191,3.836-8.415,3.836c-3.223,0-6.29-1.398-8.415-3.836
	c-2.721-3.123-7.458-3.448-10.581-0.728c-3.123,2.721-3.448,7.459-0.727,10.581c4.974,5.709,12.163,8.982,19.723,8.982
	s14.75-3.273,19.724-8.982C278.445,232.365,278.119,227.627,274.996,224.906z M202.637,213.81c-4.142,0-7.5,3.357-7.5,7.5v8.857
	c0,4.143,3.358,7.5,7.5,7.5s7.5-3.357,7.5-7.5v-8.857C210.137,217.168,206.779,213.81,202.637,213.81z"/>
<g>
</g>
<g>
</g>
<g>
</g>
<g>
</g>
<g>
</g>
<g>
</g>
<g>
</g>
<g>
</g>
<g>
</g>
<g>
</g>
<g>
</g>
<g>
</g>
<g>
</g>
<g>
</g>
<g>
</g>
</svg>
