<?xml version="1.0" encoding="iso-8859-1"?>
<!-- Generator: Adobe Illustrator 19.0.0, SVG Export Plug-In . SVG Version: 6.00 Build 0)  -->
<svg version="1.1" id="Capa_1" xmlns="http://www.w3.org/2000/svg" xmlns:xlink="http://www.w3.org/1999/xlink" x="0px" y="0px"
	 viewBox="0 0 511.998 511.998" style="enable-background:new 0 0 511.998 511.998;" xml:space="preserve">
<path id="SVGCleanerId_0" style="fill:#7397DA;" d="M171.448,153.042h-39.631V27.315c0-10.944,8.872-19.815,19.815-19.815l0,0
	c10.944,0,19.815,8.872,19.815,19.815L171.448,153.042L171.448,153.042z"/>
<g>
	<path id="SVGCleanerId_0_1_" style="fill:#7397DA;" d="M171.448,153.042h-39.631V27.315c0-10.944,8.872-19.815,19.815-19.815l0,0
		c10.944,0,19.815,8.872,19.815,19.815L171.448,153.042L171.448,153.042z"/>
</g>
<path style="opacity:0.15;fill:#003A63;enable-background:new    ;" d="M171.448,115.102
	c-28.58-19.365-34.112-80.806-29.865-104.843c-5.838,3.448-9.766,9.786-9.766,17.056v125.727h39.631L171.448,115.102
	L171.448,115.102z"/>
<path style="fill:#E68392;" d="M192.494,176.702h-81.722v-38.189c0-7.388,5.989-13.377,13.377-13.377h54.968
	c7.388,0,13.377,5.989,13.377,13.377V176.702z"/>
<path style="fill:#495059;" d="M281.2,504.5H132.173c-24.621,0-44.581-19.96-44.581-44.581v-90.375c0-3.218,1.215-6.317,3.401-8.678
	l0,0c5.701-6.157,8.868-14.239,8.868-22.63v-14.522c0-6.091-2.176-11.982-6.135-16.611l0,0c-3.959-4.629-6.135-10.52-6.135-16.611
	v-90.197c0-24.621,19.96-44.581,44.581-44.581h149.026c24.621,0,44.581,19.96,44.581,44.581v90.197
	c0,6.091-2.176,11.982-6.135,16.611l0,0c-3.959,4.629-6.135,10.52-6.135,16.611v14.522c0,8.391,3.167,16.473,8.868,22.63l0,0
	c2.186,2.361,3.401,5.46,3.401,8.678v90.375C325.781,484.54,305.821,504.5,281.2,504.5z"/>
<path style="opacity:0.15;enable-background:new    ;" d="M132.173,504.5h149.026c14.841,0,27.98-7.259,36.083-18.413
	C150.426,452.554,167.087,237.714,170.88,155.712h-38.707c-24.622,0-44.581,19.96-44.581,44.581v90.197
	c0,6.091,2.176,11.982,6.135,16.611s6.135,10.52,6.135,16.611v14.522c0,8.391-3.167,16.473-8.868,22.63l0,0
	c-2.186,2.361-3.401,5.46-3.401,8.678v90.375C87.592,484.54,107.552,504.5,132.173,504.5z"/>
<path style="fill:#F9E78D;" d="M276.089,357.836V313.56c0-5.288,2.648-10.224,7.053-13.149l9.451-6.275
	c3.618-2.403,5.793-6.457,5.793-10.8v-83.041c0-9.491-7.694-17.185-17.185-17.185H132.173c-9.491,0-17.185,7.694-17.185,17.185
	v83.041c0,4.343,2.175,8.397,5.793,10.8l9.451,6.275c4.405,2.925,7.053,7.862,7.053,13.149v44.276
	c0,5.426-3.521,10.225-8.697,11.854l-7.365,2.317c-3.71,1.167-6.234,4.607-6.234,8.496v79.415c0,9.491,7.694,17.185,17.185,17.185
	H281.2c9.491,0,17.185-7.694,17.185-17.185v-79.415c0-3.889-2.524-7.329-6.234-8.496l-7.365-2.317
	C279.61,368.061,276.089,363.262,276.089,357.836z"/>
<circle style="fill:#E68392;" cx="177.559" cy="338.81" r="16.615"/>
<circle style="fill:#7397DA;" cx="235.809" cy="338.81" r="16.615"/>
<path style="opacity:0.15;fill:#8D4330;enable-background:new    ;" d="M285.192,476.619
	C166.513,428.992,165.889,270.515,169.59,183.108h-37.417c-9.491,0-17.185,7.694-17.185,17.185v83.041
	c0,4.343,2.175,8.397,5.793,10.8l9.451,6.275c4.405,2.925,7.053,7.862,7.053,13.149v44.276c0,5.426-3.521,10.225-8.697,11.854
	l-7.365,2.317c-3.71,1.167-6.234,4.607-6.234,8.496v79.415c0,9.491,7.694,17.185,17.185,17.185H281.2
	C282.577,477.104,283.909,476.925,285.192,476.619z"/>
<path style="fill:#7397DA;" d="M247.836,214.981h-82.3c-7.495,0-13.571,6.076-13.571,13.571v36.467
	c0,7.495,6.076,13.571,13.571,13.571h82.3c7.495,0,13.571-6.076,13.571-13.571v-36.467
	C261.407,221.057,255.331,214.981,247.836,214.981z"/>
<path style="fill:#FFFFFF;" d="M232.335,264.029c-4.143,0-7.5-3.357-7.5-7.5v-19.487c0-4.143,3.357-7.5,7.5-7.5s7.5,3.357,7.5,7.5
	v19.487C239.835,260.672,236.477,264.029,232.335,264.029z"/>
<path style="opacity:0.15;fill:#003A63;enable-background:new    ;" d="M168.668,214.981h-3.131
	c-7.495,0-13.571,6.076-13.571,13.571v36.467c0,7.495,6.076,13.571,13.571,13.571h5.173
	C168.815,256.359,168.415,234.706,168.668,214.981z"/>
<path d="M246.695,383.359h-80.018c-4.143,0-7.5,3.357-7.5,7.5s3.357,7.5,7.5,7.5h80.018c4.143,0,7.5-3.357,7.5-7.5
	S250.838,383.359,246.695,383.359z M246.695,410.931h-80.018c-4.143,0-7.5,3.357-7.5,7.5s3.357,7.5,7.5,7.5h80.018
	c4.143,0,7.5-3.357,7.5-7.5C254.195,414.288,250.838,410.931,246.695,410.931z M246.695,438.501h-80.018c-4.143,0-7.5,3.357-7.5,7.5
	s3.357,7.5,7.5,7.5h80.018c4.143,0,7.5-3.357,7.5-7.5C254.195,441.858,250.838,438.501,246.695,438.501z M281.2,115.337
	c-4.143,0-7.5,3.357-7.5,7.5s3.357,7.5,7.5,7.5c38.574,0,69.956,31.382,69.956,69.956c0,4.143,3.357,7.5,7.5,7.5s7.5-3.357,7.5-7.5
	C366.156,153.448,328.045,115.337,281.2,115.337z M281.2,175.608H132.174c-13.611,0-24.685,11.074-24.685,24.686v83.041
	c0,6.872,3.418,13.245,9.144,17.048l9.451,6.275c2.317,1.539,3.701,4.119,3.701,6.901v44.276c0,2.162-1.386,4.051-3.448,4.699
	l-7.365,2.317c-6.868,2.16-11.482,8.45-11.482,15.65v79.416c0,13.611,11.074,24.686,24.685,24.686h149.026
	c13.611,0,24.685-11.074,24.685-24.686v-7.448c0-4.143-3.357-7.5-7.5-7.5c-4.142,0-7.5,3.357-7.5,7.5v7.448
	c0,5.341-4.345,9.686-9.685,9.686H132.174c-5.341,0-9.685-4.345-9.685-9.686v-79.416c0-0.617,0.396-1.156,0.984-1.342l7.365-2.317
	c8.342-2.625,13.946-10.264,13.946-19.008V313.56c0-7.82-3.89-15.072-10.404-19.397l-9.45-6.275
	c-1.528-1.015-2.441-2.717-2.441-4.552v-83.041c0-5.341,4.345-9.686,9.685-9.686H281.2c5.34,0,9.685,4.345,9.685,9.686v83.041
	c0,1.835-0.912,3.537-2.44,4.552l-9.451,6.275c-6.515,4.325-10.404,11.577-10.404,19.397v44.276c0,8.744,5.604,16.383,13.946,19.008
	l7.366,2.317c0.588,0.186,0.983,0.725,0.983,1.342v37.928c0,4.143,3.358,7.5,7.5,7.5c4.143,0,7.5-3.357,7.5-7.5v-37.928
	c0-7.2-4.614-13.49-11.482-15.65l-7.364-2.317c-2.064-0.649-3.449-2.537-3.449-4.699V313.56c0-2.782,1.384-5.362,3.701-6.901
	l9.451-6.275c5.726-3.802,9.143-10.175,9.143-17.048v-83.041C305.885,186.683,294.811,175.608,281.2,175.608z M281.2,49.588
	c-4.143,0-7.5,3.357-7.5,7.5s3.357,7.5,7.5,7.5c74.828,0,135.705,60.877,135.705,135.705c0,4.143,3.357,7.5,7.5,7.5
	c4.142,0,7.5-3.357,7.5-7.5C431.905,117.194,364.299,49.588,281.2,49.588z M281.199,148.212h-81.205v-9.698
	c0-11.512-9.365-20.877-20.877-20.877h-0.169V27.315C178.948,12.254,166.694,0,151.633,0s-27.315,12.254-27.315,27.315v7.105
	c0,4.143,3.357,7.5,7.5,7.5c4.143,0,7.5-3.357,7.5-7.5v-7.105c0-6.791,5.524-12.315,12.315-12.315s12.315,5.524,12.315,12.315
	v90.321h-24.631V69.398c0-4.143-3.357-7.5-7.5-7.5c-4.143,0-7.5,3.357-7.5,7.5v48.238h-0.168c-11.512,0-20.877,9.365-20.877,20.877
	v18.478c-13.965,9.352-23.18,25.269-23.18,43.301v90.197c0,7.874,2.818,15.505,7.935,21.485c2.795,3.269,4.334,7.437,4.334,11.737
	v14.523c0,6.522-2.44,12.75-6.87,17.534c-3.481,3.758-5.398,8.649-5.398,13.774v90.375c0,28.718,23.363,52.081,52.081,52.081
	h149.025c28.718,0,52.081-23.363,52.081-52.081v-90.375c0-5.125-1.917-10.017-5.397-13.773c-4.431-4.785-6.871-11.013-6.871-17.535
	v-14.523c0-4.301,1.539-8.469,4.334-11.736c5.117-5.982,7.935-13.613,7.935-21.486v-90.197
	C333.28,171.575,309.917,148.212,281.199,148.212z M118.272,138.514c0-3.24,2.637-5.877,5.877-5.877h54.968
	c3.24,0,5.877,2.637,5.877,5.877v9.698h-52.82c-4.814,0-9.473,0.67-13.901,1.899L118.272,138.514L118.272,138.514z M318.28,290.49
	c0,4.301-1.539,8.469-4.333,11.736c-5.117,5.982-7.935,13.613-7.935,21.486v14.523c0,10.313,3.858,20.159,10.866,27.727
	c0.904,0.977,1.402,2.248,1.402,3.581v90.375c0,20.446-16.635,37.081-37.081,37.081H132.174c-20.446,0-37.081-16.635-37.081-37.081
	v-90.375c0-1.333,0.498-2.604,1.403-3.582c7.007-7.567,10.865-17.414,10.865-27.727v-14.523c0-7.872-2.817-15.503-7.935-21.486
	c-2.795-3.268-4.334-7.436-4.334-11.736v-90.197c0-20.446,16.635-37.081,37.081-37.081h149.026
	c20.446,0,37.081,16.635,37.081,37.081V290.49z M281.2,82.462c-4.143,0-7.5,3.357-7.5,7.5s3.357,7.5,7.5,7.5
	c56.701,0,102.83,46.13,102.83,102.831c0,4.143,3.357,7.5,7.5,7.5c4.142,0,7.5-3.357,7.5-7.5
	C399.03,135.32,346.172,82.462,281.2,82.462z M268.907,265.019v-36.467c0-11.618-9.452-21.07-21.071-21.07h-82.299
	c-11.619,0-21.071,9.452-21.071,21.07v36.467c0,11.619,9.452,21.071,21.071,21.071h82.299
	C259.455,286.09,268.907,276.638,268.907,265.019z M253.907,265.019c0,3.348-2.724,6.071-6.071,6.071h-82.299
	c-3.348,0-6.071-2.724-6.071-6.071v-36.467c0-3.348,2.724-6.07,6.071-6.07h82.299c3.348,0,6.071,2.723,6.071,6.07V265.019z"/>
<g>
</g>
<g>
</g>
<g>
</g>
<g>
</g>
<g>
</g>
<g>
</g>
<g>
</g>
<g>
</g>
<g>
</g>
<g>
</g>
<g>
</g>
<g>
</g>
<g>
</g>
<g>
</g>
<g>
</g>
</svg>
