<?xml version="1.0" encoding="iso-8859-1"?>
<!-- Generator: Adobe Illustrator 19.0.0, SVG Export Plug-In . SVG Version: 6.00 Build 0)  -->
<svg version="1.1" id="Capa_1" xmlns="http://www.w3.org/2000/svg" xmlns:xlink="http://www.w3.org/1999/xlink" x="0px" y="0px"
	 viewBox="0 0 511.999 511.999" style="enable-background:new 0 0 511.999 511.999;" xml:space="preserve">
<path style="fill:#C7C9CC;" d="M18.432,348.777l69.121-82.186c15.233-18.112,42.706-19.295,59.441-2.561l100.968,100.968
	c16.734,16.734,15.55,44.209-2.562,59.441l-82.211,69.138c-10.481,8.814-24.313,12.564-37.81,10.249l-67.369-11.553
	c-19.382-3.324-34.581-18.474-37.967-37.844L8.208,386.737C5.84,373.195,9.583,359.298,18.432,348.777z"/>
<path style="opacity:0.1;enable-background:new    ;" d="M118.654,472.896l-38.751-6.645c-17.303-2.967-30.872-16.493-33.896-33.786
	l-6.827-39.048c-2.364-13.52,1.363-27.394,10.182-37.91l51.761-61.717c7.931-9.457,22.262-10.084,30.989-1.357l87.447,87.447
	c8.727,8.727,8.1,23.058-1.357,30.989l-61.789,51.82C145.939,471.473,132.129,475.207,118.654,472.896z"/>
<path style="fill:#495059;" d="M252.323,306.092l-46.422-46.422c-5.211-5.211-13.66-5.211-18.871,0l-26.019,26.019
	c-17.236,17.236-24.428,42.108-19.051,65.883l0,0c2.08,9.198,9.263,16.38,18.46,18.46l0,0c23.775,5.378,48.647-1.815,65.883-19.051
	l26.019-26.019C257.534,319.751,257.534,311.303,252.323,306.092z"/>
<path style="fill:#E68392;" d="M405.236,164.447l-57.691-57.691c-18.15-18.15-18.15-47.681,0-65.829l19.815-19.815
	c18.149-18.149,47.681-18.149,65.829,0.001l57.691,57.691c18.15,18.15,18.15,47.682,0.001,65.83l-19.815,19.815
	C452.917,182.597,423.385,182.597,405.236,164.447z M405.849,48.452c-3.074-3.074-8.076-3.075-11.15,0l-19.815,19.815
	c-3.074,3.074-3.074,8.076,0,11.15l57.691,57.691c3.074,3.074,8.076,3.075,11.15,0.001l19.815-19.815
	c3.074-3.074,3.073-8.076-0.001-11.15L405.849,48.452z"/>
<path style="opacity:0.15;fill:#8D4330;enable-background:new    ;" d="M459.892,172.695c-8.779-8.166-17.212-20.044-24.738-33.872
	c-0.939-0.384-1.818-0.956-2.579-1.717l-57.691-57.691c-3.074-3.074-3.074-8.076,0-11.15L394.7,48.451
	c2.983-2.983,7.774-3.062,10.865-0.257c-1.949-16.088-1.426-30.241,2.327-40.06c-14.311-2.355-29.517,1.961-40.532,12.977
	l-19.815,19.815c-18.149,18.149-18.149,47.681,0,65.829l57.691,57.691C420.007,179.218,442.315,181.966,459.892,172.695z"/>
<rect x="273.734" y="105.1" transform="matrix(-0.7071 -0.7071 0.7071 -0.7071 368.8662 571.2765)" style="fill:#F5D7B7;" width="58.029" height="208.286"/>
<g>
	
		<rect x="335.576" y="130.719" transform="matrix(-0.7071 -0.7071 0.7071 -0.7071 518.1636 509.4413)" style="opacity:0.15;fill:#8D4330;enable-background:new    ;" width="58.029" height="33.373"/>
	<path style="opacity:0.15;fill:#8D4330;enable-background:new    ;" d="M292.766,214.035c-13.773,5.172-24.216,14.902-31.039,28.92
		c-8.838,18.163-6.291,37.973-4.28,52.622l13.091-13.091c-1.001-10.868-0.831-22.652,4.282-33.159
		c9.387-19.291,26.959-27.406,53.433-24.556l12.753-12.753C322.092,208.445,305.896,209.104,292.766,214.035z M364.687,123.897
		c-5.429,17.818-13.31,29.846-23.888,36.531c-9.435,5.963-21.404,8.132-36.815,6.549l-12.815,12.815
		c8.001,1.49,15.379,2.248,22.189,2.248c13.85,0,25.388-3.09,35.219-9.303c12.011-7.59,21.134-19.914,27.591-37.358L364.687,123.897
		z"/>
</g>
<path style="opacity:0.1;enable-background:new    ;" d="M121.864,252.361c-12.567-1.056-25.49,3.743-34.31,14.23l-69.122,82.186
	c-8.849,10.521-12.592,24.418-10.224,37.96l11.835,67.692c3.387,19.371,18.586,34.521,37.967,37.845l67.369,11.553
	c13.497,2.315,27.329-1.435,37.81-10.249l8.51-7.156C97.818,467.167,69.808,339.006,121.864,252.361z"/>
<path d="M496.183,73.499l-57.69-57.691C428.297,5.614,414.726,0,400.275,0c-14.452,0-28.024,5.614-38.219,15.809l-19.814,19.814
	c-10.195,10.194-15.81,23.767-15.81,38.219c0,14.451,5.614,28.023,15.809,38.219l3.026,3.026L208.351,252.003
	c-8.122-5.649-19.389-4.874-26.625,2.362l-16.896,16.896l-12.535-12.534c-9.458-9.458-22.55-14.572-35.91-13.976
	c-13.363,0.575-25.965,6.776-34.574,17.014l-42.717,50.79c-2.666,3.17-2.258,7.9,0.912,10.567c1.406,1.183,3.12,1.76,4.824,1.76
	c2.137,0,4.26-0.909,5.744-2.673l42.717-50.79c5.999-7.132,14.43-11.281,23.74-11.683c9.312-0.386,18.067,3.008,24.657,9.598
	l12.557,12.557c-3.663,3.86-6.886,8.023-9.646,12.424l-7.185-7.186c-5.644-5.642-13.449-8.685-21.426-8.329
	c-7.972,0.35-15.485,4.057-20.613,10.171c-2.662,3.174-2.247,7.904,0.927,10.566c3.173,2.661,7.904,2.246,10.566-0.928
	c2.468-2.942,5.94-4.656,9.777-4.824c3.849-0.159,7.447,1.235,10.162,3.95l10.783,10.784c-5.236,14.043-6.386,29.504-2.947,44.707
	c2.703,11.951,12.171,21.419,24.122,24.122c5.826,1.317,11.688,1.963,17.496,1.962c9.347,0,18.543-1.689,27.204-4.917l10.79,10.791
	c2.716,2.715,4.119,6.323,3.951,10.16c-0.168,3.838-1.881,7.31-4.825,9.779c-3.173,2.662-3.588,7.393-0.927,10.565
	c1.484,1.77,3.609,2.681,5.751,2.681c1.701,0,3.411-0.575,4.816-1.754c6.115-5.129,9.822-12.643,10.17-20.616
	c0.349-7.973-2.688-15.78-8.33-21.422l-7.199-7.2c4.402-2.761,8.564-5.983,12.425-9.647l12.57,12.571
	c6.59,6.59,9.998,15.346,9.597,24.657c-0.401,9.311-4.55,17.742-11.683,23.74l-82.211,69.138c-8.81,7.41-20.37,10.547-31.715,8.597
	L59.275,484.88c-16.216-2.781-29.015-15.539-31.848-31.745l-11.835-67.691c-1.991-11.388,1.135-22.993,8.576-31.841l3.764-4.476
	c2.666-3.17,2.258-7.9-0.912-10.567c-3.171-2.667-7.901-2.257-10.567,0.913l-3.764,4.476c-10.299,12.249-14.626,28.315-11.87,44.08
	l11.834,67.69c3.922,22.436,21.639,40.096,44.088,43.946l67.369,11.552c3.056,0.524,6.121,0.782,9.169,0.782
	c12.618-0.001,24.913-4.422,34.735-12.683l82.211-69.138c10.237-8.609,16.438-21.212,17.015-34.575
	c0.576-13.363-4.519-26.452-13.977-35.909l-12.534-12.535l16.895-16.895c3.937-3.937,6.105-9.172,6.105-14.739
	c0-4.316-1.317-8.424-3.737-11.891l136.913-136.913l3.025,3.025c10.17,10.171,23.907,15.811,38.213,15.811
	c1.385,0,2.776-0.053,4.169-0.159c4.13-0.317,7.222-3.922,6.905-8.052c-0.316-4.129-3.911-7.207-8.052-6.905
	c-11.405,0.889-22.572-3.243-30.628-11.301l-57.691-57.69c-7.361-7.361-11.416-17.167-11.416-27.611
	c0-10.445,4.055-20.251,11.416-27.611l19.814-19.815C380.024,19.055,389.829,15,400.275,15c10.444,0,20.25,4.055,27.611,11.416
	l57.691,57.691c7.361,7.361,11.416,17.167,11.416,27.611s-4.055,20.25-11.416,27.612l-18.746,18.747
	c-2.929,2.929-2.929,7.678,0.001,10.607c2.928,2.927,7.677,2.93,10.606-0.001l18.746-18.746
	c10.194-10.195,15.809-23.768,15.809-38.219C511.991,97.267,506.377,83.693,496.183,73.499z M247.02,319.659L221,345.678
	c-5.383,5.384-11.554,9.663-18.209,12.757c-0.445,0.151-0.877,0.345-1.293,0.582c-12.198,5.34-25.936,6.749-39.423,3.7
	c-6.341-1.434-11.366-6.458-12.8-12.8c-3.05-13.485-1.642-27.221,3.697-39.419c0.239-0.419,0.434-0.854,0.586-1.302
	c3.094-6.654,7.373-12.823,12.755-18.205l3.816-3.816c0.002-0.002,0.003-0.003,0.005-0.005s0.003-0.003,0.005-0.005l22.194-22.194
	c1.104-1.105,2.571-1.712,4.132-1.712s3.029,0.607,4.132,1.712l2.686,2.686c0.003,0.003,0.006,0.007,0.009,0.01
	c0.003,0.003,0.007,0.006,0.01,0.009l41.022,41.022l0,0l0,0l2.695,2.695c1.104,1.104,1.712,2.571,1.712,4.132
	C248.732,317.087,248.124,318.556,247.02,319.659z M355.876,125.693l30.424,30.423L249.628,292.79l-30.424-30.425L355.876,125.693z
	 M468.843,100.839l-57.691-57.691c-2.903-2.903-6.767-4.502-10.878-4.502s-7.975,1.599-10.879,4.502l-19.814,19.814
	c-2.903,2.904-4.502,6.768-4.502,10.879c0,4.112,1.6,7.976,4.502,10.878l57.691,57.691c2.903,2.902,6.767,4.502,10.878,4.503
	c0.001,0,0.001,0,0.002,0c4.111,0,7.975-1.6,10.878-4.502l19.814-19.814C474.842,116.598,474.841,106.838,468.843,100.839z
	 M458.237,111.989l-19.814,19.815c-0.143,0.145-0.398,0.145-0.543-0.001l-57.692-57.691c-0.03-0.03-0.108-0.108-0.108-0.271
	s0.079-0.242,0.109-0.271l19.814-19.814c0.029-0.03,0.108-0.109,0.271-0.109c0.162,0,0.24,0.078,0.271,0.108c0,0,0,0,0,0.001
	l57.691,57.691C458.381,111.591,458.381,111.845,458.237,111.989z"/>
<g>
</g>
<g>
</g>
<g>
</g>
<g>
</g>
<g>
</g>
<g>
</g>
<g>
</g>
<g>
</g>
<g>
</g>
<g>
</g>
<g>
</g>
<g>
</g>
<g>
</g>
<g>
</g>
<g>
</g>
</svg>
