<?xml version="1.0" encoding="iso-8859-1"?>
<!-- Generator: Adobe Illustrator 19.0.0, SVG Export Plug-In . SVG Version: 6.00 Build 0)  -->
<svg version="1.1" id="Capa_1" xmlns="http://www.w3.org/2000/svg" xmlns:xlink="http://www.w3.org/1999/xlink" x="0px" y="0px"
	 viewBox="0 0 512 512" style="enable-background:new 0 0 512 512;" xml:space="preserve">
<path style="fill:#F1C372;" d="M278.184,7.5h-44.367c-26.145,0-48.944,17.773-55.324,43.128L82.633,431.61h346.734L333.508,50.628
	C327.128,25.273,304.329,7.5,278.184,7.5z"/>
<path style="fill:#F9E78D;" d="M342.208,85.209c-65.325,39.448-138.474,79.073-199.964,109.484L82.633,431.61h29.232
	c81.245-38.508,193.012-99.06,278.67-154.331L342.208,85.209z"/>
<path style="fill:#495059;" d="M454.461,504.5H57.539c-14.543,0-26.332-11.789-26.332-26.332v-20.227
	c0-14.543,11.789-26.332,26.332-26.332h396.923c14.543,0,26.332,11.789,26.332,26.332v20.227
	C480.793,492.711,469.004,504.5,454.461,504.5z"/>
<g>
	<ellipse style="fill:#F8B8BD;" cx="181.99" cy="261.73" rx="27.309" ry="21.748"/>
	<ellipse style="fill:#F8B8BD;" cx="330.01" cy="261.73" rx="27.309" ry="21.748"/>
</g>
<path style="fill:#495059;" d="M256,264.809L256,264.809c-10.928,0-19.786-8.859-19.786-19.786v-14.385
	c0-2.983,2.418-5.401,5.401-5.401h28.769c2.983,0,5.401,2.418,5.401,5.401v14.385C275.786,255.951,266.927,264.809,256,264.809z"/>
<path style="opacity:0.15;fill:#8D4330;enable-background:new    ;" d="M190.76,27.132c-5.74,6.6-10.023,14.575-12.268,23.496
	L82.633,431.61h288.59C132.166,359.925,159.233,217.061,190.76,27.132z"/>
<path style="opacity:0.15;enable-background:new    ;" d="M314.483,431.61H57.539c-14.543,0-26.332,11.789-26.332,26.332v20.227
	c0,14.543,11.789,26.332,26.332,26.332h278.1C299.202,494.608,293.458,457.883,314.483,431.61z"/>
<path d="M186.552,216.832c-4.142,0-7.5,3.357-7.5,7.5v11.722c0,4.143,3.358,7.5,7.5,7.5s7.5-3.357,7.5-7.5v-11.722
	C194.052,220.189,190.694,216.832,186.552,216.832z M325.448,216.832c-4.142,0-7.5,3.357-7.5,7.5v11.722c0,4.143,3.358,7.5,7.5,7.5
	s7.5-3.357,7.5-7.5v-11.722C332.948,220.189,329.59,216.832,325.448,216.832z M454.461,424.109h-19.248l-85.714-340.66
	c-0.006-0.024-0.012-0.048-0.018-0.072l-8.701-34.579C333.552,20.066,307.81,0,278.184,0h-44.367
	c-29.627,0-55.368,20.066-62.597,48.798L76.786,424.109H57.539c-18.655,0-33.832,15.177-33.832,33.832v20.227
	c0,18.655,15.177,33.832,33.832,33.832h47.388c4.142,0,7.5-3.357,7.5-7.5s-3.358-7.5-7.5-7.5H57.539
	c-10.384,0-18.832-8.448-18.832-18.832v-20.227c0-10.384,8.448-18.832,18.832-18.832h54.304c0.009,0,0.019,0.002,0.028,0.002
	c0.012,0,0.024-0.002,0.036-0.002h317.432c0.008,0,0.015,0.002,0.023,0.002c0.01,0,0.021-0.002,0.032-0.002h25.068
	c10.384,0,18.832,8.448,18.832,18.832v20.227c0,10.384-8.448,18.832-18.832,18.832H139.648c-4.142,0-7.5,3.357-7.5,7.5
	s3.358,7.5,7.5,7.5h314.813c18.655,0,33.832-15.177,33.832-33.832v-20.227C488.293,439.286,473.116,424.109,454.461,424.109z
	 M110.169,424.109H92.254l56.421-224.238c45.275-22.474,93.736-48.306,140.387-74.849c3.6-2.048,4.858-6.627,2.81-10.228
	c-2.049-3.601-6.626-4.858-10.228-2.81c-42.483,24.171-86.467,47.746-128.144,68.707l32.265-128.235
	C191.315,30.403,211.074,15,233.816,15h44.367c22.742,0,42.501,15.403,48.05,37.458l7.345,29.19
	c-7.044,4.23-14.263,8.516-21.544,12.786c-3.573,2.096-4.771,6.69-2.676,10.264c1.397,2.381,3.902,3.707,6.477,3.707
	c1.289,0,2.595-0.332,3.787-1.031c5.989-3.512,11.933-7.035,17.78-10.531l44.544,177.035
	C304.109,323.735,198.272,382.256,110.169,424.109z M144.572,424.109c80.7-39.807,171.519-90.535,241.232-134.896l33.941,134.896
	H144.572z M270.385,217.737h-28.77c-7.114,0-12.901,5.787-12.901,12.901v14.385c0,15.045,12.241,27.285,27.286,27.285
	c15.045,0,27.286-12.24,27.286-27.285v-14.385C283.286,223.524,277.499,217.737,270.385,217.737z M268.286,245.023
	c0,6.774-5.512,12.285-12.286,12.285c-6.774,0-12.286-5.511-12.286-12.285v-12.286h24.572V245.023z"/>
<g>
</g>
<g>
</g>
<g>
</g>
<g>
</g>
<g>
</g>
<g>
</g>
<g>
</g>
<g>
</g>
<g>
</g>
<g>
</g>
<g>
</g>
<g>
</g>
<g>
</g>
<g>
</g>
<g>
</g>
</svg>
