<?xml version="1.0" encoding="iso-8859-1"?>
<!-- Generator: Adobe Illustrator 19.0.0, SVG Export Plug-In . SVG Version: 6.00 Build 0)  -->
<svg version="1.1" id="Capa_1" xmlns="http://www.w3.org/2000/svg" xmlns:xlink="http://www.w3.org/1999/xlink" x="0px" y="0px"
	 viewBox="0 0 511.998 511.998" style="enable-background:new 0 0 511.998 511.998;" xml:space="preserve">
<path style="fill:#495059;" d="M441.058,221.6L78.276,89.559c-8.49-3.09-12.868-12.477-9.777-20.968
	c3.09-8.491,12.478-12.868,20.968-9.777l362.782,132.042c8.49,3.09,12.868,12.477,9.777,20.968
	C458.936,220.314,449.548,224.691,441.058,221.6z"/>
<path style="fill:#C7C9CC;" d="M98.163,40.758L65.631,28.917c-7.742-2.818-16.302,1.174-19.119,8.915L31.884,78.021
	c-2.818,7.741,1.174,16.301,8.915,19.119l32.532,11.841c7.742,2.818,16.301-1.174,19.119-8.915l14.628-40.189
	C109.896,52.135,105.905,43.575,98.163,40.758z"/>
<path style="opacity:0.1;enable-background:new    ;" d="M55.841,28.785c-4.177,1.387-7.707,4.59-9.329,9.048L31.884,78.021
	c-2.818,7.742,1.174,16.302,8.915,19.119l32.532,11.841c6.556,2.386,13.685-0.123,17.43-5.646
	C69.22,91.845,49.994,55.696,55.841,28.785z"/>
<path style="fill:#7397DA;" d="M459.235,483.993H52.765c-24.999,0-45.265-20.266-45.265-45.265V231.051
	c0-24.999,20.266-45.265,45.265-45.265h406.47c24.999,0,45.265,20.266,45.265,45.265v207.677
	C504.5,463.727,484.234,483.993,459.235,483.993z"/>
<path style="fill:#F1C372;" d="M352.962,337.982h-37.321c-7.706,0-13.953-6.247-13.953-13.953v-12.166
	c0-7.706,6.247-13.953,13.953-13.953h37.321c7.706,0,13.953,6.247,13.953,13.953v12.166
	C366.915,331.735,360.668,337.982,352.962,337.982z"/>
<path style="fill:#F9E78D;" d="M411.306,337.982h37.321c7.706,0,13.953-6.247,13.953-13.953v-12.166
	c0-7.706-6.247-13.953-13.953-13.953h-37.321c-7.706,0-13.953,6.247-13.953,13.953v12.166
	C397.354,331.735,403.6,337.982,411.306,337.982z"/>
<path style="fill:#FFFFFF;" d="M456.598,231.304H307.67c-6.53,0-11.824,5.294-11.824,11.824v14.131
	c0,6.53,5.294,11.824,11.824,11.824h148.928c6.53,0,11.824-5.294,11.824-11.824v-14.131
	C468.422,236.598,463.128,231.304,456.598,231.304z"/>
<rect x="393.01" y="231.309" style="fill:#E68392;" width="15" height="37.778"/>
<g>
	<path style="fill:#A8D1EC;" d="M7.5,428.261v10.467c0,24.999,20.266,45.265,45.265,45.265h13.676v-23.237
		c0-17.947-14.549-32.496-32.496-32.496L7.5,428.261L7.5,428.261z"/>
	<path style="fill:#A8D1EC;" d="M504.5,428.261v10.467c0,24.999-20.266,45.265-45.265,45.265h-13.676v-23.237
		c0-17.947,14.549-32.496,32.496-32.496L504.5,428.261L504.5,428.261z"/>
</g>
<path style="opacity:0.15;fill:#003A63;enable-background:new    ;" d="M52.765,483.993h287.11
	c-157.711-44.89-235.332-208.668-197.32-298.208h-89.79c-24.999,0-45.265,20.266-45.265,45.265v207.677
	C7.5,463.727,27.766,483.993,52.765,483.993z"/>
<circle style="fill:#C7C9CC;" cx="151.67" cy="334.889" r="103.58"/>
<path style="opacity:0.1;enable-background:new    ;" d="M133.066,232.974c-48.328,8.766-84.978,51.059-84.978,101.915
	c0,57.208,46.377,103.585,103.585,103.585c25.27,0,48.422-9.053,66.401-24.086C161.935,361.067,131.786,290.778,133.066,232.974z"/>
<path d="M331.327,367.231c-4.142,0-7.5,3.358-7.5,7.5c0,4.143,3.358,7.5,7.5,7.5h101.614c4.142,0,7.5-3.357,7.5-7.5
	c0-4.142-3.358-7.5-7.5-7.5H331.327z M470.08,324.03v-12.167c0-11.829-9.624-21.452-21.453-21.452h-37.321
	c-11.829,0-21.453,9.623-21.453,21.452v12.167c0,11.829,9.624,21.452,21.453,21.452h37.321
	C460.456,345.482,470.08,335.859,470.08,324.03z M404.853,324.03v-12.167c0-3.558,2.895-6.452,6.453-6.452h37.321
	c3.558,0,6.453,2.895,6.453,6.452v12.167c0,3.558-2.895,6.452-6.453,6.452h-37.321C407.748,330.482,404.853,327.587,404.853,324.03z
	 M459.235,178.285h-19.592L167.029,79.063c-3.891-1.414-8.196,0.59-9.613,4.482c-1.416,3.893,0.59,8.196,4.483,9.613l233.885,85.127
	H343.98L103.783,90.861l6.06-16.649l18.488,6.729c0.847,0.308,1.713,0.454,2.565,0.454c3.063,0,5.939-1.892,7.048-4.937
	c1.417-3.893-0.59-8.196-4.482-9.613l-18.625-6.779c1.208-4.935,0.719-10.094-1.459-14.765c-2.53-5.427-7.023-9.543-12.649-11.591
	L68.197,21.869c-5.627-2.049-11.714-1.784-17.142,0.748c-5.426,2.53-9.543,7.023-11.591,12.649L24.836,75.455
	c-2.048,5.627-1.782,11.715,0.749,17.142c2.531,5.427,7.023,9.543,12.65,11.591l32.532,11.841c2.502,0.91,5.095,1.364,7.681,1.364
	c3.229,0,6.446-0.707,9.46-2.112c4.671-2.179,8.363-5.817,10.609-10.374l201.607,73.379H52.765C23.67,178.285,0,201.956,0,231.051
	v207.677c0,29.095,23.67,52.766,52.765,52.766H376.55c4.142,0,7.5-3.357,7.5-7.5c0-4.142-3.358-7.5-7.5-7.5H73.941v-15.736
	c0-22.054-17.942-39.996-39.996-39.996H15v-189.71c0-20.824,16.941-37.766,37.765-37.766h289.847c0.015,0,0.03,0.002,0.045,0.002
	c0.009,0,0.017-0.002,0.025-0.002h95.591c0.015,0,0.03,0.002,0.045,0.002c0.009,0,0.017-0.002,0.026-0.002h20.89
	c20.824,0,37.765,16.941,37.765,37.766v189.71h-18.946c-22.054,0-39.996,17.942-39.996,39.996v15.736h-26.771
	c-4.142,0-7.5,3.358-7.5,7.5c0,4.143,3.358,7.5,7.5,7.5h47.947c29.095,0,52.765-23.671,52.765-52.766V231.051
	C512,201.956,488.33,178.285,459.235,178.285z M100.031,57.312l-1.718,4.72v0.001v0.001l-11.19,30.741
	c0,0.001-0.001,0.002-0.001,0.003s-0.001,0.002-0.001,0.003l-1.718,4.72c-0.677,1.862-2.039,3.349-3.835,4.186
	c-1.795,0.837-3.81,0.925-5.671,0.247L43.365,90.092c-1.862-0.678-3.348-2.039-4.185-3.835c-0.837-1.795-0.925-3.81-0.248-5.671
	L53.56,40.398c0.677-1.861,2.04-3.349,3.835-4.185c0.997-0.465,2.062-0.698,3.129-0.698c0.855,0,1.714,0.149,2.542,0.451
	l32.533,11.841c1.861,0.678,3.348,2.039,4.185,3.835C100.621,53.436,100.708,55.451,100.031,57.312z M33.946,435.761
	c13.783,0,24.996,11.213,24.996,24.996v15.736h-6.176C31.941,476.493,15,459.552,15,438.728v-2.967H33.946z M497,438.728
	c0,20.824-16.941,37.766-37.765,37.766h-6.176v-15.736c0-13.783,11.213-24.996,24.996-24.996H497V438.728z M144.173,272.314v125.151
	c0,4.143,3.358,7.5,7.5,7.5s7.5-3.357,7.5-7.5V272.314c0-4.143-3.358-7.5-7.5-7.5S144.173,268.171,144.173,272.314z
	 M475.922,257.259v-14.131c0-10.655-8.669-19.324-19.324-19.324H307.67c-10.655,0-19.324,8.669-19.324,19.324v14.131
	c0,10.655,8.668,19.323,19.324,19.323h148.929C467.254,276.582,475.922,267.914,475.922,257.259z M460.922,257.259
	c0,2.384-1.94,4.323-4.324,4.323H307.67c-2.384,0-4.324-1.939-4.324-4.323v-14.131c0-2.385,1.939-4.324,4.324-4.324h148.929
	c2.384,0,4.324,1.939,4.324,4.324v14.131H460.922z M197.052,385.737c4.142,0,7.5-3.357,7.5-7.5v-86.694c0-4.143-3.358-7.5-7.5-7.5
	s-7.5,3.357-7.5,7.5v86.694C189.552,382.379,192.91,385.737,197.052,385.737z M40.588,334.889
	c0,61.253,49.833,111.086,111.085,111.086c61.253,0,111.085-49.833,111.085-111.086c0-61.252-49.833-111.085-111.085-111.085
	C90.42,223.804,40.588,273.637,40.588,334.889z M247.758,334.889c0,52.982-43.104,96.086-96.085,96.086
	c-52.982,0-96.085-43.104-96.085-96.086c0-52.981,43.103-96.085,96.085-96.085C204.655,238.804,247.758,281.908,247.758,334.889z
	 M315.642,345.482h37.321c11.829,0,21.453-9.623,21.453-21.452v-12.167c0-11.829-9.624-21.452-21.453-21.452h-37.321
	c-11.829,0-21.453,9.623-21.453,21.452v12.167C294.189,335.859,303.813,345.482,315.642,345.482z M309.189,311.863
	c0-3.558,2.895-6.452,6.453-6.452h37.321c3.558,0,6.453,2.895,6.453,6.452v12.167c0,3.558-2.895,6.452-6.453,6.452h-37.321
	c-3.558,0-6.453-2.895-6.453-6.452L309.189,311.863L309.189,311.863z M331.327,415.086h101.614c4.142,0,7.5-3.357,7.5-7.5
	s-3.358-7.5-7.5-7.5H331.327c-4.142,0-7.5,3.357-7.5,7.5S327.185,415.086,331.327,415.086z M106.294,284.042
	c-4.142,0-7.5,3.357-7.5,7.5v86.694c0,4.143,3.358,7.5,7.5,7.5s7.5-3.357,7.5-7.5v-86.694
	C113.794,287.4,110.436,284.042,106.294,284.042z"/>
<g>
</g>
<g>
</g>
<g>
</g>
<g>
</g>
<g>
</g>
<g>
</g>
<g>
</g>
<g>
</g>
<g>
</g>
<g>
</g>
<g>
</g>
<g>
</g>
<g>
</g>
<g>
</g>
<g>
</g>
</svg>
