<?xml version="1.0" encoding="iso-8859-1"?>
<!-- Generator: Adobe Illustrator 19.0.0, SVG Export Plug-In . SVG Version: 6.00 Build 0)  -->
<svg version="1.1" id="Capa_1" xmlns="http://www.w3.org/2000/svg" xmlns:xlink="http://www.w3.org/1999/xlink" x="0px" y="0px"
	 viewBox="0 0 512 512" style="enable-background:new 0 0 512 512;" xml:space="preserve">
<path style="fill:#E68392;" d="M353.007,177.762c-3.531,15.097-8.865,28.097-17.625,39.039c-4.839,6.045-13.738,6.913-19.841,2.147
	c-38.733-30.249-59.7-75.571-65.91-143.765c-0.888-9.748-12.531-14.26-19.767-7.668C180.057,112.897,98.286,200.797,95.987,338.579
	c-1.51,90.443,70.187,166.214,160.64,165.684c87.779-0.514,158.779-71.832,158.779-159.731c0-36.883-4.611-81.566-48.177-168.385
	C364.046,169.802,354.624,170.851,353.007,177.762z"/>
<path style="fill:#F9E78D;" d="M314.451,361.895c-2.628-49.068-44.637-60.049-57.928-97.364c-2.307-6.479-10.425-8.526-15.449-3.829
	c-19.486,18.22-43.687,51.978-43.687,106.092c0,32.375,26.256,58.618,58.636,58.596C290.056,425.369,316.271,395.88,314.451,361.895
	z"/>
<path style="fill:#E68392;" d="M334.926,128.858c-0.971,5.044-7.307,6.74-10.634,2.827c-15.627-18.38-29.682-46.247-14.381-76.173
	c7.101-13.888,18.965-23.846,21.739-43.219c0.679-4.738,6.627-6.466,9.751-2.84c14.455,16.777,30.7,45.934,18.646,66.861
	C349.478,94.659,338.537,110.103,334.926,128.858z"/>
<g>
	<ellipse style="fill:#F8B8BD;" cx="148.684" cy="377.293" rx="39.592" ry="31.529"/>
	<ellipse style="fill:#F8B8BD;" cx="363.291" cy="377.293" rx="39.592" ry="31.529"/>
</g>
<path style="opacity:0.15;fill:#8D4330;enable-background:new    ;" d="M366.262,460.319
	c-276.532,10.643-240.3-228.258-182.277-345.128c-42.692,50.255-86.021,123.859-87.686,223.621
	c-1.51,90.442,70.187,166.214,160.64,165.684C299.33,504.249,337.804,487.485,366.262,460.319z"/>
<path d="M374.245,173.017c-2.894-5.768-8.911-9.008-15.325-8.243c-6.379,0.754-11.444,5.273-12.904,11.515
	c-3.573,15.278-8.713,26.737-16.178,36.06c-2.238,2.793-6.439,3.211-9.369,0.922c-37.048-28.934-57.085-72.954-63.058-138.535
	c-0.67-7.36-5.364-13.595-12.25-16.27c-6.89-2.679-14.568-1.245-20.036,3.738c-20.044,18.263-37.101,36.078-52.147,54.468
	c-2.623,3.205-2.15,7.931,1.056,10.554c3.207,2.625,7.932,2.149,10.554-1.056c14.579-17.817,31.142-35.113,50.641-52.878
	c1.803-1.642,3.751-1.136,4.503-0.844c0.751,0.291,2.522,1.231,2.743,3.647c6.373,69.992,28.224,117.337,68.763,148.996
	c9.37,7.317,22.967,5.806,30.31-3.37c8.902-11.12,14.959-24.454,19.087-42.047c0.061-0.015,0.136-0.023,0.145-0.027
	c0.001,0,0.023,0.025,0.059,0.095c43.718,87.124,47.379,130.863,47.379,165.021c0,40.505-15.729,78.629-44.29,107.347
	c-28.549,28.708-66.562,44.648-107.032,44.885c-0.301,0.002-0.6,0.003-0.899,0.003c-40.346-0.001-78.302-15.923-106.961-44.894
	c-29.452-29.772-45.94-71.022-45.237-113.167c1.099-65.862,21.08-127.82,59.389-184.155c2.329-3.426,1.44-8.091-1.984-10.42
	c-3.427-2.328-8.091-1.44-10.42,1.984c-39.979,58.794-60.834,123.506-61.982,192.341c-0.771,46.156,17.298,91.341,49.571,123.967
	c31.503,31.846,73.236,49.347,117.622,49.345c0.327,0,0.662-0.001,0.99-0.003c44.46-0.261,86.217-17.771,117.58-49.308
	c31.375-31.548,48.654-73.429,48.654-117.924C423.218,308.888,419.434,263.069,374.245,173.017z M328.879,141.345
	c1.161,0,2.336-0.149,3.501-0.455c5.111-1.345,8.908-5.412,9.91-10.614l-0.001,0.001c2.696-13.999,9.952-26.149,18.353-40.217
	c1.928-3.228,3.921-6.565,5.901-10.002c6.488-11.263,6.893-25.542,1.169-41.292c-5.611-15.443-15.335-28.062-20.632-34.208
	c-3.391-3.936-8.595-5.474-13.586-4.017c-4.982,1.457-8.535,5.554-9.271,10.69c-1.627,11.361-6.94,19.113-12.566,27.321
	c-2.903,4.236-5.905,8.617-8.427,13.548c-13.671,26.737-8.222,56.728,15.346,84.446
	C321.214,139.645,324.964,141.345,328.879,141.345z M316.587,58.927c2.083-4.074,4.688-7.874,7.444-11.896
	c5.471-7.982,11.602-16.928,14.3-29.514c11.136,14.08,24.686,38.614,15.215,55.054c-1.921,3.334-3.883,6.62-5.781,9.798
	c-8.244,13.806-16.058,26.888-19.603,42.233C315.139,108.461,303.452,84.618,316.587,58.927z M164.256,345.836
	c0,4.143,3.357,7.5,7.5,7.5s7.5-3.357,7.5-7.5v-13.983c0-4.143-3.357-7.5-7.5-7.5s-7.5,3.357-7.5,7.5V345.836z M347.711,345.836
	v-13.983c0-4.143-3.358-7.5-7.5-7.5c-4.143,0-7.5,3.357-7.5,7.5v13.982c0,4.143,3.357,7.5,7.5,7.5
	C344.354,353.336,347.711,349.978,347.711,345.836z M272.536,341.529c-4.178,4.794-10.211,7.544-16.553,7.544
	c-6.341,0-12.374-2.75-16.552-7.544c-2.723-3.123-7.459-3.448-10.581-0.728c-3.123,2.721-3.449,7.459-0.728,10.581
	c7.027,8.065,17.182,12.69,27.86,12.69c10.679,0,20.834-4.625,27.86-12.69c2.722-3.122,2.396-7.86-0.727-10.581
	C279.994,338.08,275.256,338.405,272.536,341.529z M298.409,407.357c3.347,2.44,8.038,1.703,10.478-1.645
	c9.264-12.711,13.899-28.415,13.054-44.219c-1.685-31.45-18.554-49.086-33.435-64.646c-10.25-10.715-19.931-20.837-24.916-34.834
	c-1.944-5.457-6.45-9.527-12.056-10.89c-5.561-1.354-11.389,0.18-15.581,4.099c-21.015,19.649-46.064,54.955-46.064,111.571
	c0,17.663,6.881,34.266,19.374,46.752c12.484,12.477,29.072,19.346,46.722,19.345h0.046c7.447-0.006,14.74-1.261,21.678-3.73
	c3.902-1.39,5.94-5.679,4.55-9.581c-1.389-3.901-5.681-5.938-9.581-4.55c-5.321,1.895-10.926,2.857-16.657,2.861h-0.035
	c-13.643,0-26.469-5.311-36.118-14.955c-9.658-9.652-14.978-22.487-14.978-36.142c0-51.235,22.465-82.995,41.309-100.614
	c0.643-0.601,1.333-0.591,1.794-0.48c0.404,0.099,1.132,0.404,1.468,1.348c6.061,17.018,17.319,28.788,28.207,40.17
	c14.354,15.005,27.911,29.178,29.297,55.079c0.662,12.369-2.96,24.65-10.198,34.582
	C294.325,400.225,295.061,404.917,298.409,407.357z"/>
<g>
</g>
<g>
</g>
<g>
</g>
<g>
</g>
<g>
</g>
<g>
</g>
<g>
</g>
<g>
</g>
<g>
</g>
<g>
</g>
<g>
</g>
<g>
</g>
<g>
</g>
<g>
</g>
<g>
</g>
</svg>
