<?xml version="1.0" encoding="iso-8859-1"?>
<!-- Generator: Adobe Illustrator 19.0.0, SVG Export Plug-In . SVG Version: 6.00 Build 0)  -->
<svg version="1.1" id="Capa_1" xmlns="http://www.w3.org/2000/svg" xmlns:xlink="http://www.w3.org/1999/xlink" x="0px" y="0px"
	 viewBox="0 0 512 512" style="enable-background:new 0 0 512 512;" xml:space="preserve">
<ellipse style="fill:#8EDBD6;" cx="256" cy="467.82" rx="133.86" ry="36.682"/>
<path style="opacity:0.15;fill:#2C6245;enable-background:new    ;" d="M343.465,495.587
	c-77.075,4.729-103.469-37.784-95.457-64.385c-70.208,1.133-125.87,17.092-125.87,36.616c0,20.259,59.932,36.682,133.862,36.682
	C289.435,504.5,320.005,501.141,343.465,495.587z"/>
<path style="fill:#E68392;" d="M256,467.818c25.124,0,170.465-159.558,170.465-289.853C426.465,83.82,350.145,7.5,256,7.5
	S85.535,83.82,85.535,177.965C85.535,308.259,230.876,467.818,256,467.818z"/>
<g>
	<ellipse style="fill:#F8B8BD;" cx="194.97" cy="342.8" rx="22.517" ry="17.932"/>
	<ellipse style="fill:#F8B8BD;" cx="317.02" cy="342.8" rx="22.517" ry="17.932"/>
</g>
<circle style="fill:#DDEFF5;" cx="256" cy="177.97" r="107.3"/>
<path style="fill:#E68392;" d="M319.512,154.891h-40.438v-40.437c0-5.682-4.606-10.288-10.288-10.288h-25.572
	c-5.682,0-10.288,4.606-10.288,10.288v40.437h-40.438c-5.682,0-10.288,4.606-10.288,10.288v25.572
	c0,5.682,4.606,10.288,10.288,10.288h40.438v40.438c0,5.682,4.606,10.288,10.288,10.288h25.572c5.682,0,10.288-4.606,10.288-10.288
	v-40.438h40.438c5.682,0,10.288-4.606,10.288-10.288v-25.572C329.799,159.497,325.193,154.891,319.512,154.891z"/>
<path style="opacity:0.15;fill:#8D4330;enable-background:new    ;" d="M181.282,24.714
	c-56.692,27.692-95.747,85.907-95.747,153.251c0,130.294,145.341,289.853,170.465,289.853c12.401,0,54.09-38.887,93.134-93.929
	C165.064,412.04,68.601,167.32,181.282,24.714z"/>
<path style="opacity:0.15;fill:#003A63;enable-background:new    ;" d="M346.842,235.041c10.411-16.534,16.455-36.094,16.455-57.076
	c0-59.259-48.039-107.298-107.297-107.298c-26.992,0-51.637,9.99-70.494,26.444C249.912,70.549,368.204,99.457,346.842,235.041z"/>
<path d="M273.556,319.605c-3.125-2.722-7.86-2.396-10.582,0.729c-1.761,2.021-4.303,3.181-6.974,3.181
	c-2.671,0-5.213-1.159-6.974-3.181c-2.722-3.123-7.46-3.448-10.582-0.729c-3.123,2.721-3.449,7.459-0.729,10.582
	c4.61,5.292,11.274,8.327,18.284,8.327c7.01,0,13.674-3.035,18.284-8.327C277.005,327.065,276.679,322.326,273.556,319.605z
	 M208.098,309.457c-4.143,0-7.5,3.358-7.5,7.5v7.951c0,4.143,3.357,7.5,7.5,7.5s7.5-3.357,7.5-7.5v-7.951
	C215.598,312.815,212.24,309.457,208.098,309.457z M268.786,96.665h-25.572c-9.809,0-17.788,7.979-17.788,17.788v32.937h-32.938
	c-9.809,0-17.788,7.98-17.788,17.788v25.572c0,9.809,7.98,17.788,17.788,17.788h32.938v32.938c0,9.809,7.98,17.788,17.788,17.788
	h25.572c9.809,0,17.788-7.979,17.788-17.788v-32.938h32.938c9.809,0,17.788-7.979,17.788-17.788v-25.572
	c0-9.809-7.979-17.788-17.788-17.788h-32.938v-32.937C286.574,104.645,278.595,96.665,268.786,96.665z M319.512,162.391
	c1.537,0,2.788,1.251,2.788,2.788v25.572c0,1.537-1.251,2.788-2.788,2.788h-40.438c-4.143,0-7.5,3.357-7.5,7.5v40.438
	c0,1.537-1.251,2.788-2.788,2.788h-25.572c-1.537,0-2.788-1.251-2.788-2.788v-40.438c0-4.143-3.357-7.5-7.5-7.5h-40.438
	c-1.537,0-2.788-1.251-2.788-2.788v-25.572c0-1.537,1.251-2.788,2.788-2.788h40.438c4.143,0,7.5-3.357,7.5-7.5v-40.437
	c0-1.537,1.251-2.788,2.788-2.788h25.572c1.537,0,2.788,1.251,2.788,2.788v40.437c0,4.143,3.357,7.5,7.5,7.5H319.512z
	 M303.902,309.457c-4.143,0-7.5,3.358-7.5,7.5v7.951c0,4.143,3.357,7.5,7.5,7.5s7.5-3.357,7.5-7.5v-7.951
	C311.402,312.815,308.045,309.457,303.902,309.457z M316.163,427.507c13.761-15.434,27.735-33.096,40.627-51.444
	c28.822-41.016,77.175-121.292,77.175-198.099C433.965,79.835,354.13,0,256,0S78.035,79.835,78.035,177.965
	c0,76.807,48.353,157.083,77.175,198.099c12.893,18.347,26.867,36.01,40.627,51.444c-29.998,4.145-81.199,14.943-81.199,40.31
	c0,13.879,15.048,25.039,44.725,33.172C185.274,508.09,219.594,512,256,512c35.919,0,69.907-3.82,95.704-10.757
	c4-1.076,6.371-5.19,5.296-9.19c-1.075-4.001-5.194-6.368-9.19-5.296C323.246,493.362,290.641,497,256,497
	c-35.105,0-68.017-3.721-92.672-10.478c-26.648-7.303-33.689-15.429-33.689-18.705c0-2.472,4.27-8.281,20.272-14.38
	c14.497-5.525,35.176-9.884,58.529-12.37c1.692,1.743,3.378,3.458,5.048,5.113c19.521,19.334,33.824,29.138,42.512,29.138
	c8.688,0,22.99-9.804,42.512-29.138c1.67-1.654,3.356-3.37,5.048-5.113c23.352,2.486,44.032,6.845,58.529,12.37
	c16.003,6.099,20.272,11.908,20.272,14.38c0,1.741-1.82,4.116-4.994,6.517c-3.304,2.498-3.956,7.202-1.457,10.506
	c1.475,1.95,3.717,2.976,5.987,2.976c1.575,0,3.165-0.494,4.518-1.518c7.263-5.492,10.945-11.71,10.945-18.479
	C397.361,442.45,346.161,431.652,316.163,427.507z M289.132,434.352c-20.471,20.479-30.762,25.652-33.132,25.96
	c-2.37-0.308-12.661-5.481-33.132-25.96c-18.501-18.508-38.492-42.729-56.291-68.205c-27.466-39.31-73.542-116.03-73.542-188.182
	C93.035,88.105,166.141,15,256,15s162.965,73.105,162.965,162.965c0,72.151-46.076,148.872-73.542,188.182
	C327.624,391.622,307.633,415.844,289.132,434.352z M256,63.167c-16.986,0-33.343,3.625-48.616,10.774
	c-3.752,1.757-5.369,6.222-3.613,9.973c1.757,3.751,6.219,5.366,9.973,3.613c13.268-6.211,27.485-9.36,42.257-9.36
	c55.028,0,99.798,44.77,99.798,99.798s-44.77,99.798-99.798,99.798s-99.798-44.77-99.798-99.798
	c0-27.077,10.663-52.418,30.024-71.353c2.961-2.896,3.014-7.645,0.118-10.606c-2.895-2.959-7.645-3.016-10.606-0.118
	c-22.27,21.781-34.536,50.93-34.536,82.077c0,63.3,51.498,114.798,114.798,114.798s114.798-51.498,114.798-114.798
	S319.3,63.167,256,63.167z"/>
<g>
</g>
<g>
</g>
<g>
</g>
<g>
</g>
<g>
</g>
<g>
</g>
<g>
</g>
<g>
</g>
<g>
</g>
<g>
</g>
<g>
</g>
<g>
</g>
<g>
</g>
<g>
</g>
<g>
</g>
</svg>
