<?xml version="1.0" encoding="iso-8859-1"?>
<!-- Generator: Adobe Illustrator 19.0.0, SVG Export Plug-In . SVG Version: 6.00 Build 0)  -->
<svg version="1.1" id="Capa_1" xmlns="http://www.w3.org/2000/svg" xmlns:xlink="http://www.w3.org/1999/xlink" x="0px" y="0px"
	 viewBox="0 0 512 512" style="enable-background:new 0 0 512 512;" xml:space="preserve">
<path style="fill:#C7C9CC;" d="M354.321,306.371H157.676c-14.036,0-25.415-11.379-25.415-25.415V32.915
	c0-14.036,11.379-25.415,25.415-25.415h196.645c14.036,0,25.415,11.379,25.415,25.415v248.041
	C379.736,294.992,368.358,306.371,354.321,306.371z"/>
<path style="opacity:0.1;enable-background:new    ;" d="M379.736,280.956V114.032C255.747,145.059,237.831,50.759,240.945,7.5
	h-83.269c-14.036,0-25.415,11.378-25.415,25.415v248.041c0,14.036,11.379,25.415,25.415,25.415h196.645
	C368.358,306.371,379.736,294.992,379.736,280.956z"/>
<rect x="191.209" y="85.84" style="fill:#F5D7B7;" width="25.683" height="57.45"/>
<path style="fill:#7397DA;" d="M204.054,31.132c16.063,0,29.085,13.949,29.085,31.155c0,27.679-13.484,41.405-29.085,41.405
	c-15.601,0-29.084-13.726-29.084-41.405C174.97,45.081,187.991,31.132,204.054,31.132z"/>
<rect x="295.099" y="85.84" style="fill:#F5D7B7;" width="25.683" height="57.45"/>
<path style="fill:#7397DA;" d="M307.943,31.132c16.063,0,29.084,13.949,29.084,31.155c0,27.679-13.484,41.405-29.084,41.405
	c-15.6,0-29.085-13.726-29.085-41.405C278.859,45.081,291.88,31.132,307.943,31.132z"/>
<path style="fill:#8EDBD6;" d="M380.706,504.5H131.292c-13.72,0-24.842-11.122-24.842-24.842V168.126
	c0-13.72,11.122-24.842,24.842-24.842h249.415c13.72,0,24.842,11.122,24.842,24.842v311.532
	C405.548,493.378,394.426,504.5,380.706,504.5z"/>
<path style="opacity:0.15;fill:#2C6245;enable-background:new    ;" d="M380.706,504.5c13.72,0,24.842-11.122,24.842-24.842v-6.212
	c-203.808-25.91-213.733-171.591-202.199-330.161h-72.058c-13.72,0-24.842,11.122-24.842,24.842v311.532
	c0,13.72,11.122,24.842,24.842,24.842h249.415V504.5z"/>
<polygon style="fill:#F5D7B7;" points="405.548,238.13 106.449,342.111 106.449,410.18 405.548,306.198 "/>
<path style="opacity:0.15;fill:#8D4330;enable-background:new    ;" d="M207.749,306.895l-101.3,35.217v68.068l121.891-42.376
	C218.778,349.163,212.155,328.71,207.749,306.895z"/>
<path style="fill:#E68392;" d="M305.212,231.656c-1.8,7.697-4.52,14.326-8.986,19.905c-2.467,3.082-7.004,3.525-10.116,1.095
	c-19.749-15.423-30.44-38.532-33.606-73.303c-0.453-4.97-6.389-7.271-10.079-3.91c-25.396,23.139-67.089,67.957-68.261,138.209
	c-0.77,46.115,35.786,84.748,81.907,84.478c44.757-0.262,80.958-36.625,80.958-81.444c0-18.806-2.351-41.588-24.564-85.856
	C310.84,227.597,306.036,228.132,305.212,231.656z"/>
<path style="fill:#F9E78D;" d="M290.424,327.153c-1.566-29.238-26.598-35.781-34.518-58.017c-1.375-3.86-6.212-5.08-9.205-2.282
	c-11.611,10.856-26.032,30.972-26.032,63.218c0,19.291,15.645,34.929,34.939,34.916
	C275.887,364.975,291.508,347.403,290.424,327.153z"/>
<path style="opacity:0.15;fill:#8D4330;enable-background:new    ;" d="M247.624,397.739
	c-36.017-45.039-46.818-105.628-47.428-172.453c-14.211,23.134-25.433,52.411-26.033,88.366
	C173.441,356.913,205.568,393.588,247.624,397.739z"/>
<path d="M214.655,453.874c-4.142,0-7.5,3.357-7.5,7.5s3.358,7.5,7.5,7.5h82.688c4.142,0,7.5-3.357,7.5-7.5s-3.358-7.5-7.5-7.5
	H214.655z M277.153,286.298c-5.877-6.145-11.429-11.947-14.182-19.679c-1.502-4.217-4.987-7.363-9.324-8.417
	c-4.31-1.049-8.823,0.139-12.07,3.174c-12.96,12.118-28.409,33.873-28.409,68.696c0,11.335,4.416,21.989,12.433,30.002
	c8.011,8.007,18.658,12.414,29.983,12.414h0.028c11.563-0.008,22.35-4.679,30.376-13.151c8.222-8.68,12.567-20.557,11.924-32.586
	C296.849,306.889,286.385,295.949,277.153,286.298z M275.099,349.022c-5.168,5.455-12.092,8.462-19.496,8.467h-0.019
	c-7.32,0-14.202-2.85-19.38-8.024c-5.182-5.179-8.036-12.065-8.036-19.392c0-27.667,11.359-45.413,21.683-55.825
	c3.962,9.352,10.308,15.986,16.461,22.419c8.508,8.894,15.854,16.575,16.621,30.888
	C283.359,335.491,280.504,343.316,275.099,349.022z M333.4,430.792c0-4.143-3.357-7.5-7.5-7.5H186.097c-4.142,0-7.5,3.357-7.5,7.5
	s3.358,7.5,7.5,7.5H325.9C330.043,438.292,333.4,434.935,333.4,430.792z M405.549,426.22c4.143,0,7.5-3.357,7.5-7.5V168.126
	c0-15.597-11.098-28.65-25.813-31.679V32.915C387.236,14.766,372.47,0,354.321,0H157.676c-18.149,0-32.915,14.766-32.915,32.915
	v17.768c0,4.143,3.358,7.5,7.5,7.5s7.5-3.357,7.5-7.5V32.915c0-9.878,8.037-17.915,17.915-17.915h196.645
	c9.878,0,17.915,8.037,17.915,17.915v102.869h-43.951v-31.725c2.176-1.741,4.188-3.775,5.987-6.106
	c6.709-8.689,10.256-21.022,10.256-35.666c0-21.314-16.412-38.655-36.585-38.655S271.36,40.973,271.36,62.287
	c0,20.56,6.81,34.196,16.242,41.73v31.767h-63.205v-31.725c2.176-1.741,4.187-3.775,5.987-6.106
	c6.71-8.689,10.256-21.022,10.256-35.666c0-21.314-16.412-38.655-36.584-38.655c-20.173,0-36.585,17.341-36.585,38.655
	c0,20.56,6.811,34.196,16.243,41.73v31.767h-43.951V85.839c0-4.143-3.358-7.5-7.5-7.5s-7.5,3.357-7.5,7.5v50.608
	c-14.714,3.029-25.812,16.082-25.812,31.679v311.532c0,17.833,14.509,32.342,32.342,32.342h249.414
	c17.834,0,32.343-14.509,32.343-32.342V453.81c0-4.142-3.357-7.5-7.5-7.5s-7.5,3.358-7.5,7.5v25.848
	c0,9.563-7.78,17.342-17.343,17.342H131.292c-9.563,0-17.342-7.779-17.342-17.342v-64.146l85.923-29.871
	c15.742,12.955,35.193,19.992,55.716,19.991c0.174,0,0.351,0,0.525-0.001c42.09-0.247,77.4-30.023,86.265-69.532l55.669-19.353
	V418.72C398.049,422.862,401.406,426.22,405.549,426.22z M286.359,62.287c0-13.044,9.683-23.655,21.584-23.655
	c11.902,0,21.585,10.611,21.585,23.655c0,15.41-4.744,26.738-12.624,31.467c-0.03,0.018-0.06,0.036-0.09,0.054
	c-2.63,1.557-5.607,2.383-8.872,2.383c-3.267,0-6.246-0.827-8.877-2.387c-0.024-0.015-0.048-0.029-0.072-0.044
	C291.107,89.037,286.359,77.705,286.359,62.287z M313.285,110.757v25.027h-10.684v-25.036c1.771,0.294,3.557,0.445,5.342,0.445
	C309.759,111.192,311.541,111.04,313.285,110.757z M182.47,62.287c0-13.044,9.683-23.655,21.585-23.655s21.584,10.611,21.584,23.655
	c0,15.41-4.744,26.739-12.624,31.468c-0.03,0.018-0.059,0.035-0.089,0.054c-2.63,1.557-5.607,2.383-8.872,2.383
	c-3.267,0-6.245-0.827-8.877-2.386c-0.025-0.016-0.05-0.03-0.075-0.046C187.217,89.035,182.47,77.703,182.47,62.287z
	 M209.396,110.757v25.027h-10.683v-25.036c1.771,0.294,3.557,0.445,5.342,0.445C205.87,111.192,207.652,111.04,209.396,110.757z
	 M113.949,399.632v-52.188l53.75-18.686c2.525,16.571,9.563,32.284,20.308,45.127L113.949,399.632z M256.026,390.631
	c-18.411,0.077-35.83-6.63-49.467-19.033c-0.007-0.006-0.013-0.011-0.02-0.018c-0.977-0.889-1.937-1.802-2.874-2.749
	c-14.536-14.695-22.35-34.247-22.003-55.055c0.817-48.932,21.646-91.748,63.66-130.808c3.69,35.167,15.224,59.238,36.171,75.597
	c6.354,4.962,15.59,3.922,20.587-2.318c3.204-4.002,5.731-8.497,7.717-13.783c18.125,38.254,19.731,58.336,19.731,74.223
	C329.528,357.223,296.555,390.394,256.026,390.631z M319.167,227.467c-2.177-4.34-6.708-6.778-11.53-6.203
	c-4.809,0.568-8.627,3.977-9.727,8.684c-1.66,7.098-3.995,12.406-7.34,16.674c-17.935-14.087-27.658-35.685-30.597-67.95
	c-0.47-5.151-3.755-9.516-8.576-11.388c-4.824-1.876-10.197-0.871-14.023,2.615c-18.852,17.176-33.437,34.551-44.592,53.119
	c-16.743,27.87-25.523,58.221-26.107,90.216l-52.724,18.329V168.126c0-9.563,7.78-17.342,17.342-17.342h249.414
	c9.563,0,17.343,7.779,17.343,17.342v64.671l-66.092,22.977C328.634,247.361,324.452,237.999,319.167,227.467z M344.479,319.489
	c0.029-0.931,0.049-1.864,0.049-2.801c0-11.958-0.811-26.034-7.495-46.798l61.015-21.212v52.188L344.479,319.489z"/>
<g>
</g>
<g>
</g>
<g>
</g>
<g>
</g>
<g>
</g>
<g>
</g>
<g>
</g>
<g>
</g>
<g>
</g>
<g>
</g>
<g>
</g>
<g>
</g>
<g>
</g>
<g>
</g>
<g>
</g>
</svg>
