<?xml version="1.0" encoding="iso-8859-1"?>
<!-- Generator: Adobe Illustrator 19.0.0, SVG Export Plug-In . SVG Version: 6.00 Build 0)  -->
<svg version="1.1" id="Capa_1" xmlns="http://www.w3.org/2000/svg" xmlns:xlink="http://www.w3.org/1999/xlink" x="0px" y="0px"
	 viewBox="0 0 512.002 512.002" style="enable-background:new 0 0 512.002 512.002;" xml:space="preserve">
<g>
	<path style="fill:#C7C9CC;" d="M60.703,118.866h42.62v-77.2h-42.62c-9.652,0-18.977,3.502-26.243,9.855l-23.065,20.17
		c-5.191,4.539-5.191,12.612,0,17.151l23.066,20.169C41.727,115.365,51.051,118.866,60.703,118.866z"/>
	<path style="fill:#C7C9CC;" d="M451.301,118.866h-42.62v-77.2h42.62c9.652,0,18.977,3.502,26.243,9.855L500.61,71.69
		c5.191,4.539,5.191,12.612,0,17.151l-23.066,20.169C470.277,115.365,460.953,118.866,451.301,118.866z"/>
</g>
<path style="fill:#E68392;" d="M378.923,7.5H133.081c-16.435,0-29.758,13.323-29.758,29.758v86.017
	c0,16.435,13.323,29.758,29.758,29.758h31.285c11.194,0,20.268,9.075,20.268,20.268v143.012c0,7.331,7.352,12.382,14.195,9.754
	l47.347-18.186c9.936-3.816,20.611,3.518,20.611,14.163v20.888c0,6.28-3.869,11.911-9.732,14.163l-57.529,22.096
	c-8.972,3.446-14.893,12.063-14.893,21.674v49.514c0,29.891,24.231,54.122,54.122,54.122h34.491
	c29.891,0,54.122-24.231,54.122-54.122V173.301c0-11.194,9.074-20.268,20.268-20.268h31.285c16.435,0,29.758-13.323,29.758-29.758
	V37.258C408.681,20.823,395.358,7.5,378.923,7.5z"/>
<path style="fill:#F9E78D;" d="M184.634,272.155v44.159c0,7.331,7.352,12.382,14.195,9.754l47.347-18.186
	c9.936-3.816,20.611,3.519,20.611,14.163v20.888c0,6.28-3.869,11.911-9.732,14.162l-57.529,22.097
	c-8.972,3.446-14.893,12.063-14.893,21.673v49.514c0,29.891,24.231,54.122,54.122,54.122h34.491
	c29.891,0,54.122-24.231,54.122-54.122V244.092C273.349,260.02,230.96,246.735,184.634,272.155z"/>
<path style="opacity:0.1;enable-background:new    ;" d="M477.544,109.011l23.066-20.169c5.19-4.539,5.19-12.612,0-17.151
	l-23.066-20.169c-7.266-6.354-16.591-9.856-26.243-9.856v77.2C460.953,118.866,470.278,115.365,477.544,109.011z"/>
<path style="opacity:0.1;enable-background:new    ;" d="M34.461,109.011L11.395,88.842c-5.191-4.539-5.191-12.612,0-17.151
	l23.066-20.169c7.266-6.354,16.59-9.856,26.243-9.856v77.2C51.051,118.866,41.726,115.365,34.461,109.011z"/>
<g>
	<ellipse style="fill:#F8B8BD;" cx="175.452" cy="93.07" rx="29.72" ry="23.668"/>
	<ellipse style="fill:#F8B8BD;" cx="336.552" cy="93.07" rx="29.72" ry="23.668"/>
</g>
<path style="opacity:0.15;fill:#8D4330;enable-background:new    ;" d="M187.585,7.5h-54.504c-16.435,0-29.758,13.323-29.758,29.758
	v86.017c0,16.435,13.323,29.758,29.758,29.758h31.285c11.194,0,20.268,9.075,20.268,20.268v143.012
	c0,7.331,7.352,12.382,14.195,9.754l47.347-18.186c9.936-3.816,20.611,3.519,20.611,14.163v20.888c0,6.28-3.869,11.911-9.732,14.163
	l-57.529,22.096c-8.972,3.446-14.893,12.063-14.893,21.674v49.514c0,29.891,24.231,54.122,54.122,54.122h34.491
	c29.891,0,54.122-24.231,54.122-54.122v-126.13C197.876,236.269,160.019,87.895,187.585,7.5z"/>
<g>
	<circle style="fill:#495059;" cx="256.002" cy="467.46" r="14.09"/>
	<circle style="fill:#495059;" cx="225.092" cy="189.47" r="14.09"/>
	<circle style="fill:#495059;" cx="286.912" cy="189.47" r="14.09"/>
</g>
<path d="M256.002,445.866c-11.904,0-21.59,9.686-21.59,21.59s9.686,21.59,21.59,21.59s21.59-9.685,21.59-21.59
	C277.592,455.552,267.906,445.866,256.002,445.866z M256.002,474.046c-3.634,0-6.59-2.956-6.59-6.59s2.956-6.59,6.59-6.59
	s6.59,2.956,6.59,6.59S259.636,474.046,256.002,474.046z M192.776,51.464c-4.143,0-7.5,3.357-7.5,7.5v10.495
	c0,4.143,3.357,7.5,7.5,7.5s7.5-3.357,7.5-7.5V58.964C200.276,54.821,196.919,51.464,192.776,51.464z M225.088,167.877
	c-11.904,0-21.59,9.686-21.59,21.59s9.686,21.59,21.59,21.59c11.904,0,21.59-9.686,21.59-21.59S236.992,167.877,225.088,167.877z
	 M225.088,196.057c-3.634,0-6.59-2.956-6.59-6.59s2.956-6.59,6.59-6.59s6.59,2.956,6.59,6.59
	C231.678,193.101,228.722,196.057,225.088,196.057z M505.547,66.046l-23.066-20.171c-8.636-7.551-19.709-11.709-31.18-11.709
	h-35.259C414.464,15.064,398.425,0,378.923,0H133.081C113.579,0,97.54,15.064,95.962,34.166H60.703
	c-11.471,0-22.544,4.158-31.181,11.71L6.458,66.045c-4.102,3.587-6.456,8.77-6.456,14.221C0.001,85.716,2.354,90.9,6.458,94.488
	l23.065,20.17c8.636,7.551,19.709,11.709,31.18,11.709h35.259c1.578,19.102,17.617,34.166,37.119,34.166h31.285
	c7.04,0,12.768,5.728,12.768,12.769v98.867c0,0.016,0,0.032,0,0.048v44.098c0,5.913,2.91,11.443,7.784,14.792
	c4.874,3.351,11.079,4.084,16.601,1.963l47.348-18.186c2.393-0.919,4.98-0.613,7.094,0.839c2.114,1.453,3.327,3.757,3.327,6.322
	v20.888c0,3.153-1.978,6.03-4.921,7.161l-57.528,22.097c-11.785,4.527-19.704,16.051-19.704,28.675v49.514
	c0,33.979,27.644,61.622,61.622,61.622h34.492c20.501,0,39.601-10.153,51.091-27.159c2.318-3.433,1.416-8.095-2.016-10.414
	c-3.435-2.317-8.096-1.416-10.414,2.016C303.213,489.315,288.76,497,273.248,497h-34.492c-25.707,0-46.622-20.915-46.622-46.622
	v-49.514c0-6.46,4.052-12.355,10.083-14.673l57.527-22.096c8.698-3.341,14.543-11.846,14.543-21.164v-20.888
	c0-7.47-3.676-14.455-9.832-18.685c-6.157-4.23-13.995-5.157-20.968-2.479l-47.347,18.185c-1.261,0.486-2.251,0.005-2.728-0.322
	c-0.479-0.328-1.279-1.08-1.279-2.43v-39.619c23.858-11.971,47.292-13.658,72.027-15.431c17.647-1.265,35.817-2.576,55.709-7.403
	v192.7c0,4.143,3.357,7.5,7.5,7.5s7.5-3.357,7.5-7.5v-202.34c0-0.012,0-0.025,0-0.038v-70.88c0-7.041,5.728-12.769,12.768-12.769
	h31.285c19.502,0,35.541-15.064,37.119-34.166h35.258c11.471,0,22.544-4.158,31.18-11.71l23.066-20.169
	c4.103-3.588,6.456-8.771,6.455-14.222C512.002,74.815,509.649,69.632,505.547,66.046z M95.823,111.366h-27.62V90.575
	c0-4.143-3.357-7.5-7.5-7.5s-7.5,3.357-7.5,7.5v19.905c-5.075-1.209-9.821-3.631-13.807-7.115L16.332,83.196
	c-1.157-1.012-1.33-2.27-1.33-2.93c0-0.659,0.173-1.917,1.33-2.929l23.064-20.169c3.985-3.485,8.732-5.907,13.807-7.116v5.239
	c0,4.143,3.357,7.5,7.5,7.5s7.5-3.357,7.5-7.5v-6.125h27.62V111.366z M401.181,123.274c0,12.273-9.984,22.258-22.258,22.258h-31.285
	c-15.312,0-27.768,12.457-27.768,27.769v65.085c-20.098,5.275-38.725,6.621-56.782,7.916c-24.07,1.725-46.982,3.374-70.954,13.825
	v-86.826c0-15.311-12.456-27.769-27.768-27.769h-31.285c-12.273,0-22.258-9.984-22.258-22.258V37.258
	c0-12.273,9.984-22.258,22.258-22.258h245.842c12.273,0,22.258,9.984,22.258,22.258L401.181,123.274L401.181,123.274z
	 M443.801,111.366h-27.62v-62.2h27.62V111.366z M495.673,83.196l-23.065,20.168c-3.985,3.485-8.732,5.907-13.807,7.116V50.052
	c5.075,1.209,9.821,3.631,13.806,7.115l23.066,20.171c1.156,1.011,1.329,2.269,1.329,2.928
	C497.002,80.926,496.829,82.184,495.673,83.196z M319.228,51.464c-4.143,0-7.5,3.357-7.5,7.5v10.495c0,4.143,3.357,7.5,7.5,7.5
	s7.5-3.357,7.5-7.5V58.964C326.728,54.821,323.37,51.464,319.228,51.464z M286.916,167.877c-11.904,0-21.59,9.686-21.59,21.59
	s9.686,21.59,21.59,21.59s21.59-9.686,21.59-21.59S298.82,167.877,286.916,167.877z M286.916,196.057c-3.634,0-6.59-2.956-6.59-6.59
	s2.956-6.59,6.59-6.59s6.59,2.956,6.59,6.59C293.506,193.101,290.55,196.057,286.916,196.057z M278.325,74.853
	c2.722-3.123,2.396-7.86-0.727-10.582c-3.125-2.721-7.861-2.396-10.582,0.727c-2.781,3.191-6.796,5.021-11.015,5.021
	c-4.219,0-8.233-1.83-11.015-5.021c-2.722-3.122-7.46-3.447-10.582-0.727c-3.122,2.722-3.448,7.459-0.727,10.582
	c5.631,6.461,13.767,10.166,22.323,10.166C264.559,85.019,272.694,81.313,278.325,74.853z"/>
<g>
</g>
<g>
</g>
<g>
</g>
<g>
</g>
<g>
</g>
<g>
</g>
<g>
</g>
<g>
</g>
<g>
</g>
<g>
</g>
<g>
</g>
<g>
</g>
<g>
</g>
<g>
</g>
<g>
</g>
</svg>
