<?xml version="1.0" encoding="iso-8859-1"?>
<!-- Generator: Adobe Illustrator 19.0.0, SVG Export Plug-In . SVG Version: 6.00 Build 0)  -->
<svg version="1.1" id="Capa_1" xmlns="http://www.w3.org/2000/svg" xmlns:xlink="http://www.w3.org/1999/xlink" x="0px" y="0px"
	 viewBox="0 0 511.998 511.998" style="enable-background:new 0 0 511.998 511.998;" xml:space="preserve">
<path style="fill:#495059;" d="M167.098,413.796c0-8.374,6.788-15.162,15.162-15.162h147.48c8.374,0,15.162,6.788,15.162,15.162
	s-6.788,15.162-15.162,15.162H182.26C173.886,428.958,167.098,422.17,167.098,413.796z"/>
<path style="fill:#E68392;" d="M486.594,94.468H25.406c-9.889,0-17.906-8.017-17.906-17.906v-8.447
	c0-9.889,8.017-17.906,17.906-17.906h461.188c9.889,0,17.906,8.017,17.906,17.906v8.447C504.5,86.451,496.483,94.468,486.594,94.468
	z"/>
<rect x="109.83" y="50.209" style="opacity:0.25;fill:#8D4330;enable-background:new    ;" width="292.34" height="44.26"/>
<path style="fill:#E68392;" d="M273.411,230.87v41.836c0,9.616-7.795,17.411-17.411,17.411s-17.411-7.795-17.411-17.411V230.87
	H273.411z"/>
<rect x="238.59" y="230.869" style="opacity:0.25;fill:#8D4330;enable-background:new    ;" width="34.823" height="20.18"/>
<path style="fill:#C7C9CC;" d="M256,373.606c-1.374,0-2.746-0.186-4.081-0.56l-89.749-25.084
	c-6.551-1.83-11.081-7.801-11.081-14.602V230.87c0-8.374,6.788-15.162,15.162-15.162c8.374,0,15.162,6.788,15.162,15.162v90.985
	L256,342.702l74.588-20.847V230.87c0-8.374,6.788-15.162,15.162-15.162s15.162,6.788,15.162,15.162v102.49
	c0,6.802-4.53,12.772-11.081,14.602l-89.75,25.084C258.746,373.42,257.374,373.606,256,373.606z"/>
<path style="fill:#E68392;" d="M382.906,230.871H129.094c-11.444,0-20.722-9.277-20.722-20.721v-15.104
	c0-11.444,9.277-20.722,20.722-20.722h253.813c11.444,0,20.722,9.277,20.722,20.722v15.104
	C403.628,221.593,394.351,230.871,382.906,230.871z"/>
<rect x="171.49" y="128.179" style="fill:#F8B8BD;" width="169.03" height="46.14"/>
<rect x="171.49" y="128.179" style="opacity:0.15;fill:#8D4330;enable-background:new    ;" width="169.03" height="23.07"/>
<path style="fill:#E68392;" d="M353.848,128.182H158.152c-8.659,0-15.679-7.02-15.679-15.679V32.174
	c0-8.659,7.02-15.679,15.679-15.679h195.696c8.659,0,15.679,7.02,15.679,15.679v80.329
	C369.527,121.162,362.507,128.182,353.848,128.182z"/>
<g>
	<ellipse style="fill:#F8B8BD;" cx="198.33" cy="81.957" rx="21.279" ry="16.945"/>
	<ellipse style="fill:#F8B8BD;" cx="313.67" cy="81.957" rx="21.279" ry="16.945"/>
</g>
<path style="fill:#F9E78D;" d="M280.811,317.925h-49.622c-6.472,0-11.719,5.247-11.719,11.719v99.314
	c0,6.472,5.247,11.719,11.719,11.719h49.622c6.472,0,11.719-5.247,11.719-11.719v-99.314
	C292.53,323.172,287.283,317.925,280.811,317.925z"/>
<g>
	<path style="opacity:0.15;fill:#8D4330;enable-background:new    ;" d="M292.53,396.411c-39.376,0.879-55.012-46.359-49.914-78.486
		h-11.427c-6.472,0-11.719,5.247-11.719,11.719v99.314c0,6.472,5.247,11.719,11.719,11.719h49.622
		c6.472,0,11.719-5.247,11.719-11.719V396.411z"/>
	<path style="opacity:0.15;fill:#8D4330;enable-background:new    ;" d="M158.152,128.182h118.545
		c-62.875-25.384-95.24-53.782-78.366-111.687h-40.179c-8.659,0-15.679,7.02-15.679,15.679v80.329
		C142.473,121.162,149.493,128.182,158.152,128.182z"/>
</g>
<path d="M256,464.628c-4.143,0-7.5,3.357-7.5,7.5v22.99c0,4.143,3.357,7.5,7.5,7.5s7.5-3.357,7.5-7.5v-22.99
	C263.5,467.985,260.143,464.628,256,464.628z M204.54,457.021c-4.022-0.995-8.087,1.464-9.078,5.484l-4.895,19.841
	c-0.992,4.022,1.463,8.086,5.484,9.078c0.604,0.149,1.208,0.221,1.803,0.221c3.369,0,6.433-2.287,7.275-5.705l4.895-19.841
	C211.017,462.078,208.561,458.014,204.54,457.021z M316.538,462.506c-0.991-4.021-5.058-6.479-9.078-5.484
	c-4.021,0.992-6.477,5.057-5.484,9.078l4.896,19.841c0.843,3.418,3.906,5.705,7.275,5.705c0.595,0,1.199-0.071,1.803-0.221
	c4.022-0.992,6.477-5.057,5.484-9.078L316.538,462.506z M155.512,464.65c-3.911-1.34-8.183,0.74-9.529,4.658l-8.157,23.757
	c-1.345,3.918,0.74,8.184,4.658,9.529c0.807,0.276,1.628,0.408,2.437,0.408c3.114,0,6.024-1.956,7.093-5.066l8.157-23.757
	C161.515,470.262,159.43,465.996,155.512,464.65z M366.018,469.309c-1.346-3.92-5.617-6-9.529-4.658
	c-3.918,1.346-6.003,5.611-4.658,9.529l8.157,23.757c1.068,3.111,3.978,5.066,7.093,5.066c0.809,0,1.63-0.132,2.436-0.408
	c3.918-1.346,6.003-5.611,4.658-9.529L366.018,469.309z M301.268,50.039c-4.143,0-7.5,3.357-7.5,7.5v7.514
	c0,4.143,3.357,7.5,7.5,7.5s7.5-3.357,7.5-7.5v-7.514C308.768,53.396,305.41,50.039,301.268,50.039z M486.594,42.709H377.027V32.174
	c0-12.781-10.398-23.179-23.18-23.179H158.152c-12.781,0-23.18,10.397-23.18,23.179v10.535H78.516c-4.143,0-7.5,3.358-7.5,7.5
	c0,4.143,3.357,7.5,7.5,7.5h56.457v29.259H25.406C19.668,86.968,15,82.3,15,76.562v-8.447c0-5.738,4.668-10.406,10.406-10.406
	h18.381c4.143,0,7.5-3.357,7.5-7.5c0-4.142-3.357-7.5-7.5-7.5H25.406C11.398,42.709,0,54.106,0,68.115v8.447
	c0,14.009,11.398,25.405,25.406,25.405h109.566v10.535c0,12.781,10.398,23.18,23.18,23.18h5.835v31.142h-34.894
	c-15.562,0-28.222,12.66-28.222,28.221v15.105c0,15.561,12.66,28.222,28.222,28.222h14.495v94.989
	c0,10.127,6.812,19.102,16.563,21.826l51.818,14.483v21.466h-29.71c-12.495,0-22.661,10.166-22.661,22.662
	c0,12.495,10.166,22.661,22.661,22.661h31.235c2.928,6.881,9.756,11.719,17.694,11.719h49.623c7.938,0,14.766-4.837,17.693-11.719
	h17.669c4.143,0,7.5-3.358,7.5-7.5c0-4.143-3.357-7.5-7.5-7.5H300.03v-15.323h29.709c4.225,0,7.662,3.438,7.662,7.662
	c0,1.056-0.208,2.074-0.619,3.027c-1.638,3.805,0.117,8.217,3.922,9.855c0.967,0.416,1.973,0.613,2.963,0.613
	c2.905,0,5.67-1.698,6.893-4.535c1.222-2.838,1.842-5.853,1.842-8.961c0-12.496-10.166-22.662-22.662-22.662h-29.71v-21.466
	l51.817-14.483c9.752-2.725,16.563-11.699,16.563-21.826v-94.989h14.495c15.561,0,28.222-12.66,28.222-28.222v-15.105
	c0-15.561-12.66-28.221-28.222-28.221h-34.894v-31.142h5.835c12.781,0,23.18-10.398,23.18-23.18v-10.535h109.566
	c14.009,0,25.406-11.396,25.406-25.405v-8.447C512,54.106,500.603,42.709,486.594,42.709z M211.97,421.458h-29.71
	c-4.225,0-7.661-3.437-7.661-7.661c0-4.225,3.437-7.662,7.661-7.662h29.71V421.458z M211.97,354.094l-47.782-13.354
	c-3.296-0.921-5.599-3.955-5.599-7.379v-94.989h15.323v83.484c0,3.364,2.241,6.317,5.482,7.224l32.576,9.105V354.094z
	 M285.03,428.958c0,2.326-1.893,4.219-4.219,4.219h-49.623c-2.326,0-4.219-1.893-4.219-4.219v-99.315
	c0-2.326,1.893-4.219,4.219-4.219h49.623c2.326,0,4.219,1.892,4.219,4.219V428.958z M298.804,322.951
	c-2.726-7.302-9.751-12.526-17.993-12.526h-49.623c-8.242,0-15.267,5.224-17.993,12.526l-24.284-6.787v-77.793h42.177v34.336
	c0,13.736,11.175,24.911,24.911,24.911c13.736,0,24.911-11.175,24.911-24.911v-34.336h42.177v77.793L298.804,322.951z
	 M246.089,272.707v-34.336h19.822v34.336c0,5.465-4.446,9.911-9.911,9.911C250.535,282.618,246.089,278.172,246.089,272.707z
	 M353.411,333.36c0,3.424-2.303,6.458-5.6,7.379l-47.781,13.354v-15.91l32.576-9.105c3.24-0.906,5.481-3.859,5.481-7.224V238.37
	h15.323v94.99H353.411z M382.906,181.824c7.29,0,13.222,5.931,13.222,13.221v15.105c0,7.29-5.932,13.222-13.222,13.222H273.43
	c-0.006,0-0.013-0.001-0.019-0.001s-0.013,0.001-0.019,0.001h-34.784c-0.007,0-0.013-0.001-0.019-0.001
	c-0.007,0-0.013,0.001-0.019,0.001H129.094c-7.29,0-13.222-5.932-13.222-13.222v-15.105c0-7.29,5.932-13.221,13.222-13.221H382.906z
	 M178.987,166.824v-31.142h154.025v31.142H178.987z M362.027,112.503c0,4.511-3.669,8.18-8.18,8.18H158.152
	c-4.511,0-8.18-3.669-8.18-8.18V32.174c0-4.51,3.669-8.179,8.18-8.179h195.695c4.511,0,8.18,3.669,8.18,8.179L362.027,112.503
	L362.027,112.503z M497,76.562c0,5.737-4.668,10.405-10.406,10.405H377.027V57.709h109.566c5.738,0,10.406,4.668,10.406,10.406
	L497,76.562L497,76.562z M210.732,50.039c-4.143,0-7.5,3.357-7.5,7.5v7.514c0,4.143,3.357,7.5,7.5,7.5s7.5-3.357,7.5-7.5v-7.514
	C218.232,53.396,214.875,50.039,210.732,50.039z M272.862,59.732c-3.122-2.722-7.86-2.396-10.582,0.727
	c-1.586,1.82-3.875,2.864-6.28,2.864s-4.694-1.044-6.28-2.864c-2.723-3.122-7.46-3.448-10.582-0.727
	c-3.122,2.722-3.448,7.459-0.727,10.582c4.437,5.09,10.847,8.009,17.589,8.009s13.152-2.919,17.589-8.009
	C276.31,67.191,275.984,62.454,272.862,59.732z"/>
<g>
</g>
<g>
</g>
<g>
</g>
<g>
</g>
<g>
</g>
<g>
</g>
<g>
</g>
<g>
</g>
<g>
</g>
<g>
</g>
<g>
</g>
<g>
</g>
<g>
</g>
<g>
</g>
<g>
</g>
</svg>
