<?xml version="1.0" encoding="iso-8859-1"?>
<!-- Generator: Adobe Illustrator 19.0.0, SVG Export Plug-In . SVG Version: 6.00 Build 0)  -->
<svg version="1.1" id="Capa_1" xmlns="http://www.w3.org/2000/svg" xmlns:xlink="http://www.w3.org/1999/xlink" x="0px" y="0px"
	 viewBox="0 0 512.002 512.002" style="enable-background:new 0 0 512.002 512.002;" xml:space="preserve">
<path style="fill:#F5D7B7;" d="M71.054,161.546V26.333c0-10.401,8.432-18.833,18.833-18.833h122.358
	c10.401,0,18.833,8.432,18.833,18.833v135.213L71.054,161.546L71.054,161.546z"/>
<path style="opacity:0.15;fill:#8D4330;enable-background:new    ;" d="M130.019,7.5H89.887c-10.401,0-18.833,8.432-18.833,18.833
	v135.213h86.471C136.667,126.686,126.229,76.536,130.019,7.5z"/>
<g>
	<path style="fill:#F5D7B7;" d="M417.777,480.507h-58.555V449.61h58.555c8.532,0,15.448,6.917,15.448,15.449l0,0
		C433.226,473.59,426.309,480.507,417.777,480.507z"/>
	<path style="fill:#F5D7B7;" d="M423.775,449.61h-64.553v-30.897h64.553c8.532,0,15.449,6.917,15.449,15.448l0,0
		C439.224,442.693,432.307,449.61,423.775,449.61z"/>
</g>
<path style="opacity:0.15;fill:#8D4330;enable-background:new    ;" d="M423.775,449.61h-64.553v-30.897h64.553
	c8.532,0,15.449,6.917,15.449,15.448l0,0C439.224,442.693,432.307,449.61,423.775,449.61z"/>
<g>
	<path style="fill:#F5D7B7;" d="M428.574,418.713h-69.352v-30.897h69.352c8.532,0,15.448,6.916,15.448,15.448l0,0
		C444.023,411.796,437.106,418.713,428.574,418.713z"/>
	<path style="fill:#F5D7B7;" d="M434.572,387.816h-75.35v-30.897h75.35c8.532,0,15.449,6.917,15.449,15.449l0,0
		C450.021,380.899,443.104,387.816,434.572,387.816z"/>
</g>
<path style="opacity:0.15;fill:#8D4330;enable-background:new    ;" d="M434.572,387.816h-75.35v-30.897h75.35
	c8.532,0,15.449,6.917,15.449,15.449l0,0C450.021,380.899,443.104,387.816,434.572,387.816z"/>
<path style="fill:#F5D7B7;" d="M446.723,356.918h-87.501v-36.436h87.501c10.061,0,18.218,8.156,18.218,18.218l0,0
	C464.941,348.762,456.785,356.918,446.723,356.918z"/>
<path style="fill:#DDEFF5;" d="M47.061,404.552V160.217c0-18.518,15.012-33.531,33.53-33.531h140.95
	c18.518,0,33.53,15.012,33.53,33.531v114.408c0,12.076,9.789,21.865,21.865,21.865h82.536c18.518,0,33.53,15.012,33.53,33.53v140.95
	c0,18.518-15.012,33.53-33.53,33.53H147.009C91.809,504.5,47.061,459.752,47.061,404.552z"/>
<g>
	<path style="opacity:0.1;fill:#003A63;enable-background:new    ;" d="M255.072,224.661v-64.444
		c0-18.518-15.012-33.531-33.53-33.531H80.591c-18.518,0-33.53,15.012-33.53,33.531v10.167l171.529,69.681L255.072,224.661z"/>
	<path style="opacity:0.1;fill:#003A63;enable-background:new    ;" d="M354.48,296.49l-120.242,50.77L170.362,504.5h116.585
		l83.72-206.089c-3.502-1.24-7.268-1.921-11.194-1.921L354.48,296.49L354.48,296.49z"/>
</g>
<path style="opacity:0.5;fill:#FFFFFF;enable-background:new    ;" d="M276.937,296.49c-12.076,0-21.865-9.789-21.865-21.865
	v-49.964l-208.011,87.83v92.061c0,7.141,0.763,14.102,2.186,20.818L354.48,296.49H276.937z"/>
<path style="opacity:0.1;fill:#003A63;enable-background:new    ;" d="M385.366,492.273
	C147.658,441.609,127.658,273.52,126.052,126.686H80.591c-18.518,0-33.53,15.012-33.53,33.531v244.335
	c0,55.2,44.748,99.948,99.948,99.948h212.464C369.901,504.5,379.216,499.739,385.366,492.273z"/>
<path d="M472.441,338.701c0-14.182-11.537-25.719-25.718-25.719h-49.939c-4.639-10.118-13.269-18.033-23.869-21.72
	c-0.055-0.017-0.109-0.04-0.164-0.056c-4.168-1.43-8.632-2.217-13.278-2.217h-4.935c-0.038,0-0.076,0-0.114,0h-77.487
	c-7.921,0-14.365-6.444-14.365-14.365v-49.923c0-0.026,0-0.051,0-0.077v-64.407c0-16.547-9.852-30.828-23.993-37.311V26.333
	C238.579,11.813,226.766,0,212.246,0H89.887c-14.52,0-26.333,11.813-26.333,26.333v96.573
	c-14.141,6.483-23.993,20.764-23.993,37.311v10.236c0,0.018,0,0.036,0,0.054v28.203c0,4.142,3.358,7.5,7.5,7.5s7.5-3.358,7.5-7.5
	v-17.185l144.432,58.673L54.561,301.183v-66.738c0-4.143-3.358-7.5-7.5-7.5c-4.142,0-7.5,3.357-7.5,7.5v78.006
	c0,0.026,0,0.051,0,0.077v92.023c0,7.634,0.806,15.083,2.327,22.27c0.003,0.013,0.006,0.027,0.009,0.04
	C52.196,475.438,95.411,512,147.009,512h23.309c0.014,0,0.027,0.002,0.041,0.002c0.009,0,0.018-0.002,0.026-0.002h116.518
	c0.014,0,0.027,0.002,0.041,0.002c0.009,0,0.017-0.002,0.026-0.002h72.502c16.548,0,30.828-9.852,37.312-23.993h20.993
	c12.654,0,22.948-10.295,22.948-22.948c0-4.511-1.313-8.719-3.571-12.271c5.789-4.17,9.569-10.963,9.569-18.627
	c0-4.77-1.464-9.203-3.965-12.878c5.331-4.206,8.763-10.717,8.763-18.02c0-4.511-1.314-8.718-3.57-12.27
	c5.789-4.17,9.569-10.964,9.569-18.627c0-3.38-0.74-6.588-2.058-9.479C465.354,359.302,472.441,349.815,472.441,338.701z
	 M78.554,26.333C78.554,20.084,83.638,15,89.887,15h122.358c6.249,0,11.333,5.084,11.333,11.333v92.905
	c-0.675-0.033-1.354-0.052-2.037-0.052H80.591c-0.683,0-1.362,0.019-2.037,0.052V26.333z M54.561,165.335v-5.119
	c0-14.354,11.677-26.03,26.03-26.03h140.95c14.353,0,26.03,11.677,26.03,26.03v59.47l-29.036,12.26L54.561,165.335z M54.561,404.552
	v-87.086l193.011-81.496v38.655c0,16.192,13.173,29.365,29.365,29.365h40.5L55.126,414.747
	C54.757,411.398,54.561,407.998,54.561,404.552z M165.313,497H147.01c-42.23,0-77.937-28.462-88.947-67.211l162.412-68.577
	L165.313,497z M385.503,470.97c0,14.354-11.677,26.03-26.031,26.03h-61.383l8.754-21.549c1.559-3.838-0.289-8.213-4.126-9.772
	c-3.836-1.56-8.212,0.288-9.771,4.125L281.898,497H181.503l58.515-144.04l115.98-48.971h3.474c0.277,0,0.55,0.012,0.825,0.021
	l-53.922,132.736c-1.559,3.837,0.289,8.212,4.126,9.771c0.925,0.376,1.88,0.554,2.82,0.554c2.961,0,5.768-1.767,6.951-4.68
	l54.265-133.579c6.63,4.723,10.966,12.466,10.966,21.208L385.503,470.97L385.503,470.97z M417.777,473.007h-17.326
	c0.033-0.675,0.052-1.354,0.052-2.037v-13.86h17.274c4.383,0,7.948,3.566,7.948,7.949
	C425.726,469.441,422.16,473.007,417.777,473.007z M423.775,442.109h-23.272v-15.897h23.272c4.383,0,7.949,3.565,7.949,7.948
	S428.158,442.109,423.775,442.109z M428.574,411.213h-28.071v-15.897h28.071c4.383,0,7.948,3.566,7.948,7.949
	C436.523,407.647,432.957,411.213,428.574,411.213z M434.572,380.315h-34.069v-15.896h34.069c4.383,0,7.949,3.565,7.949,7.948
	S438.955,380.315,434.572,380.315z M446.723,349.419h-46.22V330.02c0-0.683-0.018-1.362-0.052-2.037h46.271
	c5.91,0,10.718,4.809,10.718,10.719C457.441,344.611,452.633,349.419,446.723,349.419z"/>
<g>
</g>
<g>
</g>
<g>
</g>
<g>
</g>
<g>
</g>
<g>
</g>
<g>
</g>
<g>
</g>
<g>
</g>
<g>
</g>
<g>
</g>
<g>
</g>
<g>
</g>
<g>
</g>
<g>
</g>
</svg>
